<svg width="84" height="74" viewBox="0 0 84 74" fill="none" xmlns="http://www.w3.org/2000/svg">
<path d="M32.5471 33.3659C31.6965 33.3659 31.0043 34.097 31.0043 34.996C31.0043 35.8963 31.6965 36.6274 32.5471 36.6274C33.3989 36.6274 34.0923 35.8963 34.0923 34.996C34.0923 34.097 33.3989 33.3659 32.5471 33.3659ZM32.5471 37.5811C31.192 37.5811 30.0904 36.4214 30.0904 34.996C30.0904 33.5719 31.192 32.4122 32.5471 32.4122C33.9022 32.4122 35.0063 33.5719 35.0063 34.996C35.0063 36.4214 33.9022 37.5811 32.5471 37.5811Z" fill="#FFC225"/>
<path d="M35.4986 38.3911C35.4255 38.3911 35.3524 38.3644 35.3037 38.3021C35.2549 38.2512 35.2196 38.1749 35.2196 38.0974C35.2196 38.0224 35.2549 37.9588 35.3037 37.8939C35.4011 37.7922 35.5839 37.7795 35.6936 37.9079C35.7424 37.9588 35.7679 38.0224 35.7679 38.0974C35.7679 38.1749 35.7424 38.2512 35.6936 38.3021C35.6327 38.3644 35.573 38.3911 35.4986 38.3911Z" fill="#FFC225"/>
<path d="M30.8447 39.3181C30.7094 39.2558 30.6375 39.0905 30.6985 38.9493C30.7582 38.7967 30.9166 38.7332 31.0518 38.7967V38.7853C31.1981 38.8476 31.259 39.0142 31.2103 39.1655C31.1603 39.2812 31.0628 39.3448 30.9543 39.3448C30.9166 39.3448 30.88 39.332 30.8447 39.3181ZM33.8913 39.1655C33.8291 39.0269 33.9022 38.8476 34.0363 38.7967C34.1825 38.7332 34.3409 38.7967 34.4031 38.9493C34.4518 39.0905 34.3897 39.2558 34.2446 39.3181C34.2446 39.3181 34.2447 39.3181 34.2568 39.3181C34.2191 39.332 34.1825 39.3448 34.1471 39.3448C34.0363 39.3448 33.94 39.2812 33.8913 39.1655ZM32.2705 39.3816C32.2705 39.2303 32.3911 39.1032 32.5495 39.1032C32.6958 39.1032 32.8176 39.2303 32.8176 39.3816C32.8176 39.5482 32.6958 39.6754 32.5495 39.6754C32.3911 39.6754 32.2705 39.5482 32.2705 39.3816Z" fill="#FFC225"/>
<path d="M29.6005 38.3911C29.5152 38.3911 29.4421 38.3529 29.3933 38.3021C29.3568 38.2512 29.3214 38.1749 29.3214 38.1101C29.3214 38.0223 29.3446 37.9588 29.4055 37.8939C29.503 37.7922 29.687 37.7922 29.7845 37.8939C29.8442 37.9588 29.8686 38.0223 29.8686 38.1101C29.8686 38.1749 29.8442 38.2512 29.7845 38.3021C29.7357 38.3644 29.6748 38.3911 29.6005 38.3911Z" fill="#FFC225"/>
<path d="M31.9171 58.3674C31.8562 58.3674 31.7818 58.3407 31.7331 58.2898C31.6721 58.2275 31.6478 58.1512 31.6478 58.0736C31.6478 57.9986 31.6721 57.9351 31.7209 57.8702C31.8196 57.7698 32.0255 57.7697 32.1121 57.8842C32.1608 57.935 32.1962 57.9986 32.1962 58.0736C32.1962 58.1512 32.1608 58.2275 32.1121 58.2784C32.0633 58.3292 31.989 58.3674 31.9171 58.3674Z" fill="#FFC225"/>
<path d="M30.8934 53.599C30.7582 53.5354 30.685 53.3689 30.7472 53.2303C30.8069 53.0777 30.9653 53.0014 31.1006 53.065C31.2468 53.1285 31.3187 53.2938 31.259 53.4464C31.2103 53.5482 31.1116 53.6232 31.0031 53.6232C30.9653 53.6232 30.9288 53.6117 30.8934 53.599ZM30.4048 54.9977C30.4048 54.9977 30.4048 54.9977 30.417 54.9977C30.417 54.8439 30.5266 54.718 30.685 54.718C30.8313 54.718 30.9544 54.8439 30.9544 54.9977H30.9653C30.9653 55.1618 30.8313 55.2902 30.685 55.2902C30.5266 55.2902 30.4048 55.1618 30.4048 54.9977ZM30.7472 56.7779C30.6985 56.6381 30.7582 56.46 30.9056 56.4092C31.0385 56.3456 31.1981 56.4092 31.259 56.5478V56.5618C31.3187 56.7004 31.2468 56.8657 31.1116 56.9305C31.075 56.9432 31.0385 56.956 31.0031 56.956C30.8934 56.956 30.7959 56.8924 30.7472 56.7779Z" fill="#FFC225"/>
<path d="M31.9171 52.199C31.8428 52.199 31.7818 52.1749 31.7209 52.124C31.6721 52.0732 31.6478 51.9968 31.6478 51.9206C31.6478 51.8443 31.6721 51.7667 31.7209 51.7158C31.8196 51.6141 32.0255 51.6141 32.1121 51.7298C32.1608 51.7667 32.1962 51.8443 32.1962 51.9206C32.1962 51.9968 32.1608 52.0732 32.0987 52.124C32.0633 52.1749 31.989 52.199 31.9171 52.199Z" fill="#FFC225"/>
<path d="M33.9888 58.3674C33.9144 58.3674 33.8535 58.3407 33.7938 58.2784C33.745 58.2275 33.7072 58.1512 33.7072 58.0736C33.7072 57.9986 33.745 57.9351 33.7938 57.8702C33.8779 57.7698 34.085 57.7697 34.1825 57.8842C34.2312 57.935 34.2678 58.0113 34.2678 58.0736C34.2678 58.1512 34.2312 58.2148 34.1825 58.2784C34.1216 58.3407 34.0607 58.3674 33.9888 58.3674Z" fill="#FFC225"/>
<path d="M32.9639 53.599C32.831 53.5354 32.7567 53.3689 32.8176 53.2303C32.8798 53.0777 33.0382 53.0141 33.1711 53.065C33.3173 53.1285 33.3794 53.2938 33.3173 53.4464H33.3307C33.2819 53.5609 33.1845 53.6232 33.0748 53.6232C33.0382 53.6232 33.0004 53.6117 32.9639 53.599ZM32.4776 54.9977C32.4776 54.8439 32.5983 54.718 32.7567 54.718C32.9029 54.718 33.026 54.8439 33.026 54.9977C33.026 55.1618 32.9029 55.2902 32.7567 55.2902C32.5983 55.2902 32.4776 55.1618 32.4776 54.9977ZM32.8176 56.7779C32.7701 56.6381 32.831 56.46 32.9639 56.4092C33.1101 56.3456 33.2685 56.4092 33.3307 56.5618C33.3916 56.7004 33.3173 56.8657 33.1845 56.9305C33.1467 56.9432 33.1101 56.956 33.0748 56.956C32.9639 56.956 32.8664 56.8924 32.8176 56.7779Z" fill="#FFC225"/>
<path d="M33.9888 52.199C33.9144 52.199 33.8425 52.1749 33.7938 52.124C33.745 52.0732 33.7072 51.9968 33.7072 51.9206C33.7072 51.8443 33.745 51.7667 33.7938 51.7158C33.8779 51.6141 34.085 51.6141 34.1825 51.7158C34.2312 51.7667 34.2678 51.8443 34.2678 51.9206C34.2678 51.9968 34.2312 52.0604 34.1825 52.124C34.1216 52.1749 34.0607 52.199 33.9888 52.199Z" fill="#FFC225"/>
<path d="M52.0963 58.3674C52.011 58.3674 51.9379 58.3292 51.8892 58.2784C51.8404 58.2275 51.8173 58.1512 51.8173 58.0736C51.8173 58.0113 51.8526 57.9351 51.9014 57.8702C51.9989 57.7698 52.1938 57.7697 52.2913 57.8842C52.3401 57.935 52.3644 57.9986 52.3644 58.0736C52.3644 58.1512 52.3401 58.2275 52.2913 58.2784C52.2316 58.3292 52.1707 58.3674 52.0963 58.3674Z" fill="#FFC225"/>
<path d="M52.7544 53.4464C52.6935 53.2938 52.7666 53.1285 52.9006 53.065C53.0469 53.0014 53.2053 53.0777 53.2662 53.2303C53.315 53.3689 53.254 53.5354 53.1078 53.599C53.0846 53.6117 53.0359 53.6232 53.0103 53.6232C52.9006 53.6232 52.791 53.5482 52.7544 53.4464ZM53.0469 54.9977C53.0469 54.8439 53.1821 54.718 53.3272 54.718C53.4734 54.718 53.5965 54.8439 53.5965 54.9977C53.5965 55.1618 53.4734 55.2902 53.3272 55.2902C53.1687 55.2902 53.0469 55.1618 53.0469 54.9977ZM52.9006 56.9305C52.7666 56.8657 52.6935 56.7004 52.7544 56.5618C52.8153 56.4092 52.9737 56.3456 53.1078 56.4092C53.254 56.46 53.315 56.6253 53.254 56.7779H53.2662C53.2175 56.8924 53.1078 56.956 53.0103 56.956C52.9737 56.956 52.9384 56.9432 52.9006 56.9305Z" fill="#FFC225"/>
<path d="M52.0963 52.199C52.011 52.199 51.9379 52.1749 51.8892 52.1113C51.8526 52.0731 51.8173 51.9968 51.8173 51.9206C51.8173 51.8697 51.8282 51.7934 51.9014 51.7158C51.9867 51.6141 52.1938 51.6027 52.2913 51.7298C52.3401 51.7667 52.3644 51.8443 52.3644 51.9206C52.3644 51.9968 52.34 52.0732 52.2803 52.124C52.2316 52.1749 52.1707 52.199 52.0963 52.199Z" fill="#FFC225"/>
<path d="M50.0247 58.3674C49.9515 58.3674 49.8784 58.3407 49.8309 58.2784C49.7822 58.2275 49.7444 58.1512 49.7444 58.0736C49.7444 58.0228 49.7566 57.9478 49.8309 57.8702C49.9406 57.7698 50.11 57.7698 50.2075 57.8702C50.2806 57.9478 50.294 58.0228 50.294 58.0736C50.294 58.1512 50.2684 58.2275 50.2197 58.2784C50.1587 58.3407 50.099 58.3674 50.0247 58.3674Z" fill="#FFC225"/>
<path d="M50.6827 53.4464C50.6218 53.2938 50.6961 53.1285 50.829 53.065C50.9752 53.0014 51.1336 53.0777 51.1945 53.2303V53.2175C51.2433 53.3689 51.1824 53.5354 51.0495 53.599C51.013 53.6117 50.9752 53.6232 50.9386 53.6232C50.8289 53.6232 50.7315 53.5482 50.6827 53.4464ZM50.9752 54.9977C50.9752 54.8439 51.1105 54.718 51.2567 54.718C51.4017 54.718 51.5358 54.8439 51.5358 54.9977H51.5236C51.5236 55.1503 51.4017 55.2902 51.2567 55.2902C51.1105 55.2902 50.9752 55.1503 50.9752 54.9977ZM50.829 56.9305C50.6961 56.8657 50.6218 56.7004 50.6827 56.5618C50.7449 56.4092 50.9033 56.3456 51.0495 56.3965C51.1824 56.46 51.2433 56.6253 51.1945 56.7779C51.1458 56.8924 51.0495 56.956 50.9386 56.956C50.9033 56.956 50.8655 56.9432 50.829 56.9305Z" fill="#FFC225"/>
<path d="M50.0247 52.199C49.9515 52.199 49.8784 52.1749 49.8309 52.124C49.7822 52.0604 49.7444 51.9968 49.7444 51.9206C49.7444 51.8443 49.7822 51.7667 49.8309 51.7158C49.9406 51.6027 50.11 51.6141 50.2075 51.7158C50.2684 51.7667 50.294 51.8443 50.294 51.9206C50.294 51.9968 50.2684 52.0604 50.2197 52.124C50.1587 52.1749 50.099 52.199 50.0247 52.199Z" fill="#FFC225"/>
<path d="M32.5471 34.4416C32.2595 34.4416 32.0243 34.6908 32.0243 34.996C32.0243 35.3012 32.2595 35.5504 32.5471 35.5504C32.8359 35.5504 33.0711 35.3012 33.0711 34.996C33.0711 34.6908 32.8359 34.4416 32.5471 34.4416ZM32.5471 36.2663C31.8805 36.2663 31.3395 35.6966 31.3395 34.996C31.3395 34.2954 31.8805 33.727 32.5471 33.727C33.2137 33.727 33.756 34.2954 33.756 34.996C33.756 35.6966 33.2137 36.2663 32.5471 36.2663Z" fill="#FFC225"/>
<path d="M24.1167 5.16511C24.1167 4.96166 24.2629 4.80909 24.4469 4.79637C24.6407 4.79637 24.8003 4.94896 24.8003 5.15114C24.8003 5.34315 24.6541 5.50716 24.4579 5.50716C24.2751 5.50716 24.1167 5.35458 24.1167 5.16511ZM26.7123 5.5847C26.5308 5.57072 26.3845 5.39397 26.3955 5.20323C26.4077 4.99978 26.5795 4.84721 26.7611 4.87137C26.7611 4.87137 26.7611 4.87137 26.7733 4.87137C26.9561 4.88536 27.0913 5.04939 27.0779 5.25284C27.0657 5.44485 26.9195 5.5847 26.7379 5.5847C26.7379 5.5847 26.7245 5.5847 26.7123 5.5847ZM21.8378 5.34312C21.8147 5.15111 21.9475 4.97435 22.1425 4.94892C22.3253 4.93493 22.4959 5.07608 22.5215 5.26681C22.5446 5.46899 22.3984 5.63558 22.2168 5.66101C22.2034 5.66101 22.1912 5.67243 22.179 5.67243C22.0096 5.67243 21.8634 5.53385 21.8378 5.34312ZM28.9546 5.86447C28.7608 5.82505 28.6377 5.64827 28.6633 5.44482C28.6987 5.25281 28.8815 5.12698 29.0655 5.15114C29.2471 5.18929 29.3823 5.36728 29.3446 5.57073C29.3214 5.73604 29.1752 5.86447 29.0033 5.86447C28.9911 5.86447 28.968 5.86447 28.9546 5.86447ZM19.5955 5.76271C19.5468 5.5707 19.6699 5.38125 19.8515 5.33039C20.0355 5.29224 20.217 5.41815 20.2658 5.61016C20.3023 5.80089 20.1817 5.99033 19.9977 6.02975C19.9745 6.0412 19.9489 6.04124 19.9258 6.04124C19.7661 6.04124 19.6211 5.92801 19.5955 5.76271ZM31.1603 6.34764C30.9775 6.29678 30.8679 6.10479 30.9166 5.91532C30.9544 5.72332 31.1493 5.61015 31.3309 5.66101C31.5149 5.71187 31.6234 5.9026 31.5746 6.09333C31.5381 6.25736 31.3919 6.35913 31.2468 6.35913C31.2103 6.35913 31.1847 6.35909 31.1603 6.34764ZM17.391 6.38583C17.3289 6.19509 17.4398 6.00305 17.6092 5.93948C17.7932 5.87717 17.9869 5.99035 18.0357 6.16964C18.0978 6.3591 18.0004 6.5638 17.8164 6.62611C17.7798 6.63882 17.7445 6.63884 17.7189 6.63884C17.5726 6.63884 17.4264 6.53841 17.391 6.38583ZM15.2584 7.23774C15.1841 7.05845 15.2584 6.84232 15.4278 6.7673C15.4278 6.7673 15.4278 6.7673 15.44 6.7673C15.6119 6.68973 15.8056 6.77871 15.8787 6.95673C15.9518 7.13602 15.8678 7.35218 15.6959 7.42847C15.6606 7.44119 15.6118 7.45393 15.5631 7.45393C15.4278 7.45393 15.3072 7.37634 15.2584 7.23774ZM13.1977 8.29318C13.1124 8.11388 13.1746 7.89768 13.344 7.80994C13.5024 7.72093 13.7096 7.78455 13.8071 7.94859C13.8936 8.12788 13.8327 8.34402 13.673 8.43176V8.44573C13.6121 8.47116 13.5633 8.48261 13.5024 8.48261C13.3818 8.48261 13.2587 8.42033 13.1977 8.29318ZM11.2601 9.53804C11.1517 9.38545 11.2004 9.15784 11.3576 9.05611C11.5161 8.94167 11.7232 8.9798 11.8329 9.15781C11.9304 9.3104 11.8938 9.538 11.7354 9.65371V9.63974C11.6745 9.69188 11.6135 9.70332 11.5538 9.70332C11.4307 9.70332 11.3211 9.65376 11.2601 9.53804ZM9.44436 10.9889C9.32372 10.8363 9.34689 10.6074 9.49313 10.4802C9.63936 10.3531 9.8587 10.3785 9.96838 10.5311C10.0902 10.6837 10.0659 10.9113 9.92087 11.0397C9.85872 11.0893 9.7856 11.116 9.71248 11.116C9.60281 11.116 9.50529 11.0766 9.44436 10.9889ZM7.7517 12.591C7.61643 12.4512 7.62863 12.2223 7.76268 12.0938C7.89795 11.9425 8.11605 11.9552 8.25132 12.0938C8.37197 12.235 8.37198 12.4626 8.23793 12.6038C8.177 12.6661 8.07951 12.7055 7.99543 12.7055C7.90891 12.7055 7.8236 12.6661 7.7517 12.591ZM6.21622 14.3585C6.06998 14.2313 6.0566 14.0012 6.17846 13.8499C6.30033 13.6973 6.52089 13.6833 6.65372 13.8118C6.79995 13.9376 6.82553 14.1678 6.70245 14.3191C6.63055 14.3966 6.53307 14.4475 6.43436 14.4475C6.36124 14.4475 6.27715 14.4221 6.21622 14.3585ZM4.83798 16.2531C4.67955 16.1387 4.64419 15.9225 4.75387 15.7572C4.86232 15.5907 5.08168 15.5538 5.2401 15.6797C5.38633 15.7941 5.42291 16.0115 5.31445 16.1756C5.25352 16.2659 5.14261 16.3294 5.03294 16.3294C4.95982 16.3294 4.90013 16.304 4.83798 16.2531ZM3.63274 18.2864C3.46091 18.1847 3.41216 17.9685 3.50965 17.7917C3.60714 17.6264 3.81432 17.5628 3.97274 17.6646C4.14456 17.765 4.19331 17.9825 4.09582 18.1478C4.03489 18.2622 3.924 18.3258 3.80214 18.3258C3.74121 18.3258 3.68148 18.3131 3.63274 18.2864ZM2.6091 20.4099C2.43727 20.3349 2.36536 20.1187 2.43725 19.9407C2.52256 19.7626 2.71876 19.6724 2.90034 19.7627C3.07217 19.839 3.14407 20.0551 3.05877 20.2332C3.01002 20.373 2.87719 20.448 2.75411 20.448C2.70536 20.448 2.65663 20.4366 2.6091 20.4099ZM1.76701 22.6352C1.58422 22.5601 1.50014 22.3554 1.55985 22.1786C1.62078 21.9879 1.81577 21.8849 1.99979 21.9485C2.18136 22.026 2.26788 22.2295 2.20695 22.419C2.1582 22.5601 2.02294 22.6491 1.8767 22.6491C1.84015 22.6491 1.80479 22.6492 1.76701 22.6352ZM1.12116 24.9125C0.939586 24.8604 0.828691 24.6709 0.877436 24.4789C0.926181 24.2895 1.10896 24.1738 1.29298 24.2246C1.47455 24.2768 1.58421 24.4674 1.54887 24.6582C1.50013 24.8235 1.36488 24.9252 1.20646 24.9252C1.18209 24.9252 1.14675 24.9252 1.12116 24.9125ZM0.670245 27.2522C0.48867 27.214 0.353426 27.0348 0.389985 26.8453C0.427762 26.6418 0.597129 26.5147 0.793328 26.5516C0.974903 26.5783 1.09799 26.7677 1.0724 26.9597C1.03706 27.1377 0.890835 27.2649 0.719008 27.2649C0.706822 27.2649 0.68365 27.2522 0.670245 27.2522ZM0.414351 29.6173C0.219371 29.6046 0.0853099 29.4266 0.0974962 29.2358C0.109682 29.0451 0.281509 28.8912 0.463084 28.9052C0.658065 28.9294 0.804313 29.0947 0.781159 29.2994C0.767754 29.4774 0.621513 29.6173 0.439938 29.6173C0.427751 29.6173 0.427756 29.6173 0.414351 29.6173ZM0 31.6518C0 31.4484 0.158428 31.2958 0.341222 31.2958C0.537421 31.2958 0.694641 31.4484 0.694641 31.6518C0.694641 31.8426 0.537421 32.0066 0.341222 32.0066C0.158428 32.0066 0 31.8426 0 31.6518ZM0.0974962 34.0551C0.0853099 33.8631 0.219371 33.6863 0.414351 33.6736C0.597145 33.6596 0.767736 33.7995 0.793328 34.0042V33.9915C0.804295 34.1949 0.658078 34.373 0.476502 34.3857C0.463097 34.3857 0.450916 34.3857 0.450916 34.3857C0.268122 34.3857 0.123087 34.2458 0.0974962 34.0551ZM0.389985 36.457C0.365612 36.2536 0.48867 36.0769 0.670245 36.0387C0.853039 36.0133 1.03706 36.1391 1.0724 36.3312C1.09799 36.5206 0.974903 36.7126 0.793328 36.7508C0.767736 36.7508 0.744583 36.7508 0.732396 36.7508C0.572756 36.7508 0.427762 36.6223 0.389985 36.457ZM0.890824 38.8107C0.842079 38.62 0.950535 38.428 1.13333 38.3784C1.31612 38.3275 1.50013 38.442 1.54887 38.6314C1.59762 38.8234 1.48675 39.0142 1.30396 39.0637C1.27958 39.0777 1.25519 39.0777 1.21863 39.0777C1.07239 39.0777 0.926164 38.976 0.890824 38.8107ZM1.59763 41.1123C1.5233 40.9342 1.6208 40.7308 1.79141 40.6532C1.9742 40.5896 2.16916 40.6799 2.23009 40.8707C2.30443 41.0487 2.20696 41.2521 2.03513 41.3284C1.98639 41.3399 1.95105 41.3399 1.91327 41.3399C1.76703 41.3399 1.64638 41.2648 1.59763 41.1123ZM2.5116 43.3375C2.42508 43.1595 2.48602 42.9433 2.67003 42.8543C2.82723 42.764 3.0344 42.8416 3.12092 43.0196C3.205 43.1964 3.13188 43.4138 2.96127 43.5015C2.91374 43.5282 2.86501 43.541 2.81626 43.541C2.68099 43.541 2.56035 43.4646 2.5116 43.3375ZM3.63274 45.4483C3.53525 45.283 3.58401 45.0668 3.74121 44.9651C3.89963 44.8507 4.10679 44.9015 4.21646 45.0668C4.31395 45.2321 4.26522 45.461 4.1068 45.5627C4.04587 45.6009 3.98615 45.6136 3.924 45.6136C3.81433 45.6136 3.69245 45.5627 3.63274 45.4483ZM4.9842 47.4192C4.86234 47.2654 4.8867 47.0505 5.03294 46.9233C5.17917 46.7949 5.39853 46.8216 5.52039 46.9742C5.63006 47.1268 5.60691 47.3556 5.46068 47.4815C5.39853 47.5324 5.32542 47.5591 5.25352 47.5591C5.14262 47.5591 5.04635 47.5082 4.9842 47.4192ZM6.54405 49.2236C6.54405 49.2236 6.54404 49.2236 6.53307 49.2236C6.39781 49.085 6.39781 48.8548 6.53307 48.7162C6.66591 48.5763 6.88648 48.5763 7.01931 48.7162C7.15336 48.8548 7.15336 49.071 7.01931 49.2121C6.95837 49.2871 6.86089 49.3266 6.7768 49.3266C6.69028 49.3266 6.60498 49.2871 6.54405 49.2236ZM8.31106 50.8016C8.15386 50.6871 8.12826 50.4583 8.23793 50.3057C8.34883 50.1404 8.56696 50.1149 8.72538 50.2294H8.71441C8.87161 50.3425 8.9094 50.5587 8.78632 50.7253C8.72538 50.8258 8.61571 50.8766 8.51822 50.8766C8.44511 50.8766 8.37199 50.8524 8.31106 50.8016ZM10.2865 52.0973C10.1146 52.0096 10.0537 51.7934 10.139 51.6141C10.2377 51.4488 10.4436 51.3738 10.6021 51.4755C10.7727 51.5632 10.8348 51.7794 10.7483 51.9587C10.6886 52.0732 10.5655 52.1482 10.4437 52.1482C10.3949 52.1482 10.3352 52.1367 10.2865 52.0973ZM23.3258 51.9714C23.2392 51.7934 23.3002 51.5772 23.4842 51.4882C23.6536 51.4119 23.8486 51.4755 23.9351 51.665C24.0192 51.8303 23.9473 52.0477 23.7754 52.1367C23.7267 52.1621 23.678 52.1749 23.6304 52.1749C23.5073 52.1749 23.3867 52.0973 23.3258 51.9714ZM21.1932 52.8348C21.131 52.6453 21.2285 52.4419 21.4113 52.3783C21.5819 52.3148 21.7769 52.4152 21.8378 52.6072C21.8988 52.7839 21.8025 52.9874 21.6185 53.051C21.5819 53.0649 21.5453 53.0777 21.51 53.0777C21.3747 53.0777 21.2407 52.9759 21.1932 52.8348ZM12.43 53.0777C12.2472 53.0014 12.1497 52.7979 12.2119 52.6186C12.2716 52.4292 12.4678 52.3275 12.6494 52.391C12.8322 52.4546 12.9309 52.6581 12.8699 52.8488C12.8212 53.0014 12.675 53.0904 12.5397 53.0904C12.5031 53.0904 12.4678 53.0904 12.43 53.0777ZM18.9631 53.3562C18.9375 53.1527 19.0606 52.976 19.2421 52.9365C19.4262 52.9124 19.6077 53.0383 19.6443 53.2303C19.6699 53.4337 19.5468 53.6118 19.3652 53.6499C19.3396 53.6499 19.3165 53.6499 19.3031 53.6499C19.1325 53.6499 18.9862 53.5215 18.9631 53.3562ZM14.6979 53.6626C14.5029 53.6372 14.3798 53.4464 14.4164 53.2544C14.442 53.065 14.6235 52.9251 14.8075 52.9632C14.9891 52.9874 15.1232 53.1794 15.0866 53.3689C15.0635 53.5481 14.916 53.674 14.7466 53.674C14.7332 53.674 14.7088 53.674 14.6979 53.6626ZM16.6842 53.4973C16.6842 53.3053 16.8305 53.1413 17.0243 53.1413C17.2192 53.1413 17.3654 53.3053 17.3654 53.4973C17.3654 53.7007 17.2192 53.8533 17.0243 53.8533C16.8415 53.8533 16.6842 53.7007 16.6842 53.4973Z" fill="#FFC225"/>
<path d="M24.9002 7.39035C12.335 7.39035 2.49212 18.0461 2.49212 31.648C2.49212 42.4639 8.98616 51.2632 16.9694 51.2632C20.044 51.2632 23.171 49.9712 26.1237 47.5019C21.1798 49.1371 16.4807 47.5909 13.3379 43.3807C11.3491 40.713 10.1609 37.192 10.1609 33.961C10.1609 26.9623 14.7186 22.7826 22.3521 22.7826C24.9855 22.7826 27.7774 23.2951 30.4243 24.2627C31.4065 24.6213 32.3814 24.8019 33.3234 24.8019C33.3246 24.8019 33.3246 24.8019 33.3246 24.8019C34.9746 24.8019 36.4577 24.2233 37.4984 23.173C38.6025 22.0566 39.1862 20.4646 39.1862 18.5699C39.1862 12.9534 36.4029 9.62577 30.4292 8.09735C28.5951 7.62814 26.7355 7.39035 24.9002 7.39035ZM16.9694 52.2168C8.48287 52.2168 1.57815 42.9891 1.57815 31.648C1.57815 17.5107 11.8219 6.43668 24.9002 6.43668C26.8086 6.43668 28.7413 6.68336 30.646 7.17037C37.0073 8.79671 40.1002 12.5262 40.1002 18.5699C40.1002 20.7291 39.4214 22.5589 38.1345 23.8571C36.922 25.0816 35.2147 25.7556 33.3246 25.7556C33.3246 25.7556 33.3246 25.7556 33.3234 25.7556C32.2778 25.7556 31.2018 25.5559 30.1221 25.1617C27.5702 24.2297 24.8844 23.7363 22.3521 23.7363C18.9619 23.7363 11.0749 24.7345 11.0749 33.961C11.0749 36.986 12.1912 40.2883 14.0593 42.7958C16.1822 45.6416 19.0886 47.2094 22.2424 47.2094C24.1325 47.2094 26.131 46.6652 28.1808 45.5932C28.3806 45.4852 28.6243 45.55 28.7559 45.7395C28.8876 45.9302 28.8681 46.1909 28.7097 46.3575C25.0343 50.19 20.975 52.2168 16.9694 52.2168Z" fill="#FFC225"/>
<path d="M20.5863 49.6127C20.5741 49.6127 20.5607 49.6127 20.5473 49.6101C19.4554 49.4512 18.3903 49.1371 17.3801 48.6768C17.2412 48.6132 17.1778 48.4441 17.2387 48.3004C17.2984 48.1555 17.4593 48.0893 17.5994 48.1529C18.5646 48.5916 19.5821 48.8917 20.624 49.0443C20.7739 49.0646 20.8788 49.2108 20.8568 49.3672C20.8385 49.5097 20.7203 49.6127 20.5863 49.6127Z" fill="#FFC225"/>
<path d="M16.2126 48.0207C16.1651 48.0207 16.1176 48.008 16.0749 47.9825C14.5992 47.081 13.2794 45.8565 12.1509 44.3458C11.7805 43.8474 11.432 43.3184 11.1115 42.7704C11.0335 42.6356 11.0749 42.4588 11.2041 42.3775C11.3332 42.2923 11.5014 42.3368 11.5806 42.4728C11.8889 43.0031 12.2265 43.513 12.5835 43.9936C13.6693 45.4483 14.9367 46.6245 16.3503 47.4879C16.4819 47.5692 16.5258 47.7435 16.449 47.8795C16.3978 47.9711 16.3064 48.0207 16.2126 48.0207Z" fill="#FFC225"/>
<path d="M10.7081 41.7073C10.6082 41.7073 10.5119 41.6501 10.4631 41.5509C9.3615 39.2697 8.7205 36.7063 8.66201 34.3335C8.65713 34.1746 8.77655 34.0436 8.92766 34.0398C9.09218 34.008 9.2043 34.1606 9.20917 34.3183C9.26767 36.6096 9.88552 39.0866 10.953 41.2928C11.0213 41.4339 10.9664 41.6056 10.8324 41.6781C10.7922 41.6984 10.7495 41.7073 10.7081 41.7073Z" fill="#FFC225"/>
<path d="M8.99714 32.7581C8.9886 32.7581 8.97886 32.7581 8.97033 32.7568C8.81922 32.7428 8.70954 32.6029 8.72416 32.4453C9.05441 28.8696 10.5801 25.94 13.1368 23.9729C13.2575 23.8762 13.4305 23.9042 13.5207 24.0326C13.6109 24.161 13.5853 24.339 13.4634 24.4319C11.0347 26.3011 9.58451 29.0922 9.27011 32.4999C9.2567 32.6474 9.13728 32.7581 8.99714 32.7581Z" fill="#FFC225"/>
<path d="M14.5711 23.6409C14.4749 23.6409 14.381 23.5863 14.3311 23.4922C14.258 23.3548 14.3055 23.1806 14.4395 23.1031C16.6233 21.8493 19.2848 21.2135 22.3509 21.2135C22.7859 21.2135 23.227 21.2275 23.6694 21.2517C23.8205 21.2606 23.9363 21.3954 23.9278 21.5543C23.9192 21.7107 23.8144 21.8289 23.6389 21.8239C23.2076 21.7984 22.7774 21.7857 22.3509 21.7857C19.3799 21.7857 16.8061 22.3974 14.704 23.6054C14.6613 23.6295 14.6162 23.6409 14.5711 23.6409Z" fill="#FFC225"/>
<path d="M33.3234 23.8037C32.4886 23.8037 31.6197 23.641 30.7399 23.3193C28.9948 22.6809 27.4069 22.2867 25.4315 21.9981C25.2817 21.9777 25.1768 21.8315 25.1988 21.6751C25.2195 21.52 25.3474 21.3992 25.5083 21.4323C27.5203 21.7247 29.1398 22.1291 30.9202 22.7814C33.1016 23.5723 35.2159 23.2912 36.4516 22.0438C37.2559 21.2326 37.6824 20.0297 37.6824 18.5699C37.6824 18.4123 37.8055 18.2838 37.9566 18.2838C38.1077 18.2838 38.2295 18.4123 38.2295 18.5699C38.2295 20.1886 37.747 21.5327 36.833 22.4571C35.958 23.3383 34.7455 23.8037 33.3234 23.8037Z" fill="#FFC225"/>
<path d="M36.2712 53.5049C36.019 53.5049 35.8143 53.2913 35.8143 53.0281C35.8143 50.2039 34.0606 48.3462 32.0304 46.196C29.4786 43.4901 26.5856 40.4243 26.5856 34.6654C26.5856 28.7793 29.2227 24.5323 29.3336 24.3556C29.4737 24.1343 29.7565 24.072 29.9673 24.2182C30.1781 24.3645 30.2366 24.6595 30.0977 24.8795C30.0721 24.9202 27.4996 29.0769 27.4996 34.6654C27.4996 40.0327 30.1342 42.825 32.6836 45.5259C34.7638 47.732 36.7282 49.8136 36.7282 53.0281C36.7282 53.2913 36.5235 53.5049 36.2712 53.5049Z" fill="#FFC225"/>
<path d="M47.741 53.5049C47.4887 53.5049 47.284 53.2913 47.284 53.0281C47.284 49.8136 49.2484 47.732 51.3286 45.5259C53.878 42.825 56.5126 40.0327 56.5126 34.6654C56.5126 29.0769 53.9401 24.9202 53.9133 24.8795C53.7756 24.6595 53.8341 24.3645 54.0449 24.2182C54.2557 24.0771 54.5385 24.1356 54.6774 24.3556C54.7895 24.5323 57.4266 28.7793 57.4266 34.6654C57.4266 40.4243 54.5336 43.4901 51.9806 46.196C49.9503 48.3462 48.1979 50.2039 48.1979 53.0281C48.1979 53.2913 47.9932 53.5049 47.741 53.5049Z" fill="#FFC225"/>
<path d="M51.4651 33.3659C50.612 33.3659 49.9199 34.097 49.9199 34.996C49.9199 35.8963 50.612 36.6274 51.4651 36.6274C52.3157 36.6274 53.0079 35.8963 53.0079 34.996C53.0079 34.097 52.3157 33.3659 51.4651 33.3659ZM51.4651 37.5811C50.1088 37.5811 49.0059 36.4214 49.0059 34.996C49.0059 33.5719 50.1088 32.4122 51.4651 32.4122C52.8202 32.4122 53.9218 33.5719 53.9218 34.996C53.9218 36.4214 52.8202 37.5811 51.4651 37.5811Z" fill="#FFC225"/>
<path d="M48.5148 38.3911C48.4526 38.3911 48.3795 38.3644 48.3308 38.3135C48.2711 38.2512 48.2333 38.1749 48.2333 38.0974C48.2333 38.0351 48.2711 37.9588 48.3198 37.9079C48.4039 37.8062 48.6123 37.7922 48.7086 37.9079C48.7573 37.9588 48.7939 38.0351 48.7939 38.0974C48.7939 38.1749 48.7573 38.2512 48.7086 38.3021C48.6354 38.3644 48.5757 38.3911 48.5148 38.3911Z" fill="#FFC225"/>
<path d="M52.8031 39.1655C52.7422 39.0142 52.8153 38.8476 52.9494 38.7967C53.0846 38.7332 53.254 38.7967 53.315 38.9493C53.3759 39.0905 53.3028 39.2558 53.1566 39.3181C53.1334 39.332 53.0956 39.3448 53.0591 39.3448C52.9494 39.3448 52.8519 39.2672 52.8031 39.1655ZM49.7566 39.3181C49.6225 39.2558 49.5494 39.0905 49.6103 38.9493C49.6713 38.7967 49.8309 38.7332 49.9637 38.7967C49.9637 38.7967 49.9637 38.7967 49.9759 38.7967C50.11 38.8616 50.1709 39.0269 50.1222 39.1655C50.0734 39.2812 49.9759 39.3448 49.8663 39.3448C49.8309 39.3448 49.7943 39.332 49.7566 39.3181ZM51.1946 39.3816C51.1946 39.2303 51.3054 39.1032 51.4639 39.1032C51.6101 39.1032 51.7307 39.2303 51.7307 39.3816C51.7307 39.5482 51.6101 39.6754 51.4639 39.6754C51.3054 39.6754 51.1946 39.5482 51.1946 39.3816Z" fill="#FFC225"/>
<path d="M54.4129 38.3911C54.3386 38.3911 54.2777 38.3644 54.2168 38.3135C54.168 38.2512 54.1436 38.1749 54.1436 38.1101C54.1436 38.0223 54.168 37.9588 54.2168 37.8939C54.3264 37.7922 54.5104 37.7922 54.6079 37.8939C54.6567 37.9588 54.692 38.0223 54.692 38.1101C54.692 38.1749 54.6567 38.2512 54.6079 38.3021C54.5592 38.3644 54.4848 38.3911 54.4129 38.3911Z" fill="#FFC225"/>
<path d="M40.573 53.1057C41.0617 53.2494 41.6222 53.552 42.0061 54.0924C42.3888 53.552 42.9493 53.2494 43.4392 53.1057C43.2905 52.756 42.9201 52.3198 42.0061 52.3198C41.0921 52.3198 40.7217 52.7547 40.573 53.1057ZM44.5457 59.2498C43.2564 59.2498 42.4534 58.5912 42.0061 57.7113C41.5589 58.5912 40.7558 59.2498 39.4665 59.2498C37.2242 59.2498 35.718 57.2764 35.718 54.3365C35.718 52.7941 36.2871 50.6261 36.9464 48.116C38.137 43.5829 39.6188 37.9384 37.6044 35.1842C36.7099 33.961 35.1989 33.3659 32.9846 33.3659C32.7324 33.3659 32.5276 33.1523 32.5276 32.889C32.5276 32.6258 32.7324 32.4122 32.9846 32.4122C35.4682 32.4122 37.2669 33.1497 38.3307 34.6057C40.6193 37.735 39.135 43.3858 37.8274 48.3691C37.212 50.71 36.632 52.9226 36.632 54.3365C36.632 56.7042 37.7702 58.2962 39.4665 58.2962C41.3992 58.2962 41.5491 56.268 41.5491 55.645C41.5491 54.142 40.1416 53.9716 39.9807 53.9576L39.5408 53.9182L39.5603 53.4592C39.5957 52.7344 40.1526 51.3661 42.0061 51.3661C43.8572 51.3661 44.4141 52.7344 44.4507 53.4579L44.4738 53.9182L44.0315 53.9576C43.8706 53.9716 42.4631 54.142 42.4631 55.645C42.4631 56.268 42.613 58.2962 44.5457 58.2962C46.2408 58.2962 47.3802 56.7042 47.3802 54.3365C47.3802 52.9226 46.799 50.71 46.1848 48.3691C44.876 43.3858 43.3929 37.735 45.6815 34.6057C46.7453 33.1497 48.544 32.4122 51.0276 32.4122C51.2798 32.4122 51.4846 32.6258 51.4846 32.889C51.4846 33.1523 51.2798 33.3659 51.0276 33.3659C48.8133 33.3659 47.3023 33.961 46.4078 35.1842C44.3934 37.9384 45.8752 43.5829 47.0658 48.116C47.7251 50.6261 48.2942 52.7941 48.2942 54.3365C48.2942 57.2764 46.788 59.2498 44.5457 59.2498Z" fill="#FFC225"/>
<path d="M51.4651 34.4416C51.1751 34.4416 50.9411 34.6908 50.9411 34.996C50.9411 35.3012 51.1751 35.5504 51.4651 35.5504C51.7527 35.5504 51.9867 35.3012 51.9867 34.996C51.9867 34.6908 51.7527 34.4416 51.4651 34.4416ZM51.4651 36.2663C50.7985 36.2663 50.255 35.6966 50.255 34.996C50.255 34.2954 50.7985 33.727 51.4651 33.727C52.1305 33.727 52.6727 34.2954 52.6727 34.996C52.6727 35.6966 52.1305 36.2663 51.4651 36.2663Z" fill="#FFC225"/>
<path d="M42.0061 62.6271C39.3532 62.6271 36.27 60.1539 36.27 56.9648C36.27 56.7016 36.4748 56.488 36.727 56.488C36.9793 56.488 37.184 56.7016 37.184 56.9648C37.184 59.6173 39.776 61.6735 42.0061 61.6735C44.2362 61.6735 46.8282 59.6173 46.8282 56.9648C46.8282 56.7016 47.0329 56.488 47.2852 56.488C47.5374 56.488 47.7422 56.7016 47.7422 56.9648C47.7422 60.1539 44.6591 62.6271 42.0061 62.6271Z" fill="#FFC225"/>
<path d="M25.1403 23.7351C25.0806 23.7351 25.0221 23.716 24.9721 23.674C24.8308 23.5609 21.5295 20.8117 22.1705 14.759C22.7311 9.45279 26.5515 6.86774 26.7148 6.75966C26.8439 6.67701 27.0109 6.71642 27.0925 6.84739C27.1742 6.98218 27.1364 7.15764 27.0085 7.24283C26.9707 7.26953 23.2453 9.79615 22.7152 14.8214C22.1084 20.5587 25.2756 23.1971 25.3085 23.2226C25.4279 23.3192 25.4498 23.4998 25.3572 23.6244C25.3036 23.6969 25.2219 23.7351 25.1403 23.7351Z" fill="#FFC225"/>
<path d="M15.4497 25.0511C15.0854 25.0511 14.208 24.9863 13.1795 24.4586C11.8 23.7516 10.6813 22.5004 9.85382 20.7367C7.70538 16.1591 11.4027 11.3564 11.5611 11.1542C11.6562 11.0309 11.8268 11.013 11.9474 11.1148C12.0644 11.214 12.0815 11.3932 11.9852 11.5165C11.9499 11.5623 8.35491 16.2404 10.3462 20.4862C11.1175 22.1316 12.1534 23.2964 13.4207 23.9449C14.6028 24.5514 15.5643 24.4777 15.5789 24.4738C15.7325 24.4738 15.8629 24.5755 15.8763 24.7345C15.8885 24.8909 15.7776 25.0295 15.6277 25.0435C15.6179 25.0448 15.5558 25.0511 15.4497 25.0511Z" fill="#FFC225"/>
<path d="M6.10169 35.1511C2.96372 35.1511 1.7183 32.6309 1.66712 32.5241C1.60009 32.383 1.65493 32.2126 1.7902 32.1401C1.92059 32.0714 2.08752 32.1248 2.1582 32.2672C2.20329 32.3613 3.31103 34.5802 6.10169 34.5802C8.96181 34.5802 10.4473 33.062 10.4619 33.048C10.5692 32.9361 10.7434 32.9361 10.8495 33.048C10.9567 33.1599 10.9567 33.3405 10.8495 33.4523C10.7837 33.5223 9.18604 35.1511 6.10169 35.1511Z" fill="#FFC225"/>
<path d="M7.98201 44.417C5.88719 44.417 4.35295 42.942 4.27495 42.8657C4.16528 42.7589 4.15917 42.5771 4.26275 42.4626C4.36756 42.3444 4.54184 42.3419 4.65152 42.4487C4.67224 42.469 6.77069 44.4756 9.25669 43.6325C9.94034 43.3985 10.5813 42.9891 11.1578 42.4169C11.867 41.715 12.2314 41.0105 12.235 41.0042C12.3069 40.863 12.4751 40.8096 12.6055 40.8859C12.7383 40.9584 12.7895 41.1326 12.72 41.2725C12.703 41.3043 12.313 42.0621 11.5368 42.8314C10.8994 43.4634 10.189 43.9161 9.42731 44.1767C8.92402 44.3484 8.44021 44.417 7.98201 44.417Z" fill="#FFC225"/>
<path d="M14.002 51.6675C13.9131 51.6675 13.857 51.6637 13.8448 51.6624C13.6937 51.651 13.5816 51.5124 13.5926 51.356C13.6048 51.1983 13.7559 51.0928 13.8863 51.0915C13.9679 51.0953 15.9202 51.2263 16.9243 49.2872C17.5531 48.0766 17.129 46.5393 17.1242 46.5228C17.0815 46.3715 17.1644 46.2125 17.3094 46.168C17.4483 46.1273 17.6055 46.2087 17.6506 46.3613C17.6701 46.4338 18.1429 48.144 17.4069 49.5605C16.393 51.5136 14.5553 51.6675 14.002 51.6675Z" fill="#FFC225"/>
<path d="M59.2131 5.15114C59.2131 4.94896 59.3715 4.79637 59.5665 4.79637C59.7493 4.79637 59.8968 4.96166 59.8968 5.16511C59.8968 5.35458 59.7383 5.52113 59.5434 5.52113C59.3594 5.50714 59.2009 5.35459 59.2131 5.15114ZM56.9221 5.25284C56.9099 5.04939 57.0561 4.88536 57.2523 4.87137C57.4339 4.85993 57.5923 4.99978 57.6057 5.20323C57.6289 5.39397 57.4827 5.55927 57.3011 5.5847C57.2877 5.5847 57.2755 5.5847 57.2755 5.5847C57.0939 5.5847 56.9343 5.44485 56.9221 5.25284ZM61.7966 5.66101C61.6016 5.64829 61.4688 5.46899 61.492 5.26681C61.5175 5.07608 61.676 4.93493 61.8709 4.94892C62.0525 4.97435 62.1866 5.15109 62.1756 5.35454C62.15 5.53383 62.0038 5.66101 61.8332 5.66101C61.8222 5.66101 61.8088 5.66101 61.7966 5.66101ZM54.6689 5.57073C54.6311 5.36728 54.7664 5.18929 54.9479 5.15114C55.1307 5.12698 55.3147 5.25281 55.3379 5.44482C55.3757 5.64827 55.2404 5.82505 55.0576 5.86447C55.0454 5.86447 55.0223 5.86447 55.0101 5.86447C54.8383 5.86447 54.692 5.73604 54.6689 5.57073ZM64.0145 6.02975C63.8317 5.99033 63.7099 5.80089 63.7476 5.61016C63.783 5.41815 63.9658 5.29224 64.162 5.33039C64.3435 5.38125 64.4666 5.55926 64.4179 5.76271C64.3923 5.92801 64.2461 6.04124 64.0876 6.04124C64.0633 6.04124 64.0389 6.0412 64.0145 6.02975ZM52.4375 6.09333C52.3888 5.9026 52.4985 5.71187 52.6825 5.66101C52.8641 5.61015 53.0469 5.72332 53.0956 5.91532C53.1456 6.10479 53.0359 6.29678 52.8519 6.34764C52.8287 6.35909 52.7909 6.35913 52.7666 6.35913C52.6203 6.35913 52.4753 6.25736 52.4375 6.09333ZM66.1959 6.62611C66.0131 6.5638 65.9156 6.35911 65.9777 6.18236C66.0253 5.99036 66.2202 5.87717 66.403 5.93948C66.5736 6.00305 66.6833 6.19509 66.6224 6.38583C66.5736 6.53841 66.4408 6.63884 66.2946 6.63884C66.269 6.63884 66.2336 6.62611 66.1959 6.62611ZM68.3175 7.42847C68.1335 7.35218 68.0482 7.14873 68.1225 6.95673C68.2066 6.77871 68.4016 6.68973 68.5734 6.7673C68.7428 6.84232 68.8293 7.047 68.755 7.23774C68.7062 7.37634 68.5734 7.45393 68.4503 7.45393C68.4016 7.45393 68.3528 7.44119 68.3175 7.42847ZM70.3392 8.43176C70.3392 8.43176 70.3392 8.43174 70.3392 8.44573C70.1808 8.344 70.1077 8.12783 70.2064 7.96125C70.2905 7.7845 70.4988 7.70822 70.6682 7.80994C70.8388 7.89768 70.8997 8.12787 70.8035 8.29318C70.7413 8.42033 70.6317 8.48261 70.511 8.48261C70.4501 8.48261 70.4014 8.47117 70.3392 8.43176ZM72.278 9.63974C72.1184 9.53802 72.083 9.31039 72.1805 9.14509C72.289 8.9925 72.4962 8.94167 72.6546 9.05611C72.813 9.15784 72.8496 9.38541 72.7521 9.55071C72.6802 9.65371 72.5693 9.70332 72.4596 9.70332C72.3987 9.70332 72.339 9.69188 72.278 9.63974ZM74.0926 11.0397C73.9463 10.9113 73.9219 10.6964 74.0316 10.5438C74.1547 10.3785 74.3728 10.3531 74.5203 10.4802C74.6665 10.6074 74.6897 10.8363 74.5691 10.9889C74.5081 11.0766 74.4106 11.116 74.2997 11.116C74.2266 11.116 74.1547 11.0893 74.0926 11.0397ZM75.7743 12.6038C75.6402 12.4626 75.6293 12.235 75.7621 12.0938C75.8961 11.9552 76.1155 11.9552 76.2495 12.0938C76.3836 12.2223 76.397 12.4512 76.2617 12.591C76.1898 12.6661 76.1033 12.7055 76.0058 12.7055C75.9205 12.7055 75.8364 12.6661 75.7743 12.6038ZM77.311 14.3191C77.1879 14.1678 77.2013 13.9376 77.3463 13.8118C77.4925 13.6833 77.7131 13.6973 77.8338 13.8499C77.9556 14.0012 77.9434 14.2313 77.7972 14.3585C77.7363 14.4081 77.6509 14.4475 77.5669 14.4475C77.4803 14.4475 77.3829 14.3966 77.311 14.3191ZM78.699 16.1756C78.5893 16.0115 78.6271 15.7827 78.7855 15.6683C78.9317 15.5538 79.1499 15.6046 79.2596 15.7572C79.3692 15.9225 79.3339 16.1387 79.1743 16.2531C79.1133 16.304 79.0414 16.3294 78.9805 16.3294C78.8696 16.3294 78.7599 16.2773 78.699 16.1756ZM79.9176 18.1478C79.8201 17.9825 79.8689 17.765 80.0395 17.6646C80.1991 17.5628 80.4063 17.6264 80.5038 17.7917C80.6013 17.9685 80.5391 18.1847 80.3807 18.2864C80.3319 18.3131 80.271 18.3258 80.2101 18.3258C80.0882 18.3258 79.9785 18.2622 79.9176 18.1478ZM80.9534 20.2446C80.8693 20.0551 80.9412 19.839 81.1131 19.7627C81.2825 19.6724 81.4896 19.7626 81.5762 19.9407C81.6481 20.1187 81.5761 20.3349 81.4043 20.4099C81.3556 20.4366 81.3068 20.448 81.2581 20.448C81.1362 20.448 81.0022 20.373 80.9534 20.2446ZM81.8065 22.419C81.7455 22.2295 81.8321 22.0261 82.0136 21.9625C82.1855 21.8849 82.3804 21.9879 82.4523 22.1659C82.5133 22.3554 82.4158 22.5601 82.2452 22.6237C82.2086 22.6351 82.1599 22.6491 82.1245 22.6491C81.9893 22.6491 81.8552 22.5601 81.8065 22.419ZM82.4645 24.6582C82.4158 24.4674 82.5255 24.2768 82.7083 24.2246C82.9033 24.1738 83.086 24.2895 83.1348 24.4789C83.1835 24.6709 83.0738 24.8604 82.8923 24.9125C82.8545 24.9252 82.8301 24.9252 82.8057 24.9252C82.6473 24.9252 82.5133 24.8235 82.4645 24.6582ZM82.941 26.9597C82.9032 26.7677 83.0385 26.5783 83.2201 26.5516C83.4151 26.5147 83.5857 26.6418 83.6222 26.8453C83.66 27.0348 83.5247 27.214 83.3432 27.2522C83.3176 27.2522 83.3066 27.2522 83.281 27.2522C83.1226 27.2522 82.9764 27.1377 82.941 26.9597ZM83.2323 29.2994C83.2079 29.0947 83.3553 28.9294 83.5369 28.9052C83.7319 28.8912 83.8903 29.0311 83.9159 29.2358C83.9269 29.4266 83.7806 29.6046 83.5991 29.6173C83.5857 29.6173 83.5735 29.6287 83.5613 29.6287C83.3907 29.6173 83.2457 29.4774 83.2323 29.2994ZM83.3176 31.6518C83.3176 31.4484 83.476 31.2958 83.66 31.2958C83.855 31.2958 84 31.4484 84 31.6518C84 31.8426 83.855 32.0066 83.66 32.0066C83.476 32.0066 83.3176 31.8426 83.3176 31.6518ZM83.5369 34.3857C83.3553 34.373 83.2079 34.1949 83.2323 33.9915C83.2457 33.7995 83.4041 33.6469 83.5991 33.6736C83.7806 33.6863 83.9269 33.8631 83.9037 34.0551C83.8903 34.2458 83.7441 34.3857 83.5735 34.3857C83.5613 34.3857 83.5503 34.3857 83.5369 34.3857ZM83.2201 36.7508C83.0385 36.7126 82.9032 36.5206 82.941 36.3312C82.9764 36.1391 83.1482 36.0006 83.3432 36.0387C83.5247 36.0769 83.6478 36.2536 83.6113 36.457C83.5857 36.6223 83.4394 36.7508 83.281 36.7508C83.2567 36.7508 83.2457 36.7508 83.2201 36.7508ZM82.6973 39.0637C82.5133 39.0142 82.4036 38.8107 82.4523 38.6314C82.5133 38.442 82.6973 38.3275 82.8789 38.3784C83.0617 38.428 83.1713 38.62 83.1226 38.8107C83.0739 38.976 82.941 39.0777 82.7814 39.0777C82.757 39.0777 82.7339 39.0777 82.6973 39.0637ZM81.9783 41.3284C81.8065 41.2521 81.709 41.0487 81.7833 40.8707C81.7833 40.8707 81.7833 40.8707 81.7833 40.8567C81.843 40.6799 82.038 40.5896 82.2208 40.6532C82.3926 40.7308 82.4901 40.9342 82.4158 41.1123C82.367 41.2648 82.2342 41.3538 82.099 41.3538C82.0624 41.3538 82.0136 41.3399 81.9783 41.3284ZM81.0509 43.5015C80.8803 43.4138 80.8084 43.1964 80.8925 43.0196C80.9778 42.8416 81.185 42.764 81.3556 42.8657C81.5152 42.9433 81.5871 43.1595 81.5018 43.3375C81.4409 43.4646 81.3202 43.541 81.1972 43.541C81.1484 43.541 81.0997 43.5282 81.0509 43.5015ZM79.9054 45.5627C79.7482 45.461 79.6995 45.2321 79.797 45.0668C79.8944 44.9015 80.1126 44.8507 80.271 44.9524C80.4294 45.0668 80.4782 45.283 80.3807 45.4483H80.3685C80.3088 45.5627 80.1991 45.6136 80.0882 45.6136C80.0273 45.6136 79.9664 45.6009 79.9054 45.5627ZM78.5527 47.4815C78.3943 47.3556 78.3821 47.1267 78.4918 46.9869C78.6137 46.8216 78.8342 46.7949 78.9805 46.9233C79.1255 47.0505 79.1499 47.2653 79.0292 47.4307C78.9671 47.5082 78.8696 47.5591 78.7599 47.5591C78.6868 47.5591 78.6137 47.5324 78.5527 47.4815ZM76.9929 49.2236C76.8588 49.071 76.8588 48.8548 76.9929 48.7162C77.1269 48.5763 77.3463 48.5763 77.4803 48.7162C77.6156 48.8548 77.6022 49.085 77.4682 49.2236C77.4085 49.2871 77.3219 49.3266 77.2366 49.3266C77.1391 49.3266 77.055 49.2871 76.9929 49.2236ZM75.2271 50.7253C75.104 50.5727 75.1406 50.3425 75.2868 50.2294C75.4452 50.1022 75.6646 50.1404 75.7743 50.3057C75.8852 50.4583 75.8474 50.6871 75.7012 50.8016C75.6402 50.8524 75.5671 50.8766 75.494 50.8766C75.3855 50.8766 75.2868 50.8258 75.2271 50.7253ZM73.2639 51.9587C73.1664 51.7794 73.2407 51.5632 73.3992 51.4755C73.5686 51.3738 73.7757 51.4374 73.8732 51.6141C73.9597 51.7934 73.8854 52.0096 73.727 52.0973C73.6782 52.1367 73.6173 52.1482 73.5686 52.1482C73.4479 52.1482 73.3248 52.0732 73.2639 51.9587ZM60.2368 52.1367C60.0662 52.0477 59.9942 51.8303 60.0783 51.6535C60.1636 51.4755 60.3586 51.4119 60.5293 51.5009C60.7011 51.5772 60.773 51.7934 60.6877 51.9714C60.6267 52.0973 60.5061 52.1749 60.383 52.1749C60.3342 52.1749 60.2855 52.1621 60.2368 52.1367ZM62.3828 53.051C62.211 52.9874 62.1134 52.7979 62.1756 52.6072C62.2243 52.4152 62.4315 52.3148 62.6009 52.3783C62.7849 52.4419 62.8824 52.6454 62.8202 52.8234C62.7715 52.976 62.6387 53.0777 62.4912 53.0777C62.4547 53.0777 62.4181 53.0649 62.3828 53.051ZM71.1435 52.8488C71.0826 52.6581 71.18 52.4546 71.3641 52.391C71.5334 52.3275 71.7297 52.4292 71.8016 52.6186C71.8625 52.7979 71.7662 53.0141 71.5822 53.0777C71.5456 53.0904 71.5091 53.0904 71.4737 53.0904C71.3263 53.0904 71.1922 53.0014 71.1435 52.8488ZM64.6482 53.6499C64.4666 53.6118 64.3436 53.4197 64.3679 53.2303C64.4057 53.0383 64.5751 52.9124 64.7713 52.9365C64.9529 52.976 65.0759 53.1527 65.0503 53.3562C65.015 53.5215 64.8797 53.6499 64.7103 53.6499C64.6969 53.6499 64.6726 53.6499 64.6482 53.6499ZM68.9268 53.3689C68.889 53.1794 69.0243 52.9874 69.2059 52.9632C69.3899 52.9251 69.5715 53.065 69.597 53.2544C69.6336 53.4464 69.4983 53.6372 69.3155 53.6626C69.2924 53.674 69.2802 53.674 69.2668 53.674C69.0962 53.674 68.95 53.5481 68.9268 53.3689ZM66.648 53.4973C66.648 53.2938 66.7942 53.1413 66.988 53.1413C67.1708 53.1413 67.3292 53.3053 67.3292 53.4973C67.3292 53.7007 67.1708 53.8533 66.988 53.8533C66.7942 53.8533 66.648 53.7007 66.648 53.4973Z" fill="#FFC225"/>
<path d="M57.8885 47.5019C60.8412 49.9712 63.967 51.2632 67.0428 51.2632C75.026 51.2632 81.5201 42.4639 81.5201 31.648C81.5201 18.0461 71.6772 7.39035 59.112 7.39035C57.2767 7.39035 55.4171 7.62814 53.5831 8.09735C47.6094 9.62577 44.8248 12.9534 44.8248 18.5699C44.8248 22.2982 47.1816 24.8019 50.6888 24.8019C51.6296 24.8019 52.6057 24.6213 53.5879 24.2627C56.2348 23.2951 59.0267 22.7826 61.6601 22.7826C69.2924 22.7826 73.8513 26.9623 73.8513 33.961C73.8513 39.9144 69.6519 48.1631 61.7698 48.1631C60.5097 48.1631 59.2119 47.9406 57.8885 47.5019ZM67.0428 52.2168C63.0372 52.2168 58.9779 50.19 55.3025 46.3575C55.1441 46.1909 55.1246 45.9302 55.2562 45.7395C55.3854 45.55 55.6291 45.4852 55.8314 45.5932C57.8812 46.6652 59.8797 47.2094 61.7698 47.2094C68.9597 47.2094 72.9373 39.3753 72.9373 33.961C72.9373 24.7345 65.0503 23.7363 61.6601 23.7363C59.1278 23.7363 56.4419 24.2297 53.8901 25.1617C52.8104 25.5559 51.7332 25.7556 50.6888 25.7556C46.6345 25.7556 43.9108 22.8691 43.9108 18.5699C43.9108 12.5262 47.0037 8.79671 53.3662 7.17037C55.2709 6.68336 57.2036 6.43668 59.112 6.43668C72.1891 6.43668 82.4341 17.5107 82.4341 31.648C82.4341 42.9891 75.5293 52.2168 67.0428 52.2168Z" fill="#FFC225"/>
<path d="M63.4259 49.6127C63.2918 49.6127 63.1736 49.5097 63.1541 49.3672C63.1334 49.2108 63.2382 49.0646 63.3881 49.0443C64.4288 48.8929 65.4464 48.5916 66.4128 48.1529C66.5505 48.0893 66.7126 48.1555 66.7735 48.3004C66.8344 48.4454 66.771 48.6132 66.6321 48.6768C65.6207 49.1371 64.5544 49.4512 63.4637 49.6101C63.4515 49.6127 63.4381 49.6127 63.4259 49.6127Z" fill="#FFC225"/>
<path d="M67.7996 48.0207C67.7057 48.0207 67.6143 47.9711 67.5632 47.8795C67.4864 47.7435 67.5302 47.5692 67.6618 47.4879C69.0755 46.6245 70.3428 45.4483 71.4274 43.9923C71.7845 43.513 72.1233 43.0031 72.4316 42.4728C72.5108 42.3368 72.6765 42.2923 72.8081 42.3775C72.9373 42.4588 72.9787 42.6356 72.8995 42.7704C72.5802 43.3184 72.2317 43.8474 71.8613 44.3446C70.7328 45.8565 69.413 47.081 67.9373 47.9825C67.8946 48.008 67.8471 48.0207 67.7996 48.0207Z" fill="#FFC225"/>
<path d="M73.3041 41.7073C73.2615 41.7073 73.22 41.6984 73.1798 41.6781C73.0458 41.6056 72.9909 41.4339 73.0579 41.2928C74.1255 39.0866 74.7445 36.6096 74.803 34.3183C74.8079 34.1606 74.9261 34.0194 75.0833 34.0398C75.2344 34.0436 75.3551 34.1746 75.3502 34.3335C75.2905 36.7063 74.6507 39.2697 73.5491 41.5509C73.5003 41.6501 73.404 41.7073 73.3041 41.7073Z" fill="#FFC225"/>
<path d="M75.015 32.7581C74.8749 32.7581 74.7555 32.6474 74.7421 32.4999C74.4265 29.0922 72.9775 26.3011 70.5488 24.4319C70.4269 24.339 70.4013 24.161 70.4915 24.0326C70.5805 23.9042 70.7523 23.8762 70.8742 23.9729C73.4321 25.94 74.9578 28.8696 75.2868 32.4453C75.3026 32.6029 75.1917 32.7428 75.0406 32.7568C75.0321 32.7581 75.0236 32.7581 75.015 32.7581Z" fill="#FFC225"/>
<path d="M69.4411 23.6409C69.3947 23.6409 69.3496 23.6295 69.3082 23.6054C67.2061 22.3974 64.6323 21.7857 61.6601 21.7857C61.2348 21.7857 60.8047 21.7984 60.3733 21.8239C60.3672 21.8239 60.3623 21.8239 60.3574 21.8239C60.2124 21.8239 60.093 21.7056 60.0844 21.5543C60.0759 21.3954 60.1917 21.2606 60.3428 21.2517C60.7852 21.2275 61.2251 21.2135 61.6601 21.2135C64.7262 21.2135 67.3889 21.8493 69.5727 23.1031C69.7055 23.1806 69.753 23.3548 69.6811 23.4922C69.6312 23.5863 69.5373 23.6409 69.4411 23.6409Z" fill="#FFC225"/>
<path d="M50.6888 23.8037C49.2667 23.8037 48.0542 23.3383 47.1792 22.4571C46.2652 21.5327 45.7826 20.1886 45.7826 18.5699C45.7826 18.4123 45.9045 18.2838 46.0556 18.2838C46.2067 18.2838 46.3298 18.4123 46.3298 18.5699C46.3298 20.0297 46.7551 21.2326 47.5606 22.0438C48.7951 23.2925 50.9106 23.5748 53.092 22.7814C54.8724 22.1291 56.4919 21.7247 58.5039 21.4323C58.6635 21.3992 58.7927 21.52 58.8134 21.6751C58.8341 21.8315 58.7306 21.9777 58.5794 21.9981C56.604 22.2867 55.0174 22.6809 53.2723 23.3193C52.3913 23.641 51.5224 23.8037 50.6888 23.8037Z" fill="#FFC225"/>
<path d="M58.8719 23.7351C58.7903 23.7351 58.7098 23.6969 58.655 23.6244C58.5624 23.4998 58.5831 23.3205 58.7025 23.2226C58.7342 23.1971 61.9014 20.5409 61.297 14.8214C60.7644 9.78597 57.0415 7.26957 57.005 7.24413C56.8758 7.15767 56.838 6.98215 56.9184 6.84863C56.9989 6.71385 57.1683 6.67447 57.2975 6.75966C57.4608 6.86774 61.2811 9.45279 61.8417 14.759C62.4827 20.8117 59.1814 23.5609 59.0388 23.674C58.9889 23.716 58.9316 23.7351 58.8719 23.7351Z" fill="#FFC225"/>
<path d="M68.5637 25.0511C68.4564 25.0511 68.3943 25.0448 68.3833 25.0435C68.2334 25.0295 68.1237 24.8909 68.1359 24.7345C68.1481 24.5755 68.2846 24.4713 68.432 24.4738C68.4454 24.4777 69.4081 24.5514 70.5902 23.9449C71.8588 23.2964 72.8946 22.1316 73.6648 20.4862C75.6573 16.2404 72.0623 11.5623 72.027 11.5165C71.9307 11.3932 71.9478 11.214 72.0648 11.1148C72.1842 11.0156 72.3572 11.0321 72.4498 11.1542C72.6095 11.3564 76.3056 16.1591 74.1584 20.7367C73.3309 22.5004 72.2122 23.7516 70.8315 24.4586C69.803 24.9863 68.928 25.0511 68.5637 25.0511Z" fill="#FFC225"/>
<path d="M77.9105 35.1511C74.8262 35.1511 73.2286 33.5223 73.1615 33.4523C73.0543 33.3405 73.0543 33.1612 73.1615 33.0493C73.2688 32.9374 73.443 32.9361 73.5503 33.048C73.5637 33.062 75.0663 34.5802 77.9105 34.5802C80.7134 34.5802 81.8431 32.2914 81.854 32.2672C81.9211 32.1248 82.088 32.0676 82.222 32.1401C82.3573 32.21 82.4121 32.383 82.3439 32.5241C82.2927 32.6309 81.0485 35.1511 77.9105 35.1511Z" fill="#FFC225"/>
<path d="M76.0302 44.417C75.572 44.417 75.087 44.3484 74.5849 44.1767C73.822 43.9161 73.1128 43.4634 72.4754 42.8314C71.6992 42.0621 71.3092 41.3043 71.2921 41.2725C71.2227 41.1326 71.2726 40.9584 71.4067 40.8859C71.5346 40.8096 71.7053 40.8617 71.7772 41.0042C71.7808 41.0105 72.144 41.715 72.8532 42.4169C73.4308 42.9891 74.0706 43.3985 74.7567 43.6325C77.2513 44.4806 79.3412 42.469 79.3607 42.4487C79.4703 42.3393 79.6446 42.3444 79.7494 42.4614C79.853 42.5771 79.8469 42.7589 79.7372 42.8657C79.658 42.942 78.1238 44.417 76.0302 44.417Z" fill="#FFC225"/>
<path d="M70.0089 51.6675C69.4569 51.6675 67.618 51.5136 66.6041 49.5605C65.8693 48.144 66.3421 46.4338 66.3616 46.3613C66.4042 46.2087 66.5517 46.1235 66.7028 46.168C66.8478 46.2125 66.9307 46.3715 66.888 46.5228C66.8832 46.5393 66.4603 48.083 67.0879 49.2872C68.0969 51.2339 70.1077 51.094 70.1247 51.0915C70.2588 51.0928 70.4086 51.197 70.4196 51.3547C70.4318 51.5124 70.3185 51.651 70.1674 51.6624C70.1552 51.6637 70.0991 51.6675 70.0089 51.6675Z" fill="#FFC225"/>
<path d="M17.9711 67.9525C17.9126 67.9525 17.8541 67.9372 17.7993 67.9041C17.636 67.8049 17.5799 67.5863 17.675 67.4146L19.5992 63.9534C19.693 63.7842 19.9026 63.7232 20.0684 63.8249C20.2317 63.9241 20.2877 64.1428 20.1927 64.3145L18.2672 67.7744C18.2051 67.8889 18.0893 67.9525 17.9711 67.9525Z" fill="#FFC225"/>
<path d="M21.5453 68.7573C21.5161 68.7573 21.4869 68.7535 21.4576 68.7446C21.2748 68.6951 21.1651 68.4992 21.2139 68.3072L21.8378 65.8506C21.8854 65.6598 22.0645 65.5416 22.257 65.5962C22.4386 65.6471 22.5483 65.8429 22.4995 66.0337L21.8756 68.4916C21.8354 68.6518 21.6977 68.7573 21.5453 68.7573Z" fill="#FFC225"/>
<path d="M15.5802 65.0647C15.4937 65.0647 15.4059 65.0304 15.3389 64.9605C15.2048 64.8219 15.2048 64.5955 15.3377 64.4557L17.0437 62.6665C17.1766 62.5254 17.3947 62.5254 17.5275 62.6653C17.6616 62.8039 17.6616 63.0302 17.5288 63.1701L15.8239 64.9592C15.7569 65.0304 15.6691 65.0647 15.5802 65.0647Z" fill="#FFC225"/>
<path d="M24.3238 68.7434C24.1532 68.6671 24.0679 68.4624 24.1422 68.2729C24.2141 68.0936 24.4091 68.0059 24.5919 68.0822C24.7625 68.1585 24.849 68.3606 24.7747 68.5526C24.726 68.6785 24.5919 68.7688 24.4579 68.7688C24.4091 68.7688 24.3726 68.7561 24.3238 68.7434ZM26.482 69.5953C26.298 69.5317 26.2127 69.3283 26.2748 69.1375C26.3358 68.9455 26.5308 68.8578 26.7123 68.9214C26.7123 68.9214 26.7123 68.9214 26.7001 68.9214C26.8842 68.985 26.9816 69.1884 26.9195 69.3792C26.8708 69.5178 26.7379 69.6207 26.5905 69.6207C26.5539 69.6207 26.5173 69.608 26.482 69.5953ZM28.6743 70.3188C28.4915 70.268 28.394 70.0658 28.4428 69.8751C28.4915 69.683 28.6865 69.5813 28.8705 69.6322C29.0521 69.6831 29.1496 69.8865 29.1008 70.0785C29.0521 70.2311 28.9193 70.3328 28.773 70.3328C28.7474 70.3328 28.7121 70.3328 28.6743 70.3188ZM30.9166 70.9177C30.7216 70.8669 30.6119 70.6876 30.6497 70.4854C30.6984 70.2947 30.88 70.1802 31.0628 70.2171C31.2468 70.2565 31.3675 70.46 31.3187 70.6507C31.2822 70.816 31.1359 70.9305 30.9897 70.9305C30.9653 70.9305 30.9422 70.9177 30.9166 70.9177Z" fill="#FFC225"/>
<path d="M8.97034 57.3362C8.84726 57.1836 8.86067 56.9674 9.0069 56.8288C9.13973 56.7004 9.35907 56.7143 9.48094 56.8657C9.6162 57.0068 9.60281 57.2344 9.45657 57.3756C9.39564 57.4264 9.31156 57.4519 9.22504 57.4519C9.13974 57.4519 9.04224 57.4137 8.97034 57.3362ZM10.5424 59.0909C10.4071 58.9523 10.4071 58.7234 10.5424 58.5835C10.6886 58.4551 10.8958 58.4551 11.0286 58.5963C11.1626 58.7361 11.1626 58.965 11.0286 59.1049C10.9555 59.1685 10.8702 59.2066 10.7861 59.2066C10.6996 59.2066 10.6143 59.1685 10.5424 59.0909ZM12.2119 60.7579C12.0656 60.6168 12.0535 60.4019 12.1863 60.248C12.3094 60.1094 12.5275 60.0955 12.6628 60.2239C12.8078 60.3625 12.8212 60.5926 12.6859 60.7312C12.6262 60.8088 12.5275 60.8469 12.4422 60.8469C12.3581 60.8469 12.2716 60.8215 12.2119 60.7579ZM13.9533 62.3207C13.8071 62.1948 13.7839 61.9659 13.9046 61.826C14.0264 61.6607 14.247 61.634 14.3932 61.7625C14.5382 61.8883 14.5516 62.1185 14.442 62.2698C14.3676 62.3601 14.2701 62.3982 14.1727 62.3982C14.0995 62.3982 14.0142 62.3716 13.9533 62.3207Z" fill="#FFC225"/>
<path d="M66.0411 67.9525C65.9229 67.9525 65.8071 67.8889 65.7437 67.7744L63.8195 64.3145C63.7245 64.1428 63.7805 63.9241 63.9438 63.8249C64.1108 63.7232 64.3179 63.7842 64.413 63.9534L66.3372 67.4146C66.4323 67.5863 66.3762 67.8049 66.2129 67.9041C66.1581 67.9359 66.0984 67.9525 66.0411 67.9525Z" fill="#FFC225"/>
<path d="M62.4669 68.7573C62.3145 68.7573 62.1768 68.6518 62.1354 68.4916L61.5127 66.0337C61.4639 65.8429 61.5736 65.6471 61.7552 65.5962C61.9441 65.5416 62.1269 65.6598 62.1744 65.8506L62.7971 68.3072C62.8459 68.4992 62.7374 68.6951 62.5546 68.7446C62.5254 68.7535 62.4949 68.7573 62.4669 68.7573Z" fill="#FFC225"/>
<path d="M68.4308 65.0647C68.3431 65.0647 68.2553 65.0304 68.1883 64.9592L66.4835 63.1701C66.3494 63.0302 66.3494 62.8039 66.4847 62.6653C66.6187 62.5254 66.8368 62.5254 66.9685 62.6665L68.6745 64.4557C68.8074 64.5955 68.8074 64.8219 68.6733 64.9605C68.6063 65.0304 68.5186 65.0647 68.4308 65.0647Z" fill="#FFC225"/>
<path d="M59.2387 68.5526C59.1644 68.3606 59.2387 68.1585 59.4203 68.0822C59.5921 68.0059 59.798 68.0936 59.8712 68.2729C59.9455 68.4624 59.859 68.6671 59.6762 68.7434C59.6762 68.7434 59.6762 68.7434 59.6896 68.7434C59.6408 68.7561 59.5921 68.7688 59.5543 68.7688C59.4203 68.7688 59.2874 68.6785 59.2387 68.5526ZM57.0939 69.3792C57.0318 69.1884 57.1292 68.985 57.3011 68.9214C57.4826 68.8578 57.6776 68.9595 57.7386 69.1375C57.7995 69.3283 57.7032 69.5317 57.5314 69.5953C57.4948 69.608 57.4473 69.6207 57.4108 69.6207C57.2755 69.6207 57.1427 69.5178 57.0939 69.3792ZM54.9126 70.0785C54.8504 69.8865 54.9613 69.6831 55.1429 69.6322C55.3269 69.5813 55.5219 69.683 55.5706 69.8751C55.6194 70.0658 55.5219 70.268 55.3379 70.3188C55.3013 70.3328 55.266 70.3328 55.2404 70.3328C55.0941 70.3328 54.9479 70.2311 54.9126 70.0785ZM52.6935 70.6367C52.6447 70.4473 52.7666 70.2565 52.9494 70.2171C53.1334 70.1802 53.315 70.2947 53.3637 70.4854C53.4003 70.6876 53.2918 70.8669 53.0956 70.9177C53.0712 70.9177 53.0469 70.9305 53.0225 70.9305C52.8641 70.9305 52.7312 70.816 52.6935 70.6367Z" fill="#FFC225"/>
<path d="M74.5556 57.3756C74.4106 57.2344 74.3972 57.0182 74.5203 56.8657C74.6409 56.7143 74.8603 56.7004 75.0065 56.8288C75.1528 56.956 75.165 57.1836 75.0309 57.3362C74.9712 57.4137 74.8737 57.4646 74.7762 57.4646C74.7019 57.4646 74.6178 57.4264 74.5556 57.3756ZM72.9848 59.1049C72.8496 58.965 72.8496 58.7361 72.9848 58.5963C73.1055 58.4551 73.3248 58.4551 73.4589 58.5963C73.5941 58.7234 73.5941 58.9523 73.4589 59.0909C73.3992 59.1685 73.3126 59.2066 73.2151 59.2066C73.1298 59.2066 73.0458 59.1685 72.9848 59.1049ZM71.3153 60.7312C71.1922 60.5926 71.2044 60.3625 71.3385 60.2366C71.3385 60.2366 71.3385 60.2366 71.3385 60.2239C71.4847 60.0955 71.7041 60.1094 71.8271 60.248C71.9478 60.4019 71.9478 60.6168 71.8015 60.7579C71.7406 60.8215 71.6553 60.8469 71.5712 60.8469C71.4847 60.8469 71.3872 60.8088 71.3153 60.7312ZM69.5715 62.2698C69.4496 62.1185 69.4739 61.8883 69.6202 61.7625C69.7664 61.634 69.9858 61.6607 70.1076 61.8133C70.2173 61.9659 70.1942 62.1948 70.0479 62.3207C69.9858 62.3716 69.9127 62.3982 69.8408 62.3982C69.7433 62.3982 69.6458 62.3601 69.5715 62.2698Z" fill="#FFC225"/>
<path d="M33.1918 46.8534C33.1223 46.8534 33.0516 46.8267 32.998 46.7707C32.8908 46.6588 32.8908 46.477 32.998 46.3651L35.1062 44.1666C35.2135 44.0547 35.3865 44.0547 35.4938 44.1666C35.601 44.2785 35.601 44.459 35.4938 44.5709L33.3867 46.7707C33.3331 46.8267 33.2625 46.8534 33.1918 46.8534Z" fill="#FFC225"/>
<path d="M34.163 47.8872C34.0936 47.8872 34.0229 47.8592 33.9692 47.8032C33.862 47.6913 33.862 47.5108 33.9692 47.3989L36.0775 45.1991C36.1847 45.0884 36.3578 45.0884 36.465 45.1991C36.5722 45.3109 36.5722 45.4928 36.465 45.6047L34.358 47.8032C34.3044 47.8592 34.2337 47.8872 34.163 47.8872Z" fill="#FFC225"/>
<path d="M32.201 45.8399C32.1303 45.8399 32.0609 45.8132 32.0073 45.7573C31.9 45.6454 31.9 45.4636 32.0073 45.3529L34.1143 43.1531C34.2215 43.0412 34.3958 43.0412 34.503 43.1531C34.6103 43.265 34.6103 43.4468 34.503 43.5575L32.3948 45.7573C32.3412 45.8132 32.2717 45.8399 32.201 45.8399Z" fill="#FFC225"/>
<path d="M50.8192 46.8534C50.7498 46.8534 50.6791 46.8267 50.6255 46.7707L48.5185 44.5709C48.4112 44.459 48.4112 44.2785 48.5185 44.1666C48.6257 44.0547 48.7987 44.0547 48.906 44.1666L51.013 46.3651C51.1202 46.477 51.1202 46.6588 51.013 46.7707C50.9606 46.8267 50.8899 46.8534 50.8192 46.8534Z" fill="#FFC225"/>
<path d="M49.848 47.8872C49.7785 47.8872 49.7078 47.8592 49.6542 47.8032L47.5472 45.6047C47.44 45.4928 47.44 45.3109 47.5472 45.1991C47.6545 45.0884 47.8275 45.0884 47.9347 45.1991L50.043 47.3989C50.1502 47.5108 50.1502 47.6913 50.043 47.8032C49.9893 47.8592 49.9187 47.8872 49.848 47.8872Z" fill="#FFC225"/>
<path d="M51.8112 45.8399C51.7405 45.8399 51.671 45.8132 51.6174 45.7573L49.5092 43.5575C49.402 43.4468 49.402 43.265 49.5092 43.1531C49.6164 43.0412 49.7907 43.0412 49.8967 43.1531L52.0049 45.3529C52.1122 45.4636 52.1122 45.6454 52.0049 45.7573C51.9513 45.8132 51.8807 45.8399 51.8112 45.8399Z" fill="#FFC225"/>
<path d="M42.0061 31.4598C41.855 31.4598 41.7319 31.3314 41.7319 31.1737V28.0634C41.7319 27.9058 41.855 27.7773 42.0061 27.7773C42.1572 27.7773 42.2803 27.9058 42.2803 28.0634V31.1737C42.2803 31.3314 42.1572 31.4598 42.0061 31.4598Z" fill="#FFC225"/>
<path d="M43.3941 30.3268C43.243 30.3268 43.1199 30.1997 43.1199 30.042V29.0222C43.1199 28.8645 43.243 28.7361 43.3941 28.7361C43.5452 28.7361 43.6671 28.8645 43.6671 29.0222V30.042C43.6671 30.1997 43.5452 30.3268 43.3941 30.3268Z" fill="#FFC225"/>
<path d="M40.6181 30.3268C40.467 30.3268 40.3451 30.1997 40.3451 30.042V29.0222C40.3451 28.8645 40.467 28.7361 40.6181 28.7361C40.7692 28.7361 40.8923 28.8645 40.8923 29.0222V30.042C40.8923 30.1997 40.7692 30.3268 40.6181 30.3268Z" fill="#FFC225"/>
<path d="M14.2043 17.1509C14.0873 17.1509 13.9789 17.0708 13.9423 16.9487C13.8985 16.7974 13.9813 16.6359 14.1251 16.5901L18.5585 15.194C18.7084 15.1533 18.8571 15.2359 18.9009 15.3847C18.9436 15.536 18.8619 15.6962 18.7181 15.742L14.2848 17.1394C14.2567 17.1471 14.2311 17.1509 14.2043 17.1509Z" fill="#FFC225"/>
<path d="M16.2187 18.0283C16.1005 18.0283 15.9921 17.9494 15.9555 17.8261C15.9129 17.6747 15.9945 17.5145 16.1383 17.4687L17.5921 17.0097C17.7457 16.9703 17.8895 17.053 17.9346 17.2018C17.9772 17.3531 17.8956 17.5132 17.7518 17.559L16.2979 18.0168C16.2711 18.0244 16.2443 18.0283 16.2187 18.0283Z" fill="#FFC225"/>
<path d="M15.4169 15.2575C15.2987 15.2575 15.1902 15.1774 15.1537 15.0541C15.111 14.9028 15.1926 14.7425 15.3364 14.6968L16.7903 14.239C16.9414 14.1983 17.0888 14.2797 17.1327 14.4297C17.1754 14.581 17.0937 14.7413 16.9487 14.787L15.4961 15.2461C15.4693 15.2524 15.4425 15.2575 15.4169 15.2575Z" fill="#FFC225"/>
<path d="M6.05294 28.8518C6.02613 28.8518 5.99686 28.848 5.97005 28.8391C5.82503 28.7908 5.74583 28.6306 5.79092 28.4792L6.69272 25.514C6.74024 25.3639 6.89377 25.2826 7.03879 25.3271C7.18259 25.3754 7.26179 25.5368 7.2167 25.6882L6.31493 28.6535C6.27715 28.7743 6.16993 28.8518 6.05294 28.8518Z" fill="#FFC225"/>
<path d="M7.70294 28.211C7.67613 28.211 7.64933 28.2071 7.62009 28.1982C7.47629 28.1499 7.39708 27.9897 7.44217 27.8384L7.73707 26.8669C7.78216 26.7156 7.93328 26.6342 8.08195 26.68C8.22575 26.7283 8.30617 26.8885 8.25987 27.0399L7.96497 28.0126C7.92841 28.1347 7.81993 28.211 7.70294 28.211Z" fill="#FFC225"/>
<path d="M5.05975 27.3348C5.03172 27.3348 5.00492 27.3323 4.97567 27.3234C4.83187 27.2751 4.75267 27.1149 4.79776 26.9623L5.09265 25.9921C5.14018 25.842 5.2913 25.7606 5.43753 25.8064C5.58133 25.8547 5.66176 26.0137 5.61667 26.1663L5.32055 27.1378C5.28277 27.2586 5.17552 27.3348 5.05975 27.3348Z" fill="#FFC225"/>
<path d="M17.5007 37.6536C17.4264 37.6536 17.3654 37.6269 17.3045 37.576C17.2558 37.5252 17.2192 37.4502 17.2192 37.3739C17.2192 37.2963 17.2558 37.2213 17.3045 37.1704C17.391 37.0687 17.6092 37.056 17.7067 37.1831C17.7444 37.2213 17.7798 37.2963 17.7798 37.3739C17.7798 37.4502 17.7444 37.5252 17.6957 37.576C17.6469 37.6269 17.5726 37.6536 17.5007 37.6536Z" fill="#FFC225"/>
<path d="M15.4656 38.2894C15.3681 38.161 15.3913 37.9715 15.5143 37.8825C15.635 37.7795 15.8056 37.8062 15.9031 37.9333C15.9884 38.0605 15.9652 38.2385 15.8421 38.3275C15.8421 38.3275 15.8421 38.3275 15.8421 38.3402C15.7934 38.3784 15.7325 38.3911 15.6837 38.3911C15.5984 38.3911 15.5144 38.353 15.4656 38.2894Z" fill="#FFC225"/>
<path d="M13.8558 39.1286C13.7839 39.1286 13.7096 39.1032 13.6608 39.0396C13.6121 38.976 13.5889 38.9124 13.5889 38.8476C13.5889 38.7726 13.6121 38.709 13.6608 38.6454C13.7705 38.5183 13.9655 38.5297 14.063 38.6454C14.0995 38.6963 14.1373 38.7598 14.1373 38.8476C14.1373 38.9124 14.0995 38.9887 14.0508 39.0396C14.002 39.1032 13.9289 39.1286 13.8558 39.1286Z" fill="#FFC225"/>
<path d="M21.1444 39.1261C20.1403 39.1261 19.6175 38.7052 19.1556 38.3326C18.7072 37.9702 18.3184 37.6574 17.5007 37.6574C17.3496 37.6574 17.2278 37.529 17.2278 37.3713C17.2278 37.2136 17.3496 37.0865 17.5007 37.0865C18.5061 37.0865 19.0289 37.5074 19.4908 37.8799C19.9392 38.2423 20.3279 38.5551 21.1444 38.5551C21.9609 38.5551 22.3484 38.2423 22.7969 37.8799C23.2587 37.5074 23.7815 37.0865 24.7857 37.0865C24.9368 37.0865 25.0599 37.2136 25.0599 37.3713C25.0599 37.529 24.9368 37.6574 24.7857 37.6574C23.9692 37.6574 23.5817 37.9702 23.1332 38.3326C22.6714 38.7052 22.1486 39.1261 21.1444 39.1261Z" fill="#FFC225"/>
<path d="M24.5078 39.6995C24.5078 39.5482 24.6285 39.4211 24.7869 39.4211C24.9331 39.4211 25.0562 39.5482 25.0562 39.6995C25.0562 39.8521 24.9331 39.9933 24.7869 39.9933C24.6285 39.9933 24.5078 39.8521 24.5078 39.6995ZM18.121 40.0683C17.9748 40.0174 17.8895 39.8661 17.926 39.7135C17.9626 39.5609 18.11 39.4719 18.2563 39.5101C18.4025 39.5482 18.4866 39.6996 18.4513 39.8521C18.4257 39.9806 18.316 40.0683 18.1819 40.0683C18.1698 40.0683 18.1466 40.0683 18.121 40.0683ZM22.8858 40.5019C22.7883 40.3747 22.8127 40.1967 22.9346 40.095C23.0564 40.0047 23.2283 40.0314 23.3258 40.1586C23.4098 40.2717 23.3867 40.4638 23.2636 40.5528C23.2149 40.5897 23.1539 40.6164 23.1052 40.6164C23.0211 40.6164 22.9346 40.5782 22.8858 40.5019ZM19.5955 40.9978C19.4615 40.9075 19.4261 40.7308 19.5102 40.6036C19.5955 40.4638 19.7662 40.4256 19.888 40.5146C20.0221 40.6036 20.0586 40.7816 19.9745 40.9075C19.9258 40.9978 19.8283 41.0487 19.7418 41.0487C19.693 41.0487 19.6443 41.022 19.5955 40.9978ZM21.2163 41.1886C21.2053 41.022 21.3028 40.8834 21.4613 40.8707C21.6075 40.8452 21.7537 40.9584 21.7659 41.1237C21.7769 41.2763 21.6672 41.4174 21.521 41.4301C21.51 41.4416 21.4978 41.4416 21.4978 41.4416C21.3516 41.4416 21.2285 41.3284 21.2163 41.1886Z" fill="#FFC225"/>
<path d="M21.1444 43.7876C20.9933 43.7876 20.8702 43.6592 20.8702 43.5015C20.8702 43.3439 20.9933 43.2167 21.1444 43.2167C21.9609 43.2167 22.3484 42.9039 22.7969 42.5415C23.2587 42.1689 23.7815 41.748 24.7857 41.748C24.9368 41.748 25.0599 41.8752 25.0599 42.0329C25.0599 42.1905 24.9368 42.319 24.7857 42.319C23.9692 42.319 23.5817 42.6318 23.1332 42.9942C22.6714 43.3667 22.1486 43.7876 21.1444 43.7876Z" fill="#FFC225"/>
<path d="M24.7869 35.4284C24.7028 35.4284 24.6285 35.4029 24.5919 35.3394C24.5444 35.2872 24.5078 35.2122 24.5078 35.1486C24.5078 35.0978 24.5188 35.0215 24.5919 34.9452C24.6772 34.8434 24.8844 34.8307 24.9819 34.9452C25.0428 35.0215 25.0562 35.0978 25.0562 35.1486C25.0562 35.2122 25.0306 35.2872 24.9819 35.3508C24.9209 35.4029 24.8612 35.4284 24.7869 35.4284Z" fill="#FFC225"/>
<path d="M22.7518 36.0514C22.6543 35.923 22.6799 35.7463 22.8005 35.6573C22.9236 35.5543 23.093 35.5809 23.1795 35.7068C23.277 35.8213 23.2514 36.0133 23.1308 36.1023C23.082 36.1392 23.0211 36.1659 22.959 36.1659C22.8858 36.1659 22.8005 36.1277 22.7518 36.0514ZM19.1702 36.115C19.0472 36.0133 19.024 35.8353 19.1081 35.7068C19.2056 35.5809 19.3774 35.567 19.498 35.6573C19.6211 35.759 19.6443 35.9357 19.5468 36.0641C19.4981 36.1392 19.4128 36.1659 19.3287 36.1659C19.2787 36.1659 19.219 36.1531 19.1702 36.115ZM20.8751 36.6109C20.8751 36.4571 20.9982 36.3312 21.1444 36.3312C21.3028 36.3312 21.4235 36.4571 21.4235 36.6109C21.4235 36.7635 21.3028 36.8894 21.1444 36.8894C20.9982 36.8894 20.8751 36.7635 20.8751 36.6109ZM21.1444 36.8894C21.1566 36.8894 21.1566 36.8894 21.1566 36.8894C21.1444 36.8894 21.1444 36.8894 21.1444 36.8894Z" fill="#FFC225"/>
<path d="M17.5007 35.4284C17.4264 35.4284 17.3654 35.4029 17.3045 35.3394C17.2558 35.2872 17.2192 35.2249 17.2192 35.1486C17.2192 35.0711 17.2558 34.996 17.3045 34.9452C17.391 34.8434 17.6092 34.8307 17.7067 34.9579C17.7444 34.996 17.7798 35.0711 17.7798 35.1486C17.7798 35.2249 17.7444 35.2872 17.6957 35.3508C17.6469 35.4029 17.5726 35.4284 17.5007 35.4284Z" fill="#FFC225"/>
<path d="M21.1444 34.6718C20.9933 34.6718 20.8702 34.5446 20.8702 34.3857C20.8702 34.228 20.9933 34.1009 21.1444 34.1009C21.9609 34.1009 22.3484 33.788 22.7969 33.4256C23.2587 33.0518 23.7815 32.6322 24.7857 32.6322C24.9368 32.6322 25.0599 32.7593 25.0599 32.917C25.0599 33.0747 24.9368 33.2031 24.7857 33.2031C23.9692 33.2031 23.5817 33.5159 23.1332 33.8783C22.6714 34.2509 22.1486 34.6718 21.1444 34.6718Z" fill="#FFC225"/>
<path d="M69.8067 17.1509C69.7811 17.1509 69.7543 17.1471 69.7275 17.1394L65.2941 15.742C65.1503 15.6962 65.0686 15.536 65.1113 15.3847C65.1576 15.2359 65.3038 15.1533 65.4537 15.194L69.8871 16.5901C70.0309 16.6359 70.1125 16.7974 70.0699 16.9487C70.0333 17.0708 69.9249 17.1509 69.8067 17.1509Z" fill="#FFC225"/>
<path d="M67.7935 18.0283C67.7679 18.0283 67.7411 18.0244 67.7143 18.0168L66.2604 17.559C66.1166 17.5132 66.035 17.3531 66.0776 17.2018C66.1227 17.053 66.2726 16.9703 66.4201 17.0097L67.8727 17.4687C68.0177 17.5145 68.0993 17.6747 68.0567 17.8261C68.0201 17.9494 67.9117 18.0283 67.7935 18.0283Z" fill="#FFC225"/>
<path d="M68.5953 15.2575C68.5698 15.2575 68.5429 15.2524 68.5161 15.2461L67.0623 14.787C66.9185 14.7413 66.8369 14.581 66.8795 14.4297C66.9246 14.2797 67.0708 14.1983 67.222 14.239L68.6758 14.6968C68.8196 14.7425 68.9012 14.9028 68.8586 15.0541C68.822 15.1774 68.7136 15.2575 68.5953 15.2575Z" fill="#FFC225"/>
<path d="M77.9593 28.8518C77.8423 28.8518 77.735 28.7743 77.6973 28.6535L76.7955 25.6882C76.7504 25.5368 76.8296 25.3754 76.9734 25.3271C77.1221 25.2826 77.2707 25.3639 77.3183 25.514L78.2213 28.4792C78.2664 28.6306 78.1859 28.7908 78.0421 28.8391C78.0153 28.848 77.9861 28.8518 77.9593 28.8518Z" fill="#FFC225"/>
<path d="M76.3081 28.211C76.1923 28.211 76.0838 28.1347 76.046 28.0126L75.7511 27.0399C75.706 26.8885 75.7865 26.7283 75.9303 26.68C76.0826 26.6342 76.2301 26.7156 76.2751 26.8669L76.57 27.8384C76.6151 27.9897 76.5359 28.1499 76.3921 28.1982C76.3629 28.2071 76.3361 28.211 76.3081 28.211Z" fill="#FFC225"/>
<path d="M78.9525 27.3348C78.8367 27.3348 78.7294 27.2586 78.6904 27.1378L78.3955 26.1663C78.3504 26.0137 78.4309 25.8547 78.5747 25.8064C78.7246 25.7619 78.8733 25.8433 78.9196 25.9921L79.2145 26.9623C79.2595 27.1149 79.1803 27.2751 79.0365 27.3234C79.0073 27.3323 78.9805 27.3348 78.9525 27.3348Z" fill="#FFC225"/>
<path d="M76.2032 40.9787C76.1776 40.9787 76.1508 40.9749 76.124 40.9673C75.9802 40.9215 75.8974 40.7613 75.9412 40.61L76.804 37.632C76.8491 37.4819 76.9941 37.4031 77.1464 37.4412C77.2902 37.487 77.3719 37.6472 77.3292 37.7985L76.4664 40.7766C76.4299 40.8999 76.3214 40.9787 76.2032 40.9787Z" fill="#FFC225"/>
<path d="M77.7533 40.6723C77.7277 40.6723 77.7021 40.6685 77.6753 40.6608C77.5303 40.6163 77.4474 40.4574 77.4901 40.3061L77.8654 38.9722C77.9056 38.8222 78.0519 38.7319 78.2054 38.7789C78.3504 38.8234 78.4333 38.9824 78.3906 39.1337L78.0165 40.4676C77.9812 40.5909 77.8727 40.6723 77.7533 40.6723Z" fill="#FFC225"/>
<path d="M71.1496 48.7849C71.074 48.7849 71.0009 48.7531 70.9473 48.6921C70.8449 48.5751 70.8534 48.3932 70.9656 48.2877L73.1688 46.1947C73.2822 46.0866 73.4552 46.0968 73.5564 46.2125C73.6587 46.3295 73.6502 46.5113 73.5381 46.6169L71.3336 48.7099C71.2812 48.7607 71.2154 48.7849 71.1496 48.7849Z" fill="#FFC225"/>
<path d="M7.80776 40.9787C7.69077 40.9787 7.58232 40.8999 7.54577 40.7766L6.68297 37.7985C6.6391 37.6472 6.72196 37.487 6.86576 37.4412C7.01809 37.4031 7.16433 37.4819 7.2082 37.632L8.07097 40.61C8.11362 40.7613 8.03197 40.9215 7.88818 40.9673C7.86015 40.9749 7.83457 40.9787 7.80776 40.9787Z" fill="#FFC225"/>
<path d="M6.25889 40.6723C6.13946 40.6723 6.0298 40.5909 5.99568 40.4676L5.62033 39.1337C5.57768 38.9824 5.66177 38.8234 5.80678 38.7789C5.95789 38.7331 6.10413 38.8222 6.14678 38.9722L6.5221 40.3061C6.56475 40.4574 6.48188 40.6163 6.33565 40.6608C6.31006 40.6685 6.28326 40.6723 6.25889 40.6723Z" fill="#FFC225"/>
<path d="M12.8626 48.7849C12.7968 48.7849 12.7298 48.7607 12.6774 48.7099L10.4741 46.6169C10.362 46.5113 10.3535 46.3295 10.4558 46.2125C10.5558 46.0968 10.7312 46.0866 10.8434 46.1947L13.0466 48.2877C13.1588 48.3932 13.1673 48.5751 13.0649 48.6921C13.0113 48.7531 12.937 48.7849 12.8626 48.7849Z" fill="#FFC225"/>
<path d="M66.5127 37.6536C66.4408 37.6536 66.3665 37.6269 66.3177 37.576C66.269 37.5137 66.2336 37.4502 66.2336 37.3739C66.2336 37.2963 66.269 37.2213 66.3177 37.1704C66.4152 37.0687 66.5992 37.0687 66.6967 37.1704C66.7686 37.2467 66.7808 37.323 66.7808 37.3739C66.7808 37.4502 66.7564 37.5252 66.6967 37.576C66.648 37.6269 66.587 37.6536 66.5127 37.6536Z" fill="#FFC225"/>
<path d="M68.1713 38.3402C68.036 38.2385 68.0238 38.0605 68.1225 37.9333C68.2066 37.8062 68.3784 37.7795 68.4991 37.8825C68.6221 37.9842 68.6331 38.1609 68.5478 38.2767C68.499 38.353 68.415 38.3911 68.3285 38.3911C68.2687 38.3911 68.22 38.3784 68.1713 38.3402Z" fill="#FFC225"/>
<path d="M70.1564 39.1286C70.0833 39.1286 70.0223 39.1032 69.9614 39.0511C69.9017 38.9887 69.8761 38.9125 69.8761 38.8362C69.8761 38.7599 69.9017 38.6963 69.9614 38.6314C70.0479 38.5297 70.2551 38.5297 70.3526 38.6454C70.4013 38.6963 70.4245 38.7726 70.4245 38.8362C70.4245 38.9125 70.4013 38.9887 70.3526 39.0396C70.2783 39.1032 70.2173 39.1286 70.1564 39.1286Z" fill="#FFC225"/>
<path d="M62.8678 39.1261C61.8636 39.1261 61.3408 38.7052 60.879 38.3326C60.4305 37.9702 60.043 37.6574 59.2265 37.6574C59.0754 37.6574 58.9523 37.529 58.9523 37.3713C58.9523 37.2136 59.0754 37.0865 59.2265 37.0865C60.2307 37.0865 60.7535 37.5074 61.2153 37.8799C61.6638 38.2423 62.0513 38.5551 62.8678 38.5551C63.6843 38.5551 64.0718 38.2423 64.5203 37.8799C64.9821 37.5074 65.5049 37.0865 66.509 37.0865C66.6601 37.0865 66.7832 37.2136 66.7832 37.3713C66.7832 37.529 66.6601 37.6574 66.509 37.6574C65.6926 37.6574 65.305 37.9702 64.8566 38.3326C64.3947 38.7052 63.8719 39.1261 62.8678 39.1261Z" fill="#FFC225"/>
<path d="M58.9572 39.6995C58.9572 39.5482 59.0803 39.4211 59.2265 39.4211C59.3849 39.4211 59.5056 39.5482 59.5056 39.6995C59.5056 39.8661 59.3849 39.9933 59.2265 39.9933C59.0803 39.9933 58.9572 39.8661 58.9572 39.6995ZM65.55 39.8521C65.5134 39.6996 65.5987 39.5482 65.7571 39.5101C65.9034 39.4719 66.0496 39.5609 66.0874 39.7135C66.1227 39.8661 66.0387 40.0174 65.8912 40.0568V40.0683C65.8668 40.0683 65.8425 40.0683 65.8181 40.0683C65.6962 40.0683 65.5865 39.9806 65.55 39.8521ZM60.7498 40.5528C60.6267 40.4638 60.6036 40.2717 60.6876 40.1586C60.7851 40.0314 60.957 40.0047 61.0776 40.095C61.1995 40.1967 61.2129 40.3747 61.1264 40.5019C61.0776 40.5782 60.9923 40.6164 60.9082 40.6164C60.8461 40.6164 60.7985 40.5897 60.7498 40.5528ZM64.0389 40.9075C63.9548 40.7816 63.9901 40.6036 64.1132 40.5146C64.2461 40.4256 64.4179 40.4638 64.502 40.6036C64.5751 40.7308 64.5385 40.9075 64.4179 40.9978C64.3679 41.022 64.3192 41.0487 64.2704 41.0487C64.1729 41.0487 64.0876 40.9978 64.0389 40.9075ZM62.4912 41.4416C62.334 41.4174 62.2243 41.2763 62.2475 41.1237C62.2597 40.9584 62.4059 40.8452 62.5522 40.8707C62.6984 40.8834 62.8081 41.022 62.7959 41.1746C62.7715 41.3284 62.6496 41.4416 62.5156 41.4416C62.5034 41.4416 62.5034 41.4416 62.4912 41.4416Z" fill="#FFC225"/>
<path d="M62.8678 43.7876C61.8636 43.7876 61.3408 43.3667 60.879 42.9942C60.4305 42.6318 60.043 42.319 59.2265 42.319C59.0754 42.319 58.9523 42.1905 58.9523 42.0329C58.9523 41.8752 59.0754 41.748 59.2265 41.748C60.2307 41.748 60.7535 42.1689 61.2153 42.5415C61.6638 42.9039 62.0513 43.2167 62.8678 43.2167C63.0189 43.2167 63.142 43.3439 63.142 43.5015C63.142 43.6592 63.0189 43.7876 62.8678 43.7876Z" fill="#FFC225"/>
<path d="M59.2265 35.4284C59.1522 35.4284 59.0803 35.4029 59.0316 35.3508C58.9828 35.2872 58.9572 35.2249 58.9572 35.1486C58.9572 35.0711 58.9828 34.996 59.0316 34.9452C59.1644 34.8167 59.2984 34.8307 59.4081 34.9312C59.469 35.0087 59.5056 35.0711 59.5056 35.1486C59.5056 35.2122 59.4824 35.2872 59.4337 35.3394C59.3715 35.4029 59.2984 35.4284 59.2265 35.4284Z" fill="#FFC225"/>
<path d="M60.8826 36.1023C60.762 36.0133 60.7364 35.8353 60.8339 35.7068C60.9192 35.5809 61.0898 35.5543 61.2129 35.6573C61.3335 35.7463 61.3591 35.923 61.2616 36.0514C61.2129 36.1277 61.1264 36.1659 61.0411 36.1659C60.9923 36.1659 60.9314 36.1392 60.8826 36.1023ZM64.4666 36.0641C64.3679 35.9357 64.3923 35.759 64.5154 35.6573C64.636 35.5543 64.8066 35.5809 64.8919 35.7068C64.9894 35.8353 64.9662 36.0133 64.8432 36.115C64.7944 36.1531 64.7335 36.1659 64.6726 36.1659C64.5995 36.1659 64.5154 36.1277 64.4666 36.0641ZM62.8568 36.8894C62.7106 36.8894 62.5899 36.7635 62.5899 36.6109C62.5899 36.4456 62.7106 36.3312 62.869 36.3312C63.0152 36.3312 63.1383 36.4571 63.1383 36.6109C63.1383 36.7635 63.0152 36.9034 62.869 36.9034C62.7106 36.8894 62.869 36.9034 62.8568 36.8894Z" fill="#FFC225"/>
<path d="M66.5127 35.4284C66.4408 35.4284 66.3665 35.4029 66.3177 35.3508C66.269 35.2999 66.2336 35.2249 66.2336 35.1486C66.2336 35.0711 66.269 34.996 66.3177 34.9452C66.4152 34.8434 66.5992 34.8434 66.6967 34.9452C66.7564 34.996 66.7808 35.0711 66.7808 35.1486C66.7808 35.2249 66.7564 35.2999 66.6967 35.3508C66.648 35.4029 66.587 35.4284 66.5127 35.4284Z" fill="#FFC225"/>
<path d="M62.8678 34.6718C61.8636 34.6718 61.3408 34.2509 60.879 33.8783C60.4305 33.5159 60.043 33.2031 59.2265 33.2031C59.0754 33.2031 58.9523 33.0747 58.9523 32.917C58.9523 32.7593 59.0754 32.6322 59.2265 32.6322C60.2307 32.6322 60.7535 33.0518 61.2153 33.4256C61.6638 33.788 62.0513 34.1009 62.8678 34.1009C63.0189 34.1009 63.142 34.228 63.142 34.3857C63.142 34.5446 63.0189 34.6718 62.8678 34.6718Z" fill="#FFC225"/>
<path d="M29.7784 61.9608C29.5261 61.9608 29.3214 61.7472 29.3214 61.484C29.3214 60.6257 28.9948 59.7788 28.6512 58.8811C28.288 57.9389 27.9139 56.9649 27.9139 55.9234C27.9931 52.4292 29.436 49.9204 30.4901 48.0893C31.2798 46.7173 31.7099 45.9213 31.3321 45.5284C31.1554 45.3428 31.1554 45.0388 31.3321 44.8532C31.5113 44.6663 31.8013 44.6663 31.9792 44.8532C32.8786 45.7916 32.1706 47.0225 31.2737 48.5814C30.2719 50.3209 28.901 52.7038 28.8279 55.9349C28.8279 56.7818 29.1545 57.6286 29.4981 58.5263C29.8613 59.4686 30.2354 60.4426 30.2354 61.484C30.2354 61.7472 30.0306 61.9608 29.7784 61.9608Z" fill="#FFC225"/>
<path d="M32.5349 65.7603C32.2827 65.7603 32.0779 65.5467 32.0779 65.2834C32.0779 64.4963 31.811 64.1339 31.4698 63.6762C31.0969 63.1701 30.6717 62.5966 30.6717 61.484C30.6717 61.2208 30.8764 61.0072 31.1286 61.0072C31.3809 61.0072 31.5856 61.2208 31.5856 61.484C31.5856 62.2711 31.8537 62.6335 32.1937 63.0925C32.5678 63.5974 32.9919 64.1708 32.9919 65.2834C32.9919 65.5467 32.7872 65.7603 32.5349 65.7603Z" fill="#FFC225"/>
<path d="M35.3085 68.8565C35.0563 68.8565 34.8515 68.6429 34.8515 68.3797C34.8515 67.5926 34.5834 67.2302 34.2434 66.7712C33.8693 66.2664 33.4453 65.6929 33.4453 64.5803C33.4453 64.3171 33.6488 64.1034 33.9022 64.1034C34.1545 64.1034 34.3592 64.3171 34.3592 64.5803C34.3592 65.3674 34.6261 65.7297 34.9673 66.1875C35.3402 66.6936 35.7655 67.2671 35.7655 68.3797C35.7655 68.6429 35.5608 68.8565 35.3085 68.8565Z" fill="#FFC225"/>
<path d="M38.0651 71.2483C37.8128 71.2483 37.6081 71.0347 37.6081 70.7715C37.6081 69.9831 37.34 69.6208 37 69.1617C36.6259 68.6556 36.2018 68.0834 36.2018 66.9708C36.2018 66.7063 36.4065 66.494 36.6588 66.494C36.911 66.494 37.1157 66.7063 37.1157 66.9708C37.1157 67.7579 37.3838 68.1203 37.7238 68.5781C38.098 69.0854 38.522 69.6576 38.522 70.7715C38.522 71.0347 38.3185 71.2483 38.0651 71.2483Z" fill="#FFC225"/>
<path d="M40.4865 72.9344C40.2342 72.9344 40.0295 72.7208 40.0295 72.4576C40.0295 71.6705 39.7602 71.3081 39.4214 70.8491C39.046 70.3443 38.622 69.7708 38.622 68.6582C38.622 68.3949 38.8267 68.1813 39.079 68.1813C39.3312 68.1813 39.536 68.3949 39.536 68.6582C39.536 69.4453 39.8041 69.8077 40.144 70.2654C40.5182 70.7715 40.9434 71.345 40.9434 72.4576C40.9434 72.7208 40.7387 72.9344 40.4865 72.9344Z" fill="#FFC225"/>
<path d="M54.2338 61.9608C53.9815 61.9608 53.7768 61.7472 53.7768 61.484C53.7768 60.4426 54.1509 59.4686 54.5141 58.5263C54.8577 57.6286 55.1831 56.7817 55.1831 55.9234C55.1112 52.7038 53.7402 50.3209 52.7385 48.5814C51.8416 47.0225 51.1336 45.7916 52.0317 44.8532C52.2109 44.6663 52.5009 44.6663 52.68 44.8532C52.8567 45.0388 52.8567 45.3428 52.68 45.5284C52.3023 45.9213 52.7325 46.7173 53.5221 48.0893C54.575 49.9204 56.0191 52.4292 56.0971 55.912C56.0971 56.9648 55.7242 57.9389 55.361 58.8811C55.0174 59.7788 54.6908 60.6257 54.6908 61.484C54.6908 61.7472 54.486 61.9608 54.2338 61.9608Z" fill="#FFC225"/>
<path d="M51.4761 65.7603C51.2238 65.7603 51.0191 65.5467 51.0191 65.2834C51.0191 64.1708 51.4444 63.5974 51.8185 63.0925C52.1585 62.6335 52.4266 62.2711 52.4266 61.484C52.4266 61.2208 52.6313 61.0072 52.8836 61.0072C53.1358 61.0072 53.3405 61.2208 53.3405 61.484C53.3405 62.5966 52.9153 63.1701 52.5411 63.6762C52.2011 64.1339 51.933 64.4963 51.933 65.2834C51.933 65.5467 51.7283 65.7603 51.4761 65.7603Z" fill="#FFC225"/>
<path d="M48.7025 68.8565C48.4502 68.8565 48.2455 68.6429 48.2455 68.3797C48.2455 67.2671 48.6708 66.6936 49.0449 66.1875C49.3849 65.7297 49.653 65.3674 49.653 64.5803C49.653 64.3171 49.8577 64.1034 50.11 64.1034C50.3622 64.1034 50.567 64.3171 50.567 64.5803C50.567 65.6929 50.1429 66.2664 49.7675 66.7712C49.4288 67.2302 49.1595 67.5926 49.1595 68.3797C49.1595 68.6429 48.9547 68.8565 48.7025 68.8565Z" fill="#FFC225"/>
<path d="M45.9459 71.2483C45.6937 71.2483 45.4889 71.0347 45.4889 70.7715C45.4889 69.6576 45.9142 69.0854 46.2884 68.5781C46.6284 68.1203 46.8965 67.7579 46.8965 66.9708C46.8965 66.7063 47.1012 66.494 47.3534 66.494C47.6057 66.494 47.8104 66.7063 47.8104 66.9708C47.8104 68.0834 47.3863 68.6556 47.011 69.1617C46.6722 69.6208 46.4029 69.9831 46.4029 70.7715C46.4029 71.0347 46.1982 71.2483 45.9459 71.2483Z" fill="#FFC225"/>
<path d="M43.5257 72.9344C43.2735 72.9344 43.0688 72.7208 43.0688 72.4576C43.0688 71.345 43.494 70.7715 43.8681 70.2654C44.2081 69.8077 44.4762 69.4453 44.4762 68.6582C44.4762 68.3949 44.681 68.1813 44.9332 68.1813C45.1855 68.1813 45.3902 68.3949 45.3902 68.6582C45.3902 69.7708 44.9662 70.3443 44.5908 70.8491C44.252 71.3081 43.9827 71.6705 43.9827 72.4576C43.9827 72.7208 43.778 72.9344 43.5257 72.9344Z" fill="#FFC225"/>
<path d="M42.0061 74C41.7539 74 41.5491 73.7864 41.5491 73.5232V69.2456C41.5491 68.9824 41.7539 68.7688 42.0061 68.7688C42.2584 68.7688 42.4631 68.9824 42.4631 69.2456V73.5232C42.4631 73.7864 42.2584 74 42.0061 74Z" fill="#FFC225"/>
<path d="M22.073 60.0688C22.0255 60.0688 21.9779 60.056 21.9353 60.0306C21.8049 59.9505 21.761 59.7737 21.8366 59.639L25.2987 53.468C25.3743 53.3294 25.5449 53.2875 25.6741 53.3651C25.8044 53.4452 25.8483 53.6206 25.7727 53.7567L22.3106 59.9263C22.2594 60.0191 22.1681 60.0688 22.073 60.0688Z" fill="#FFC225"/>
<path d="M21.0554 56.9636L21.5917 56.839L22.179 59.5932L24.7686 58.7794L24.927 59.3287L21.772 60.318L21.0554 56.9636Z" fill="#FFC225"/>
<path d="M61.938 60.0688C61.8441 60.0688 61.7527 60.0191 61.7015 59.9263L58.2394 53.7567C58.1639 53.6206 58.2077 53.4452 58.3381 53.3651C58.4661 53.2875 58.6355 53.3294 58.7135 53.468L62.1756 59.639C62.2511 59.7737 62.2073 59.9505 62.0769 60.0306C62.033 60.056 61.9855 60.0688 61.938 60.0688Z" fill="#FFC225"/>
<path d="M59.0852 59.3287L59.2424 58.7806L61.832 59.5932L62.4193 56.839L62.9555 56.9636L62.239 60.318L59.0852 59.3287Z" fill="#FFC225"/>
<path d="M30.8922 13.6973C30.3328 13.6973 29.8076 13.9249 29.4116 14.3369C28.5963 15.1876 28.5963 16.5749 29.4128 17.4255C30.2025 18.2495 31.5832 18.2495 32.3716 17.4255C32.7677 17.0123 32.9858 16.4642 32.9858 15.8806C32.9858 15.2982 32.7677 14.7489 32.3716 14.3369C31.9768 13.9249 31.4515 13.6973 30.8922 13.6973ZM30.8922 19.0175C30.0903 19.0175 29.3336 18.692 28.7669 18.1007C27.5934 16.8762 27.5934 14.885 28.7657 13.6604C29.9051 12.4792 31.8842 12.4804 33.0187 13.6604C33.5866 14.2543 33.8998 15.0414 33.8998 15.8806C33.8998 16.7198 33.5866 17.5069 33.0187 18.1007C32.4508 18.692 31.6953 19.0175 30.8922 19.0175Z" fill="#FFC225"/>
<path d="M35.0124 16.2405C34.9149 16.2405 34.8162 16.2023 34.7565 16.126C34.7077 16.0751 34.67 15.9861 34.67 15.8844C34.67 15.7827 34.7077 15.6936 34.7674 15.6301C34.8284 15.5665 34.9149 15.5271 35.0124 15.5271C35.0965 15.5271 35.1818 15.5665 35.2427 15.6301C35.3171 15.6936 35.3524 15.7827 35.3524 15.8844C35.3524 15.9734 35.3171 16.0751 35.2427 16.1387C35.194 16.2023 35.0965 16.2405 35.0124 16.2405Z" fill="#FFC225"/>
<path d="M34.28 18.3372C34.1216 18.2368 34.0606 18.0193 34.1581 17.8426V17.8553C34.2568 17.6773 34.4628 17.6137 34.6334 17.7154C34.7918 17.8159 34.8405 18.0334 34.7565 18.2114C34.6943 18.3258 34.5725 18.3881 34.4628 18.3881C34.4031 18.3881 34.3409 18.3639 34.28 18.3372ZM32.6592 19.7741C32.5617 19.6088 32.6239 19.3926 32.7823 19.2909C32.9395 19.1905 33.1589 19.2401 33.2564 19.4194C33.3429 19.5847 33.2929 19.8123 33.1223 19.9153C33.1223 19.9153 33.1223 19.9153 33.1223 19.9025C33.0748 19.9407 33.0126 19.9534 32.9517 19.9534C32.8311 19.9534 32.7214 19.8899 32.6592 19.7741Z" fill="#FFC225"/>
<path d="M30.8934 20.5383C30.7959 20.5383 30.7094 20.5002 30.6497 20.4239C30.5888 20.359 30.551 20.2713 30.551 20.1696C30.551 20.0806 30.5888 19.9776 30.6607 19.9153C30.7704 19.7881 31.0141 19.8008 31.1359 19.9267C31.1981 19.9776 31.2334 20.0806 31.2334 20.1696C31.2334 20.2713 31.1981 20.359 31.1359 20.4239C31.075 20.4875 30.9897 20.5383 30.8934 20.5383Z" fill="#FFC225"/>
<path d="M26.7733 16.2405C26.677 16.2405 26.5904 16.2023 26.5307 16.126C26.482 16.0751 26.4333 15.9861 26.4333 15.8844C26.4333 15.7827 26.4686 15.6796 26.5417 15.6173C26.6404 15.5156 26.9073 15.4902 27.0292 15.6416C27.0779 15.6937 27.1267 15.7827 27.1267 15.8844C27.1267 15.9861 27.0779 16.0751 27.0048 16.1387C26.9561 16.2023 26.8708 16.2405 26.7733 16.2405Z" fill="#FFC225"/>
<path d="M28.5281 12.3482C28.4306 12.1714 28.4915 11.9553 28.6633 11.8536C28.8218 11.7518 29.0277 11.8154 29.1264 11.9794C29.2239 12.1587 29.1618 12.3749 29.0033 12.4766C28.9546 12.5008 28.8937 12.5147 28.8327 12.5147C28.7121 12.5147 28.6012 12.4626 28.5281 12.3482ZM27.151 14.0406C26.9938 13.9376 26.9329 13.7227 27.0292 13.5574C27.1267 13.3921 27.3338 13.3286 27.4935 13.4163C27.6629 13.518 27.7238 13.7342 27.6263 13.9135C27.5544 14.0279 27.4447 14.0902 27.3217 14.0902C27.2729 14.0902 27.212 14.0788 27.151 14.0406Z" fill="#FFC225"/>
<path d="M30.8934 11.9425C30.7959 11.9425 30.7094 11.9044 30.6497 11.8408C30.5888 11.776 30.551 11.6882 30.551 11.5865C30.551 11.4848 30.5888 11.3945 30.6607 11.3322C30.7704 11.205 31.0263 11.205 31.1359 11.3436C31.1981 11.3945 31.2334 11.4975 31.2334 11.5865C31.2334 11.6882 31.1981 11.776 31.1238 11.8408C31.075 11.9044 30.9897 11.9425 30.8934 11.9425Z" fill="#FFC225"/>
<path d="M30.8934 14.8366C30.6253 14.8366 30.3743 14.946 30.1854 15.143C29.9953 15.3401 29.8905 15.6021 29.8905 15.8806C29.8905 16.1591 29.9953 16.4223 30.1854 16.6194C30.562 17.0123 31.22 17.0136 31.6002 16.6194C31.7891 16.4223 31.8927 16.1591 31.8927 15.8806C31.8927 15.6021 31.7891 15.3401 31.6002 15.143C31.4113 14.946 31.1603 14.8366 30.8934 14.8366ZM30.8934 17.4967C30.4791 17.4967 30.0904 17.3301 29.7967 17.0237C29.5042 16.7185 29.3421 16.3129 29.3421 15.8806C29.3421 15.4495 29.5042 15.0439 29.7967 14.7374C30.3816 14.1283 31.4016 14.1258 31.9878 14.7374C32.2802 15.0439 32.4411 15.4495 32.4411 15.8806C32.4411 16.3129 32.2802 16.7185 31.9878 17.0237C31.6953 17.3301 31.3065 17.4967 30.8934 17.4967Z" fill="#FFC225"/>
<path d="M53.12 13.6973C52.5606 13.6973 52.0342 13.9249 51.6405 14.3369C50.8241 15.1876 50.8241 16.5749 51.6405 17.4255C52.429 18.2495 53.8073 18.2495 54.6006 17.4255C55.4159 16.5749 55.4159 15.1876 54.5994 14.3357C54.2045 13.9249 53.6793 13.6973 53.12 13.6973ZM53.12 19.0175C52.3169 19.0175 51.5614 18.692 50.9935 18.1007C49.8212 16.8762 49.8212 14.885 50.9935 13.6604C52.128 12.4804 54.1095 12.4779 55.2453 13.6604C56.4176 14.885 56.4176 16.8762 55.2465 18.0994C54.6774 18.692 53.9218 19.0175 53.12 19.0175Z" fill="#FFC225"/>
<path d="M49.001 16.2405C48.9169 16.2405 48.8194 16.2023 48.7573 16.126C48.7085 16.0751 48.6598 15.9861 48.6598 15.8844C48.6598 15.7827 48.6964 15.6936 48.7573 15.6301C48.8304 15.5665 48.9169 15.5271 49.001 15.5271C49.0985 15.5271 49.185 15.5665 49.2448 15.6301C49.3057 15.6936 49.3422 15.7827 49.3422 15.8844C49.3422 15.9861 49.3057 16.0751 49.2448 16.1387C49.196 16.2023 49.0985 16.2405 49.001 16.2405Z" fill="#FFC225"/>
<path d="M49.2569 18.2114C49.1595 18.0334 49.2216 17.8159 49.38 17.7154C49.5494 17.6137 49.7566 17.6773 49.8541 17.8426C49.9516 18.0193 49.8918 18.2368 49.72 18.3372C49.6713 18.3767 49.6103 18.3881 49.5494 18.3881C49.4397 18.3881 49.3179 18.3258 49.2569 18.2114ZM50.8899 19.9025H50.8777C50.7193 19.8008 50.6705 19.5847 50.7571 19.4194C50.8545 19.2401 51.0617 19.1905 51.2311 19.2909C51.2311 19.2909 51.2311 19.2909 51.2311 19.2795C51.3895 19.3812 51.4505 19.5974 51.3542 19.7741C51.292 19.8899 51.1702 19.9534 51.0617 19.9534C51.0008 19.9534 50.9386 19.9407 50.8899 19.9025Z" fill="#FFC225"/>
<path d="M53.12 20.5383C53.0359 20.5383 52.9384 20.5002 52.8775 20.4239C52.8153 20.359 52.78 20.2713 52.78 20.1696C52.78 20.0806 52.8153 19.9776 52.8897 19.9153C52.9871 19.8008 53.2431 19.7881 53.3637 19.9267C53.4246 19.9776 53.4612 20.0806 53.4612 20.1696C53.4612 20.2713 53.4246 20.359 53.3637 20.4239C53.3028 20.5002 53.2053 20.5383 53.12 20.5383Z" fill="#FFC225"/>
<path d="M57.239 16.2405C57.1427 16.2405 57.0452 16.2023 56.983 16.126C56.9343 16.0751 56.899 15.9861 56.899 15.8844C56.899 15.7827 56.9343 15.6936 56.9964 15.6301C57.0561 15.5665 57.1427 15.5271 57.239 15.5271C57.3243 15.5271 57.4108 15.5665 57.4705 15.6301C57.5436 15.6936 57.5801 15.7827 57.5801 15.8844C57.5801 15.9861 57.5314 16.0751 57.4705 16.1387C57.4217 16.2023 57.3243 16.2405 57.239 16.2405Z" fill="#FFC225"/>
<path d="M55.0101 12.4766C54.8383 12.3749 54.7895 12.1587 54.887 11.9794C54.9735 11.8154 55.1917 11.7518 55.3501 11.8536C55.5219 11.9553 55.5706 12.1714 55.4731 12.3482C55.411 12.4511 55.3013 12.5147 55.1795 12.5147C55.1198 12.5147 55.0576 12.5008 55.0101 12.4766ZM56.3871 13.9135C56.2896 13.7482 56.3494 13.518 56.5078 13.4303C56.6784 13.3286 56.8856 13.3794 56.983 13.5574C57.0805 13.7227 57.0196 13.9503 56.8612 14.0406C56.8015 14.0788 56.7405 14.0902 56.6784 14.0902C56.5687 14.0902 56.4468 14.0279 56.3871 13.9135Z" fill="#FFC225"/>
<path d="M53.12 11.9425C53.0225 11.9425 52.9384 11.9044 52.8775 11.8269C52.8153 11.776 52.78 11.6882 52.78 11.5865C52.78 11.4848 52.8153 11.3945 52.8897 11.3322C52.9737 11.2178 53.2431 11.191 53.3637 11.3436C53.4246 11.3945 53.4612 11.4848 53.4612 11.5865C53.4612 11.6882 53.4246 11.776 53.3637 11.8408C53.3028 11.9044 53.2175 11.9425 53.12 11.9425Z" fill="#FFC225"/>
<path d="M53.1188 14.8366C52.8519 14.8366 52.6008 14.946 52.412 15.143C52.2231 15.3401 52.1195 15.6021 52.1195 15.8806C52.1195 16.1591 52.2231 16.4223 52.412 16.6194C52.791 17.0136 53.4502 17.0136 53.8268 16.6194C54.0157 16.4223 54.1205 16.1591 54.1205 15.8806C54.1205 15.6021 54.0157 15.3401 53.8268 15.143C53.6379 14.946 53.3869 14.8366 53.1188 14.8366ZM53.1188 17.4967C52.7057 17.4967 52.3169 17.3301 52.0244 17.0237C51.7308 16.7185 51.5711 16.3129 51.5711 15.8806C51.5711 15.4495 51.7308 15.0439 52.0244 14.7374C52.6106 14.1258 53.6294 14.1283 54.2143 14.7374C54.508 15.0439 54.6689 15.4495 54.6689 15.8806C54.6689 16.3129 54.508 16.7185 54.2143 17.0237C53.9218 17.3301 53.5331 17.4967 53.1188 17.4967Z" fill="#FFC225"/>
<path d="M42.0305 1.40127C42.0305 1.40127 42.0305 1.40127 42.0426 1.40127C41.8477 1.40127 41.6893 1.23472 41.7015 1.04525C41.7015 0.841803 41.8477 0.689178 42.0426 0.689178C42.2376 0.689178 42.3839 0.853248 42.3839 1.04525C42.3729 1.2487 42.2267 1.40127 42.0426 1.40127H42.0305ZM39.971 1.69246C39.8735 1.52843 39.9357 1.31226 40.105 1.21053C40.2635 1.10881 40.4706 1.17114 40.5681 1.33645C40.6656 1.51574 40.6047 1.73186 40.4341 1.83359C40.3865 1.85775 40.3244 1.87047 40.2635 1.87047C40.1538 1.87047 40.0331 1.8069 39.971 1.69246ZM43.6269 1.85774C43.4563 1.75601 43.4075 1.53987 43.4941 1.37457C43.5915 1.19782 43.8097 1.14693 43.9681 1.24865C44.1265 1.33639 44.1874 1.56658 44.09 1.73189C44.029 1.84633 43.9072 1.90865 43.7987 1.90865C43.7378 1.90865 43.6756 1.89716 43.6269 1.85774ZM38.7889 3.156C38.6305 3.05428 38.5818 2.83814 38.6683 2.67283C38.7658 2.49354 38.9839 2.44271 39.1423 2.54443C39.3008 2.64616 39.3617 2.86228 39.2642 3.04157C39.1911 3.14203 39.0814 3.20691 38.9595 3.20691C38.9108 3.20691 38.8498 3.19288 38.7889 3.156ZM44.7846 3.09242C44.6871 2.91441 44.748 2.69825 44.9076 2.59653C45.0661 2.49353 45.2842 2.55712 45.3707 2.73641C45.4682 2.90171 45.4061 3.11786 45.2476 3.21958C45.1867 3.25773 45.138 3.27049 45.077 3.27049C44.9564 3.27049 44.8455 3.20687 44.7846 3.09242ZM38.1309 4.73149C38.1309 4.71877 38.1309 4.71878 38.1309 4.70734C38.1309 4.69462 38.1309 4.6946 38.1309 4.68188C38.1309 4.47843 38.2893 4.32587 38.4721 4.32587C38.6683 4.32587 38.8145 4.49116 38.8145 4.69461V4.70734C38.8145 4.71878 38.8145 4.71877 38.8145 4.73149C38.8145 4.9235 38.6683 5.08756 38.4721 5.08756C38.2893 5.08756 38.1309 4.9235 38.1309 4.73149ZM45.1989 4.74546C45.1989 4.55345 45.3452 4.38943 45.5401 4.40087C45.7241 4.40087 45.8825 4.55346 45.8825 4.75819C45.8704 4.94892 45.7241 5.11426 45.5292 5.11426C45.3451 5.10028 45.1867 4.94891 45.1989 4.74546ZM38.6549 6.75457C38.5586 6.57528 38.6061 6.35909 38.7767 6.25737C38.9352 6.15691 39.1423 6.22052 39.2398 6.38583C39.3373 6.56385 39.2776 6.77873 39.1192 6.88173C39.057 6.90716 39.0083 6.93258 38.9473 6.93258C38.8267 6.93258 38.717 6.86901 38.6549 6.75457ZM44.8821 6.89315C44.7127 6.7927 44.6639 6.57525 44.7614 6.41122C44.8589 6.2332 45.0661 6.18234 45.2245 6.28406C45.3939 6.38579 45.4426 6.60199 45.3451 6.7673H45.3573C45.2842 6.88174 45.1745 6.944 45.0527 6.944C44.9918 6.944 44.9308 6.93257 44.8821 6.89315ZM40.0563 8.22829C39.8979 8.12784 39.8381 7.91041 39.9356 7.7324C40.0331 7.56836 40.2403 7.50476 40.4097 7.60648C40.5681 7.70821 40.6291 7.92442 40.5316 8.10244C40.4584 8.21561 40.35 8.27914 40.2403 8.27914C40.1781 8.27914 40.1172 8.255 40.0563 8.22829ZM43.4685 8.10244C43.371 7.93714 43.4197 7.72093 43.5915 7.61921C43.7499 7.51748 43.9559 7.57979 44.0546 7.74637C44.1521 7.92438 44.0899 8.14054 43.9315 8.24226C43.8706 8.26642 43.8219 8.27914 43.7609 8.27914C43.6403 8.27914 43.5294 8.21561 43.4685 8.10244ZM41.6527 8.42033C41.6527 8.21561 41.8123 8.05027 41.9939 8.06426C42.1889 8.06426 42.3351 8.21561 42.3351 8.42033C42.3351 8.61107 42.1779 8.77635 41.9939 8.77635C41.7989 8.76363 41.6527 8.61107 41.6527 8.42033Z" fill="#FFC225"/>
<path d="M23.9753 30.1819C21.5502 30.1819 19.3994 29.2931 17.2034 27.4557L16.6258 26.9712L17.2984 26.6495C18.45 26.0989 18.9326 25.4377 19.4006 24.7981C20.1415 23.7834 20.8434 22.8259 23.6536 22.8259C23.9058 22.8259 24.1106 23.0382 24.1106 23.3027C24.1106 23.566 23.9058 23.7796 23.6536 23.7796C21.2955 23.7796 20.8044 24.4497 20.1281 25.3779C19.7284 25.9234 19.247 26.5795 18.3331 27.1581C21.2322 29.3681 24.0033 29.7712 27.7262 28.5657C27.9687 28.4894 28.2234 28.6293 28.299 28.8798C28.3733 29.1328 28.238 29.3986 27.998 29.4774C26.5539 29.9428 25.228 30.1819 23.9753 30.1819Z" fill="#FFC225"/>
<path d="M19.0313 28.2427C18.8802 28.2427 18.7206 28.2326 18.5512 28.2084C18.4013 28.1881 18.2965 28.0444 18.316 27.8867C18.3367 27.7316 18.4598 27.6222 18.6243 27.6426C19.6333 27.7837 20.2134 27.3933 21.0006 26.8517C22.3228 25.9412 24.1374 24.6938 29.2142 25.3169C29.3641 25.3347 29.4725 25.4771 29.4543 25.6348C29.436 25.7924 29.3105 25.9043 29.1496 25.8853C24.2666 25.2876 22.5519 26.4664 21.3028 27.3298C20.5985 27.8155 19.9746 28.2427 19.0313 28.2427Z" fill="#FFC225"/>
<path d="M60.0369 30.1819C58.7829 30.1819 57.4583 29.9441 56.0142 29.4774C55.7742 29.3986 55.6377 29.1328 55.7132 28.8798C55.7863 28.6293 56.0447 28.4894 56.286 28.5657C60.0089 29.7699 62.7812 29.3668 65.6791 27.1581C64.7652 26.5795 64.2838 25.9234 63.8841 25.3779C63.2065 24.4497 62.7167 23.7796 60.3574 23.7796C60.1051 23.7796 59.9004 23.566 59.9004 23.3027C59.9004 23.0382 60.1051 22.8259 60.3574 22.8259C63.1688 22.8259 63.8695 23.7834 64.6116 24.7981C65.0784 25.4377 65.5622 26.0989 66.7126 26.6495L67.3864 26.9712L66.8076 27.4557C64.6128 29.2931 62.4608 30.1819 60.0369 30.1819Z" fill="#FFC225"/>
<path d="M64.9796 28.2427C64.0376 28.2427 63.4149 27.8155 62.7093 27.3298C61.459 26.4677 59.7396 25.2902 54.8626 25.8853C54.7152 25.9043 54.575 25.7924 54.558 25.6348C54.5397 25.4771 54.6481 25.3347 54.798 25.3169C59.8773 24.6925 61.6894 25.9412 63.0116 26.8517C63.7988 27.3933 64.3789 27.7837 65.3867 27.6426C65.5512 27.6082 65.6755 27.7316 65.695 27.8867C65.7157 28.0444 65.6109 28.1881 65.461 28.2084C65.2904 28.2326 65.1307 28.2427 64.9796 28.2427Z" fill="#FFC225"/>
<path d="M36.398 7.23395C36.3127 7.23395 36.2274 7.19197 36.175 7.11313L31.8306 0.673967C31.7428 0.544267 31.7721 0.366201 31.8964 0.27592C32.0231 0.184367 32.1937 0.214919 32.2778 0.343347L36.6222 6.78381C36.7099 6.91224 36.6807 7.09152 36.5564 7.1818C36.5076 7.2174 36.4528 7.23395 36.398 7.23395Z" fill="#FFC225"/>
<path d="M31.2663 3.40529L31.8098 3.48283L32.1754 0.687937L34.8211 1.27287L34.9344 0.712089L31.7123 0.00130385L31.2663 3.40529Z" fill="#FFC225"/>
<path d="M47.613 7.23395C47.5594 7.23395 47.5046 7.2174 47.4558 7.1818C47.3315 7.09152 47.3023 6.91224 47.39 6.78381L51.7332 0.343347C51.8197 0.213648 51.9903 0.183095 52.1158 0.27592C52.2389 0.366201 52.2694 0.544267 52.1816 0.673967L47.8372 7.11313C47.7848 7.19197 47.6995 7.23395 47.613 7.23395Z" fill="#FFC225"/>
<path d="M49.0766 0.712089L49.1899 1.27287L51.8356 0.686633L52.2011 3.48283L52.7446 3.40529L52.2986 0L49.0766 0.712089Z" fill="#FFC225"/>
<path d="M17.3886 4.22417C17.2472 4.22417 17.1278 4.11223 17.1144 3.96346L16.9109 1.49794C16.8987 1.34026 17.0096 1.20161 17.1607 1.18762C17.3264 1.19017 17.4459 1.29193 17.4581 1.44833L17.6616 3.91261C17.6738 4.07155 17.5629 4.21018 17.4118 4.22417C17.4032 4.22417 17.3959 4.22417 17.3886 4.22417Z" fill="#FFC225"/>
<path d="M14.6552 4.89553C14.5431 4.89553 14.4383 4.82305 14.3981 4.70734L13.5901 2.39182C13.5377 2.24305 13.6109 2.07903 13.7522 2.02563C13.8948 1.96713 14.0508 2.04849 14.1032 2.196L14.9111 4.51151C14.9636 4.66156 14.8904 4.82433 14.7491 4.87901C14.7174 4.89045 14.6857 4.89553 14.6552 4.89553Z" fill="#FFC225"/>
<path d="M12.1814 6.28282C12.0961 6.28282 12.0108 6.24084 11.9584 6.162L10.602 4.15295C10.5143 4.02452 10.5448 3.84522 10.6679 3.75366C10.7946 3.66211 10.964 3.69518 11.0505 3.82233L12.4056 5.83138C12.4934 5.96108 12.4641 6.14039 12.3398 6.23067C12.2911 6.26627 12.2362 6.28282 12.1814 6.28282Z" fill="#FFC225"/>
<path d="M10.1366 8.29187C10.0744 8.29187 10.0122 8.27025 9.96106 8.22575L8.15386 6.66044C8.03687 6.55999 8.0198 6.37944 8.11729 6.25737C8.21234 6.1353 8.38538 6.11876 8.50359 6.22049L10.3108 7.78709C10.4278 7.88628 10.4437 8.0668 10.3462 8.18887C10.2925 8.25626 10.2146 8.29187 10.1366 8.29187Z" fill="#FFC225"/>
<path d="M66.6236 4.22417C66.6163 4.22417 66.6077 4.22417 66.6004 4.22417C66.4493 4.21018 66.3384 4.07155 66.3494 3.91261L66.5529 1.44833C66.5675 1.29193 66.6638 1.19017 66.8515 1.18762C67.0026 1.20161 67.1123 1.34026 67.1013 1.49794L66.8978 3.96346C66.8844 4.11223 66.7649 4.22417 66.6236 4.22417Z" fill="#FFC225"/>
<path d="M69.357 4.89553C69.3265 4.89553 69.2936 4.89045 69.2632 4.87901C69.1218 4.82433 69.0474 4.66156 69.0998 4.51151L69.9078 2.196C69.9602 2.04849 70.1174 1.97095 70.2588 2.02563C70.4013 2.07903 70.4745 2.24305 70.4221 2.39182L69.6141 4.70734C69.5739 4.82305 69.4691 4.89553 69.357 4.89553Z" fill="#FFC225"/>
<path d="M71.8308 6.28282C71.776 6.28282 71.7211 6.26627 71.6724 6.23067C71.5481 6.14039 71.5188 5.96108 71.6066 5.83138L72.9617 3.82233C73.0482 3.69518 73.2188 3.66084 73.3443 3.75366C73.4674 3.84522 73.4979 4.02452 73.4089 4.15295L72.0538 6.162C72.0014 6.24084 71.9161 6.28282 71.8308 6.28282Z" fill="#FFC225"/>
<path d="M73.8756 8.29187C73.7976 8.29187 73.7184 8.25626 73.6648 8.18887C73.5673 8.0668 73.5844 7.88628 73.7014 7.78709L75.5086 6.22049C75.6244 6.11876 75.7974 6.1353 75.8937 6.25737C75.9924 6.37944 75.9753 6.55999 75.8583 6.66044L74.0511 8.22575C74 8.27025 73.9378 8.29187 73.8756 8.29187Z" fill="#FFC225"/>
<path d="M42.0061 3.11279C41.1506 3.11279 40.4536 3.83888 40.4536 4.73025C40.4536 5.62289 41.1506 6.34895 42.0061 6.34895C42.8616 6.34895 43.5574 5.62289 43.5574 4.73025C43.5574 3.83888 42.8616 3.11279 42.0061 3.11279ZM42.0061 7.06482C40.7716 7.06482 39.7687 6.01834 39.7687 4.73025C39.7687 3.44342 40.7716 2.39691 42.0061 2.39691C43.2406 2.39691 44.2435 3.44342 44.2435 4.73025C44.2435 6.01834 43.2406 7.06482 42.0061 7.06482Z" fill="#FFC225"/>
</svg>
