<svg width="84" height="74" viewBox="0 0 84 74" fill="none" xmlns="http://www.w3.org/2000/svg">
<path d="M31.2797 42.1622C31.2797 43.0626 32.0939 43.793 33.0956 43.793C34.0961 43.793 34.9115 43.0626 34.9115 42.1622C34.9115 41.2642 34.0961 40.5326 33.0956 40.5326C32.0939 40.5326 31.2797 41.2642 31.2797 42.1622ZM35.8885 42.1622C35.8885 43.5399 34.6367 44.6598 33.0956 44.6598C31.5559 44.6598 30.3027 43.5399 30.3027 42.1622C30.3027 40.7857 31.5559 39.6658 33.0956 39.6658C34.6367 39.6658 35.8885 40.7857 35.8885 42.1622Z" fill="#FFC225"/>
<path d="M33.4096 47.3794C33.4096 47.4487 33.3835 47.518 33.3184 47.5631C33.2663 47.6093 33.1868 47.6452 33.11 47.6452C33.0318 47.6452 32.9536 47.6093 32.9015 47.5516C32.809 47.4949 32.796 47.2869 32.9133 47.1944C32.9536 47.1482 33.0318 47.1239 33.11 47.1239C33.1868 47.1239 33.2663 47.1482 33.3184 47.206C33.3835 47.2522 33.4096 47.3204 33.4096 47.3794Z" fill="#FFC225"/>
<path d="M28.7838 44.9973C28.6275 45.0551 28.4581 44.9869 28.3943 44.8586C28.3422 44.7199 28.406 44.5697 28.5506 44.5235C28.7069 44.4668 28.8763 44.5235 28.9401 44.6621C28.9531 44.698 28.9531 44.7199 28.9531 44.7557C28.9531 44.8586 28.888 44.9626 28.7838 44.9973ZM29.9171 46.3276C29.8012 46.4316 29.6188 46.4316 29.5016 46.3276C29.383 46.2236 29.383 46.0606 29.5016 45.9578C29.6188 45.8537 29.8012 45.8537 29.9171 45.9578C29.9705 46.0144 29.9966 46.0733 29.9966 46.1427C29.9966 46.2108 29.9705 46.2814 29.9171 46.3276ZM31.5455 47.1597C31.4816 47.2984 31.3123 47.3666 31.156 47.3088C31.0114 47.2522 30.9345 47.102 30.9996 46.9633C31.0635 46.835 31.2328 46.7668 31.3774 46.8246C31.4933 46.8708 31.5585 46.9632 31.5585 47.0673C31.5585 47.1019 31.5585 47.1366 31.5455 47.1597Z" fill="#FFC225"/>
<path d="M28.6027 43.125C28.6027 43.1955 28.5623 43.2533 28.5102 43.311C28.4581 43.3573 28.3813 43.3804 28.3018 43.3804C28.2367 43.3804 28.1728 43.3573 28.1077 43.311C27.9761 43.1839 27.9905 43.0325 28.1077 42.9401C28.1598 42.8823 28.2367 42.8603 28.3018 42.8603C28.3813 42.8603 28.4581 42.8823 28.5102 42.9401C28.5754 42.9863 28.6027 43.0452 28.6027 43.125Z" fill="#FFC225"/>
<path d="M32.4665 42.1877C32.4665 42.4997 32.7478 42.7551 33.0956 42.7551C33.4434 42.7551 33.7261 42.4997 33.7261 42.1877C33.7261 41.8744 33.4434 41.6202 33.0956 41.6202C32.7478 41.6202 32.4665 41.8744 32.4665 42.1877ZM34.4595 42.1877C34.4595 42.8592 33.8473 43.4058 33.0956 43.4058C32.344 43.4058 31.733 42.8592 31.733 42.1877C31.733 41.5162 32.344 40.9695 33.0956 40.9695C33.8473 40.9695 34.4595 41.5162 34.4595 42.1877Z" fill="#FFC225"/>
<path d="M59.7183 41.1475C59.7183 46.7564 56.786 49.751 54.1989 52.3942C52.1302 54.5069 50.343 56.3319 50.343 59.1253C50.343 59.3646 50.1241 59.5588 49.8545 59.5588C49.5848 59.5588 49.366 59.3646 49.366 59.1253C49.366 56.0083 51.3564 53.9764 53.4629 51.8256C55.9366 49.2968 58.7413 46.4328 58.7413 41.1475C58.7413 35.6518 55.7738 31.5893 55.7438 31.5489C55.5966 31.3501 55.6565 31.0808 55.8832 30.9479C56.1086 30.8173 56.4108 30.8728 56.5606 31.0727C56.6883 31.2461 59.7183 35.3952 59.7183 41.1475Z" fill="#FFC225"/>
<path d="M49.0872 42.1622C49.0872 43.0626 49.9026 43.793 50.9044 43.793C51.9048 43.793 52.7203 43.0626 52.7203 42.1622C52.7203 41.2642 51.9048 40.5326 50.9044 40.5326C49.9026 40.5326 49.0872 41.2642 49.0872 42.1622ZM53.6973 42.1622C53.6973 43.5399 52.4442 44.6598 50.9044 44.6598C49.3633 44.6598 48.1102 43.5399 48.1102 42.1622C48.1102 40.7857 49.3633 39.6658 50.9044 39.6658C52.4442 39.6658 53.6973 40.7857 53.6973 42.1622Z" fill="#FFC225"/>
<path d="M51.178 47.3794C51.178 47.4591 51.1389 47.5296 51.0855 47.5758C51.0334 47.6093 50.9695 47.6452 50.877 47.6452C50.8002 47.6452 50.7351 47.6093 50.6699 47.5631C50.5788 47.4834 50.5657 47.2985 50.683 47.206C50.7351 47.1482 50.8002 47.1239 50.877 47.1239C50.9565 47.1239 51.0334 47.1482 51.0855 47.206C51.1389 47.2407 51.178 47.3089 51.178 47.3794Z" fill="#FFC225"/>
<path d="M52.8454 47.3088C52.6891 47.3562 52.5197 47.2984 52.4533 47.1597C52.3882 47.0315 52.4676 46.8812 52.6239 46.8246C52.7672 46.7668 52.9353 46.835 53.0004 46.9633C53.0147 46.9979 53.0278 47.0315 53.0278 47.0673C53.0278 47.1701 52.9496 47.2626 52.8454 47.3088ZM54.4998 46.3276C54.3825 46.4316 54.2002 46.4316 54.0816 46.3276C53.9644 46.2236 53.9644 46.0606 54.0816 45.9578C54.2002 45.8538 54.3825 45.8538 54.4998 45.9578C54.5519 46.0144 54.578 46.0733 54.578 46.1427C54.578 46.2109 54.5519 46.2814 54.4998 46.3276ZM55.6057 44.8586C55.5406 44.9869 55.3726 45.0551 55.2149 44.9973C55.073 44.9511 54.9935 44.7905 55.0586 44.6622C55.1251 44.5235 55.2944 44.4668 55.4507 44.5235C55.5549 44.5593 55.6201 44.6622 55.6201 44.7662C55.6201 44.7904 55.6201 44.8251 55.6057 44.8586Z" fill="#FFC225"/>
<path d="M55.9835 43.125C55.9835 43.1955 55.9457 43.2533 55.8936 43.311C55.8285 43.3573 55.7621 43.3804 55.6852 43.3804C55.6201 43.3804 55.5406 43.3573 55.4885 43.311C55.3596 43.1839 55.3726 43.0325 55.4768 42.9401C55.5406 42.8823 55.6058 42.8603 55.6852 42.8603C55.7621 42.8603 55.8415 42.8823 55.8936 42.9401C55.9588 42.9863 55.9835 43.0452 55.9835 43.125Z" fill="#FFC225"/>
<path d="M42.4892 61.6888C42.4892 63.3011 41.4483 65.185 38.5134 65.185C35.5642 65.185 33.5047 63.2202 33.5047 60.4071C33.5047 58.8907 34.2876 56.7664 35.1929 54.3058C36.7522 50.0734 38.6932 44.802 36.4135 42.0108C35.2203 40.5522 32.9966 39.8426 29.6149 39.8426C29.3452 39.8426 29.1264 39.6485 29.1264 39.4092C29.1264 39.17 29.3452 38.9758 29.6149 38.9758C33.3314 38.9758 35.813 39.8022 37.2029 41.5023C39.777 44.6506 37.836 49.9232 36.1217 54.5763C35.2789 56.8658 34.4817 59.0283 34.4817 60.4071C34.4817 62.7464 36.1035 64.3182 38.5134 64.3182C41.2959 64.3182 41.5122 62.306 41.5122 61.6888C41.5122 60.1609 39.3302 60.0095 39.2377 60.0037L39.0345 59.991L38.9003 59.8558C38.3428 59.2837 37.6836 57.8702 39.1713 56.5977C39.3641 56.4313 39.6741 56.437 39.8617 56.6093C40.048 56.7815 40.0441 57.0554 39.8487 57.223C38.886 58.0436 39.3016 58.8422 39.5321 59.1577C40.6707 59.2883 42.4892 59.939 42.4892 61.6888Z" fill="#FFC225"/>
<path d="M54.8749 39.4092C54.8749 39.6485 54.6561 39.8426 54.3864 39.8426C51.0047 39.8426 48.7811 40.5522 47.5878 42.0108C45.3068 44.802 47.2465 50.0711 48.8071 54.3058C49.7138 56.7664 50.4954 58.8907 50.4954 60.4071C50.4954 63.2202 48.4359 65.185 45.4879 65.185C42.553 65.185 41.5122 63.3011 41.5122 61.6888C41.5122 59.939 43.3294 59.2883 44.4666 59.1577C44.6985 58.8457 45.1128 58.0436 44.1514 57.223C43.9547 57.0565 43.9521 56.7826 44.137 56.6093C44.3259 56.437 44.6347 56.4313 44.8288 56.5977C46.3177 57.8702 45.6573 59.2837 45.0997 59.8558L44.9669 59.991L44.7623 60.0037C44.6698 60.0095 42.4892 60.1609 42.4892 61.6888C42.4892 62.306 42.7054 64.3182 45.4879 64.3182C47.8979 64.3182 49.5184 62.7464 49.5184 60.4071C49.5184 59.0283 48.7224 56.8658 47.8796 54.5763C46.1653 49.9209 44.223 44.6494 46.7971 41.5034C48.187 39.8022 50.6686 38.9758 54.3864 38.9758C54.6561 38.9758 54.8749 39.17 54.8749 39.4092Z" fill="#FFC225"/>
<path d="M50.2726 42.1622C50.2726 42.4754 50.5566 42.7309 50.9044 42.7309C51.2522 42.7309 51.5349 42.4754 51.5349 42.1622C51.5349 41.8502 51.2522 41.5959 50.9044 41.5959C50.5566 41.5959 50.2726 41.8502 50.2726 42.1622ZM52.2683 42.1622C52.2683 42.8337 51.656 43.3804 50.9044 43.3804C50.1528 43.3804 49.5405 42.8337 49.5405 42.1622C49.5405 41.4919 50.1528 40.9464 50.9044 40.9464C51.656 40.9464 52.2683 41.4919 52.2683 42.1622Z" fill="#FFC225"/>
<path d="M49.7359 62.981C49.7359 66.0842 45.5778 68.4916 42.0007 68.4916C38.4222 68.4916 34.2628 66.0842 34.2628 62.981C34.2628 62.7417 34.4817 62.5476 34.7513 62.5476C35.021 62.5476 35.2398 62.7417 35.2398 62.981C35.2398 65.3237 38.589 67.6248 42.0007 67.6248C45.4111 67.6248 48.7589 65.3237 48.7589 62.981C48.7589 62.7417 48.9778 62.5476 49.2474 62.5476C49.5171 62.5476 49.7359 62.7417 49.7359 62.981Z" fill="#FFC225"/>
<path d="M33.7769 50.6478C33.7769 50.7149 33.7496 50.7807 33.6923 50.8316L31.2654 52.9859C31.1507 53.0877 30.9645 53.0877 30.8498 52.9859C30.7352 52.8842 30.7352 52.7189 30.8498 52.6172L33.278 50.4641C33.3913 50.3624 33.5776 50.3624 33.6923 50.4641C33.7496 50.5149 33.7769 50.582 33.7769 50.6478Z" fill="#FFC225"/>
<path d="M34.8946 51.6603C34.8946 51.7273 34.866 51.7932 34.8086 51.844L32.3831 53.9972C32.2684 54.0989 32.0835 54.0989 31.9688 53.9972C31.8542 53.8955 31.8542 53.7302 31.9688 53.6285L34.3944 51.4765C34.509 51.3748 34.694 51.3748 34.8086 51.4765C34.866 51.5274 34.8946 51.5944 34.8946 51.6603Z" fill="#FFC225"/>
<path d="M32.6345 49.6562C32.6345 49.7221 32.6071 49.7891 32.5498 49.84L30.1242 51.9931C30.0096 52.0948 29.8233 52.0948 29.7087 51.9931C29.594 51.8914 29.594 51.7273 29.7087 51.6256L32.1356 49.4724C32.2502 49.3707 32.4352 49.3707 32.5498 49.4724C32.6071 49.5233 32.6345 49.5892 32.6345 49.6562Z" fill="#FFC225"/>
<path d="M21.2361 27.8516L21.2361 29.5332C21.2361 29.6765 21.1059 29.7921 20.9443 29.7921C20.7828 29.7921 20.6512 29.6765 20.6512 29.5332L20.6512 27.8516C20.6512 27.7083 20.7828 27.5916 20.9443 27.5916C21.1059 27.5916 21.2361 27.7083 21.2361 27.8516Z" fill="#FFC225"/>
<path d="M22.8332 27.6586L22.8332 29.3391C22.8332 29.4824 22.7016 29.5979 22.5401 29.5979C22.3786 29.5979 22.2483 29.4824 22.2483 29.3391L22.2483 27.6586C22.2483 27.5153 22.3786 27.3985 22.5401 27.3985C22.7016 27.3985 22.8332 27.5153 22.8332 27.6586Z" fill="#FFC225"/>
<path d="M19.639 28.0608L19.639 29.7413C19.639 29.8846 19.5075 30.0013 19.3459 30.0013C19.1844 30.0013 19.0541 29.8846 19.0541 29.7413L19.0541 28.0608C19.0541 27.9175 19.1844 27.8019 19.3459 27.8019C19.5075 27.8019 19.639 27.9175 19.639 28.0608Z" fill="#FFC225"/>
<path d="M53.2362 52.801C53.2362 52.868 53.2075 52.9351 53.1502 52.9859C53.0369 53.0877 52.8506 53.0877 52.736 52.9859L50.3091 50.8316C50.1945 50.7299 50.1945 50.5658 50.3091 50.4641C50.4237 50.3624 50.6087 50.3624 50.7233 50.4641L53.1502 52.6172C53.2075 52.6681 53.2362 52.7351 53.2362 52.801Z" fill="#FFC225"/>
<path d="M52.1172 53.8123C52.1172 53.8793 52.0899 53.9464 52.0325 53.9972C51.9179 54.0989 51.7329 54.0989 51.6183 53.9972L49.1901 51.844C49.0768 51.7423 49.0768 51.5782 49.1901 51.4765C49.3047 51.3748 49.491 51.3748 49.6056 51.4765L52.0325 53.6285C52.0899 53.6794 52.1172 53.7464 52.1172 53.8123Z" fill="#FFC225"/>
<path d="M54.376 51.8094C54.376 51.8764 54.3474 51.9423 54.29 51.9931C54.1767 52.0948 53.9904 52.0948 53.8758 51.9931L51.4502 49.84C51.3356 49.7383 51.3356 49.573 51.4502 49.4724C51.5649 49.3707 51.7498 49.3707 51.8645 49.4724L54.29 51.6256C54.3474 51.6765 54.376 51.7423 54.376 51.8094Z" fill="#FFC225"/>
<path d="M31.4022 33.6697L31.4022 36.714C31.4022 36.8585 31.2719 36.974 31.1104 36.974C30.9475 36.974 30.8173 36.8585 30.8173 36.714L30.8173 33.6697C30.8173 33.5264 30.9475 33.4096 31.1104 33.4096C31.2719 33.4096 31.4022 33.5264 31.4022 33.6697Z" fill="#FFC225"/>
<path d="M33.0005 34.6082L33.0005 35.6068C33.0005 35.7501 32.869 35.8656 32.7074 35.8656C32.5459 35.8656 32.4143 35.7501 32.4143 35.6068L32.4143 34.6082C32.4143 34.4649 32.5459 34.3493 32.7074 34.3493C32.869 34.3493 33.0005 34.4649 33.0005 34.6082Z" fill="#FFC225"/>
<path d="M29.8051 34.6082L29.8051 35.6068C29.8051 35.7501 29.6735 35.8656 29.512 35.8656C29.3504 35.8656 29.2189 35.7501 29.2189 35.6068L29.2189 34.6082C29.2189 34.4649 29.3504 34.3493 29.512 34.3493C29.6735 34.3493 29.8051 34.4649 29.8051 34.6082Z" fill="#FFC225"/>
<path d="M53.1828 33.6697L53.1828 36.714C53.1828 36.8584 53.0512 36.974 52.8897 36.974C52.7281 36.974 52.5979 36.8584 52.5979 36.714L52.5979 33.6697C52.5979 33.5264 52.7281 33.4096 52.8897 33.4096C53.0512 33.4096 53.1828 33.5264 53.1828 33.6697Z" fill="#FFC225"/>
<path d="M54.7798 34.6082L54.7798 35.6068C54.7798 35.7501 54.6496 35.8656 54.488 35.8656C54.3265 35.8656 54.1949 35.7501 54.1949 35.6068L54.1949 34.6082C54.1949 34.4649 54.3265 34.3493 54.488 34.3493C54.6496 34.3493 54.7798 34.4649 54.7798 34.6082Z" fill="#FFC225"/>
<path d="M51.5857 34.6082L51.5857 35.6068C51.5857 35.7501 51.4554 35.8656 51.2939 35.8656C51.1324 35.8656 51.0008 35.7501 51.0008 35.6068L51.0008 34.6082C51.0008 34.4649 51.1324 34.3493 51.2939 34.3493C51.4554 34.3493 51.5857 34.4649 51.5857 34.6082Z" fill="#FFC225"/>
<path d="M27.9019 29.6719C27.9019 29.6962 27.8993 29.7216 27.8941 29.7459C27.8485 29.9817 27.5931 30.14 27.3287 30.0984C19.8253 28.9288 18.1436 30.6139 16.5179 32.2435C15.9733 32.7879 15.4158 33.3472 14.6589 33.7853C18.0289 35.9916 21.2426 36.3985 25.5701 35.2092C25.828 35.1375 26.1016 35.267 26.1811 35.4946C26.2618 35.7189 26.1172 35.9662 25.8593 36.0378C20.9977 37.3739 17.2903 36.7833 13.4657 34.065L12.8469 33.6246L13.5673 33.3322C14.5079 32.9485 15.1292 32.3278 15.7871 31.6679C17.5066 29.9447 19.4554 27.9926 27.4968 29.2454C27.7351 29.2824 27.9019 29.465 27.9019 29.6719Z" fill="#FFC225"/>
<path d="M27.5267 32.2747C27.5267 32.2839 27.5267 32.2943 27.5254 32.3047C27.5059 32.4469 27.3613 32.5498 27.1997 32.5325C21.567 31.9465 19.5922 33.1022 18.1488 33.9483C17.2109 34.4984 16.4006 34.9734 14.9963 34.8058C14.8387 34.7873 14.7215 34.659 14.7462 34.5134C14.7684 34.3713 14.9143 34.2719 15.0758 34.2915C16.26 34.4314 16.9165 34.0465 17.8257 33.5148C19.3433 32.6249 21.4237 31.4079 27.2675 32.0158C27.4173 32.032 27.5267 32.1429 27.5267 32.2747Z" fill="#FFC225"/>
<path d="M63.3501 27.8516L63.3501 29.5332C63.3501 29.6765 63.2185 29.7921 63.057 29.7921C62.8955 29.7921 62.7639 29.6765 62.7639 29.5332L62.7639 27.8516C62.7639 27.7083 62.8955 27.5916 63.057 27.5916C63.2185 27.5916 63.3501 27.7083 63.3501 27.8516Z" fill="#FFC225"/>
<path d="M61.753 27.6586L61.753 29.3391C61.753 29.4824 61.6215 29.5979 61.4599 29.5979C61.2984 29.5979 61.1681 29.4824 61.1681 29.3391L61.1681 27.6586C61.1681 27.5153 61.2984 27.3985 61.4599 27.3985C61.6215 27.3985 61.753 27.5153 61.753 27.6586Z" fill="#FFC225"/>
<path d="M64.9472 28.0608L64.9472 29.7413C64.9472 29.8846 64.8169 30.0013 64.6541 30.0013C64.4925 30.0013 64.3623 29.8846 64.3623 29.7413L64.3623 28.0608C64.3623 27.9175 64.4925 27.8019 64.6541 27.8019C64.8169 27.8019 64.9472 27.9175 64.9472 28.0608Z" fill="#FFC225"/>
<path d="M71.1531 33.6246L70.5343 34.065C66.711 36.7833 63.0049 37.3739 58.1407 36.0378C57.8841 35.9662 57.7382 35.7189 57.819 35.4946C57.8997 35.267 58.1733 35.1375 58.4312 35.2092C62.7574 36.3985 65.9711 35.9916 69.3411 33.7853C68.5842 33.3472 68.0254 32.7879 67.4822 32.2435C65.8564 30.6139 64.1747 28.9288 56.6713 30.0984C56.4056 30.14 56.1516 29.9817 56.106 29.7459C56.0604 29.5136 56.2375 29.287 56.5033 29.2454C64.5446 27.9926 66.4948 29.9458 68.2143 31.6691C68.8708 32.3278 69.4909 32.9485 70.4327 33.3322L71.1531 33.6246Z" fill="#FFC225"/>
<path d="M69.2577 34.5481C69.2577 34.6775 69.1509 34.7885 69.0037 34.8058C67.6007 34.9734 66.7891 34.4984 65.8499 33.9483C64.4079 33.1022 62.4317 31.9465 56.8003 32.5324C56.6387 32.5498 56.4942 32.4469 56.4746 32.3047C56.4681 32.1522 56.571 32.0331 56.7312 32.0158C62.5763 31.4079 64.6554 32.6249 66.1743 33.5137C67.0835 34.0465 67.7414 34.4314 68.9255 34.2915C69.0871 34.2719 69.233 34.3713 69.2551 34.5134C69.2577 34.5261 69.2577 34.5377 69.2577 34.5481Z" fill="#FFC225"/>
<path d="M29.5524 27.966C29.5524 28.0851 29.4625 28.1914 29.3257 28.2191C29.1681 28.2515 29.0105 28.1648 28.9753 28.025C28.6105 26.6311 28.0491 25.2268 27.2597 23.7301C27.1958 23.5995 27.2558 23.4447 27.4017 23.3834C27.5489 23.3233 27.7234 23.3788 27.7925 23.5094C28.5975 25.0396 29.1707 26.4774 29.5445 27.9071C29.5498 27.9267 29.5524 27.9475 29.5524 27.966Z" fill="#FFC225"/>
<path d="M26.9744 22.0231C26.9744 22.1132 26.9223 22.2011 26.8259 22.2485C26.6865 22.319 26.5067 22.2762 26.4273 22.1514C25.4946 20.7009 24.6074 19.6526 23.4598 18.646C23.3438 18.5443 23.3464 18.379 23.4572 18.2772C23.5718 18.1744 23.7581 18.1744 23.8727 18.2749C25.0594 19.3174 25.9752 20.3992 26.9353 21.8936C26.9626 21.9341 26.9744 21.978 26.9744 22.0231Z" fill="#FFC225"/>
<path d="M22.2144 17.0845C22.2144 17.1411 22.1962 17.1966 22.1545 17.244C22.0542 17.3572 21.8705 17.3781 21.7429 17.2902C20.9313 16.7309 20.052 16.2327 19.1323 15.8108C18.2713 15.4144 17.6903 15.1151 16.9868 14.7071C16.8487 14.6308 16.8136 14.469 16.9008 14.3476C16.9907 14.2263 17.1705 14.1939 17.3073 14.2725C17.9925 14.6689 18.5605 14.9614 19.402 15.3474C20.3542 15.7854 21.2622 16.3009 22.1011 16.8788C22.1767 16.9296 22.2144 17.0071 22.2144 17.0845Z" fill="#FFC225"/>
<path d="M15.8431 13.5063C15.8431 13.5606 15.8235 13.6161 15.7858 13.6623C15.6881 13.7779 15.5044 13.801 15.3741 13.7155C13.9229 12.7527 12.7466 11.8166 11.5612 10.6839C11.4518 10.5753 11.4583 10.4123 11.5755 10.3164C11.6954 10.2193 11.8804 10.225 11.9911 10.329C13.1505 11.4397 14.3033 12.3552 15.7259 13.2983C15.8027 13.3503 15.8431 13.4277 15.8431 13.5063Z" fill="#FFC225"/>
<path d="M11.0662 9.51543C11.0662 9.5894 11.031 9.66105 10.9646 9.71306C10.8408 9.80667 10.6558 9.79394 10.5503 9.68529C10.0644 9.18023 9.04446 8.10998 7.77696 6.75542C7.67275 6.64563 7.68966 6.48037 7.81602 6.38906C7.93977 6.2966 8.12477 6.31281 8.22768 6.42377C9.49257 7.77601 10.51 8.84388 10.9959 9.34663C11.0427 9.39633 11.0662 9.45649 11.0662 9.51543Z" fill="#FFC225"/>
<path d="M7.05137 4.98717C7.05137 5.0623 7.01488 5.13624 6.94454 5.18825C6.81948 5.27956 6.63451 5.26458 6.5316 5.15247C4.60235 3.07095 3.44687 1.76374 3.10036 1.27023C3.01569 1.15003 3.05476 0.987083 3.19415 0.910805C3.33093 0.835678 3.51201 0.872688 3.59799 0.994041C3.92626 1.46328 5.09867 2.78661 6.98493 4.82307C7.02922 4.87161 7.05137 4.92939 7.05137 4.98717Z" fill="#FFC225"/>
<path d="M80.9531 1.13157C80.9531 1.17895 80.9387 1.22631 80.9101 1.27023C80.5662 1.75911 79.4133 3.06516 77.4775 5.15247C77.3746 5.26458 77.191 5.27955 77.0659 5.18824C76.9369 5.09578 76.9226 4.93287 77.0255 4.82306C78.9157 2.78199 80.0868 1.45981 80.4112 0.994038C80.4971 0.872685 80.6769 0.835675 80.8163 0.910802C80.9049 0.960499 80.9531 1.04489 80.9531 1.13157Z" fill="#FFC225"/>
<path d="M25.2288 27.1188C25.2288 27.1997 25.1897 27.2795 25.1246 27.35C25.0451 27.4193 24.9552 27.4425 24.8641 27.4425C24.7598 27.4425 24.6674 27.4193 24.6022 27.3615C24.5254 27.2922 24.498 27.2113 24.498 27.1188C24.498 27.0368 24.5384 26.9443 24.6022 26.8877C24.6674 26.8299 24.7598 26.7941 24.8641 26.7941C24.9552 26.7941 25.0451 26.8299 25.1116 26.8981C25.1897 26.957 25.2288 27.0368 25.2288 27.1188Z" fill="#FFC225"/>
<path d="M4.78862 8.32619C4.60755 8.41866 4.38611 8.38393 4.2819 8.22213C4.16466 8.07072 4.21675 7.8743 4.39912 7.78184C4.56847 7.67782 4.78863 7.72403 4.89414 7.87428C4.93322 7.93322 4.95797 7.99098 4.95797 8.04877C4.95797 8.16319 4.89414 8.26726 4.78862 8.32619ZM6.22286 10.1523C6.05351 10.2563 5.83077 10.232 5.71353 10.0829C5.59759 9.94308 5.62366 9.73621 5.793 9.63219C5.94932 9.52817 6.18379 9.55126 6.30103 9.70036C6.35314 9.75814 6.37921 9.82868 6.37921 9.88647C6.37921 9.98933 6.32707 10.0933 6.22286 10.1523ZM7.7991 11.8859C7.64278 12.0015 7.40701 11.99 7.28977 11.8513C7.16081 11.7126 7.17381 11.5161 7.33013 11.3878C7.48645 11.2849 7.70792 11.2953 7.83688 11.434L7.8512 11.434C7.9033 11.4918 7.92937 11.5738 7.92937 11.6432C7.92937 11.7345 7.88899 11.827 7.7991 11.8859ZM9.50561 13.5271C9.36102 13.6531 9.12782 13.6427 8.99755 13.5144C8.99755 13.5144 8.99757 13.5144 8.98454 13.5144C8.85428 13.3884 8.85426 13.1792 8.99755 13.0532C9.13954 12.9365 9.37532 12.9365 9.51731 13.0648C9.58375 13.1215 9.62153 13.2139 9.62153 13.296C9.62153 13.3769 9.58377 13.4566 9.50561 13.5271ZM11.3541 15.0411C11.2121 15.1798 10.9763 15.1903 10.8343 15.0758C10.678 14.9591 10.6637 14.7522 10.7952 14.6123C10.9242 14.4737 11.16 14.4633 11.315 14.5904C11.3945 14.6482 11.4335 14.7406 11.4335 14.8331C11.4335 14.9013 11.4075 14.9833 11.3541 15.0411ZM13.3081 16.4396C13.1922 16.5783 12.9577 16.6014 12.8013 16.4963C12.632 16.3923 12.6047 16.1854 12.7219 16.0467C12.8535 15.8964 13.0749 15.8721 13.2443 15.9773C13.3355 16.0466 13.3875 16.1391 13.3875 16.2432C13.3875 16.3125 13.3615 16.3703 13.3081 16.4396ZM15.3937 17.6879C15.2895 17.837 15.0536 17.8843 14.8843 17.7803C14.7163 17.6878 14.6642 17.4914 14.7801 17.3296C14.8843 17.1793 15.1058 17.1331 15.2751 17.2371C15.3936 17.2949 15.4458 17.3989 15.4458 17.5017C15.4458 17.5595 15.4314 17.6301 15.3937 17.6879ZM17.5822 18.7743C17.4897 18.9361 17.2695 18.9927 17.0871 18.9129C16.9035 18.832 16.8383 18.6356 16.9308 18.4726C17.035 18.3224 17.2565 18.2541 17.4258 18.3351C17.5548 18.3928 17.6212 18.5084 17.6212 18.624C17.6212 18.6818 17.6069 18.728 17.5822 18.7743ZM19.6794 20.0098C19.5492 20.1485 19.3277 20.1727 19.1584 20.0687C19.002 19.9531 18.9617 19.7566 19.0932 19.6064C19.2235 19.4677 19.4437 19.4446 19.613 19.5486C19.7055 19.6179 19.7576 19.7104 19.7576 19.8029C19.7576 19.8711 19.7315 19.9531 19.6794 20.0098ZM21.4628 21.5585C21.3208 21.6868 21.085 21.6752 20.9561 21.5365C20.8115 21.4082 20.8258 21.2014 20.9821 21.0858C21.1241 20.9587 21.3599 20.969 21.5032 21.1089C21.5553 21.1655 21.5944 21.2476 21.5944 21.3285C21.5944 21.4083 21.5553 21.5007 21.4628 21.5585ZM22.9491 23.3742C22.7655 23.4666 22.544 23.4204 22.4398 23.2702C22.3225 23.1199 22.3747 22.9235 22.544 22.8194C22.7133 22.727 22.9492 22.7605 23.0534 22.9119L23.0534 22.9234C23.0911 22.9697 23.1055 23.0379 23.1055 23.0957C23.1055 23.2009 23.0534 23.3048 22.9491 23.3742ZM24.1085 25.3494C23.9131 25.4199 23.6903 25.3494 23.6135 25.1888C23.5353 25.0142 23.6135 24.8293 23.7946 24.7611C23.9783 24.679 24.1867 24.7496 24.2766 24.9114C24.3039 24.9576 24.3169 25.0038 24.3169 25.05C24.3169 25.1772 24.2388 25.2928 24.1085 25.3494Z" fill="#FFC225"/>
<path d="M42.1309 22.0289C42.1309 22.215 41.8066 29.7112 30.7039 29.7112C30.4343 29.7112 30.2154 29.517 30.2154 29.2778C30.2154 29.0385 30.4343 28.8444 30.7039 28.8444C40.8621 28.8444 41.1513 22.349 41.1579 22.0728C41.15 22.0531 39.7405 13.7894 22.8293 10.4701C15.1422 8.96296 6.87161 3.8383 3.67095 1.70361C5.12213 4.85422 9.45479 12.5655 18.5787 16.7597C27.6283 20.9182 28.3318 31.1848 28.337 31.2877C28.3734 31.5466 28.1429 31.7303 27.8745 31.743C27.6049 31.7546 27.3756 31.572 27.3626 31.3327C27.3561 31.2345 26.6748 21.4568 18.1293 17.5295C6.15905 12.0269 2.1911 0.672707 2.15202 0.558288C2.09079 0.375679 2.17026 0.180336 2.34742 0.072853C2.52589 -0.0323258 2.7617 -0.0230867 2.92844 0.0971144C3.03526 0.173393 13.6833 7.78873 23.0403 9.62408C40.6785 13.0844 42.0801 21.6636 42.1309 22.0277C42.1309 22.0277 42.1309 22.0277 42.1309 22.0289Z" fill="#FFC225"/>
<path d="M34.6341 59.1253C34.6341 59.3646 34.4152 59.5588 34.1456 59.5588C33.8759 59.5588 33.6571 59.3646 33.6571 59.1253C33.6571 56.3319 31.8698 54.5069 29.8012 52.3942C27.2128 49.751 24.2805 46.7564 24.2805 41.1475C24.2805 35.3941 27.3118 31.2461 27.4407 31.0727C27.5893 30.8728 27.8928 30.8173 28.1181 30.9479C28.3435 31.0808 28.4047 31.3501 28.2575 31.5489C28.2276 31.5893 25.2575 35.6645 25.2575 41.1475C25.2575 46.4328 28.0634 49.2968 30.5372 51.8256C32.6436 53.9764 34.6341 56.0083 34.6341 59.1253Z" fill="#FFC225"/>
<path d="M39.7327 34.7318C39.7327 35.3097 40.0115 35.8599 40.5 36.2413C40.9559 36.5972 41.5382 36.7729 42.1426 36.7394C42.7484 36.7059 43.3007 36.4655 43.702 36.0621C44.0667 35.6946 44.2673 35.2219 44.2673 34.733C44.2673 34.1551 43.9872 33.6038 43.4987 33.2224C43.0441 32.8664 42.4605 32.6908 41.8574 32.7243C41.2529 32.759 40.6993 32.9993 40.2981 33.4015C39.9333 33.7702 39.7327 34.2418 39.7327 34.7318ZM45.0007 34.733C45.0007 35.3802 44.7337 36.0055 44.2504 36.4909C43.7215 37.0249 42.9907 37.3427 42.1896 37.3878C41.3897 37.434 40.6172 37.1994 40.0167 36.729C38.8196 35.7963 38.6958 34.0337 39.7484 32.9728C40.2785 32.4388 41.0107 32.121 41.8105 32.0759C42.6103 32.0308 43.3815 32.2643 43.982 32.7347C44.6282 33.2398 45.0007 33.9679 45.0007 34.733Z" fill="#FFC225"/>
<path d="M41.3337 34.7318C41.3337 34.9006 41.4171 35.0624 41.5604 35.1745C41.6945 35.2797 41.8639 35.3317 42.0423 35.3213C42.2195 35.312 42.3823 35.2404 42.5009 35.1225C42.7354 34.8856 42.7067 34.4961 42.441 34.288C42.1648 34.0731 41.744 34.0962 41.5004 34.3412C41.3936 34.4498 41.3337 34.5885 41.3337 34.7318ZM43.6433 34.733C43.6433 35.0866 43.4974 35.4288 43.233 35.6957C42.9425 35.9881 42.5426 36.1627 42.1036 36.1858C41.6646 36.2112 41.2425 36.0829 40.9142 35.8252C40.2616 35.3143 40.1913 34.3481 40.7684 33.7679C41.3663 33.1658 42.4045 33.1068 43.0858 33.6362C43.4401 33.9159 43.6433 34.3134 43.6433 34.733Z" fill="#FFC225"/>
<path d="M37.1222 35.3236C36.9138 35.3363 36.7444 35.1976 36.7314 35.0242C36.7171 34.8381 36.8734 34.6891 37.0701 34.6775C37.2785 34.6659 37.4478 34.8046 37.4609 34.978C37.4609 34.9884 37.4609 34.9884 37.4609 35.0011C37.4609 35.1733 37.3176 35.3132 37.1222 35.3236ZM37.694 33.4293C37.6289 33.5899 37.4205 33.6824 37.2394 33.6258C37.0427 33.568 36.9398 33.3831 37.0049 33.2085C37.0701 33.0479 37.2785 32.9554 37.4726 33.0121C37.6289 33.0583 37.7214 33.1866 37.7214 33.3137C37.7214 33.3472 37.7084 33.3934 37.694 33.4293ZM37.7461 36.9312C37.5651 37.011 37.3436 36.9428 37.2512 36.781C37.1613 36.618 37.2394 36.4227 37.4205 36.3534C37.6042 36.2725 37.8256 36.3406 37.9025 36.5036C37.9429 36.5498 37.9428 36.5961 37.9428 36.6423C37.9428 36.7683 37.8777 36.8723 37.7461 36.9312ZM38.6203 32.0424C38.6203 32.0424 38.6059 32.0424 38.6059 32.0528L38.5942 32.0655C38.4639 32.2042 38.2281 32.2157 38.0718 32.099C37.9168 31.9846 37.9025 31.7765 38.0341 31.6378L38.0471 31.6378C38.0471 31.6263 38.0588 31.6263 38.0588 31.6136C38.0718 31.6136 38.0718 31.6032 38.0718 31.6032C38.2164 31.4645 38.4496 31.4529 38.5942 31.5801C38.671 31.6378 38.7231 31.7303 38.7231 31.8228C38.7231 31.8921 38.6854 31.973 38.6203 32.0424ZM39.0111 38.2026C38.8795 38.3413 38.6463 38.3517 38.5017 38.2373C38.3454 38.1205 38.3323 37.9136 38.4639 37.7738C38.5942 37.6478 38.8274 37.6351 38.9837 37.7518C39.0631 37.8096 39.1009 37.9021 39.1009 37.9945C39.1009 38.0627 39.0762 38.1448 39.0111 38.2026ZM40.0402 31.0935C39.8565 31.1755 39.635 31.1062 39.5582 30.9433C39.467 30.7826 39.5452 30.5861 39.7275 30.5041C39.9086 30.4359 40.13 30.504 40.2095 30.667C40.2343 30.7005 40.2486 30.7595 40.2486 30.8045C40.2486 30.9213 40.1704 31.0357 40.0402 31.0935ZM40.7293 38.9538C40.6641 39.126 40.47 39.2185 40.2746 39.1619C40.0779 39.1041 39.9737 38.9076 40.0402 38.7446C40.1183 38.5724 40.3268 38.4915 40.5078 38.5481C40.6641 38.5944 40.7566 38.7227 40.7566 38.8498C40.7566 38.8833 40.7436 38.9191 40.7293 38.9538ZM41.7584 30.7132C41.5512 30.7248 41.3806 30.5861 41.3689 30.4012C41.3558 30.2267 41.5122 30.066 41.7206 30.0545C41.9147 30.0545 42.0984 30.1932 42.0984 30.3654L42.0984 30.3781C42.0984 30.5618 41.9551 30.7005 41.7584 30.7132ZM42.3055 39.4046C42.0984 39.415 41.9277 39.2763 41.9147 39.1041C41.903 38.9191 42.0593 38.7689 42.2677 38.7573C42.4618 38.7446 42.6312 38.8833 42.6585 39.0579C42.6585 39.0694 42.6585 39.0694 42.6585 39.0798C42.6585 39.2543 42.5022 39.393 42.3055 39.4046ZM43.9742 30.7364C43.9091 30.897 43.7007 30.9895 43.5053 30.9328C43.3099 30.8635 43.2174 30.6901 43.2825 30.5156C43.3489 30.3434 43.5561 30.2613 43.7528 30.3191C43.8961 30.3654 44.0003 30.4821 44.0003 30.6208C44.0003 30.6543 43.9859 30.7005 43.9742 30.7364ZM44.2999 38.9411C44.1175 39.0232 43.896 38.9654 43.8049 38.8036C43.7267 38.6406 43.7918 38.4453 43.9742 38.3632C44.1566 38.2835 44.378 38.3517 44.4679 38.5146C44.4953 38.5609 44.5083 38.606 44.5083 38.6522C44.5083 38.7805 44.4301 38.8949 44.2999 38.9411ZM45.5491 31.706C45.4072 31.8343 45.1844 31.8459 45.0294 31.7303C44.8731 31.6136 44.8731 31.4067 45.0033 31.268C45.1336 31.1397 45.3681 31.1282 45.5244 31.2449C45.6026 31.3142 45.6416 31.3952 45.6416 31.4876C45.6416 31.5674 45.6143 31.6494 45.5491 31.706ZM45.9399 37.8558C45.798 37.983 45.5622 37.9946 45.4202 37.8778C45.2639 37.7518 45.2508 37.5553 45.3928 37.4167C45.5244 37.2895 45.7589 37.2664 45.9022 37.3924C45.992 37.4502 46.0324 37.5426 46.0324 37.6351C46.0324 37.7056 45.9921 37.7853 45.9399 37.8558ZM46.5795 33.1403C46.3972 33.2212 46.1757 33.1508 46.0963 32.9901C46.0064 32.8271 46.0845 32.6307 46.2656 32.5509C46.4493 32.4804 46.6707 32.5509 46.7476 32.7012L46.7476 32.7127C46.775 32.7474 46.788 32.8052 46.788 32.8514C46.788 32.9658 46.7098 33.0825 46.5795 33.1403ZM46.9834 36.2829C46.917 36.4458 46.7098 36.5383 46.5144 36.4793C46.3177 36.4227 46.2135 36.2366 46.293 36.0644C46.3581 35.8911 46.5665 35.809 46.7476 35.8679C46.9052 35.9142 46.9964 36.0402 46.9964 36.1685C46.9964 36.2031 46.9964 36.2366 46.9834 36.2829ZM46.9169 34.8162C46.7229 34.8277 46.5392 34.6891 46.5392 34.503C46.5392 34.503 46.5392 34.503 46.5261 34.503C46.5261 34.3308 46.6707 34.1678 46.8792 34.1678C47.0733 34.1574 47.2569 34.2961 47.27 34.4695C47.27 34.481 47.27 34.481 47.27 34.4926C47.27 34.666 47.1137 34.8046 46.9169 34.8162Z" fill="#FFC225"/>
<path d="M17.3855 57.8979C17.3855 58.4758 17.6655 59.0259 18.154 59.4073C18.61 59.7633 19.1923 59.939 19.7967 59.9055C20.4024 59.872 20.9548 59.6316 21.3547 59.2282C21.7207 58.8607 21.9213 58.388 21.9213 57.8991C21.9213 57.3212 21.6413 56.7699 21.1528 56.3885C20.6968 56.0325 20.1145 55.8569 19.5101 55.8904C18.9056 55.925 18.3533 56.1655 17.9521 56.5677C17.5873 56.9363 17.3855 57.4079 17.3855 57.8979ZM22.6534 57.8991C22.6534 58.5463 22.3877 59.1716 21.9044 59.657C21.3755 60.191 20.6434 60.5088 19.8436 60.5539C19.0437 60.6001 18.2713 60.3655 17.6707 59.8951C16.4736 58.9624 16.3472 57.1999 17.4024 56.1389C17.9313 55.6049 18.6647 55.2871 19.4645 55.242C20.263 55.1969 21.0355 55.4304 21.636 55.9008C22.2822 56.4058 22.6534 57.1328 22.6534 57.8991Z" fill="#FFC225"/>
<path d="M14.7684 58.4978C14.5717 58.5093 14.3906 58.3706 14.3906 58.1857C14.3776 58.0112 14.5209 57.861 14.728 57.839C14.9247 57.839 15.1058 57.965 15.1201 58.1499L15.1201 58.1626C15.1201 58.336 14.9638 58.4851 14.7684 58.4978ZM15.3546 56.5908C15.2894 56.7641 15.081 56.8554 14.8843 56.7977C14.7032 56.741 14.599 56.5549 14.6641 56.3827C14.728 56.2094 14.9364 56.1169 15.1201 56.1735C15.2751 56.2198 15.3676 56.348 15.3676 56.4867C15.3676 56.5203 15.3676 56.5549 15.3546 56.5908ZM15.3937 60.1043C15.21 60.1852 14.9898 60.1158 14.9117 59.954C14.8205 59.7911 14.8973 59.5946 15.081 59.5149C15.2621 59.4444 15.4718 59.5021 15.563 59.6651C15.5878 59.7113 15.6008 59.7575 15.6008 59.8153C15.6008 59.9298 15.5239 60.0465 15.3937 60.1043ZM16.2795 55.2039C16.2664 55.2039 16.2664 55.2143 16.2521 55.2143C16.2521 55.227 16.2521 55.227 16.2391 55.2385C16.2391 55.2385 16.2391 55.2385 16.2391 55.227C16.1101 55.3645 15.8743 55.3772 15.7323 55.2605C15.576 55.1461 15.563 54.938 15.6933 54.7993C15.705 54.7993 15.705 54.7866 15.7193 54.7866C15.7193 54.7751 15.7323 54.7751 15.7323 54.7647C15.8613 54.6364 16.0971 54.626 16.2391 54.7416C16.3316 54.8109 16.3707 54.9033 16.3707 54.9842C16.3707 55.064 16.3446 55.1461 16.2795 55.2039ZM16.6703 61.3745C16.54 61.5143 16.3042 61.5247 16.1492 61.3987L16.1622 61.3987C16.0059 61.282 15.9929 61.0751 16.1231 60.9468C16.2521 60.8093 16.4879 60.7966 16.6442 60.9133C16.7224 60.9827 16.7615 61.0751 16.7615 61.156C16.7615 61.2358 16.7341 61.3178 16.6703 61.3745ZM17.6994 54.2677C17.517 54.337 17.2955 54.2677 17.2044 54.1047C17.1119 53.9441 17.1913 53.7592 17.3737 53.6771C17.5548 53.5974 17.7775 53.6655 17.8674 53.8285C17.8948 53.8747 17.8948 53.9198 17.8948 53.966C17.8948 54.0943 17.8283 54.2087 17.6994 54.2677ZM18.3898 62.1269C18.3247 62.2991 18.1162 62.3811 17.9208 62.3233L17.9326 62.3233C17.7385 62.2655 17.6342 62.0806 17.6994 61.9061C17.7632 61.7455 17.9729 61.653 18.1683 61.7096C18.3247 61.7559 18.4145 61.8842 18.4145 62.0229C18.4145 62.0564 18.4028 62.0922 18.3898 62.1269ZM19.4059 53.8747C19.2105 53.8863 19.0281 53.7476 19.0138 53.5731C19.0138 53.3881 19.1701 53.2379 19.3668 53.2275C19.5752 53.2159 19.7446 53.3546 19.7576 53.5268C19.7576 53.5396 19.7576 53.5396 19.7576 53.5511C19.7576 53.7233 19.6013 53.862 19.4059 53.8747ZM19.966 62.5765C19.7576 62.588 19.5882 62.4505 19.5752 62.2655C19.5609 62.0922 19.7172 61.9304 19.9139 61.9188C20.1223 61.9188 20.2917 62.0564 20.3047 62.2309L20.3047 62.2413C20.3047 62.4158 20.1601 62.5661 19.966 62.5765ZM21.6334 53.8978C21.5553 54.0712 21.3456 54.1509 21.1645 54.0943C20.9678 54.0365 20.8635 53.8516 20.943 53.6771C20.9951 53.5164 21.2166 53.424 21.3976 53.4806C21.5553 53.5269 21.6465 53.6551 21.6465 53.7938C21.6465 53.8285 21.6465 53.862 21.6334 53.8978ZM21.9591 62.1153C21.7754 62.1951 21.5553 62.1269 21.4628 61.9651C21.3729 61.8033 21.4497 61.6068 21.6334 61.5247C21.8158 61.4565 22.0372 61.5143 22.1141 61.6761C22.1415 61.7212 22.1545 61.7674 22.1545 61.8264C22.1545 61.942 22.0763 62.0564 21.9591 62.1153ZM23.1953 54.8687C23.0664 55.0074 22.8319 55.0178 22.6886 54.8918C22.5323 54.7751 22.5192 54.5682 22.6482 54.4399C22.7928 54.3012 23.026 54.2908 23.1706 54.4179C23.2474 54.4757 23.2995 54.5682 23.2995 54.6491C23.2995 54.7288 23.2618 54.8109 23.1953 54.8687ZM23.5874 61.0173C23.4572 61.1433 23.2227 61.156 23.0781 61.0393C22.9218 60.9249 22.91 60.7168 23.039 60.5781C23.1836 60.451 23.4038 60.4395 23.5614 60.5539C23.6395 60.6244 23.6773 60.7041 23.6773 60.7966C23.6773 60.8786 23.6526 60.9468 23.5874 61.0173ZM24.2388 56.3018C24.0551 56.3827 23.8349 56.3134 23.7424 56.1516C23.6526 55.9886 23.7294 55.7921 23.9131 55.7239C24.0955 55.6419 24.3169 55.7124 24.4081 55.8742C24.4342 55.9204 24.4459 55.9667 24.4459 56.0129C24.4459 56.1273 24.369 56.2556 24.2388 56.3018ZM24.6296 59.4443C24.5644 59.6073 24.356 59.6986 24.1723 59.6408C23.9782 59.5842 23.874 59.3981 23.9391 59.2259C24.003 59.063 24.2127 58.9705 24.4081 59.0294C24.5644 59.0756 24.6543 59.2028 24.6543 59.3415C24.6543 59.3762 24.6426 59.4097 24.6296 59.4443ZM24.9161 57.631C24.9279 57.8147 24.7716 57.965 24.5775 57.9777C24.369 57.9892 24.1997 57.8506 24.1867 57.6645C24.1723 57.4923 24.3287 57.342 24.5384 57.3293C24.7338 57.3189 24.9031 57.4576 24.9161 57.631Z" fill="#FFC225"/>
<path d="M62.0787 57.8991C62.0787 58.388 62.2793 58.8607 62.6454 59.2282C63.0453 59.6316 63.5989 59.872 64.2034 59.9055C64.8078 59.939 65.3901 59.7633 65.846 59.4073C66.7488 58.7023 66.8439 57.3698 66.0479 56.5677C65.6467 56.1655 65.0944 55.925 64.4899 55.8904C63.8855 55.8568 63.3019 56.0325 62.8473 56.3885C62.3588 56.7699 62.0787 57.3212 62.0787 57.8991ZM67.3467 57.8979C67.3467 58.6619 66.9754 59.39 66.3293 59.8951C65.7288 60.3655 64.9563 60.6001 64.1577 60.5539C63.3566 60.5088 62.6245 60.191 62.0956 59.657C61.0418 58.5949 61.1707 56.8323 62.364 55.9008C62.9645 55.4304 63.7357 55.1969 64.5368 55.242C65.3367 55.2871 66.0675 55.6049 66.5976 56.1389C67.0809 56.6254 67.3467 57.2496 67.3467 57.8979Z" fill="#FFC225"/>
<path d="M59.4239 57.9777C59.2154 57.965 59.0591 57.8147 59.0709 57.631C59.0852 57.4576 59.2545 57.3189 59.463 57.3293C59.6584 57.342 59.8147 57.4923 59.8016 57.6645L59.8147 57.676C59.8016 57.8505 59.618 57.9892 59.4239 57.9777ZM59.8264 59.6408C59.6323 59.6986 59.4239 59.6073 59.3587 59.4443C59.2923 59.2721 59.3965 59.0872 59.5802 59.0294C59.7743 58.9705 59.984 59.0525 60.0479 59.2259C60.0622 59.2594 60.0752 59.2952 60.0752 59.3299C60.0752 59.4686 59.984 59.5946 59.8264 59.6408ZM60.2576 56.1516C60.1651 56.3134 59.9436 56.3827 59.7625 56.3018C59.5802 56.2198 59.5007 56.0349 59.5932 55.8742C59.6701 55.6997 59.8915 55.6315 60.0752 55.7124C60.2042 55.7702 60.2836 55.8846 60.2836 56.0129C60.2836 56.0591 60.2693 56.1053 60.2576 56.1516ZM60.9206 61.0393C60.7656 61.156 60.5298 61.1433 60.4009 61.0058C60.2693 60.8786 60.2836 60.6706 60.44 60.5539C60.5833 60.4279 60.8164 60.451 60.948 60.5781C61.0131 60.6475 61.0522 60.7168 61.0522 60.7966C61.0522 60.889 61.0001 60.9711 60.9206 61.0393ZM61.3127 54.8918C61.1694 55.0178 60.9349 55.0074 60.8034 54.8687C60.6614 54.7415 60.6744 54.5323 60.8308 54.4064C60.8308 54.4064 60.8307 54.4064 60.8164 54.4064C60.9727 54.2908 61.2085 54.3012 61.3388 54.4399C61.4026 54.4977 61.443 54.5797 61.443 54.6491C61.443 54.7415 61.3909 54.8329 61.3127 54.8918ZM62.5372 61.9651C62.4448 62.1269 62.2233 62.1951 62.0422 62.1153C61.8598 62.0344 61.7804 61.8379 61.8729 61.6761C61.9641 61.5143 62.1855 61.445 62.3679 61.5247L62.3549 61.5247C62.4838 61.5837 62.5633 61.6992 62.5633 61.8264C62.5633 61.8726 62.549 61.9188 62.5372 61.9651ZM62.8369 54.0943C62.6415 54.1509 62.4317 54.0712 62.3679 53.8978C62.3028 53.7233 62.407 53.5396 62.6011 53.4806C62.7847 53.424 62.9932 53.5164 63.0583 53.6771C63.0713 53.7129 63.083 53.7592 63.083 53.7938C63.083 53.9198 62.9932 54.0481 62.8369 54.0943ZM64.4131 62.2655C64.4131 62.4505 64.2294 62.5765 64.0353 62.5765C63.8269 62.5661 63.6706 62.4043 63.6823 62.2309C63.6966 62.0448 63.866 61.9061 64.0731 61.9188L64.0731 61.9304C64.2698 61.9304 64.4131 62.0806 64.4131 62.254L64.4131 62.2655ZM64.9732 53.5731C64.9602 53.7476 64.7909 53.8863 64.5955 53.8747C64.3857 53.862 64.2294 53.7129 64.2438 53.5268C64.2568 53.3546 64.4261 53.2159 64.6345 53.2275C64.8286 53.2379 64.9732 53.3766 64.9732 53.5511C64.9732 53.5627 64.9732 53.5627 64.9732 53.5731ZM66.0662 62.3233C65.8721 62.3811 65.6636 62.2875 65.5985 62.1269C65.5321 61.9523 65.6363 61.7674 65.833 61.7096C66.0141 61.653 66.2238 61.7455 66.2876 61.9061C66.302 61.9523 66.315 61.9882 66.315 62.0229C66.315 62.1488 66.2238 62.2771 66.0662 62.3233ZM66.797 54.1174C66.7058 54.2792 66.4843 54.337 66.302 54.2677C66.1196 54.1868 66.0414 53.9903 66.1313 53.8285C66.2238 53.6655 66.4322 53.5974 66.6276 53.6771C66.7579 53.736 66.8347 53.8516 66.8347 53.9787C66.8347 54.025 66.823 54.0712 66.797 54.1174ZM67.8391 61.4103C67.8391 61.4103 67.8391 61.4103 67.8391 61.3987C67.6945 61.5247 67.4613 61.5143 67.3167 61.3745C67.1878 61.2358 67.2008 61.0393 67.3571 60.9133C67.5134 60.7966 67.7349 60.8093 67.8782 60.9468C67.9303 61.0058 67.9681 61.0855 67.9681 61.156C67.9681 61.2485 67.916 61.3409 67.8391 61.4103ZM68.269 55.2605C68.1257 55.3772 67.8912 55.3645 67.7597 55.2385L67.7597 55.227C67.7479 55.227 67.7349 55.2143 67.7219 55.2039C67.5903 55.0756 67.6046 54.8687 67.7479 54.7415C67.9042 54.626 68.1257 54.6364 68.269 54.7647C68.269 54.7751 68.282 54.7751 68.282 54.7866C68.2937 54.7866 68.2937 54.7993 68.3068 54.7993C68.3732 54.8687 68.3993 54.938 68.3993 55.0178C68.3993 55.1102 68.3589 55.2039 68.269 55.2605ZM69.0897 59.954C68.9972 60.1158 68.777 60.1852 68.5946 60.1043C68.411 60.0222 68.3341 59.8269 68.4253 59.6651C68.5152 59.5021 68.7366 59.4444 68.9203 59.5149C69.0506 59.5726 69.1288 59.687 69.1288 59.8153C69.1288 59.8616 69.1144 59.9078 69.0897 59.954ZM69.1144 56.7977C68.9203 56.8554 68.7119 56.7641 68.6468 56.5908C68.5816 56.429 68.6845 56.244 68.8812 56.1735C69.0623 56.1273 69.2707 56.2198 69.3359 56.3827C69.3502 56.4162 69.3632 56.4521 69.3632 56.4867C69.3632 56.6254 69.259 56.7514 69.1144 56.7977ZM69.6094 58.1857C69.5964 58.3706 69.4284 58.5093 69.2186 58.4851C69.0102 58.4851 68.8682 58.336 68.8812 58.1499C68.893 57.965 69.0623 57.839 69.2707 57.839C69.4674 57.861 69.6094 57.9996 69.6094 58.1742L69.6094 58.1857Z" fill="#FFC225"/>
<path d="M12.546 6.15792C12.546 6.19606 12.5369 6.23423 12.5161 6.27237C12.4444 6.40066 12.2712 6.45496 12.124 6.39139C10.4591 5.67251 9.00927 5.75458 8.2446 6.61216C7.57633 7.36224 7.64537 8.50646 8.40874 9.33514C8.51165 9.44609 8.4934 9.61017 8.36835 9.70032C8.24199 9.79278 8.05702 9.77544 7.95541 9.66448C7.01619 8.64973 6.94714 7.23045 7.78345 6.28851C8.73179 5.22636 10.45 5.09 12.3819 5.92445C12.4861 5.96953 12.546 6.06199 12.546 6.15792Z" fill="#FFC225"/>
<path d="M18.0303 8.54921C18.0303 8.57695 18.0276 8.60469 18.0159 8.63358C17.9638 8.76881 17.7984 8.84167 17.6447 8.79543C15.4002 8.12162 13.4501 8.47641 12.4262 9.74544C11.5847 10.7868 11.6094 12.2199 12.4861 13.2335C12.5838 13.348 12.5578 13.5086 12.4314 13.5987C12.3024 13.6854 12.1187 13.6635 12.0197 13.5502C10.9893 12.3575 10.9581 10.6678 11.9507 9.44149C13.1322 7.97713 15.3298 7.5518 17.8323 8.30305C17.9547 8.34003 18.0303 8.44173 18.0303 8.54921Z" fill="#FFC225"/>
<path d="M25.6483 10.5799C25.6483 10.6042 25.6457 10.6273 25.6378 10.6515C25.5935 10.7891 25.432 10.8689 25.2757 10.8307C22.557 10.1488 20.25 10.4909 18.7806 11.7912C17.4506 12.9689 16.9673 14.7823 17.5183 16.5321C17.5652 16.6731 17.4714 16.8129 17.3151 16.8522C17.1601 16.8904 16.9972 16.8106 16.953 16.6719C16.3472 14.7488 16.8865 12.7319 18.3663 11.4236C19.9921 9.98468 22.5023 9.59632 25.4359 10.3291C25.5649 10.3626 25.6483 10.4667 25.6483 10.5799Z" fill="#FFC225"/>
<path d="M33.5633 13.3918C33.5633 13.4323 33.5529 13.4739 33.5307 13.5132C33.4539 13.6403 33.278 13.6889 33.1334 13.6218C29.6045 11.9679 27.2349 13.3711 26.1355 14.3558C24.0343 16.2362 23.1302 19.6041 24.2388 21.4279C24.3156 21.5527 24.2635 21.711 24.1189 21.7803C23.9769 21.8474 23.7998 21.8 23.7229 21.674C22.4867 19.6399 23.4181 16.0489 25.7199 13.9882C26.9314 12.903 29.5433 11.3508 33.4083 13.1619C33.5073 13.2092 33.5633 13.2994 33.5633 13.3918Z" fill="#FFC225"/>
<path d="M41.9929 21.644C41.9929 21.7446 41.9264 21.8405 41.8157 21.8832C41.6672 21.9399 41.4952 21.8798 41.4301 21.7468C39.6259 18.0322 35.5381 18.9153 33.8642 19.4677C30.0865 20.7148 26.2241 24.1936 27.0929 26.6496C27.1424 26.7848 27.0538 26.9316 26.9001 26.9755C26.7464 27.0183 26.581 26.9409 26.5328 26.8045C25.5636 24.0457 29.5602 20.3334 33.661 18.98C37.4713 17.7225 40.5782 18.6806 41.9694 21.5423C41.985 21.5746 41.9929 21.6094 41.9929 21.644Z" fill="#FFC225"/>
<path d="M56.7677 23.6192C56.7677 23.6573 56.7586 23.6943 56.7404 23.7301C55.9509 25.2292 55.3895 26.6346 55.0248 28.025C54.9896 28.1648 54.8307 28.2515 54.673 28.2191C54.5154 28.1879 54.4164 28.0423 54.4542 27.9071C54.828 26.4809 55.4025 25.0431 56.2089 23.5094C56.2779 23.3788 56.4525 23.3233 56.5997 23.3834C56.7052 23.4273 56.7677 23.5209 56.7677 23.6192Z" fill="#FFC225"/>
<path d="M60.6275 18.461C60.6275 18.5269 60.5989 18.5951 60.5402 18.646C59.3952 19.6492 58.5094 20.6974 57.5728 22.1514C57.492 22.2762 57.3135 22.319 57.1729 22.2485C57.0309 22.178 56.9814 22.0196 57.0634 21.8936C58.0287 20.3958 58.9445 19.314 60.1286 18.2749C60.2445 18.1744 60.4282 18.1755 60.5428 18.2772C60.5989 18.3281 60.6275 18.394 60.6275 18.461Z" fill="#FFC225"/>
<path d="M67.1461 14.4898C67.1461 14.5742 67.0992 14.6586 67.0132 14.7071C66.3098 15.1151 65.7288 15.4144 64.8677 15.8108C63.948 16.2327 63.0687 16.7309 62.2572 17.2902C62.1295 17.3781 61.9445 17.3572 61.8455 17.244C61.7478 17.1295 61.77 16.9666 61.8976 16.8788C62.7379 16.3009 63.6458 15.7854 64.5981 15.3474C65.4396 14.9614 66.0076 14.6689 66.6928 14.2725C66.8282 14.1939 67.0093 14.2263 67.0979 14.3476C67.1304 14.3915 67.1461 14.4412 67.1461 14.4898Z" fill="#FFC225"/>
<path d="M72.517 10.507C72.517 10.5695 72.4909 10.6331 72.4388 10.6839C71.2508 11.8189 70.0758 12.7539 68.6259 13.7155C68.4969 13.801 68.3133 13.7779 68.2156 13.6623C68.1218 13.5502 68.1465 13.3849 68.2755 13.2982C69.6954 12.3575 70.8456 11.442 72.0089 10.329C72.1197 10.225 72.3047 10.2193 72.4232 10.3164C72.4857 10.3672 72.517 10.4365 72.517 10.507Z" fill="#FFC225"/>
<path d="M76.2908 6.589C76.2908 6.64795 76.27 6.70688 76.2231 6.75542C74.9556 8.10997 73.9356 9.18023 73.4484 9.68529C73.3429 9.79393 73.1592 9.80667 73.0355 9.71306C72.913 9.61944 72.8987 9.45759 73.0042 9.34663C73.4901 8.84388 74.5075 7.77601 75.7737 6.42376C75.8766 6.31281 76.0602 6.2966 76.1853 6.38906C76.2556 6.43992 76.2908 6.51503 76.2908 6.589Z" fill="#FFC225"/>
<path d="M53.5228 10.3823C53.5228 10.4643 53.4824 10.5452 53.4186 10.6134C53.3404 10.6712 53.2492 10.707 53.1567 10.707C53.0525 10.707 52.9626 10.6712 52.8975 10.6134C52.8311 10.5568 52.7933 10.4747 52.7933 10.3823C52.7933 10.2898 52.8311 10.21 52.8975 10.1523C52.9626 10.0933 53.0525 10.0598 53.1567 10.0598C53.2492 10.0598 53.3404 10.0933 53.4186 10.1523C53.4824 10.2216 53.5228 10.3025 53.5228 10.3823Z" fill="#FFC225"/>
<path d="M43.6603 16.6812C43.6603 16.6812 43.6603 16.6811 43.6603 16.6927C43.5313 16.8314 43.3098 16.8441 43.1535 16.7285C42.9972 16.6129 42.9712 16.4164 43.1014 16.2778C43.2174 16.1391 43.4531 16.1148 43.6081 16.2315C43.7006 16.2893 43.7528 16.3922 43.7528 16.4858C43.7528 16.5551 43.7267 16.6245 43.6603 16.6812ZM45.2769 15.1566C45.1336 15.2722 44.8978 15.2722 44.7558 15.1439C44.6125 15.0053 44.6256 14.8088 44.7688 14.6828C44.9252 14.5557 45.1466 14.5661 45.2886 14.6943C45.355 14.7521 45.3928 14.8331 45.3928 14.9128C45.3928 15.0053 45.355 15.0873 45.2769 15.1566ZM47.0876 13.7917C46.9313 13.8958 46.6955 13.8738 46.5795 13.7351C46.4493 13.5848 46.4871 13.3884 46.6434 13.2717C46.7997 13.1676 47.0355 13.1919 47.1527 13.3306C47.2048 13.3999 47.2309 13.4681 47.2309 13.5386C47.2309 13.631 47.1775 13.7236 47.0876 13.7917ZM49.0546 12.6013C48.8709 12.6937 48.6495 12.6475 48.5453 12.4973C48.4411 12.347 48.4932 12.1401 48.6638 12.0477C48.8332 11.9552 49.0677 12.0014 49.1719 12.1517C49.211 12.2083 49.224 12.2672 49.224 12.325C49.224 12.4406 49.1588 12.5435 49.0546 12.6013ZM51.1259 11.5738C50.9565 11.6547 50.7351 11.5842 50.6439 11.4339C50.5397 11.2733 50.6178 11.0768 50.8002 10.9959C50.9813 10.9139 51.2027 10.9728 51.2952 11.1346C51.3213 11.1809 51.3343 11.2386 51.3343 11.2848C51.3343 11.4004 51.2548 11.516 51.1259 11.5738Z" fill="#FFC225"/>
<path d="M42.3576 18.2299C42.3576 18.3119 42.3198 18.4044 42.2403 18.4622C42.1765 18.5188 42.084 18.5547 41.9942 18.5547C41.8899 18.5547 41.7988 18.5188 41.7336 18.4622C41.6542 18.4044 41.6164 18.3119 41.6164 18.2299C41.6164 18.1374 41.6685 18.0576 41.7336 17.9999C41.7857 17.9409 41.8899 17.9074 41.9942 17.9074C42.084 17.9074 42.1883 17.9409 42.2534 18.0114C42.3055 18.0577 42.3576 18.1374 42.3576 18.2299Z" fill="#FFC225"/>
<path d="M42.3719 18.2195C42.3719 18.3119 42.3328 18.4044 42.2534 18.4622C42.2026 18.5084 42.0984 18.5431 42.0072 18.5431C41.903 18.5431 41.8105 18.5084 41.7467 18.4506C41.6164 18.335 41.6164 18.1155 41.7467 17.9872C41.7988 17.9409 41.903 17.8947 42.0072 17.8947C42.1114 17.8947 42.2026 17.9409 42.2677 17.9999C42.3329 18.0461 42.3719 18.1258 42.3719 18.2195Z" fill="#FFC225"/>
<path d="M33.3705 11.434C33.2793 11.5842 33.0579 11.6547 32.8755 11.5738C32.6918 11.4918 32.628 11.2953 32.7061 11.1347C32.796 10.9844 33.0175 10.9139 33.2011 10.9959C33.3314 11.0526 33.4096 11.1693 33.4096 11.2849C33.4096 11.3311 33.3952 11.3877 33.3705 11.434ZM35.4535 12.4973C35.3492 12.6475 35.1278 12.6938 34.9467 12.6013C34.7774 12.51 34.7253 12.3123 34.8295 12.1517C34.9337 12.0015 35.1682 11.9552 35.3375 12.0477C35.4417 12.1159 35.5069 12.221 35.5069 12.3251C35.5069 12.3829 35.4938 12.4407 35.4535 12.4973ZM37.4205 13.7351C37.3032 13.8738 37.0701 13.8958 36.9137 13.7918C36.7561 13.6889 36.717 13.4809 36.8486 13.3422C36.9659 13.1919 37.1873 13.1677 37.3553 13.2717C37.4478 13.3422 37.5 13.4346 37.5 13.5386C37.5 13.6068 37.4726 13.6658 37.4205 13.7351ZM39.2455 15.1336C39.1009 15.2723 38.8678 15.2723 38.7101 15.144C38.5681 15.0296 38.5681 14.8215 38.7101 14.6944C38.8417 14.5661 39.0762 14.5557 39.2195 14.6829C39.2976 14.7407 39.3367 14.8331 39.3367 14.9128C39.3367 14.9949 39.3093 15.0758 39.2455 15.1336ZM40.8478 16.7285C40.6915 16.8441 40.4557 16.821 40.3267 16.6812C40.3267 16.6812 40.3267 16.6812 40.3385 16.6812C40.2095 16.5425 40.2225 16.3356 40.3789 16.2316C40.5352 16.1148 40.7697 16.1391 40.8999 16.2778L40.8999 16.2662C40.9507 16.3356 40.9781 16.4038 40.9781 16.4743C40.9781 16.5668 40.9377 16.6592 40.8478 16.7285Z" fill="#FFC225"/>
<path d="M31.2081 10.3823C31.2081 10.4643 31.1677 10.5452 31.1038 10.6134C31.0387 10.6712 30.9345 10.707 30.842 10.707C30.7521 10.707 30.6479 10.6712 30.5815 10.6134C30.5163 10.5568 30.4786 10.4747 30.4786 10.3823C30.4786 10.2898 30.5163 10.21 30.5815 10.1523C30.6479 10.0933 30.7378 10.0598 30.842 10.0598C30.9475 10.0598 31.0387 10.0933 31.1038 10.1638C31.1677 10.2216 31.2081 10.3025 31.2081 10.3823Z" fill="#FFC225"/>
<path d="M59.5007 27.1188C59.5007 27.2113 59.463 27.2922 59.3965 27.35C59.3327 27.4078 59.2402 27.4425 59.1373 27.4425C59.0461 27.4425 58.9419 27.4078 58.8768 27.35C58.7452 27.2113 58.7452 27.0148 58.8768 26.8981C58.9419 26.8415 59.0461 26.7941 59.1373 26.7941C59.2402 26.7941 59.3444 26.8415 59.4108 26.8981C59.4629 26.9443 59.5007 27.0368 59.5007 27.1188Z" fill="#FFC225"/>
<path d="M60.3878 25.1887C60.2966 25.3494 60.0882 25.4199 59.9059 25.3494C59.7105 25.2697 59.6323 25.072 59.7222 24.9114C59.8016 24.7496 60.0231 24.679 60.2042 24.7611C60.3357 24.8073 60.4139 24.9217 60.4139 25.05C60.4139 25.0963 60.4139 25.1425 60.3878 25.1887ZM61.5602 23.2702C61.4547 23.4204 61.2346 23.4666 61.0522 23.3626C60.8829 23.2702 60.8307 23.0737 60.948 22.9119C60.948 22.9119 60.948 22.9119 60.948 22.9234C61.0522 22.7605 61.2867 22.727 61.4547 22.8194C61.5602 22.8888 61.6241 22.9917 61.6241 23.0957C61.6241 23.1546 61.5993 23.2124 61.5602 23.2702ZM63.0453 21.5365C62.915 21.6752 62.6805 21.6868 62.5242 21.5585C62.3796 21.4441 62.3679 21.236 62.4968 21.1089C62.6414 20.969 62.8746 20.9587 63.0192 21.0731C63.0961 21.1436 63.1352 21.236 63.1352 21.3158C63.1352 21.3978 63.1104 21.4787 63.0453 21.5365ZM64.8286 20.0687C64.6736 20.1727 64.4509 20.1485 64.3219 19.9994C64.2046 19.8595 64.2294 19.6642 64.3857 19.5486C64.5551 19.4446 64.7765 19.4677 64.9081 19.6064C64.9602 19.6642 64.9732 19.7335 64.9732 19.8029C64.9732 19.9069 64.9329 19.9993 64.8286 20.0687ZM66.9142 18.9129C66.7305 18.9927 66.5091 18.9361 66.4192 18.7743C66.315 18.6113 66.3918 18.4264 66.5755 18.335C66.5755 18.335 66.5755 18.335 66.5612 18.335C66.7449 18.2541 66.9663 18.312 67.0562 18.4726C67.0966 18.5189 67.1083 18.5778 67.1083 18.624C67.1083 18.7396 67.0315 18.854 66.9142 18.9129ZM69.1144 17.7803C68.9333 17.8843 68.7119 17.837 68.6077 17.6879C68.4904 17.5261 68.5425 17.3295 68.7249 17.2371C68.893 17.1331 69.1144 17.1793 69.2186 17.3296C69.259 17.3874 69.2707 17.4451 69.2707 17.5017C69.2707 17.6185 69.2186 17.7225 69.1144 17.7803ZM71.2 16.4963C71.0306 16.6014 70.8092 16.5783 70.6789 16.4396C70.5617 16.2894 70.6008 16.0813 70.7571 15.9773C70.9121 15.8721 71.1479 15.8964 71.2651 16.0467C71.3172 16.1033 71.342 16.1738 71.342 16.2432C71.342 16.3356 71.2899 16.4281 71.2 16.4963ZM73.167 15.0758C73.0107 15.1903 72.7893 15.1798 72.6447 15.0411C72.5157 14.9128 72.5274 14.706 72.685 14.5904C72.8283 14.4633 73.0628 14.4737 73.1918 14.6123C73.2582 14.6701 73.296 14.7522 73.296 14.8331C73.296 14.9129 73.2439 15.0053 73.167 15.0758ZM75.0038 13.5144C74.8592 13.6427 74.639 13.6531 74.4814 13.5271C74.3394 13.4 74.3394 13.192 74.4814 13.0648C74.626 12.9365 74.8592 12.9365 75.0038 13.0648C75.0689 13.1215 75.108 13.2139 75.108 13.296C75.108 13.3769 75.0806 13.4566 75.0038 13.5144ZM76.709 11.8513C76.58 11.99 76.3455 12.0015 76.2023 11.8859C76.0459 11.7807 76.0199 11.5738 76.1619 11.434C76.2791 11.2953 76.5149 11.2849 76.6712 11.3878C76.7611 11.4583 76.8015 11.5507 76.8015 11.6432C76.8015 11.7125 76.7741 11.7935 76.709 11.8513ZM78.2852 10.0829C78.1693 10.232 77.9348 10.2563 77.7785 10.1523C77.6091 10.0471 77.57 9.8402 77.686 9.70035C77.8175 9.55126 78.039 9.52816 78.2083 9.63218C78.2995 9.68997 78.3517 9.79399 78.3517 9.89686C78.3517 9.9558 78.3373 10.0251 78.2852 10.0829ZM79.7195 8.22213C79.6152 8.38393 79.3794 8.41865 79.2101 8.32619C79.0407 8.23373 78.9886 8.02453 79.1059 7.87427C79.2101 7.72403 79.4316 7.67782 79.6152 7.78183C79.7194 7.84078 79.7715 7.94474 79.7715 8.04876C79.7715 8.11696 79.7572 8.1759 79.7195 8.22213Z" fill="#FFC225"/>
<path d="M81.0742 6.11866C81.0742 6.21112 81.0352 6.29086 80.957 6.3498C80.8906 6.40759 80.8007 6.44224 80.7095 6.44224C80.6053 6.44224 80.5128 6.40759 80.4489 6.3498C80.3056 6.23307 80.3056 6.00192 80.4489 5.8875C80.501 5.84127 80.6053 5.795 80.7095 5.795C80.8007 5.795 80.9049 5.84125 80.97 5.89789C81.0221 5.94411 81.0742 6.03775 81.0742 6.11866Z" fill="#FFC225"/>
<path d="M81.8676 0.433461C81.8676 0.475064 81.861 0.516675 81.848 0.558285C81.8076 0.672703 77.841 12.0269 65.8708 17.5295C57.3253 21.4568 56.6453 31.2345 56.6387 31.3327C56.6244 31.572 56.3965 31.7546 56.1268 31.743C55.8598 31.7303 55.6279 31.5466 55.6644 31.2877C55.6696 31.1848 56.3717 20.9182 65.4201 16.7597C74.5544 12.5608 78.8818 4.85074 80.3317 1.70361C77.131 3.83599 68.8591 8.96296 61.1707 10.4701C44.2595 13.7894 42.85 22.0531 42.837 22.1363C42.8487 22.349 43.1392 28.8444 53.2961 28.8444C53.5658 28.8444 53.7846 29.0385 53.7846 29.2778C53.7846 29.517 53.5658 29.7112 53.2961 29.7112C42.1583 29.7112 41.8652 22.1664 41.8639 22.0889C41.9186 21.6636 43.3216 13.0844 60.9597 9.62407C70.3207 7.78756 80.9648 0.17339 81.0716 0.0971114C81.2383 -0.0230897 81.4741 -0.0323289 81.6513 0.0728499C81.7894 0.156064 81.8676 0.291302 81.8676 0.433461Z" fill="#FFC225"/>
<path d="M76.8002 7.82452C76.8002 8.46366 76.5461 9.12127 76.0459 9.66448C75.9443 9.77543 75.7593 9.79278 75.633 9.70031C75.5079 9.61133 75.4884 9.44956 75.5926 9.33513C76.3546 8.50646 76.4237 7.36224 75.7567 6.61216C74.992 5.75458 73.5422 5.67251 71.8748 6.39139C71.7289 6.45495 71.5543 6.40065 71.484 6.27237C71.4123 6.14177 71.4735 5.98802 71.6181 5.92445C73.5513 5.08999 75.2695 5.22639 76.2166 6.28969C76.6061 6.72657 76.8002 7.2686 76.8002 7.82452Z" fill="#FFC225"/>
<path d="M72.7736 11.4548C72.7736 12.198 72.5079 12.9388 71.9803 13.5502C71.88 13.6635 71.6976 13.6854 71.5687 13.5987C71.4397 13.5086 71.4162 13.348 71.514 13.2335C72.3893 12.2211 72.4154 10.7868 71.5739 9.74543C70.5513 8.47641 68.5999 8.12162 66.3554 8.79543C66.2016 8.84166 66.0362 8.7688 65.9841 8.63358C65.9242 8.49489 66.0141 8.34928 66.1678 8.30305C68.6702 7.5518 70.8691 7.9771 72.0506 9.44261C72.5326 10.0401 72.7736 10.7486 72.7736 11.4548Z" fill="#FFC225"/>
<path d="M67.292 15.0989C67.292 15.6202 67.2112 16.1495 67.0458 16.6719C67.0028 16.8106 66.84 16.8904 66.6849 16.8522C66.5299 16.8129 66.4361 16.6743 66.4817 16.5321C67.0328 14.7811 66.5495 12.9677 65.2194 11.7912C63.75 10.4909 61.443 10.1488 58.7243 10.8307C58.568 10.8689 58.4065 10.7891 58.3609 10.6515C58.3166 10.5152 58.4091 10.3695 58.5641 10.3291C61.4977 9.59632 64.0066 9.98468 65.6324 11.4236C66.7123 12.3771 67.292 13.7039 67.292 15.0989Z" fill="#FFC225"/>
<path d="M60.8268 19.492C60.8268 20.3045 60.651 21.0603 60.2784 21.674C60.2016 21.8 60.0244 21.8474 59.8811 21.7803C59.7378 21.711 59.6857 21.5515 59.7625 21.4279C60.8711 19.6075 59.9645 16.235 57.8646 14.3546C56.7664 13.371 54.3956 11.9679 50.8667 13.6218C50.7221 13.6889 50.5449 13.6403 50.4693 13.5132C50.3912 13.3849 50.4485 13.23 50.5918 13.1619C54.4555 11.3519 57.0673 12.903 58.2814 13.9882C59.8863 15.4271 60.8268 17.6115 60.8268 19.492Z" fill="#FFC225"/>
<path d="M57.6171 25.9227C57.6171 26.2243 57.5689 26.519 57.4686 26.8045C57.4204 26.9409 57.2549 27.0183 57.1012 26.9755C56.9462 26.9316 56.8628 26.786 56.9084 26.6496C57.7786 24.2029 53.9149 20.7136 50.1345 19.4677C48.4619 18.9153 44.3741 18.0322 42.5686 21.7468C42.5048 21.8798 42.3328 21.9399 42.183 21.8832C42.0345 21.8266 41.9707 21.6683 42.0293 21.5423C43.4219 18.6806 46.5261 17.7237 50.3378 18.98C54.0152 20.1924 57.6171 23.3025 57.6171 25.9227Z" fill="#FFC225"/>
<path d="M5.09606 45.0701C5.09606 45.2135 4.96449 45.3302 4.80296 45.3302C3.7986 45.3302 3.29967 45.6711 2.77339 46.0329C2.21846 46.4131 1.58799 46.8442 0.384319 46.8442C0.222788 46.8442 0.0912189 46.7286 0.0912189 46.5853C0.0912188 46.442 0.222788 46.3253 0.384319 46.3253C1.38868 46.3253 1.88758 45.9832 2.41386 45.6226C2.96879 45.2412 3.59799 44.8101 4.80296 44.8101C4.96449 44.8101 5.09606 44.9268 5.09606 45.0701Z" fill="#FFC225"/>
<path d="M13.9998 45.0678C13.9998 45.1603 13.9594 45.24 13.8956 45.2978C13.8435 45.3568 13.7393 45.3903 13.6338 45.3903C13.5295 45.3903 13.4397 45.3568 13.3732 45.2978C13.256 45.1938 13.2442 44.9511 13.3875 44.8367C13.4396 44.7789 13.5295 44.7442 13.6338 44.7442C13.7393 44.7442 13.8435 44.7789 13.9073 44.8482C13.9594 44.8945 13.9998 44.9869 13.9998 45.0678Z" fill="#FFC225"/>
<path d="M6.93933 45.7613C6.82208 45.9115 6.58631 45.9462 6.42999 45.8422C6.42999 45.8422 6.42998 45.8422 6.41695 45.8422C6.26063 45.7382 6.22288 45.5405 6.34012 45.3903C6.45736 45.24 6.6788 45.2065 6.84815 45.3105C6.95236 45.3799 7.00446 45.4723 7.00446 45.5752C7.00446 45.6457 6.97841 45.7035 6.93933 45.7613ZM8.61979 46.5587C8.56768 46.731 8.35925 46.835 8.16255 46.7783C7.96845 46.7309 7.86422 46.546 7.91633 46.3738C7.98146 46.2005 8.17686 46.1069 8.37096 46.1646C8.5403 46.2005 8.63279 46.3276 8.63279 46.4663C8.63279 46.4998 8.63281 46.5356 8.61979 46.5587ZM10.2872 46.7783C10.0918 46.835 9.89511 46.731 9.83128 46.5587C9.77917 46.3958 9.88337 46.2109 10.0788 46.1531C10.2611 46.1068 10.4696 46.2005 10.5347 46.3738C10.5464 46.3958 10.5464 46.4316 10.5464 46.4663C10.5464 46.605 10.4422 46.7309 10.2872 46.7783ZM12.0184 45.8422C12.0184 45.8422 12.0184 45.8422 12.0328 45.8295C11.8634 45.9346 11.6276 45.9 11.5117 45.7613C11.3945 45.611 11.4466 45.403 11.6029 45.2978L11.6159 45.2978C11.7722 45.1938 12.0054 45.24 12.1226 45.3799C12.163 45.4365 12.1891 45.507 12.1891 45.5648C12.1891 45.6688 12.1226 45.7717 12.0184 45.8422Z" fill="#FFC225"/>
<path d="M5.16641 45.0678C5.16641 45.1603 5.12731 45.24 5.05046 45.2978C4.99835 45.3568 4.90587 45.3903 4.80166 45.3903C4.71177 45.3903 4.62059 45.3568 4.54243 45.2978C4.47599 45.24 4.43821 45.1476 4.43821 45.0678C4.43821 44.9869 4.47599 44.9049 4.54243 44.8367C4.60756 44.7789 4.69875 44.7442 4.80166 44.7442C4.90587 44.7442 4.99836 44.7789 5.06219 44.8482C5.12732 44.8945 5.16641 44.9869 5.16641 45.0678Z" fill="#FFC225"/>
<path d="M18.3507 46.5853C18.3507 46.7286 18.2192 46.8442 18.0576 46.8442C16.8527 46.8442 16.2235 46.4131 15.6685 46.0329C15.1422 45.6711 14.6433 45.3302 13.639 45.3302C13.4774 45.3302 13.3472 45.2135 13.3472 45.0701C13.3472 44.9268 13.4774 44.8101 13.639 44.8101C14.8439 44.8101 15.4731 45.2412 16.0267 45.6226C16.5543 45.9832 17.052 46.3253 18.0576 46.3253C18.2192 46.3253 18.3507 46.442 18.3507 46.5853Z" fill="#FFC225"/>
<path d="M5.16641 42.7794C5.16641 42.8603 5.12731 42.9528 5.05046 43.0106C4.99835 43.0684 4.89415 43.103 4.80166 43.103C4.71177 43.103 4.60756 43.0683 4.54243 42.999C4.41086 42.9065 4.39915 42.6511 4.55547 42.5367C4.60757 42.4905 4.69875 42.4442 4.80166 42.4442C4.90587 42.4442 4.99836 42.4905 5.06219 42.5471C5.12732 42.5933 5.16641 42.6858 5.16641 42.7794Z" fill="#FFC225"/>
<path d="M13.9321 42.7725C13.9321 42.9158 13.8005 43.0314 13.639 43.0314C12.6346 43.0314 12.1357 43.3735 11.6094 43.7352C11.0545 44.1155 10.4266 44.5466 9.2216 44.5466C8.01664 44.5466 7.38747 44.1155 6.83253 43.7352C6.30495 43.3735 5.80732 43.0314 4.80296 43.0314C4.64143 43.0314 4.51117 42.9158 4.51117 42.7725C4.51117 42.6292 4.64143 42.5124 4.80296 42.5124C6.00793 42.5124 6.63583 42.9435 7.19076 43.3238C7.71704 43.6855 8.21594 44.0276 9.2216 44.0276C10.2247 44.0276 10.7236 43.6855 11.2499 43.3238C11.8048 42.9435 12.4353 42.5124 13.639 42.5124C13.8005 42.5124 13.9321 42.6292 13.9321 42.7725Z" fill="#FFC225"/>
<path d="M18.4289 44.2934C18.4289 44.3732 18.3768 44.4668 18.3103 44.5235C18.2465 44.5824 18.154 44.6159 18.0511 44.6159C17.9599 44.6159 17.8674 44.5697 17.7906 44.5131C17.6733 44.4194 17.659 44.1779 17.8036 44.0508C17.8557 44.0045 17.9599 43.9583 18.0511 43.9583C18.154 43.9583 18.2582 43.9918 18.3247 44.0623C18.3898 44.1085 18.4289 44.201 18.4289 44.2934Z" fill="#FFC225"/>
<path d="M15.4979 43.2879C15.4067 43.4382 15.1722 43.4844 15.0016 43.4035C14.8322 43.311 14.7684 43.1146 14.8726 42.9528C14.9768 42.8025 15.1983 42.7436 15.3676 42.836C15.4836 42.895 15.5487 43.0106 15.5487 43.125C15.5487 43.1712 15.5357 43.229 15.4979 43.2879ZM16.8266 44.0958C16.7224 44.2588 16.5009 44.3166 16.3185 44.2241C16.1492 44.1305 16.0828 43.9352 16.187 43.7733C16.2925 43.6231 16.5127 43.5642 16.6963 43.6566C16.8136 43.7156 16.8787 43.8311 16.8787 43.9352C16.8787 43.9918 16.8514 44.0507 16.8266 44.0958Z" fill="#FFC225"/>
<path d="M13.9998 42.7794C13.9998 42.8603 13.9594 42.9401 13.8956 42.999C13.8305 43.0683 13.7262 43.103 13.6338 43.103C13.5439 43.103 13.4527 43.0683 13.3732 42.999C13.256 42.9065 13.2442 42.6638 13.3875 42.5367C13.4396 42.4905 13.5439 42.4442 13.6338 42.4442C13.7393 42.4442 13.8304 42.4789 13.9073 42.5471C13.9594 42.6061 13.9998 42.6858 13.9998 42.7794Z" fill="#FFC225"/>
<path d="M5.09606 40.4737C5.09606 40.617 4.96449 40.7337 4.80296 40.7337C3.7986 40.7337 3.29967 41.0758 2.77339 41.4364C2.21846 41.8178 1.58799 42.2489 0.384319 42.2489C0.222788 42.2489 0.0912186 42.1322 0.0912186 41.9889C0.0912186 41.8456 0.222788 41.7288 0.384319 41.7288C1.38868 41.7288 1.88758 41.3867 2.41386 41.0261C2.96879 40.6459 3.59799 40.2148 4.80296 40.2148C4.96449 40.2148 5.09606 40.3304 5.09606 40.4737Z" fill="#FFC225"/>
<path d="M13.9998 40.4783C13.9998 40.5708 13.9594 40.6528 13.8826 40.7106C13.8304 40.7672 13.7262 40.8031 13.6338 40.8031C13.5439 40.8031 13.4527 40.7672 13.3732 40.7106C13.2443 40.6066 13.2442 40.3523 13.3875 40.2356C13.4396 40.1894 13.5295 40.1558 13.6338 40.1558C13.7393 40.1558 13.8435 40.1893 13.9073 40.2483C13.9594 40.2945 13.9998 40.3858 13.9998 40.4783Z" fill="#FFC225"/>
<path d="M6.93933 41.1729C6.82208 41.3116 6.58631 41.3451 6.42999 41.2526C6.26065 41.1486 6.22288 40.9417 6.34012 40.7915C6.44433 40.6528 6.6788 40.617 6.84814 40.721C6.95236 40.7799 7.00446 40.884 7.00446 40.988C7.00446 41.0458 6.97841 41.1151 6.93933 41.1729ZM8.61979 41.9692C8.56768 42.1437 8.35925 42.2362 8.16255 42.19C7.96845 42.1322 7.86422 41.9588 7.91633 41.7843C7.98146 41.6121 8.18989 41.5196 8.37096 41.5659C8.52858 41.6121 8.63279 41.7392 8.63279 41.8768C8.63279 41.9126 8.63281 41.9357 8.61979 41.9692ZM10.2872 42.1784C10.0918 42.2362 9.89511 42.1322 9.83128 41.9692C9.77917 41.797 9.88337 41.6121 10.0788 41.5659L10.0788 41.5543C10.2611 41.5081 10.4696 41.6005 10.5347 41.7727C10.5464 41.8086 10.5464 41.8432 10.5464 41.8663C10.5464 42.0154 10.4422 42.1437 10.2872 42.1784ZM12.0184 41.2411C11.8634 41.3451 11.6276 41.3116 11.5117 41.1613C11.3945 41.0099 11.4466 40.8134 11.6029 40.7106L11.6159 40.7106C11.7722 40.6066 12.0054 40.6413 12.1226 40.7915C12.163 40.8493 12.1891 40.9059 12.1891 40.9764C12.1891 41.0804 12.1226 41.1844 12.0184 41.2411Z" fill="#FFC225"/>
<path d="M5.16641 40.4783C5.16641 40.5604 5.12732 40.6412 5.06219 40.7106C4.98533 40.7672 4.89415 40.8031 4.80166 40.8031C4.71177 40.8031 4.62059 40.7672 4.54243 40.7106C4.41086 40.6066 4.41087 40.3523 4.55547 40.2356C4.60757 40.1894 4.69875 40.1558 4.80166 40.1558C4.89415 40.1558 4.98533 40.1893 5.06219 40.2483C5.12732 40.3061 5.16641 40.3858 5.16641 40.4783Z" fill="#FFC225"/>
<path d="M18.3507 41.9889C18.3507 42.1322 18.2192 42.2489 18.0576 42.2489C16.8527 42.2489 16.2235 41.8178 15.6685 41.4364C15.1422 41.0758 14.6433 40.7337 13.639 40.7337C13.4774 40.7337 13.3472 40.617 13.3472 40.4737C13.3472 40.3304 13.4774 40.2148 13.639 40.2148C14.8439 40.2148 15.4731 40.6459 16.0267 41.0261C16.5543 41.3867 17.052 41.7288 18.0576 41.7288C18.2192 41.7288 18.3507 41.8455 18.3507 41.9889Z" fill="#FFC225"/>
<path d="M83.9088 46.5853C83.9088 46.7286 83.7773 46.8442 83.6157 46.8442C82.4108 46.8442 81.7816 46.4131 81.2266 46.0329C80.7003 45.6711 80.2014 45.3302 79.1984 45.3302C79.0369 45.3302 78.9053 45.2135 78.9053 45.0701C78.9053 44.9268 79.0369 44.8101 79.1984 44.8101C80.4021 44.8101 81.0312 45.2412 81.5862 45.6226C82.1124 45.9832 82.6114 46.3253 83.6157 46.3253C83.7773 46.3253 83.9088 46.442 83.9088 46.5853Z" fill="#FFC225"/>
<path d="M70.731 45.0678C70.731 45.1603 70.6789 45.2516 70.6138 45.3105C70.5617 45.3568 70.4575 45.3903 70.365 45.3903C70.2608 45.3903 70.1579 45.3568 70.0914 45.2863C69.9742 45.2065 69.9624 44.9511 70.1188 44.8367C70.1579 44.7789 70.2477 44.7442 70.365 44.7442C70.4692 44.7442 70.5617 44.7789 70.6255 44.8482C70.6789 44.8944 70.731 44.9754 70.731 45.0678Z" fill="#FFC225"/>
<path d="M72.4896 45.7613C72.3711 45.9 72.1379 45.9462 71.9686 45.8294C71.8123 45.7381 71.7601 45.529 71.8761 45.3903C71.9933 45.24 72.2291 45.1938 72.3984 45.2978C72.4896 45.3683 72.5548 45.4723 72.5548 45.5752C72.5548 45.633 72.5274 45.7035 72.4896 45.7613ZM74.1688 46.5587C74.1036 46.7309 73.9095 46.835 73.7141 46.7783C73.5174 46.7309 73.4002 46.546 73.4667 46.3738C73.5175 46.2004 73.7259 46.1068 73.9226 46.1531C74.0789 46.2005 74.1831 46.3276 74.1831 46.4663C74.1831 46.4998 74.1831 46.5356 74.1688 46.5587ZM75.8362 46.7783L75.8362 46.7887C75.6278 46.835 75.4337 46.7309 75.3816 46.5587C75.3164 46.3958 75.4206 46.2109 75.616 46.1646C75.8114 46.1068 76.0199 46.2108 76.072 46.3738C76.085 46.4073 76.085 46.442 76.085 46.4663C76.085 46.605 75.9938 46.7425 75.8362 46.7783ZM77.5701 45.8422C77.4124 45.9462 77.1792 45.9115 77.062 45.7613C76.9448 45.6226 76.9825 45.4145 77.1519 45.3105C77.3225 45.2065 77.544 45.24 77.6612 45.3903C77.7133 45.4492 77.7264 45.5186 77.7264 45.5752C77.7264 45.6792 77.6743 45.7844 77.5701 45.8422Z" fill="#FFC225"/>
<path d="M79.5631 45.0678C79.5631 45.1603 79.5241 45.24 79.4589 45.2978C79.3795 45.3568 79.2896 45.3903 79.1984 45.3903C79.0929 45.3903 79.003 45.3568 78.9366 45.2863C78.8206 45.2065 78.8076 44.9511 78.9509 44.8367C78.9886 44.7789 79.0929 44.7442 79.1984 44.7442C79.3026 44.7442 79.3938 44.7789 79.4589 44.8482C79.5241 44.8944 79.5631 44.9869 79.5631 45.0678Z" fill="#FFC225"/>
<path d="M70.6542 45.0701C70.6542 45.2135 70.5226 45.3302 70.3611 45.3302C69.3567 45.3302 68.8578 45.6711 68.3315 46.0329C67.7766 46.4131 67.1474 46.8442 65.9424 46.8442C65.7809 46.8442 65.6493 46.7286 65.6493 46.5853C65.6493 46.442 65.7809 46.3253 65.9424 46.3253C66.9468 46.3253 67.4457 45.9832 67.972 45.6226C68.5269 45.2412 69.1574 44.8101 70.3611 44.8101C70.5226 44.8101 70.6542 44.9268 70.6542 45.0701Z" fill="#FFC225"/>
<path d="M79.5631 42.7794C79.5631 42.8603 79.524 42.9528 79.4459 43.0106C79.3794 43.0684 79.2896 43.103 79.1984 43.103C79.1059 43.103 79.016 43.0684 78.9509 43.0106C78.8727 42.9401 78.8323 42.8603 78.8323 42.7794C78.8323 42.6858 78.8727 42.606 78.9366 42.5471C79.016 42.4789 79.1059 42.4442 79.1984 42.4442C79.3026 42.4442 79.3938 42.4905 79.4589 42.5471C79.5241 42.606 79.5631 42.6858 79.5631 42.7794Z" fill="#FFC225"/>
<path d="M81.0599 43.2879C80.97 43.4382 80.7342 43.496 80.5649 43.4035C80.3955 43.311 80.3317 43.1146 80.4359 42.9528C80.5271 42.8025 80.7616 42.7436 80.9309 42.836C81.0469 42.895 81.112 43.0105 81.112 43.1146C81.112 43.1712 81.1003 43.229 81.0599 43.2879ZM82.3899 44.0958C82.2857 44.2588 82.0512 44.3166 81.8819 44.2241C81.6982 44.1305 81.6461 43.9351 81.7516 43.7733C81.8558 43.6231 82.0773 43.5769 82.2453 43.6566C82.3626 43.7156 82.429 43.8312 82.429 43.9456C82.429 43.9918 82.4147 44.0507 82.3899 44.0958Z" fill="#FFC225"/>
<path d="M83.9779 44.2934C83.9779 44.3732 83.9388 44.4668 83.8619 44.5235C83.8098 44.5697 83.7173 44.6159 83.6131 44.6159C83.5232 44.6159 83.4321 44.5824 83.3669 44.5235C83.2223 44.3975 83.2223 44.1779 83.3539 44.0623C83.4321 43.9918 83.5232 43.9583 83.6131 43.9583C83.7173 43.9583 83.8098 44.0045 83.8737 44.0623C83.9388 44.1085 83.9779 44.201 83.9779 44.2934Z" fill="#FFC225"/>
<path d="M79.4902 42.7725C79.4902 42.9158 79.3599 43.0314 79.1984 43.0314C78.1927 43.0314 77.6938 43.3735 77.1675 43.7352C76.6126 44.1155 75.9847 44.5466 74.7797 44.5466C73.5748 44.5466 72.9456 44.1155 72.3906 43.7352C71.8644 43.3735 71.3654 43.0314 70.3611 43.0314C70.1995 43.0314 70.0693 42.9158 70.0693 42.7725C70.0693 42.6292 70.1995 42.5124 70.3611 42.5124C71.566 42.5124 72.1952 42.9435 72.7489 43.3238C73.2765 43.6855 73.7741 44.0276 74.7797 44.0276C75.7828 44.0276 76.2817 43.6855 76.8093 43.3238C77.3629 42.9435 77.9934 42.5124 79.1984 42.5124C79.3599 42.5124 79.4902 42.6292 79.4902 42.7725Z" fill="#FFC225"/>
<path d="M66.315 44.2934C66.315 44.3732 66.2629 44.4668 66.1978 44.5235C66.1313 44.5697 66.0414 44.6159 65.9502 44.6159C65.846 44.6159 65.7535 44.5824 65.6884 44.5235C65.5464 44.3975 65.5464 44.1779 65.6884 44.0623C65.7535 43.9918 65.846 43.9583 65.9502 43.9583C66.0414 43.9583 66.1456 44.0045 66.2108 44.0623C66.2759 44.1201 66.315 44.201 66.315 44.2934Z" fill="#FFC225"/>
<path d="M67.6828 44.2241C67.5004 44.305 67.279 44.2588 67.1748 44.1085C67.0705 43.9456 67.1357 43.7491 67.305 43.6566C67.305 43.6566 67.305 43.6566 67.3167 43.6566C67.4861 43.5642 67.7075 43.6231 67.8117 43.7734C67.8521 43.8311 67.8639 43.8774 67.8639 43.9352C67.8639 44.0508 67.8 44.1663 67.6828 44.2241ZM68.9972 43.4035C68.8161 43.496 68.5946 43.4382 68.4904 43.2752C68.3862 43.125 68.4513 42.9285 68.6194 42.836C68.8031 42.7436 69.0245 42.8025 69.1288 42.9528C69.1665 43.0106 69.1808 43.0683 69.1808 43.1146C69.1808 43.229 69.1144 43.3342 68.9972 43.4035Z" fill="#FFC225"/>
<path d="M70.731 42.7794C70.731 42.8603 70.6906 42.9528 70.6138 43.0106C70.5487 43.0684 70.4575 43.103 70.365 43.103C70.2608 43.103 70.1709 43.0683 70.1058 42.999C70.0393 42.9401 69.9872 42.8603 69.9872 42.7794C69.9872 42.6858 70.0276 42.606 70.0914 42.5471C70.1579 42.4905 70.2608 42.4442 70.365 42.4442C70.4575 42.4442 70.5487 42.4789 70.6255 42.5471C70.6907 42.606 70.731 42.6858 70.731 42.7794Z" fill="#FFC225"/>
<path d="M83.9088 41.9889C83.9088 42.1322 83.7773 42.2489 83.6157 42.2489C82.4108 42.2489 81.7816 41.8178 81.2266 41.4364C80.7003 41.0758 80.2014 40.7337 79.1984 40.7337C79.0369 40.7337 78.9053 40.617 78.9053 40.4737C78.9053 40.3304 79.0369 40.2148 79.1984 40.2148C80.4021 40.2148 81.0312 40.6459 81.5862 41.0261C82.1124 41.3867 82.6114 41.7288 83.6157 41.7288C83.7773 41.7288 83.9088 41.8455 83.9088 41.9889Z" fill="#FFC225"/>
<path d="M70.731 40.4783C70.731 40.5604 70.6907 40.6412 70.6255 40.7106C70.5487 40.7672 70.4575 40.8031 70.365 40.8031C70.2751 40.8031 70.1839 40.7672 70.1058 40.7106C69.9625 40.5834 69.9742 40.3639 70.1058 40.2483C70.1709 40.1893 70.2608 40.1558 70.365 40.1558C70.4575 40.1558 70.5487 40.1893 70.6255 40.2483C70.6907 40.3061 70.731 40.3858 70.731 40.4783Z" fill="#FFC225"/>
<path d="M72.4753 41.1613C72.3711 41.3116 72.1379 41.3451 71.9686 41.2411C71.8123 41.1382 71.7719 40.9417 71.8891 40.7915C71.9933 40.6412 72.2291 40.6066 72.3984 40.7106C72.4896 40.7672 72.5548 40.8724 72.5548 40.9764C72.5548 41.0457 72.5274 41.1024 72.4753 41.1613ZM74.1688 41.9692C74.1036 42.1437 73.8952 42.2362 73.7141 42.1784C73.5174 42.1322 73.4002 41.9473 73.4667 41.7727C73.5318 41.6121 73.7259 41.5081 73.9226 41.5543C73.9226 41.5543 73.9226 41.5543 73.9226 41.5659C74.0789 41.6121 74.1831 41.7392 74.1831 41.8767C74.1831 41.901 74.1831 41.9357 74.1688 41.9692ZM75.8245 42.19C75.6421 42.2362 75.4337 42.1437 75.3685 41.9692C75.3164 41.797 75.4337 41.6121 75.6278 41.5659C75.8114 41.5196 76.0199 41.6121 76.072 41.7843C76.085 41.8085 76.098 41.8432 76.098 41.8767C76.098 42.0154 75.9938 42.1437 75.8245 42.19ZM77.5701 41.2526C77.4124 41.3578 77.1792 41.3231 77.062 41.1729C76.9448 41.0226 76.9825 40.8262 77.1519 40.721C77.3225 40.617 77.544 40.6528 77.6612 40.7915C77.7133 40.8493 77.7264 40.9175 77.7264 40.988C77.7264 41.0804 77.6743 41.1845 77.5701 41.2526Z" fill="#FFC225"/>
<path d="M79.5631 40.4783C79.5631 40.5604 79.524 40.6528 79.4459 40.7106C79.3794 40.7672 79.2896 40.8031 79.1984 40.8031C79.1059 40.8031 79.003 40.7672 78.9366 40.7106C78.8076 40.595 78.8076 40.3639 78.9366 40.2483C78.9887 40.1893 79.0929 40.1558 79.1984 40.1558C79.3026 40.1558 79.3938 40.1893 79.4589 40.2483C79.5241 40.2945 79.5631 40.3858 79.5631 40.4783Z" fill="#FFC225"/>
<path d="M70.6542 40.4737C70.6542 40.617 70.5226 40.7337 70.3611 40.7337C69.3567 40.7337 68.8578 41.0758 68.3315 41.4364C67.7766 41.8178 67.1474 42.2489 65.9424 42.2489C65.7809 42.2489 65.6493 42.1322 65.6493 41.9889C65.6493 41.8455 65.7809 41.7288 65.9424 41.7288C66.9468 41.7288 67.4457 41.3867 67.972 41.0261C68.5269 40.6459 69.1574 40.2148 70.3611 40.2148C70.5226 40.2148 70.6542 40.3304 70.6542 40.4737Z" fill="#FFC225"/>
<path d="M42.3667 8.18861C42.3667 8.3666 42.2052 8.51102 42.0046 8.51333C41.8027 8.51565 41.6372 8.3712 41.6346 8.19206L41.589 4.0729C41.6099 3.86602 41.7492 3.74699 41.9525 3.74469C42.1544 3.74238 42.3198 3.88682 42.3224 4.06597L42.3667 8.18512C42.3667 8.18627 42.3667 8.18746 42.3667 8.18861Z" fill="#FFC225"/>
<path d="M46.5639 6.9427C46.5639 7.08486 46.4584 7.21432 46.2982 7.25478C46.1028 7.30332 45.8996 7.20391 45.8449 7.0317L45.0398 4.51329C44.9825 4.33646 45.0984 4.15966 45.2912 4.11227C45.4866 4.06373 45.6898 4.16193 45.7445 4.33529L46.5496 6.8537C46.56 6.88376 46.5639 6.91265 46.5639 6.9427Z" fill="#FFC225"/>
<path d="M38.8847 4.4243C38.8847 4.44973 38.8808 4.47749 38.873 4.50291L38.1578 7.02133C38.1083 7.19585 37.909 7.30102 37.7136 7.25711C37.5169 7.21319 37.3905 7.03518 37.4479 6.86297L38.1643 4.34575C38.2138 4.17007 38.4118 4.06489 38.6072 4.10997C38.774 4.14695 38.8847 4.27868 38.8847 4.4243Z" fill="#FFC225"/>
<path d="M49.2891 5.67945C49.0924 5.70141 48.9113 5.587 48.8709 5.40208C48.8462 5.22756 48.9895 5.06691 49.1849 5.03108C49.3933 5.00912 49.5744 5.13512 49.6017 5.30964C49.6017 5.32004 49.6017 5.34431 49.6017 5.35586C49.6017 5.51652 49.4702 5.65518 49.2891 5.67945ZM51.7121 5.30964C51.5167 5.34431 51.3213 5.22756 51.2822 5.05535C51.2431 4.88199 51.3721 4.70865 51.5688 4.67398C51.5688 4.67398 51.5688 4.67398 51.5805 4.67398C51.7772 4.6393 51.9583 4.75484 51.9987 4.92821C52.0104 4.95132 52.0104 4.97445 52.0104 4.99756C52.0104 5.14782 51.8945 5.27381 51.7121 5.30964ZM54.122 4.83464C53.9123 4.88202 53.7182 4.77801 53.6661 4.60348C53.627 4.41971 53.7442 4.24633 53.9396 4.20009C53.9396 4.20009 53.9396 4.20008 53.9396 4.21048C54.1337 4.16425 54.3304 4.2683 54.3825 4.44282C54.3956 4.46593 54.3956 4.49942 54.3956 4.52369C54.3956 4.67393 54.2901 4.79996 54.122 4.83464ZM56.4929 4.25676C56.2962 4.31455 56.0877 4.21051 56.0356 4.03831C55.9705 3.87534 56.0877 3.69039 56.2844 3.6326C56.4655 3.58637 56.6752 3.67885 56.7391 3.85337C56.7391 3.88804 56.7534 3.92154 56.7534 3.94581C56.7534 4.0845 56.6492 4.21053 56.4929 4.25676ZM58.8246 3.57599C58.641 3.63263 58.4195 3.54014 58.3557 3.3795C58.2906 3.20498 58.3817 3.02122 58.5758 2.96228C58.7725 2.90565 58.9809 2.98658 59.0461 3.15878C59.0591 3.19461 59.0709 3.22925 59.0709 3.26392C59.0709 3.40146 58.9809 3.52977 58.8246 3.57599Z" fill="#FFC225"/>
<path d="M25.6444 3.3795C25.5675 3.54014 25.3578 3.63263 25.1767 3.576C24.98 3.51821 24.8758 3.3333 24.9552 3.15878C25.0204 2.98658 25.2288 2.90565 25.4229 2.96228C25.5675 3.00851 25.6587 3.1368 25.6587 3.27549C25.6587 3.31016 25.6587 3.34367 25.6444 3.3795ZM27.9631 4.03831C27.911 4.21051 27.7026 4.31455 27.5085 4.25676C27.3118 4.21053 27.2076 4.02558 27.2597 3.85337C27.3118 3.67885 27.5215 3.58637 27.7169 3.63261C27.8732 3.67883 27.9761 3.80712 27.9761 3.94581C27.9761 3.97932 27.9761 4.00363 27.9631 4.03831ZM30.3222 4.60348C30.2701 4.77801 30.0747 4.88203 29.878 4.83464C29.6839 4.78841 29.5667 4.61619 29.6188 4.44282C29.6566 4.2683 29.865 4.16427 30.0487 4.20009L30.0617 4.21048C30.218 4.24631 30.3353 4.38499 30.3353 4.52369C30.3353 4.54565 30.3353 4.56997 30.3222 4.60348ZM32.7061 5.05535C32.6801 5.22756 32.4834 5.34431 32.2893 5.30965C32.0808 5.27381 31.9506 5.10157 31.9884 4.92821C32.0287 4.75484 32.2241 4.6393 32.4182 4.67398C32.6019 4.70865 32.7192 4.83462 32.7192 4.98487C32.7192 5.00914 32.7192 5.03108 32.7061 5.05535ZM35.1278 5.40208C35.0887 5.587 34.9076 5.70141 34.6979 5.67945C34.6979 5.67945 34.6979 5.67945 34.7123 5.67945C34.5038 5.65518 34.3722 5.49457 34.3996 5.30965C34.4243 5.13512 34.608 5.00912 34.8151 5.03108C34.9988 5.05535 35.1278 5.19405 35.1278 5.35586C35.1278 5.36626 35.1278 5.39052 35.1278 5.40208Z" fill="#FFC225"/>
<path d="M31.2002 66.2425C31.2002 66.2761 31.1937 66.3072 31.1794 66.3396L27.9201 73.5735C27.8602 73.7064 27.6909 73.7712 27.5384 73.718C27.3886 73.6648 27.3183 73.5157 27.3756 73.3794L30.6349 66.1454C30.6948 66.0125 30.8655 65.9478 31.0166 66.001C31.1312 66.0414 31.2002 66.1397 31.2002 66.2425Z" fill="#FFC225"/>
<path d="M26.1433 71.0863L26.6904 70.8991L27.7312 73.2904L30.3444 72.1947L30.5958 72.6651L27.4121 74L26.1433 71.0863Z" fill="#FFC225"/>
<path d="M56.644 73.4764C56.644 73.5793 56.5749 73.6776 56.459 73.718C56.3092 73.7712 56.1385 73.7065 56.0786 73.5724L52.8219 66.3385C52.7633 66.2056 52.8323 66.0542 52.9848 66.001C53.1359 65.9478 53.3065 66.0125 53.3652 66.1466L56.6231 73.3805C56.6375 73.4117 56.644 73.4441 56.644 73.4764Z" fill="#FFC225"/>
<path d="M53.4042 72.6651L53.6543 72.1947L56.2675 73.2915L57.3096 70.8991L57.8568 71.0875L56.5867 74L53.4042 72.6651Z" fill="#FFC225"/>
<path d="M83.6965 32.5833C83.6965 32.6145 83.6913 32.6445 83.6783 32.6734C83.6222 32.8087 83.4529 32.8768 83.3018 32.8271L73.5995 29.6396C73.4471 29.591 73.3663 29.4419 73.4263 29.3055C73.4823 29.1715 73.6516 29.1033 73.8027 29.153L83.505 32.3394C83.6235 32.3787 83.6965 32.477 83.6965 32.5833Z" fill="#FFC225"/>
<path d="M10.592 29.3957C10.592 29.502 10.5191 29.6014 10.4005 29.6396L0.69825 32.8271C0.547141 32.8768 0.377808 32.8087 0.321793 32.6734C0.263173 32.5405 0.341311 32.3891 0.495026 32.3394L10.1973 29.153C10.3484 29.1033 10.5178 29.1715 10.5738 29.3055C10.5868 29.3356 10.592 29.3656 10.592 29.3957Z" fill="#FFC225"/>
<path d="M40.7384 71.4516C40.7384 71.6908 40.5196 71.885 40.2499 71.885C39.9802 71.885 39.7614 71.6908 39.7614 71.4516C39.7614 70.6691 39.4331 70.2923 39.0527 69.8566C38.6254 69.3654 38.1409 68.8095 38.1409 67.7311C38.1409 67.4919 38.3597 67.2977 38.6294 67.2977C38.899 67.2977 39.1179 67.4919 39.1179 67.7311C39.1179 68.5136 39.4462 68.8904 39.8265 69.3261C40.2538 69.8173 40.7384 70.3744 40.7384 71.4516Z" fill="#FFC225"/>
<path d="M45.8592 67.7311C45.8592 68.8095 45.3746 69.3654 44.9473 69.8566C44.5669 70.2923 44.2387 70.6691 44.2387 71.4516C44.2387 71.6908 44.0198 71.885 43.7502 71.885C43.4805 71.885 43.2617 71.6908 43.2617 71.4516C43.2617 70.3744 43.7462 69.8173 44.1735 69.3261C44.5539 68.8904 44.8822 68.5136 44.8822 67.7311C44.8822 67.4919 45.101 67.2977 45.3707 67.2977C45.6403 67.2977 45.8592 67.4919 45.8592 67.7311Z" fill="#FFC225"/>
<path d="M42.4892 68.3056L42.4892 72.4952C42.4892 72.7356 42.2703 72.9286 42.0007 72.9286C41.731 72.9286 41.5122 72.7356 41.5122 72.4952L41.5122 68.3056C41.5122 68.0663 41.731 67.8721 42.0007 67.8721C42.2703 67.8721 42.4892 68.0663 42.4892 68.3056Z" fill="#FFC225"/>
<path d="M79.3938 18.1744C79.3938 18.2137 79.3846 18.253 79.3638 18.29C79.2922 18.4183 79.1163 18.4714 78.9717 18.409L76.4524 17.3064C76.3091 17.244 76.2465 17.0903 76.3195 16.9585C76.3911 16.8291 76.567 16.777 76.7116 16.8395L79.231 17.9409C79.3339 17.986 79.3938 18.0785 79.3938 18.1744Z" fill="#FFC225"/>
<path d="M77.0867 21.1423C77.0867 21.2036 77.0646 21.2637 77.0151 21.3134C76.9083 21.422 76.722 21.4324 76.6008 21.3377L74.4997 19.6976C74.3772 19.6029 74.3655 19.4388 74.4736 19.3301C74.5804 19.2227 74.7654 19.2122 74.8865 19.307L76.9877 20.947C77.0542 20.999 77.0867 21.0695 77.0867 21.1423Z" fill="#FFC225"/>
<path d="M73.9929 23.477C73.9929 23.5614 73.9473 23.6446 73.8626 23.6943C73.7272 23.7729 73.5461 23.7405 73.4562 23.6203L71.9165 21.5585C71.8266 21.4417 71.8631 21.2776 71.9985 21.199C72.134 21.1193 72.3151 21.1528 72.405 21.2718L73.9447 23.3337C73.9786 23.3776 73.9929 23.4273 73.9929 23.477Z" fill="#FFC225"/>
<path d="M70.3246 25.0234C70.3246 25.1332 70.2464 25.2349 70.124 25.2708C69.9716 25.3158 69.8048 25.2419 69.754 25.1055L68.8786 22.7616C68.8278 22.6264 68.9112 22.4785 69.0649 22.4334C69.2173 22.3883 69.3841 22.4623 69.4349 22.5998L70.3102 24.9426C70.3207 24.9691 70.3246 24.9968 70.3246 25.0234Z" fill="#FFC225"/>
<path d="M7.71053 17.0729C7.71053 17.1689 7.6506 17.2613 7.54769 17.3064L5.02832 18.409C4.88372 18.4714 4.70786 18.4183 4.63491 18.29C4.56587 18.1594 4.62449 18.0045 4.76909 17.9409L7.28716 16.8395C7.43306 16.777 7.60762 16.8291 7.68057 16.9585C7.70141 16.9955 7.71053 17.0348 7.71053 17.0729Z" fill="#FFC225"/>
<path d="M9.5994 19.5023C9.5994 19.574 9.56553 19.6456 9.50039 19.6976L7.39787 21.3377C7.27802 21.4324 7.09175 21.422 6.98493 21.3134C6.87681 21.2059 6.88983 21.0418 7.01098 20.947L9.1135 19.307C9.23465 19.2122 9.41962 19.2227 9.52644 19.3302C9.57594 19.3798 9.5994 19.4411 9.5994 19.5023Z" fill="#FFC225"/>
<path d="M12.1318 21.4152C12.1318 21.4649 12.1161 21.5145 12.0836 21.5585L10.5425 23.6203C10.4539 23.7405 10.2716 23.7729 10.1374 23.6943C10.0006 23.6157 9.96675 23.4527 10.054 23.3337L11.5951 21.2718C11.6836 21.1528 11.866 21.1193 12.0015 21.199C12.0862 21.2487 12.1318 21.332 12.1318 21.4152Z" fill="#FFC225"/>
<path d="M15.137 22.6807C15.137 22.7073 15.1331 22.735 15.1227 22.7627L14.246 25.1067C14.1952 25.2419 14.0284 25.3158 13.8747 25.2708C13.7223 25.2257 13.6377 25.0835 13.6885 24.9414L14.5652 22.5986C14.616 22.4622 14.7827 22.3883 14.9364 22.4334C15.0589 22.4692 15.137 22.5709 15.137 22.6807Z" fill="#FFC225"/>
<path d="M80.7498 33.9806L80.5232 33.4998L83.1924 32.5151L81.891 30.2255L82.4147 29.9909L84 32.7809L80.7498 33.9806Z" fill="#FFC225"/>
<path d="M1.58537 29.9909L2.10904 30.2244L0.807678 32.514L3.47554 33.4998L3.25018 33.9794L-2.03547e-06 32.7798L1.58537 29.9909Z" fill="#FFC225"/>
<path d="M3.66964 6.11867C3.66964 6.21113 3.63054 6.29088 3.55107 6.34982C3.48594 6.41917 3.39607 6.44226 3.30488 6.44226C3.20067 6.44226 3.10818 6.41918 3.04435 6.36139C2.88673 6.19958 2.89974 6.01463 3.03131 5.8979C3.10817 5.82971 3.20067 5.79502 3.30488 5.79502C3.39607 5.79502 3.49898 5.84126 3.56542 5.8979C3.63055 5.94413 3.66964 6.03777 3.66964 6.11867Z" fill="#FFC225"/>
<path d="M2.11944 44.2241C1.93707 44.3166 1.71563 44.2588 1.61141 44.1085C1.5072 43.9456 1.57235 43.7491 1.75342 43.6566C1.92276 43.5769 2.1455 43.6231 2.24841 43.7849C2.28879 43.8311 2.30053 43.8889 2.30053 43.9352C2.30053 44.0507 2.23538 44.1663 2.11944 44.2241ZM3.43385 43.4035C3.2658 43.496 3.03132 43.4382 2.94013 43.2879C2.83461 43.125 2.88672 42.9285 3.0704 42.836C3.23974 42.7436 3.47423 42.8025 3.56542 42.9528C3.6032 43.0106 3.61751 43.0684 3.61751 43.125C3.61751 43.229 3.55109 43.3457 3.43385 43.4035Z" fill="#FFC225"/>
<path d="M0.751641 44.2935C0.751641 44.3732 0.712586 44.4553 0.647453 44.5131C0.56799 44.5824 0.478106 44.6159 0.386919 44.6159C0.281403 44.6159 0.191518 44.5824 0.125081 44.5131C-0.00388276 44.4195 -0.0169095 44.1779 0.125081 44.0508C0.191518 43.9918 0.281403 43.9583 0.386919 43.9583C0.478106 43.9583 0.56799 43.9918 0.647453 44.0508C0.712586 44.1201 0.751641 44.201 0.751641 44.2935Z" fill="#FFC225"/>
</svg>
