<svg width="84" height="74" viewBox="0 0 84 74" fill="none" xmlns="http://www.w3.org/2000/svg">
<path d="M2.87207 49.4348C3.0091 49.4348 3.1434 49.487 3.23973 49.5772C3.33469 49.6568 3.38898 49.7861 3.38898 49.918C3.38898 50.0473 3.33469 50.1779 3.23973 50.2693C3.02265 50.4522 2.71061 50.4522 2.52068 50.2693C2.42436 50.1779 2.37147 50.0473 2.37147 49.918C2.37147 49.7861 2.42436 49.6686 2.52068 49.5772C2.60208 49.487 2.73776 49.4348 2.87207 49.4348Z" fill="#FFC225"/>
<path d="M16.6437 62.6897C16.6437 62.964 16.4131 63.173 16.1282 63.173C15.8432 63.173 15.6262 62.9509 15.6262 62.6897C15.6262 62.4155 15.8568 62.2065 16.1282 62.1934C16.4131 62.2065 16.6437 62.4155 16.6437 62.6897ZM19.2214 62.3502C19.2756 62.6244 19.0844 62.8739 18.813 62.9261C18.543 62.9784 18.2717 62.8073 18.2175 62.5474C18.1632 62.2731 18.3395 62.0237 18.6109 61.9714C18.6516 61.9597 18.6787 61.9597 18.7194 61.9597C18.9501 61.9597 19.1671 62.1164 19.2214 62.3502ZM13.6454 61.9597C13.9168 62.0119 14.0931 62.2731 14.0389 62.533C13.9968 62.8073 13.7255 62.9784 13.4406 62.9261C13.1706 62.8739 12.9929 62.6127 13.0471 62.3502C13.0892 62.1164 13.3063 61.9597 13.5369 61.9597C13.5776 61.9597 13.6034 61.9597 13.6454 61.9597ZM21.677 61.5404C21.7855 61.7899 21.6634 62.0759 21.4043 62.1686L21.3921 62.1804C21.1329 62.2862 20.848 62.1686 20.7259 61.9061C20.6323 61.658 20.7544 61.3706 21.0108 61.2662C21.0651 61.2413 21.133 61.2413 21.2021 61.2413C21.4043 61.2413 21.5956 61.3458 21.677 61.5404ZM11.2577 61.2662C11.5141 61.3706 11.6362 61.658 11.529 61.9061C11.4205 62.1543 11.1207 62.2731 10.8642 62.1686C10.6051 62.0642 10.4844 61.7755 10.5929 61.5274C10.6729 61.3458 10.8643 61.227 11.0542 61.227C11.1207 61.227 11.1899 61.2413 11.2577 61.2662ZM23.929 60.2736C24.0783 60.4956 24.0091 60.8104 23.7785 60.9527C23.5492 61.1094 23.2371 61.0441 23.0743 60.8221C22.9251 60.5883 22.9794 60.2866 23.21 60.143C23.21 60.143 23.21 60.143 23.2222 60.143C23.305 60.0777 23.3999 60.0529 23.4936 60.0529C23.6577 60.0529 23.8205 60.1299 23.929 60.2736ZM9.0463 60.1299C9.2905 60.2736 9.34478 60.5883 9.19419 60.8104C9.03139 61.0324 8.7207 61.0964 8.4765 60.9397C8.24452 60.796 8.19025 60.4838 8.34084 60.2618C8.44937 60.1168 8.61217 60.0529 8.77496 60.0529C8.86858 60.0529 8.9649 60.0777 9.0463 60.1299ZM25.8677 58.6149C26.0726 58.7991 26.0726 59.1112 25.8677 59.3071C25.6792 59.5043 25.3536 59.5043 25.1487 59.3071C24.9465 59.1112 24.9465 58.7991 25.1487 58.6149C25.245 58.5104 25.3807 58.4726 25.5028 58.4726C25.6385 58.4726 25.7741 58.5104 25.8677 58.6149ZM7.11983 58.6018C7.32333 58.7991 7.32333 59.0981 7.11983 59.2941C6.91632 59.49 6.60293 59.49 6.40078 59.2941C6.20949 59.0981 6.20949 58.7991 6.40078 58.6018C6.49439 58.5104 6.63141 58.4582 6.76572 58.4582C6.88782 58.4582 7.02486 58.5104 7.11983 58.6018ZM27.4429 56.618C27.6735 56.7747 27.74 57.0738 27.5772 57.2958C27.4293 57.5309 27.1159 57.5831 26.873 57.4408C26.6424 57.2828 26.5746 56.9824 26.7374 56.7603C26.831 56.618 26.9951 56.5383 27.1579 56.5383C27.2529 56.5383 27.3615 56.5658 27.4429 56.618ZM5.53117 56.7355C5.53117 56.7355 5.53117 56.7355 5.53117 56.7473C5.69396 56.9693 5.6275 57.271 5.39686 57.4277C5.16622 57.5701 4.83923 57.5048 4.69136 57.2828C4.52856 57.062 4.59639 56.7603 4.82703 56.6036C4.92199 56.5514 5.01562 56.5253 5.11194 56.5253C5.27474 56.5253 5.43755 56.6036 5.53117 56.7355ZM28.5811 54.3703C28.8402 54.4748 28.9623 54.7634 28.8538 55.0103C28.7575 55.2597 28.4604 55.3759 28.1877 55.2715C27.9313 55.167 27.8092 54.8927 27.9163 54.6315C27.9991 54.45 28.1877 54.3324 28.3925 54.3324C28.4604 54.3324 28.5268 54.3442 28.5811 54.3703ZM4.35219 54.6184C4.45937 54.8666 4.33726 55.1552 4.08085 55.2597C3.82173 55.3642 3.52462 55.2453 3.41609 54.9972C3.30756 54.7491 3.42831 54.4617 3.68743 54.3572C3.75527 54.3324 3.82173 54.3181 3.87735 54.3181C4.08085 54.3181 4.27079 54.4369 4.35219 54.6184ZM29.2472 51.9541C29.5185 52.0064 29.6949 52.2689 29.6407 52.5301C29.5864 52.79 29.3151 52.9598 29.0424 52.9075C28.7724 52.8566 28.5947 52.5954 28.6489 52.3329C28.691 52.0991 28.908 51.9424 29.1509 51.9424C29.1794 51.9424 29.2051 51.9424 29.2472 51.9541ZM3.63317 52.3211C3.68744 52.581 3.51107 52.8422 3.22617 52.8945C2.95484 52.9467 2.68348 52.7769 2.62921 52.5027C2.57495 52.2415 2.74996 51.9803 3.03486 51.928C3.06335 51.928 3.08913 51.928 3.13118 51.928C3.36182 51.928 3.57891 52.0847 3.63317 52.3211Z" fill="#FFC225"/>
<path d="M29.41 49.4348C29.5321 49.4348 29.6664 49.487 29.7628 49.5772C29.8577 49.6686 29.912 49.7861 29.912 49.918C29.912 50.0356 29.8577 50.1649 29.775 50.2576C29.5579 50.4522 29.2337 50.4391 29.0424 50.2694C28.9488 50.1779 28.8945 50.0473 28.8945 49.918C28.8945 49.7861 28.9488 49.6568 29.0424 49.5641C29.1387 49.4871 29.273 49.4348 29.41 49.4348Z" fill="#FFC225"/>
<path d="M7.22702 38.1244C7.32334 38.1244 7.43187 38.1637 7.49835 38.229C7.56618 38.3061 7.60822 38.3974 7.60822 38.4902C7.60822 38.5805 7.56618 38.6719 7.49835 38.7499C7.32334 38.907 7.09271 38.882 6.95704 38.7499C6.88785 38.6846 6.8485 38.5933 6.8485 38.4902C6.8485 38.3856 6.88783 38.2928 6.97058 38.229C7.02485 38.1637 7.11984 38.1244 7.22702 38.1244Z" fill="#FFC225"/>
<path d="M8.09664 36.1118C8.28657 36.1904 8.3951 36.399 8.32727 36.5822C8.25943 36.7781 8.04238 36.8826 7.83752 36.8184C7.64894 36.7388 7.54039 36.5312 7.60822 36.347C7.66249 36.1904 7.81173 36.1 7.95961 36.1C8.00167 36.1 8.05593 36.1001 8.09664 36.1118ZM8.82923 34.089C9.03137 34.1528 9.13991 34.3629 9.07344 34.5579C8.99203 34.7538 8.77498 34.8467 8.58369 34.7798C8.38155 34.7145 8.27302 34.5053 8.35307 34.3109C8.40734 34.1661 8.54434 34.0747 8.70713 34.0747C8.74648 34.0747 8.78852 34.0747 8.82923 34.089ZM9.57541 32.0631C9.76398 32.13 9.87254 32.3376 9.80606 32.5335C9.73823 32.7161 9.52114 32.8207 9.31628 32.7554C9.11414 32.6901 9.01918 32.4809 9.08566 32.2866C9.13993 32.13 9.29049 32.0371 9.43973 32.0371C9.47908 32.0371 9.53334 32.0503 9.57541 32.0631Z" fill="#FFC225"/>
<path d="M10.1859 30.0143C10.2795 30.0143 10.388 30.0521 10.4572 30.1183C10.5251 30.1827 10.5644 30.2755 10.5644 30.3786C10.5644 30.4831 10.5251 30.5745 10.4423 30.6398C10.3487 30.7571 10.0489 30.7831 9.91457 30.6265C9.84673 30.5745 9.80606 30.4831 9.80606 30.3786C9.80606 30.2755 9.84673 30.1827 9.91457 30.1183C9.9824 30.0521 10.0909 30.0143 10.1859 30.0143Z" fill="#FFC225"/>
<path d="M27.0074 49.4348C27.1444 49.4348 27.2801 49.487 27.375 49.5772C27.47 49.6686 27.5229 49.7861 27.5229 49.918C27.5229 50.0473 27.47 50.1779 27.3614 50.2694C27.2122 50.4261 26.8446 50.4522 26.656 50.2694C26.5597 50.1779 26.5054 50.0473 26.5054 49.918C26.5054 49.7861 26.5597 49.6686 26.656 49.5772C26.7509 49.487 26.8853 49.4348 27.0074 49.4348Z" fill="#FFC225"/>
<path d="M26.656 47.4875C26.751 47.75 26.6139 48.0243 26.3439 48.1144C26.0862 48.2058 25.7877 48.0765 25.6927 47.814C25.5964 47.5659 25.747 47.2785 26.0048 47.1871C26.059 47.174 26.1133 47.161 26.1812 47.161C26.3833 47.161 26.5746 47.2785 26.656 47.4875ZM25.8135 45.215C25.9098 45.4762 25.7741 45.7505 25.5028 45.8432C25.245 45.9333 24.9601 45.8027 24.8638 45.5415C24.7702 45.2947 24.9059 45.006 25.1636 44.9159C25.2315 44.9015 25.2858 44.8885 25.34 44.8885C25.5422 44.8885 25.747 45.0204 25.8135 45.215ZM24.9724 42.9425C25.0809 43.2037 24.9466 43.491 24.6752 43.5694C24.4025 43.6621 24.1176 43.5302 24.024 43.269C23.929 43.0222 24.0634 42.7479 24.3361 42.6552C24.3903 42.6304 24.4446 42.6304 24.4989 42.6304C24.7159 42.6304 24.9059 42.7479 24.9724 42.9425ZM24.1461 40.6831C24.2397 40.9312 24.1054 41.2198 23.8327 41.31C23.5763 41.4014 23.2765 41.2577 23.1829 41.0096C23.1001 40.7484 23.2372 40.4741 23.4936 40.3827C23.5492 40.3566 23.6157 40.3566 23.6699 40.3566C23.8748 40.3566 24.0634 40.4741 24.1461 40.6831ZM23.305 38.4107C23.4 38.6719 23.2643 38.9458 22.9916 39.0386C22.7352 39.129 22.4503 38.9984 22.3553 38.7372C22.259 38.4902 22.396 38.2015 22.6524 38.1117C22.7216 38.0969 22.7745 38.0842 22.8288 38.0842C23.0459 38.0842 23.2372 38.2148 23.305 38.4107ZM22.4761 36.1378C22.5724 36.399 22.4218 36.6735 22.1654 36.7648C21.9076 36.8577 21.6091 36.7255 21.5142 36.4643C21.4178 36.218 21.5549 35.9435 21.8262 35.8389C21.8805 35.8262 21.9347 35.8113 21.989 35.8113C22.2047 35.8113 22.396 35.9435 22.4761 36.1378ZM21.6349 33.8798C21.7313 34.1268 21.5956 34.4012 21.3242 34.4926C21.0651 34.5855 20.768 34.4533 20.6717 34.2063C20.5781 33.9441 20.7259 33.6697 20.9851 33.5784C21.0393 33.5533 21.0936 33.5533 21.1614 33.5533C21.365 33.5533 21.5685 33.6697 21.6349 33.8798ZM20.7938 31.606C20.8901 31.8555 20.7544 32.1417 20.4967 32.2346C20.224 32.3115 19.9391 32.182 19.8455 31.9325C19.7505 31.6713 19.8848 31.3973 20.1575 31.3071C20.2118 31.2928 20.266 31.2795 20.3203 31.2795C20.5374 31.2795 20.726 31.3973 20.7938 31.606ZM19.9676 29.3338C20.0612 29.595 19.9269 29.8688 19.6542 29.9617C19.3978 30.0521 19.0979 29.9215 19.0043 29.6603C18.9093 29.4133 19.0437 29.1245 19.315 29.0348C19.3693 29.0215 19.4235 29.0073 19.4791 29.0073C19.6962 29.0073 19.8848 29.1388 19.9676 29.3338ZM19.1264 27.0624C19.2214 27.3221 19.0844 27.5966 18.813 27.6879C18.5566 27.7808 18.2581 27.6486 18.1632 27.3889C18.0804 27.1395 18.2175 26.8537 18.4739 26.7609C18.5281 26.7493 18.5973 26.7359 18.6516 26.7359C18.8551 26.7359 19.0586 26.865 19.1264 27.0624ZM18.2853 24.7902C18.3803 25.0514 18.2432 25.3253 17.9868 25.4157C17.7155 25.507 17.4306 25.3779 17.3343 25.1283C17.2407 24.8671 17.3763 24.5927 17.6341 24.5014C17.7019 24.4753 17.7562 24.4753 17.8105 24.4753C18.0262 24.4753 18.2175 24.5927 18.2853 24.7902ZM17.4564 22.5291C17.5527 22.7785 17.417 23.0648 17.1457 23.1577C16.8865 23.2474 16.5895 23.105 16.4931 22.8556C16.3995 22.5944 16.5474 22.3204 16.8065 22.2301C16.8608 22.2159 16.9286 22.2026 16.9829 22.2026C17.1864 22.2026 17.3763 22.3204 17.4564 22.5291Z" fill="#FFC225"/>
<path d="M16.1417 19.9303C16.2774 19.9303 16.4131 19.9823 16.508 20.0741C16.5894 20.1665 16.6437 20.296 16.6437 20.4134C16.6437 20.5456 16.5894 20.6746 16.508 20.7659C16.3303 20.949 15.9518 20.949 15.7754 20.7542C15.6805 20.6746 15.6262 20.5456 15.6262 20.4134C15.6262 20.296 15.6805 20.1665 15.7754 20.0741C15.869 19.9823 15.9911 19.9303 16.1417 19.9303Z" fill="#FFC225"/>
<path d="M5.26795 49.4296C5.54878 49.4296 5.77671 49.649 5.77671 49.9193C5.7767 55.4204 10.4261 59.8948 16.1404 59.8948C16.4212 59.8948 16.6491 60.1142 16.6491 60.3846C16.6491 60.6549 16.4212 60.8744 16.1404 60.8744C9.86439 60.8744 4.7592 55.9611 4.7592 49.9193C4.7592 49.649 4.98712 49.4296 5.26795 49.4296Z" fill="#FFC225"/>
<path d="M22.0704 49.4296L24.2927 49.4296C24.5735 49.4296 24.8014 49.649 24.8014 49.9193C24.8014 54.5179 20.9159 58.2597 16.1404 58.2597C15.8595 58.2597 15.6316 58.0403 15.6316 57.7699C15.6316 57.4983 15.8595 57.2801 16.1404 57.2801C20.1846 57.2801 23.5044 54.2397 23.7676 50.4091L22.0704 50.4091C21.7896 50.4091 21.5617 50.1897 21.5617 49.9193C21.5617 49.649 21.7896 49.4296 22.0704 49.4296Z" fill="#FFC225"/>
<path d="M16.0454 57.2828C16.3303 57.2828 16.5623 57.5048 16.5474 57.779C16.5474 58.0416 16.3168 58.2623 16.0454 58.2623C15.7605 58.2505 15.5299 58.0416 15.5448 57.7673C15.5448 57.493 15.7605 57.2828 16.0454 57.2828ZM13.7133 56.904C13.971 56.9824 14.1189 57.271 14.0253 57.5178C13.9426 57.779 13.6577 57.9096 13.3863 57.8313C13.1163 57.7399 12.9793 57.4656 13.0621 57.2044C13.1299 57.0085 13.3321 56.8779 13.5491 56.8779C13.6034 56.8779 13.6577 56.8923 13.7133 56.904ZM11.6104 55.8461C11.8275 56.0028 11.8818 56.3163 11.7054 56.5253C11.5426 56.7473 11.2292 56.7878 10.9999 56.6297C10.7693 56.473 10.7273 56.1726 10.8901 55.9506C10.9864 55.82 11.1492 55.756 11.2971 55.756C11.4056 55.756 11.5141 55.7808 11.6104 55.8461ZM9.9268 54.2279C9.9268 54.2279 9.9268 54.2279 9.9268 54.2136C10.1032 54.4369 10.0489 54.736 9.81826 54.9058C9.58763 55.0625 9.27694 55.0103 9.10057 54.7882C8.93777 54.5662 8.99206 54.2658 9.2227 54.1104C9.31631 54.0438 9.41263 54.0177 9.52116 54.0177C9.68396 54.0177 9.83319 54.083 9.9268 54.2279ZM8.85504 52.1762C8.95136 52.4374 8.80075 52.7116 8.52942 52.79C8.25944 52.8814 7.97455 52.7378 7.89179 52.4779C7.81175 52.2167 7.95961 51.9424 8.21874 51.8627C8.273 51.8497 8.3273 51.8379 8.38156 51.8379C8.59863 51.8379 8.78857 51.9672 8.85504 52.1762ZM8.49007 49.918C8.49007 50.1923 8.25944 50.4143 7.98811 50.4143C7.7032 50.4143 7.47256 50.1923 7.47256 49.918C7.47256 49.6425 7.7032 49.4348 7.98811 49.4348C8.27301 49.4348 8.49007 49.6425 8.49007 49.918Z" fill="#FFC225"/>
<path d="M16.1404 19.9288C16.1974 19.9288 16.2544 19.9379 16.31 19.9563C16.5745 20.0476 16.7129 20.3287 16.6193 20.5818L5.74687 50.0826C5.65191 50.3386 5.35751 50.4692 5.09838 50.3804C4.83383 50.2903 4.69412 50.0095 4.78773 49.7561L15.6601 20.2553C15.7347 20.0543 15.9301 19.9288 16.1404 19.9288Z" fill="#FFC225"/>
<path d="M10.2429 49.9193L11.2604 49.9193C11.2604 52.6542 13.5708 54.8783 16.4103 54.8783C19.2512 54.8783 21.5617 52.6542 21.5617 49.9193L22.5792 49.9193C22.5792 53.1936 19.8115 55.8579 16.4103 55.8579C13.0092 55.8579 10.2429 53.1936 10.2429 49.9193Z" fill="#FFC225"/>
<path d="M0.508753 49.4296L19.5131 49.4296C19.7939 49.4296 20.0218 49.649 20.0218 49.9193C20.0218 50.1897 19.7939 50.4091 19.5131 50.4091L1.02565 50.4091C1.29563 58.2087 7.97183 64.4764 16.1404 64.4764C24.4772 64.4764 31.2605 57.9462 31.2605 49.9193C31.2605 49.649 31.4885 49.4296 31.7693 49.4296C32.0501 49.4296 32.278 49.649 32.278 49.9193C32.278 58.4856 25.0388 65.4559 16.1404 65.4559C7.24058 65.4559 -6.21227e-06 58.4856 -5.4298e-06 49.9193C-5.40511e-06 49.649 0.227923 49.4296 0.508753 49.4296Z" fill="#FFC225"/>
<path d="M16.1404 14.424C16.4212 14.424 16.6491 14.6434 16.6491 14.9137L16.6491 17.0622C16.6491 17.7412 17.0019 18.0115 17.493 18.385C18.0289 18.7967 18.6964 19.3058 18.6964 20.4185C18.6964 21.7771 17.55 22.8821 16.1404 22.8821C14.7294 22.8821 13.5817 21.7771 13.5817 20.4185C13.5817 20.1482 13.8096 19.9288 14.0904 19.9288C14.3713 19.9288 14.5992 20.1482 14.5992 20.4185C14.5992 21.2364 15.2911 21.9026 16.1404 21.9026C16.9897 21.9026 17.6789 21.2364 17.6789 20.4185C17.6789 19.7803 17.3343 19.5161 16.8594 19.1532C16.3127 18.7354 15.6316 18.2141 15.6316 17.0622L15.6316 14.9137C15.6316 14.6434 15.8595 14.424 16.1404 14.424Z" fill="#FFC225"/>
<path d="M42 6.00004C42.2808 6.00004 42.5087 6.21946 42.5087 6.4898C42.5087 6.76029 42.2808 6.97957 42 6.97957C37.3059 6.97957 31.2483 9.22999 25.9044 11.2166C21.3554 12.9062 17.4279 14.3653 14.781 14.3653C8.97983 14.3653 8.22552 12.666 8.13191 12.3267C8.06136 12.064 8.22552 11.7961 8.49685 11.7283C8.76411 11.663 9.04632 11.8171 9.11822 12.0783C9.12093 12.0783 9.76264 13.3858 14.781 13.3858C17.2379 13.3858 21.27 11.8889 25.5367 10.3024C30.9648 8.2856 37.1159 6.00004 42 6.00004Z" fill="#FFC225"/>
<path d="M15.2328 12.0038C15.245 12.213 15.0699 12.3829 14.8515 12.3829C14.6494 12.3829 14.473 12.213 14.473 12.0155C14.473 11.8068 14.6345 11.637 14.8515 11.637C15.0699 11.637 15.2328 11.8068 15.2328 12.0038ZM12.3688 11.5079C12.5737 11.5324 12.7229 11.7166 12.6957 11.9242C12.6686 12.1201 12.4773 12.265 12.2752 12.2379C12.0581 12.213 11.9075 12.0288 11.936 11.8344C11.9618 11.6497 12.126 11.5079 12.3145 11.5079C12.3295 11.5079 12.343 11.5079 12.3688 11.5079ZM17.7413 11.56C17.7833 11.7543 17.6612 11.9502 17.4563 12.0038C17.2542 12.0564 17.0493 11.9385 16.9951 11.7299C16.9408 11.5324 17.0629 11.3381 17.2678 11.2854C17.3085 11.2854 17.3342 11.2712 17.3627 11.2712C17.5391 11.2712 17.687 11.3901 17.7413 11.56ZM20.1575 10.8141C20.2239 11.0116 20.1303 11.2191 19.9268 11.2854C19.722 11.3507 19.5063 11.2452 19.4371 11.0493C19.3693 10.8661 19.4792 10.6575 19.6691 10.5804C19.7084 10.5661 19.7505 10.5661 19.7912 10.5661C19.954 10.5661 20.1018 10.6575 20.1575 10.8141Z" fill="#FFC225"/>
<path d="M38.1294 9.65446C38.3831 9.65446 38.6029 9.83613 38.6341 10.0856C38.6667 10.3544 38.4686 10.5973 38.1905 10.6299C35.2872 10.9645 32.3988 11.6018 29.3422 12.2767C24.6956 13.3047 19.8902 14.3653 14.781 14.3653C14.5002 14.3653 14.2722 14.146 14.2722 13.8756C14.2722 13.6052 14.5002 13.3858 14.781 13.3858C19.7749 13.3858 24.5219 12.3369 29.1143 11.3221C32.198 10.6417 35.1121 9.99782 38.0683 9.65851C38.0887 9.65551 38.1091 9.65446 38.1294 9.65446Z" fill="#FFC225"/>
<path d="M42 6.00004C46.884 6.00004 53.0352 8.2856 58.4633 10.3024C62.73 11.8889 66.7621 13.3858 69.2204 13.3858C74.2672 13.3858 74.8859 12.0615 74.8926 12.0497C74.9632 11.787 75.2386 11.6446 75.5086 11.7139C75.7813 11.7834 75.9386 12.064 75.8681 12.3267C75.7758 12.666 75.0202 14.3653 69.2204 14.3653C66.5721 14.3653 62.6446 12.9062 58.0956 11.2166C52.7517 9.22999 46.6941 6.97957 42 6.97957C41.7191 6.97957 41.4912 6.76029 41.4912 6.4898C41.4912 6.21946 41.7191 6.00004 42 6.00004Z" fill="#FFC225"/>
<path d="M69.1471 11.637C69.3642 11.6497 69.5405 11.8196 69.527 12.0155C69.527 12.2247 69.3493 12.3829 69.1471 12.3829C68.93 12.3829 68.7672 12.213 68.7672 12.0038C68.7672 11.8068 68.9422 11.637 69.1471 11.637ZM72.0626 11.8344C72.0911 12.0288 71.9405 12.213 71.7384 12.2379C71.5213 12.265 71.33 12.1201 71.3042 11.9242C71.2757 11.7166 71.4263 11.5324 71.6434 11.5079C71.6434 11.5079 71.6434 11.5079 71.6298 11.5079C71.6556 11.5079 71.6692 11.5079 71.6841 11.5079C71.874 11.5079 72.0368 11.6497 72.0626 11.8344ZM66.7322 11.2854C66.9357 11.3381 67.0578 11.5324 67.0035 11.7299C66.9628 11.9242 66.7444 12.0564 66.5423 12.0038C66.3388 11.9502 66.2167 11.7543 66.271 11.56C66.3117 11.3901 66.4595 11.2854 66.6359 11.2854C66.6644 11.2854 66.6902 11.2854 66.7322 11.2854ZM64.3309 10.5805C64.3309 10.5805 64.3309 10.5805 64.316 10.5805C64.5209 10.6575 64.6294 10.8661 64.5615 11.0493C64.4923 11.2452 64.2766 11.3507 64.0731 11.2854C63.8832 11.2191 63.7747 11.0116 63.8425 10.8141C63.8968 10.6575 64.046 10.5661 64.2075 10.5661C64.2495 10.5661 64.2902 10.5661 64.3309 10.5805Z" fill="#FFC225"/>
<path d="M45.8719 9.65446C45.8909 9.65446 45.9113 9.65551 45.933 9.65851C48.8879 9.99782 51.802 10.6417 54.8857 11.3221C59.4781 12.3369 64.2251 13.3858 69.2204 13.3858C69.5012 13.3858 69.7291 13.6052 69.7291 13.8756C69.7291 14.146 69.5012 14.3653 69.2204 14.3653C64.1098 14.3653 59.3044 13.3047 54.6578 12.2767C51.6012 11.6018 48.7128 10.9645 45.8109 10.6299C45.5328 10.5973 45.3333 10.3544 45.3673 10.0856C45.3971 9.83613 45.6169 9.65446 45.8719 9.65446Z" fill="#FFC225"/>
<path d="M42 13.4379C43.8491 13.4379 45.3551 11.9895 45.3551 10.2095C45.3551 8.42796 43.8491 6.97957 42 6.97957C40.1508 6.97957 38.6449 8.42796 38.6449 10.2095C38.6449 11.9895 40.1508 13.4379 42 13.4379ZM42 6.00004C44.4108 6.00004 46.3726 7.88726 46.3726 10.2095C46.3726 12.5302 44.4108 14.4174 42 14.4174C39.5892 14.4174 37.6274 12.5302 37.6274 10.2095C37.6274 7.88726 39.5892 6.00004 42 6.00004Z" fill="#FFC225"/>
<path d="M41.0761 11.7676C41.2525 11.8721 41.3217 12.0941 41.2131 12.265C41.1182 12.4466 40.8875 12.5119 40.6976 12.4073C40.5077 12.3027 40.452 12.0808 40.5483 11.8982C40.6284 11.7819 40.7505 11.7166 40.8875 11.7299C40.9553 11.7299 41.0096 11.7415 41.0761 11.7676ZM43.4503 11.8982C43.5602 12.068 43.5046 12.3027 43.316 12.3945C43.316 12.3945 43.316 12.3945 43.3295 12.3945C43.1396 12.4986 42.909 12.4466 42.8004 12.265C42.6919 12.0941 42.7597 11.8721 42.9361 11.7676C43.0026 11.7299 43.0568 11.7166 43.1247 11.7166C43.2617 11.7166 43.3838 11.7819 43.4503 11.8982ZM40.1413 10.2131C40.1413 10.4239 39.965 10.5922 39.7615 10.5922C39.5444 10.5922 39.3803 10.4239 39.3803 10.2264C39.3803 10.0172 39.5444 9.86056 39.7479 9.86056C39.965 9.86056 40.1413 10.0172 40.1413 10.2131ZM44.632 10.1871C44.632 10.1871 44.632 10.1871 44.632 10.2018C44.632 10.2018 44.632 10.2018 44.632 10.2131C44.632 10.2264 44.6319 10.2264 44.6184 10.2396C44.6048 10.4239 44.442 10.5805 44.2507 10.5805C44.0486 10.5805 43.8858 10.4355 43.8722 10.2396C43.8722 10.2396 43.8722 10.2264 43.8573 10.2131C43.8573 10.2018 43.8573 10.2018 43.8573 10.2018L43.8573 10.1871C43.8573 9.99117 44.035 9.82282 44.2385 9.82282C44.4556 9.82282 44.632 9.97941 44.632 10.1871ZM41.186 8.14992C41.2945 8.33264 41.2402 8.55453 41.0503 8.65915C40.8739 8.76376 40.6433 8.71112 40.5348 8.52855C40.4263 8.35863 40.4805 8.13829 40.6705 8.03212C40.7247 7.99333 40.7912 7.98014 40.859 7.98014C40.9961 7.98014 41.1181 8.04544 41.186 8.14992ZM43.2875 8.00613C43.4788 8.11074 43.5466 8.33264 43.4381 8.50255C43.3417 8.68513 43.0989 8.75043 42.9225 8.64634C42.7326 8.54173 42.6783 8.31984 42.772 8.14992C42.8398 8.02037 42.9768 7.95401 43.0989 7.95401C43.1654 7.95401 43.2332 7.98014 43.2875 8.00613Z" fill="#FFC225"/>
<path d="M42 0.0444148C42.0705 0.0444148 42.1424 0.0586513 42.2075 0.0877803C42.2605 0.111286 43.5452 0.675488 44.6808 2.20603C44.8164 2.39018 44.8042 2.64225 44.6482 2.81204C43.2942 4.30222 43.1884 6.48734 43.1884 6.50824C43.1762 6.77205 42.951 6.97958 42.6797 6.97958C42.6729 6.97958 42.6661 6.97959 42.6593 6.97815C42.3799 6.96796 42.1601 6.74189 42.1709 6.47154C42.175 6.37516 42.274 4.20021 43.6199 2.48043C42.9782 1.70856 42.3242 1.27601 42 1.09081C41.6757 1.27601 41.0232 1.70856 40.3815 2.48043C41.7259 4.20021 41.825 6.37516 41.8291 6.47154C41.8399 6.74189 41.6201 6.96796 41.3406 6.97815C41.0205 7.01994 40.8238 6.77858 40.8116 6.50824C40.8116 6.48734 40.7057 4.30222 39.3518 2.81204C39.1971 2.64225 39.1835 2.39018 39.3205 2.20603C40.4561 0.675488 41.7382 0.111286 41.7924 0.0877803C41.8589 0.0586513 41.9294 0.0444148 42 0.0444148Z" fill="#FFC225"/>
<path d="M42 10.6508C42.2537 10.6508 42.4599 10.4523 42.4599 10.2095C42.4599 9.96518 42.2537 9.76666 42 9.76666C41.7476 9.76666 41.5401 9.96518 41.5401 10.2095C41.5401 10.4523 41.7476 10.6508 42 10.6508ZM42 9.03149C42.6742 9.03149 43.2223 9.559 43.2223 10.2095C43.2223 10.8585 42.6742 11.386 42 11.386C41.3257 11.386 40.7776 10.8585 40.7776 10.2095C40.7776 9.559 41.3257 9.03149 42 9.03149Z" fill="#FFC225"/>
<path d="M42 17.4881C42.8791 17.4881 43.5941 16.7984 43.5941 15.952C43.5941 15.1072 42.8791 14.4174 42 14.4174C41.1222 14.4174 40.4059 15.1072 40.4059 15.952C40.4059 16.7984 41.1222 17.4881 42 17.4881ZM42 13.4379C43.4408 13.4379 44.6116 14.5649 44.6116 15.952C44.6116 17.3376 43.4408 18.4676 42 18.4676C40.5605 18.4676 39.3884 17.3376 39.3884 15.952C39.3884 14.5649 40.5605 13.4379 42 13.4379Z" fill="#FFC225"/>
<path d="M39.95 18.7023C40.1264 18.8202 40.1685 19.0553 40.0464 19.2263C39.9243 19.3818 39.6801 19.4211 39.5173 19.3033C39.3409 19.187 39.3002 18.965 39.4223 18.7951C39.5023 18.691 39.6109 18.6385 39.733 18.6385C39.8157 18.6385 39.8836 18.6635 39.95 18.7023ZM38.6354 16.9407C38.7019 17.1356 38.5811 17.3443 38.3763 17.4096C38.1877 17.4621 37.9693 17.3575 37.915 17.1626C37.8486 16.9656 37.9571 16.7565 38.1606 16.7044C38.1999 16.6912 38.2284 16.6795 38.2691 16.6795C38.4306 16.6795 38.5812 16.7841 38.6354 16.9407ZM38.4726 14.3011C38.6761 14.3797 38.7847 14.5883 38.7019 14.7729C38.6354 14.9674 38.417 15.0587 38.2148 14.995C38.0114 14.9297 37.915 14.7062 37.9842 14.5235C38.0371 14.3664 38.1877 14.2767 38.3369 14.2767C38.3912 14.2767 38.4305 14.2893 38.4726 14.3011Z" fill="#FFC225"/>
<path d="M44.5777 18.7951C44.6984 18.9508 44.6591 19.187 44.4963 19.3033C44.3199 19.4211 44.0744 19.3818 43.9658 19.2263C43.8437 19.0553 43.8722 18.8202 44.0486 18.7023C44.1164 18.6635 44.1829 18.6385 44.2656 18.6385C44.3877 18.6385 44.5098 18.691 44.5777 18.7951ZM45.838 16.7044C46.0429 16.7565 46.1514 16.9656 46.0972 17.1626C46.0293 17.3575 45.8245 17.4621 45.6223 17.4096C45.4188 17.3443 45.3103 17.1356 45.3645 16.954C45.4188 16.7841 45.568 16.6795 45.7308 16.6795C45.7702 16.6795 45.7987 16.6912 45.838 16.7044ZM46.0157 14.5235C46.0836 14.7062 45.9886 14.9148 45.7851 14.995C45.5952 15.0587 45.3767 14.9674 45.2967 14.7729C45.2289 14.5883 45.3225 14.3664 45.5273 14.3011C45.568 14.2893 45.6074 14.2767 45.6617 14.2767C45.8123 14.2767 45.9615 14.3664 46.0157 14.5235Z" fill="#FFC225"/>
<path d="M43.2603 69.9552L42 68.2142L40.7397 69.9552L43.2603 69.9552ZM42 66.9278L44.7201 70.6892L39.2799 70.6892L42 66.9278Z" fill="#FFC225"/>
<path d="M32.6647 68.5943C32.6647 68.7889 32.4883 68.9587 32.2862 68.9587C32.0691 68.9587 31.8927 68.8033 31.8927 68.5943C31.8927 68.384 32.0691 68.2273 32.2712 68.2156C32.4883 68.2156 32.6647 68.384 32.6647 68.5943ZM30.5903 67.7963C30.7667 67.8891 30.8345 68.1228 30.726 68.2926C30.6297 68.4768 30.399 68.529 30.2105 68.4245C30.0205 68.3318 29.9663 68.1098 30.0748 67.9269C30.1426 67.8094 30.2648 67.7441 30.3991 67.7441C30.4683 67.7441 30.5225 67.7571 30.5903 67.7963ZM34.484 67.9139C34.5925 68.098 34.5383 68.32 34.347 68.4245C34.172 68.529 33.9278 68.4624 33.8192 68.2796C33.7243 68.1098 33.7785 67.8891 33.9671 67.7833C34.0214 67.7441 34.0906 67.731 34.1584 67.731C34.2927 67.731 34.4148 67.7963 34.484 67.9139ZM29.3422 66.6078C29.4507 66.792 29.3965 67.014 29.2052 67.1041C29.0302 67.2086 28.7995 67.1564 28.691 66.9735C28.5811 66.8037 28.6367 66.583 28.8267 66.4772C28.8796 66.4511 28.9488 66.425 29.0166 66.425C29.1509 66.425 29.273 66.4903 29.3422 66.6078ZM35.7172 66.4655C35.9085 66.5556 35.9628 66.792 35.8543 66.9618C35.8543 66.9618 35.8542 66.9618 35.8678 66.9618C35.7593 67.1433 35.5286 67.1956 35.3387 67.0911C35.1474 66.9996 35.0932 66.7646 35.2017 66.5948C35.2709 66.4772 35.4065 66.4132 35.5286 66.4132C35.5951 66.4132 35.663 66.425 35.7172 66.4655ZM28.8796 64.9884C28.8796 65.1843 28.7181 65.354 28.501 65.354C28.2975 65.354 28.1212 65.1973 28.1212 64.9884C28.1212 64.7925 28.284 64.624 28.501 64.624C28.501 64.624 28.501 64.624 28.5146 64.624C28.7181 64.624 28.8796 64.7807 28.8796 64.9884ZM36.4105 64.9231C36.4105 64.9231 36.4105 64.9374 36.4105 64.9505L36.4105 64.9622C36.4105 65.1712 36.2477 65.3292 36.0306 65.3292C35.8257 65.3292 35.6494 65.1712 35.6494 64.9622L35.6494 64.9505C35.6494 64.9374 35.6494 64.9374 35.6494 64.9231C35.6494 64.7285 35.8135 64.5587 36.0306 64.5587C36.2341 64.5587 36.4105 64.7141 36.4105 64.9231ZM29.1794 62.8595C29.3693 62.964 29.4358 63.186 29.3273 63.3558C29.2187 63.5387 28.9881 63.5922 28.7995 63.4995C28.6232 63.395 28.5553 63.173 28.6639 62.9914C28.7317 62.8739 28.866 62.8073 28.9881 62.8073C29.0573 62.8073 29.1251 62.8216 29.1794 62.8595ZM35.8258 62.9392C35.9343 63.1077 35.88 63.3297 35.7036 63.4342C35.5151 63.5387 35.2845 63.4864 35.1759 63.3049C35.0674 63.1338 35.1352 62.9118 35.3102 62.8073C35.3645 62.7694 35.4323 62.755 35.5015 62.755C35.6372 62.755 35.7593 62.8216 35.8258 62.9392ZM30.6839 61.658C30.7925 61.8278 30.7382 62.0642 30.5496 62.1686C30.3733 62.2588 30.1426 62.2065 30.0341 62.0237C29.9256 61.8539 29.9798 61.6332 30.1684 61.5274C30.2227 61.4882 30.2905 61.4751 30.3597 61.4751C30.4818 61.4751 30.6161 61.5404 30.6839 61.658ZM34.3063 61.4882C34.484 61.5927 34.5518 61.8147 34.4433 61.9845C34.347 62.1686 34.1177 62.2326 33.9277 62.1281C33.7365 62.0367 33.6822 61.8016 33.7785 61.6331C33.8599 61.5156 33.982 61.449 34.1177 61.449C34.1842 61.449 34.2384 61.4634 34.3063 61.4882ZM32.2319 60.9801C32.434 60.9801 32.6104 61.1369 32.6104 61.3458C32.6253 61.5535 32.449 61.7102 32.2319 61.7102C32.0284 61.7102 31.8521 61.5535 31.8521 61.3458C31.8521 61.1486 32.0148 60.9801 32.2319 60.9801Z" fill="#FFC225"/>
<path d="M32.2658 66.5425C33.1694 66.5425 33.9033 65.836 33.9033 64.9661C33.9033 64.0963 33.1694 63.3898 32.2658 63.3898C31.3623 63.3898 30.6283 64.0963 30.6283 64.9661C30.6283 65.836 31.3623 66.5425 32.2658 66.5425ZM32.2658 62.6558C33.5899 62.6558 34.6672 63.6928 34.6672 64.9661C34.6672 66.2408 33.5899 67.2778 32.2658 67.2778C30.9431 67.2778 29.8659 66.2408 29.8659 64.9661C29.8659 63.6928 30.9431 62.6558 32.2658 62.6558Z" fill="#FFC225"/>
<path d="M13.309 49.4296C13.5898 49.4296 13.8177 49.649 13.8177 49.9193C13.8177 51.2959 14.9804 52.4165 16.4103 52.4165C17.8403 52.4165 19.0043 51.2959 19.0043 49.9193C19.0043 49.649 19.2322 49.4296 19.5131 49.4296C19.7939 49.4296 20.0218 49.649 20.0218 49.9193C20.0218 51.8366 18.402 53.396 16.4103 53.396C14.4187 53.396 12.8002 51.8366 12.8002 49.9193C12.8002 49.649 13.0281 49.4296 13.309 49.4296Z" fill="#FFC225"/>
<path d="M54.5886 49.4348C54.7392 49.4348 54.8735 49.487 54.9698 49.5772C55.0499 49.6686 55.1041 49.7992 55.1041 49.918C55.1041 50.0473 55.0499 50.1649 54.9562 50.2694C54.7934 50.4391 54.4136 50.4522 54.2372 50.2576C54.1409 50.1649 54.0866 50.0473 54.0866 49.918C54.0866 49.7861 54.1409 49.6686 54.2372 49.5772C54.3173 49.487 54.4543 49.4348 54.5886 49.4348Z" fill="#FFC225"/>
<path d="M68.3602 62.6897C68.3602 62.964 68.1296 63.173 67.8582 63.173C67.5733 63.173 67.3427 62.964 67.3427 62.6897C67.3427 62.4155 67.5733 62.1934 67.8582 62.1934C68.1431 62.1934 68.3602 62.4155 68.3602 62.6897ZM70.9365 62.3502C70.9908 62.6244 70.8144 62.8739 70.5295 62.9261L70.5445 62.9261C70.2582 62.9784 70.0018 62.8073 69.934 62.5474C69.8797 62.2862 70.0696 62.0237 70.341 61.9714C70.3667 61.9597 70.4088 61.9597 70.4359 61.9597C70.6801 61.9597 70.8972 62.1164 70.9365 62.3502ZM65.362 61.9597C65.6469 62.0119 65.8232 62.2731 65.769 62.533C65.7147 62.8073 65.442 62.9784 65.1706 62.9261C64.8857 62.8739 64.7094 62.6127 64.7636 62.3502C64.8179 62.1164 65.0228 61.9597 65.267 61.9597C65.2941 61.9597 65.3335 61.9597 65.362 61.9597ZM73.3935 61.5404C73.502 61.7899 73.3799 62.0759 73.1221 62.1804C72.8644 62.2862 72.5646 62.1686 72.456 61.9061C72.3475 61.658 72.4709 61.3706 72.7287 61.2792C72.7952 61.2531 72.8644 61.2413 72.9322 61.2413C73.1221 61.2413 73.3107 61.3589 73.3935 61.5404ZM62.9742 61.2662C63.232 61.3706 63.3527 61.658 63.2442 61.9061C63.1356 62.1543 62.8372 62.2731 62.5808 62.1686C62.323 62.0642 62.2009 61.7755 62.3094 61.5274C62.3895 61.3458 62.5808 61.227 62.7829 61.227C62.8508 61.227 62.905 61.2414 62.9742 61.2662ZM75.6455 60.2736C75.7934 60.4956 75.7392 60.8104 75.5086 60.9527C75.2657 61.1094 74.9537 61.0441 74.7909 60.8221C74.6416 60.5883 74.7081 60.2866 74.9387 60.1299C75.0215 60.0777 75.1151 60.0529 75.2236 60.0529C75.3864 60.0529 75.5506 60.1299 75.6455 60.2736ZM60.7764 60.1299C61.007 60.2736 61.0613 60.5883 60.9121 60.8104C60.7615 61.0324 60.4372 61.0964 60.2066 60.9397C59.976 60.796 59.9068 60.4838 60.0696 60.2618C60.1659 60.1168 60.3287 60.0529 60.4915 60.0529C60.5851 60.0529 60.6814 60.0777 60.7764 60.1299ZM77.5856 58.6149C77.7891 58.7991 77.7891 59.1112 77.5856 59.3071C77.3957 59.5043 77.0701 59.5043 76.8652 59.3071C76.6767 59.1112 76.6767 58.7991 76.8652 58.6149C76.9738 58.5248 77.0959 58.4726 77.2329 58.4726C77.355 58.4726 77.4893 58.5248 77.5856 58.6149ZM58.835 58.6019C59.0398 58.7847 59.0398 59.0982 58.835 59.2941C58.6464 59.49 58.3194 59.49 58.1173 59.2941C57.926 59.0982 57.926 58.7847 58.1173 58.6019C58.2258 58.4974 58.3479 58.4582 58.4836 58.4582C58.6193 58.4582 58.7414 58.4974 58.835 58.6019ZM79.1594 56.618C79.4022 56.7747 79.4565 57.0738 79.3086 57.2958C79.1458 57.5309 78.8337 57.5831 78.6031 57.4408C78.3589 57.2828 78.3047 56.9824 78.4525 56.7604C78.5611 56.618 78.7116 56.5383 78.8744 56.5383C78.983 56.5383 79.0766 56.5658 79.1594 56.618ZM57.2477 56.7355C57.2477 56.7355 57.2477 56.7355 57.2477 56.7473C57.4105 56.9693 57.3562 57.271 57.1134 57.4277C56.8827 57.5701 56.5693 57.5178 56.4065 57.2828C56.2587 57.062 56.3129 56.7603 56.5436 56.6036C56.6385 56.5514 56.7321 56.5253 56.8284 56.5253C57.0048 56.5253 57.1541 56.6036 57.2477 56.7355ZM80.3112 54.3703C80.5703 54.4748 80.6924 54.7634 80.5839 55.0103C80.474 55.2597 80.1769 55.376 79.9178 55.2715C79.6613 55.167 79.5392 54.8927 79.6477 54.6315C79.7156 54.45 79.9055 54.3324 80.109 54.3324C80.1769 54.3324 80.2447 54.3442 80.3112 54.3703ZM56.0674 54.6185C56.0674 54.6185 56.0674 54.6185 56.0823 54.6185C56.1759 54.8666 56.0674 55.1552 55.7974 55.2597C55.5396 55.3642 55.2411 55.2453 55.1326 54.9972C55.0241 54.7491 55.1584 54.4617 55.4175 54.3572C55.4718 54.3324 55.5396 54.3181 55.6061 54.3181C55.8109 54.3181 55.9873 54.4369 56.0674 54.6185ZM80.9637 51.9541C81.2486 52.0064 81.425 52.2689 81.3707 52.5301C81.3165 52.79 81.0438 52.9598 80.7589 52.9076C80.4876 52.8566 80.3112 52.5954 80.3654 52.3329C80.4197 52.0991 80.6381 51.9424 80.8688 51.9424C80.8959 51.9424 80.9353 51.9424 80.9637 51.9541ZM55.3497 52.3211C55.4039 52.581 55.2276 52.8423 54.9427 52.8945C54.6713 52.9467 54.4136 52.777 54.3579 52.5027C54.2915 52.2415 54.48 51.9803 54.7527 51.928C54.7799 51.928 54.8192 51.928 54.8477 51.928C55.0919 51.928 55.309 52.0848 55.3497 52.3211Z" fill="#FFC225"/>
<path d="M81.1266 49.4348C81.2622 49.4348 81.3829 49.4871 81.4793 49.5772C81.5742 49.6686 81.6285 49.7861 81.6285 49.918C81.6285 50.0473 81.5742 50.1779 81.4793 50.2694C81.2893 50.4522 80.9502 50.4522 80.7589 50.2694C80.6653 50.1779 80.611 50.0473 80.611 49.918C80.611 49.7861 80.6653 49.6686 80.7589 49.5772C80.8552 49.4871 80.9895 49.4348 81.1266 49.4348Z" fill="#FFC225"/>
<path d="M76.7716 38.1244C76.8652 38.1244 76.9738 38.1637 77.0416 38.229C77.1108 38.3061 77.1501 38.3974 77.1501 38.4902C77.1501 38.5933 77.1108 38.6846 77.0416 38.7499C76.8937 38.8938 76.6346 38.8821 76.5003 38.7499C76.4324 38.6846 76.3917 38.5933 76.3917 38.4902C76.3917 38.3974 76.4324 38.3061 76.5003 38.229C76.5681 38.1637 76.6766 38.1244 76.7716 38.1244Z" fill="#FFC225"/>
<path d="M76.3917 36.347C76.4718 36.5312 76.3632 36.7388 76.1611 36.8057C75.9562 36.8826 75.7392 36.7781 75.6714 36.5822C75.6049 36.399 75.7134 36.1771 75.902 36.1118C75.944 36.1001 75.9847 36.1001 76.039 36.1001C76.1869 36.1001 76.3375 36.1904 76.3917 36.347ZM75.6591 34.3109C75.7256 34.5053 75.6171 34.7145 75.4285 34.7798C75.2236 34.8467 75.0066 34.7538 74.9387 34.5579C74.8723 34.3629 74.9672 34.1528 75.1694 34.089C75.2114 34.0747 75.2521 34.0747 75.2928 34.0747C75.4543 34.0747 75.6049 34.1661 75.6591 34.3109ZM74.913 32.2866C74.9808 32.4809 74.8845 32.6901 74.6823 32.7554C74.491 32.8207 74.2604 32.7161 74.1939 32.5335C74.1261 32.3376 74.2346 32.13 74.4245 32.0631C74.4788 32.0503 74.5195 32.0371 74.5602 32.0371C74.7081 32.0371 74.8587 32.13 74.913 32.2866Z" fill="#FFC225"/>
<path d="M73.8127 30.0143C73.9213 30.0143 74.0175 30.0521 74.0854 30.1183C74.1519 30.1827 74.1939 30.2756 74.1939 30.3786C74.1939 30.4831 74.1519 30.5745 74.0854 30.6398C73.9497 30.7713 73.6906 30.7713 73.5427 30.6398C73.4735 30.5745 73.4342 30.4699 73.4342 30.3786C73.4342 30.2882 73.4735 30.1827 73.5427 30.1183C73.6241 30.0521 73.7191 30.0143 73.8127 30.0143Z" fill="#FFC225"/>
<path d="M78.7374 49.4348C78.8609 49.4348 78.9966 49.4871 79.0915 49.5772C79.1851 49.6686 79.2394 49.7861 79.2394 49.918C79.2394 50.0473 79.1851 50.1779 79.0915 50.2694C78.9002 50.4522 78.5611 50.4522 78.3725 50.2694C78.2762 50.1779 78.2219 50.0473 78.2219 49.918C78.2219 49.7861 78.2762 49.6686 78.3725 49.5772C78.4675 49.4871 78.6031 49.4348 78.7374 49.4348Z" fill="#FFC225"/>
<path d="M78.3725 47.4875C78.4675 47.75 78.3304 48.0243 78.0591 48.1144C77.8027 48.2058 77.5042 48.0765 77.4215 47.814C77.3278 47.5528 77.4635 47.2785 77.7199 47.1871C77.7891 47.1741 77.8434 47.161 77.8976 47.161C78.1134 47.161 78.3046 47.2916 78.3725 47.4875ZM77.5436 45.215C77.6399 45.4762 77.4893 45.7505 77.2329 45.8432C76.9616 45.9333 76.6766 45.8027 76.5803 45.5415C76.4867 45.2947 76.6224 45.006 76.8937 44.9159C76.948 44.9015 77.0022 44.8885 77.0565 44.8885C77.2736 44.8885 77.4635 45.0204 77.5436 45.215ZM76.7024 42.9425C76.7987 43.2037 76.6631 43.478 76.3917 43.5694C76.1326 43.6621 75.8477 43.5302 75.7392 43.2834C75.6456 43.0222 75.7934 42.7479 76.0526 42.6552C76.1068 42.6304 76.1747 42.6304 76.2289 42.6304C76.4324 42.6304 76.6346 42.7479 76.7024 42.9425ZM75.8626 40.6831C75.9562 40.9312 75.8219 41.2198 75.5628 41.2969C75.2928 41.4014 75.0066 41.2577 74.913 41.0096C74.818 40.7484 74.9537 40.4741 75.2114 40.3827C75.2779 40.3696 75.3322 40.3566 75.3864 40.3566C75.6049 40.3566 75.7934 40.4741 75.8626 40.6831ZM75.035 38.4107C75.13 38.6719 74.993 38.9458 74.7217 39.0386C74.4653 39.129 74.1668 38.9984 74.0718 38.7372C73.9755 38.4902 74.1125 38.2015 74.3825 38.1118C74.4368 38.0969 74.491 38.0842 74.5602 38.0842C74.7637 38.0842 74.9536 38.2148 75.035 38.4107ZM74.1939 36.1378C74.2889 36.399 74.1519 36.6735 73.8819 36.7648C73.6241 36.8577 73.3257 36.7255 73.2307 36.4643C73.1493 36.218 73.2849 35.9292 73.5427 35.8389C73.597 35.8262 73.6648 35.8113 73.7191 35.8113C73.9212 35.8113 74.1261 35.9435 74.1939 36.1378ZM73.3514 33.8798C73.4477 34.1268 73.3107 34.4012 73.0543 34.4926C72.783 34.5855 72.4981 34.4533 72.4017 34.2063C72.3081 33.9441 72.4438 33.6697 72.7151 33.5784C72.7694 33.5533 72.8237 33.5533 72.8779 33.5533C73.095 33.5533 73.2849 33.6697 73.3514 33.8798ZM72.5252 31.606C72.6188 31.8555 72.4845 32.13 72.2132 32.2346C71.9541 32.3243 71.6556 32.182 71.562 31.9325C71.467 31.6713 71.6013 31.3973 71.874 31.3071C71.9283 31.2795 71.9825 31.2795 72.0368 31.2795C72.2539 31.2795 72.4438 31.3973 72.5252 31.606ZM71.6841 29.3338C71.7777 29.5817 71.6434 29.8688 71.372 29.9617C71.1143 30.0521 70.8144 29.9215 70.7344 29.6603C70.6381 29.4133 70.7751 29.1245 71.0329 29.0348C71.0993 29.0215 71.1536 29.0073 71.2079 29.0073C71.4127 29.0073 71.6149 29.1388 71.6841 29.3338ZM70.8565 27.0624C70.9366 27.3221 70.8022 27.5966 70.5445 27.6879C70.2731 27.7808 69.9882 27.6486 69.8933 27.389C69.7969 27.1395 69.934 26.8537 70.2053 26.7609C70.2582 26.7493 70.3125 26.7359 70.3667 26.7359C70.5838 26.7359 70.7751 26.865 70.8565 27.0624ZM70.0153 24.7902C70.1103 25.0514 69.9733 25.3253 69.7033 25.4157C69.4456 25.507 69.1471 25.3779 69.0521 25.1283C68.9558 24.8671 69.1064 24.5927 69.3642 24.5014C69.4184 24.4753 69.4727 24.4637 69.5405 24.4637C69.7427 24.4637 69.9339 24.5927 70.0153 24.7902ZM69.1729 22.5291C69.2692 22.7785 69.1335 23.0648 68.8757 23.1577C68.6031 23.2346 68.3195 23.105 68.2232 22.8556C68.1296 22.5944 68.2639 22.3204 68.523 22.2301C68.5908 22.2026 68.6451 22.2026 68.6994 22.2026C68.9015 22.2026 69.1064 22.3204 69.1729 22.5291Z" fill="#FFC225"/>
<path d="M67.8583 19.9303C67.9926 19.9303 68.1296 19.9823 68.2232 20.0869C68.3059 20.1538 68.3738 20.2828 68.3738 20.4134C68.3738 20.5456 68.3195 20.6746 68.2232 20.7659C68.0346 20.949 67.6954 20.949 67.5055 20.7659C67.4105 20.6746 67.3563 20.5456 67.3563 20.4134C67.3563 20.2828 67.4105 20.1538 67.5055 20.0609C67.5855 19.9823 67.7226 19.9303 67.8583 19.9303Z" fill="#FFC225"/>
<path d="M56.9886 49.4296C57.2694 49.4296 57.4973 49.649 57.4973 49.9193C57.4973 55.4204 62.1466 59.8948 67.861 59.8948C68.1418 59.8948 68.3697 60.1142 68.3697 60.3846C68.3697 60.6549 68.1418 60.8744 67.861 60.8744C61.585 60.8744 56.4798 55.9611 56.4798 49.9193C56.4798 49.649 56.7077 49.4296 56.9886 49.4296Z" fill="#FFC225"/>
<path d="M78.7374 49.4348C78.8609 49.4348 78.9966 49.4871 79.0915 49.5772C79.1851 49.6686 79.2394 49.7861 79.2394 49.918C79.2394 50.0473 79.1851 50.1779 79.0915 50.2694C78.9002 50.4522 78.5611 50.4522 78.3725 50.2694C78.2762 50.1779 78.2219 50.0473 78.2219 49.918C78.2219 49.7861 78.2762 49.6686 78.3725 49.5772C78.4675 49.4871 78.6031 49.4348 78.7374 49.4348Z" fill="#FFC225"/>
<path d="M70.7887 60.0124C70.8565 60.2736 70.6801 60.5479 70.4088 60.6001C70.1361 60.6654 69.8661 60.4956 69.797 60.2344C69.7305 59.9732 69.9055 59.6989 70.1782 59.6467C70.2189 59.6336 70.2582 59.6336 70.2867 59.6336C70.5295 59.6336 70.7344 59.7904 70.7887 60.0124ZM73.0408 59.1373C73.1764 59.3868 73.0679 59.6741 72.8101 59.7903C72.5524 59.9079 72.2539 59.8034 72.1318 59.5566C72.0083 59.3202 72.1169 59.0211 72.3624 58.9036C72.4438 58.8761 72.5103 58.8631 72.593 58.8631C72.783 58.8631 72.958 58.9558 73.0408 59.1373ZM75.0473 57.7921C75.2237 58.0011 75.1843 58.3145 74.9672 58.4843C74.7502 58.6541 74.4246 58.6149 74.2482 58.4073C74.0718 58.1983 74.1125 57.8835 74.3282 57.7151C74.4246 57.6498 74.5331 57.6093 74.6416 57.6093C74.7909 57.6093 74.9387 57.6746 75.0473 57.7921ZM76.6889 56.0551C76.9073 56.2249 76.9344 56.5383 76.7567 56.7473C76.5803 56.9563 76.2696 56.9967 76.0526 56.8257C75.8355 56.6559 75.7935 56.3437 75.9712 56.1348C76.0648 56.0172 76.2154 55.9506 76.3633 55.9506C76.4718 55.9506 76.5953 55.9898 76.6889 56.0551ZM77.8828 54.0177C78.1419 54.1352 78.2368 54.4369 78.1134 54.6707C77.9913 54.9188 77.6942 55.0233 77.435 54.9058C77.1922 54.7882 77.0823 54.4892 77.2044 54.2397C77.2872 54.0699 77.4771 53.9654 77.667 53.9654C77.7349 53.9654 77.8163 53.9916 77.8828 54.0177ZM78.576 51.7726C78.846 51.8379 79.0237 52.0991 78.9545 52.359C78.9003 52.6202 78.6154 52.79 78.3454 52.7247C78.074 52.6725 77.9112 52.4113 77.9655 52.137C78.0198 51.915 78.2219 51.7582 78.4675 51.7582C78.4946 51.7582 78.5353 51.7582 78.576 51.7726Z" fill="#FFC225"/>
<path d="M67.8582 59.8948C67.9926 59.8948 68.1296 59.947 68.2232 60.0528C68.3059 60.1168 68.3738 60.2474 68.3738 60.3911C68.3738 60.5086 68.3195 60.6406 68.2232 60.7307C68.0346 60.9148 67.6954 60.9148 67.5055 60.7307C67.4105 60.6406 67.3563 60.5086 67.3563 60.3911C67.3563 60.2474 67.4105 60.1168 67.5055 60.0398C67.5855 59.9471 67.7226 59.8948 67.8582 59.8948Z" fill="#FFC225"/>
<path d="M73.7924 49.4296L76.0146 49.4296C76.2954 49.4296 76.5234 49.649 76.5234 49.9193C76.5234 54.5179 72.6378 58.2597 67.861 58.2597C67.5801 58.2597 67.3522 58.0403 67.3522 57.7699C67.3522 57.4983 67.5801 57.2801 67.861 57.2801C71.9052 57.2801 75.2264 54.2397 75.4896 50.4091L73.7924 50.4091C73.5115 50.4091 73.2836 50.1897 73.2836 49.9193C73.2836 49.649 73.5115 49.4296 73.7924 49.4296Z" fill="#FFC225"/>
<path d="M67.7768 57.2828C68.0468 57.2828 68.2775 57.5048 68.2775 57.779C68.2775 58.0416 68.0468 58.2623 67.7619 58.2623C67.477 58.2623 67.26 58.0416 67.26 57.7673C67.26 57.493 67.492 57.2828 67.7619 57.2828L67.7768 57.2828ZM65.4298 56.904C65.7011 56.9824 65.8354 57.271 65.7554 57.5178C65.6604 57.779 65.3755 57.924 65.1028 57.8313C64.8464 57.7399 64.6972 57.4656 64.7921 57.2044C64.86 57.0085 65.0635 56.8779 65.267 56.8779C65.3212 56.8779 65.3755 56.8779 65.4298 56.904ZM63.327 55.8461C63.5576 56.0028 63.5983 56.3163 63.4355 56.5253C63.2727 56.7473 62.9471 56.7995 62.7165 56.6297C62.498 56.473 62.4438 56.1596 62.6079 55.9506C62.7164 55.82 62.8657 55.756 63.0285 55.756C63.1221 55.756 63.232 55.7808 63.327 55.8461ZM61.6569 54.2136C61.8197 54.4369 61.7654 54.749 61.5361 54.9058C61.3177 55.0625 60.9935 55.0103 60.8307 54.7882C60.6679 54.5662 60.7221 54.2658 60.9528 54.1104C61.0328 54.0438 61.1413 54.0177 61.2377 54.0177C61.4005 54.0177 61.5483 54.083 61.6569 54.2136ZM60.5851 52.1762C60.6679 52.4374 60.5186 52.7116 60.2609 52.79C59.9895 52.8814 59.7046 52.7378 59.6096 52.4779C59.5282 52.2167 59.6761 51.9424 59.9488 51.8627C59.9895 51.8497 60.0438 51.8379 60.0981 51.8379C60.3151 51.8379 60.5186 51.9672 60.5851 52.1762ZM60.2202 49.918C60.2202 50.1923 59.9895 50.4143 59.7046 50.4143C59.4333 50.4143 59.2026 50.1923 59.2026 49.918C59.2026 49.6568 59.4333 49.4348 59.7046 49.4348C59.9895 49.4348 60.2202 49.6568 60.2202 49.918Z" fill="#FFC225"/>
<path d="M67.861 19.9288C67.918 19.9288 67.9749 19.9379 68.0306 19.9563C68.2951 20.0476 68.4335 20.3287 68.3399 20.5818L57.4675 50.0826C57.3739 50.3386 57.0768 50.4692 56.819 50.3804C56.5545 50.2903 56.4147 50.0095 56.5083 49.7561L67.3807 20.2553C67.4553 20.0543 67.6507 19.9288 67.861 19.9288Z" fill="#FFC225"/>
<path d="M61.9635 49.9193L62.981 49.9193C62.981 52.6542 65.2914 54.8784 68.1323 54.8784C70.9732 54.8784 73.2836 52.6542 73.2836 49.9193L74.3011 49.9193C74.3011 53.1936 71.5335 55.8579 68.1323 55.8579C64.7311 55.8579 61.9635 53.1936 61.9635 49.9193Z" fill="#FFC225"/>
<path d="M52.2307 49.4296L71.235 49.4296C71.5159 49.4296 71.7438 49.649 71.7438 49.9193C71.7438 50.1897 71.5159 50.4091 71.235 50.4091L52.7476 50.4091C53.0176 58.2087 59.6938 64.4764 67.861 64.4764C76.1991 64.4764 82.9825 57.9462 82.9825 49.9193C82.9825 49.649 83.2104 49.4296 83.4912 49.4296C83.7721 49.4296 84 49.649 84 49.9193C84 58.4856 76.7594 65.4559 67.861 65.4559C58.9612 65.4559 51.7219 58.4856 51.7219 49.9193C51.7219 49.649 51.9499 49.4296 52.2307 49.4296Z" fill="#FFC225"/>
<path d="M67.861 14.424C68.1418 14.424 68.3697 14.6434 68.3697 14.9137L68.3697 17.0622C68.3697 18.2141 67.6887 18.7354 67.1406 19.1532C66.6657 19.5161 66.3211 19.7803 66.3211 20.4185C66.3211 21.2364 67.0117 21.9026 67.861 21.9026C68.7102 21.9026 69.4008 21.2364 69.4008 20.4185C69.4008 20.1482 69.6287 19.9288 69.9096 19.9288C70.1904 19.9288 70.4183 20.1482 70.4183 20.4185C70.4183 21.7771 69.2719 22.8821 67.861 22.8821C66.4514 22.8821 65.3036 21.7771 65.3036 20.4185C65.3036 19.3058 65.9711 18.7967 66.5084 18.385C66.9981 18.0115 67.3522 17.7412 67.3522 17.0622L67.3522 14.9137C67.3522 14.6434 67.5801 14.424 67.861 14.424Z" fill="#FFC225"/>
<path d="M52.1059 68.5943C52.1059 68.7889 51.9295 68.9587 51.7274 68.9587C51.5103 68.9587 51.3475 68.7889 51.3475 68.5943C51.3475 68.384 51.5103 68.2156 51.7274 68.2156C51.9295 68.2273 52.1059 68.384 52.1059 68.5943ZM53.9387 67.9269C54.0323 68.1098 53.9781 68.3318 53.7895 68.4245C53.6131 68.529 53.3825 68.4768 53.274 68.2926C53.1654 68.1228 53.2319 67.9008 53.4083 67.7963C53.4775 67.7572 53.5453 67.7441 53.5996 67.7441C53.7352 67.7441 53.856 67.8094 53.9387 67.9269ZM50.0451 67.7833C50.2214 67.8891 50.2757 68.1098 50.1794 68.2796C50.0709 68.4624 49.8402 68.529 49.6516 68.4245C49.4753 68.32 49.4074 68.098 49.516 67.9139C49.5838 67.7963 49.7195 67.731 49.8402 67.731C49.908 67.731 49.9772 67.7572 50.0451 67.7833ZM55.1733 66.4772C55.3633 66.583 55.4175 66.8037 55.3212 66.9866L55.309 66.9735C55.2005 67.1564 54.9698 67.2086 54.7934 67.1185C54.6171 67.014 54.5492 66.7776 54.6564 66.6078C54.7256 66.4903 54.8477 66.425 54.982 66.425C55.0499 66.425 55.119 66.4381 55.1733 66.4772ZM48.7969 66.5948C48.9055 66.7646 48.8512 66.9866 48.6599 67.0911C48.4835 67.1956 48.2529 67.1303 48.1444 66.9618C48.0358 66.7776 48.105 66.5556 48.2814 66.4511C48.3492 66.425 48.4035 66.4132 48.4713 66.4132C48.6057 66.4132 48.7291 66.4772 48.7969 66.5948ZM55.8788 64.9884C55.8788 65.1973 55.7024 65.354 55.4976 65.354C55.2819 65.354 55.1191 65.1973 55.1191 64.9884C55.1191 64.7807 55.2819 64.624 55.4976 64.624C55.7147 64.624 55.8788 64.7925 55.8788 64.9884ZM47.9816 64.5587C48.1864 64.5587 48.3492 64.7285 48.3492 64.9231C48.3492 64.9374 48.3492 64.9374 48.3492 64.9505L48.3492 64.9622C48.3492 64.9753 48.3492 64.9753 48.3492 64.9753C48.3357 65.1712 48.1729 65.3292 47.9694 65.3292C47.7659 65.3292 47.5882 65.1712 47.5882 64.9622C47.5882 64.9505 47.5882 64.9374 47.5882 64.91C47.6031 64.7141 47.7659 64.5587 47.9694 64.5587L47.9816 64.5587ZM55.3348 62.9914C55.4433 63.173 55.389 63.395 55.2004 63.4995C55.0105 63.5922 54.7799 63.5387 54.6714 63.3558C54.5764 63.186 54.6307 62.964 54.8192 62.8595C54.8735 62.8216 54.9427 62.8073 55.0105 62.8073C55.1462 62.8073 55.2669 62.8739 55.3348 62.9914ZM48.6884 62.8073C48.877 62.9118 48.9312 63.1338 48.8227 63.3179C48.7142 63.4864 48.4835 63.5387 48.3085 63.4342C48.1186 63.3297 48.0643 63.1077 48.1729 62.9392C48.2407 62.8216 48.3628 62.755 48.4985 62.755C48.5663 62.755 48.6341 62.7694 48.6884 62.8073ZM53.8438 61.5274C54.0188 61.6332 54.0744 61.8539 53.9781 62.0367C53.8709 62.2065 53.6254 62.2587 53.4503 62.1543C53.274 62.0498 53.2061 61.8278 53.3147 61.658C53.3825 61.5404 53.5168 61.4751 53.6389 61.4751C53.7081 61.4751 53.7759 61.4882 53.8438 61.5274ZM50.2214 61.6332C50.3164 61.8016 50.2622 62.0367 50.0709 62.1281C49.8945 62.2326 49.6652 62.1686 49.5553 61.9988C49.4468 61.8147 49.516 61.5927 49.6924 61.4882L49.7059 61.4882C49.7602 61.4634 49.828 61.449 49.8823 61.449C50.0166 61.449 50.1536 61.5156 50.2214 61.6332ZM51.7667 60.9801C51.9838 60.9801 52.1479 61.1486 52.1479 61.3458C52.1479 61.5535 51.9838 61.7102 51.7667 61.7102C51.551 61.7102 51.3882 61.5404 51.3882 61.3458C51.3882 61.1369 51.5646 60.9801 51.7667 60.9801Z" fill="#FFC225"/>
<path d="M51.7341 66.5425C52.6377 66.5425 53.3716 65.836 53.3716 64.9661C53.3716 64.0963 52.6377 63.3898 51.7341 63.3898C50.8306 63.3898 50.0966 64.0963 50.0966 64.9661C50.0966 65.836 50.8306 66.5425 51.7341 66.5425ZM51.7341 62.6558C53.0569 62.6558 54.1341 63.6928 54.1341 64.9661C54.1341 66.2408 53.0569 67.2778 51.7341 67.2778C50.41 67.2778 49.3328 66.2408 49.3328 64.9661C49.3328 63.6928 50.41 62.6558 51.7341 62.6558Z" fill="#FFC225"/>
<path d="M65.0309 49.4296C65.3118 49.4296 65.5397 49.649 65.5397 49.9193C65.5397 51.2959 66.7024 52.4165 68.1323 52.4165C69.5636 52.4165 70.7263 51.2959 70.7263 49.9193C70.7263 49.649 70.9542 49.4296 71.235 49.4296C71.5159 49.4296 71.7438 49.649 71.7438 49.9193C71.7438 51.8366 70.1239 53.396 68.1323 53.396C66.1407 53.396 64.5222 51.8366 64.5222 49.9193C64.5222 49.649 64.7501 49.4296 65.0309 49.4296Z" fill="#FFC225"/>
<path d="M38.1022 34.6792L45.8977 34.6792C46.1786 34.6792 46.4065 34.8987 46.4065 35.169C46.4065 35.4395 46.1786 35.6588 45.8977 35.6588L38.1022 35.6588C37.8214 35.6588 37.5935 35.4395 37.5935 35.169C37.5935 34.8987 37.8214 34.6792 38.1022 34.6792Z" fill="#FFC225"/>
<path d="M30.783 33.313C30.9498 33.313 31.0842 33.4411 31.0869 33.6018C31.0896 33.765 30.9553 33.8967 30.787 33.8998L28.3043 33.936C28.3016 33.936 28.3002 33.936 28.2989 33.936C28.132 33.936 27.9977 33.8094 27.995 33.6488C27.9923 33.4855 28.1266 33.3523 28.2949 33.3498L30.7775 33.313C30.7803 33.313 30.7816 33.313 30.783 33.313Z" fill="#FFC225"/>
<path d="M31.1642 36.1093C31.2972 36.1093 31.4193 36.1929 31.4586 36.322C31.5034 36.4792 31.4084 36.6409 31.247 36.6853L28.8497 37.3398C28.691 37.3868 28.5187 37.2929 28.4712 37.1373C28.4264 36.9806 28.5214 36.8184 28.6829 36.7731L31.0801 36.1185C31.1086 36.1118 31.1357 36.1093 31.1642 36.1093Z" fill="#FFC225"/>
<path d="M32.2848 38.7137C32.3879 38.7137 32.4897 38.7648 32.5467 38.8561C32.6335 38.9958 32.586 39.1759 32.4408 39.2596L30.2905 40.4898C30.1467 40.572 29.9581 40.5263 29.8727 40.3879C29.7858 40.2482 29.8333 40.0679 29.9785 39.9843L32.1288 38.7541C32.1777 38.7254 32.2319 38.7137 32.2848 38.7137Z" fill="#FFC225"/>
<path d="M34.0675 40.9495C34.1448 40.9495 34.2222 40.9756 34.2819 41.0318C34.4026 41.1454 34.404 41.3322 34.2873 41.4471L32.5318 43.175C32.4151 43.2912 32.2224 43.2952 32.099 43.1802C31.9782 43.0666 31.9755 42.8798 32.0936 42.7636L33.8491 41.037C33.9088 40.9783 33.9888 40.9495 34.0675 40.9495Z" fill="#FFC225"/>
<path d="M36.3901 42.6656C36.4417 42.6656 36.4946 42.6774 36.5421 42.7035C36.6872 42.7832 36.7388 42.9634 36.656 43.1045L35.416 45.2098C35.3333 45.3508 35.1474 45.4018 34.9995 45.3195C34.8544 45.2411 34.8014 45.0609 34.8856 44.9198L36.1256 42.8132C36.1812 42.7192 36.2843 42.6656 36.3901 42.6656Z" fill="#FFC225"/>
<path d="M47.6098 42.6656C47.7157 42.6656 47.8188 42.7192 47.8744 42.8132L49.1144 44.9198C49.1985 45.0609 49.147 45.2411 49.0004 45.3195C48.8553 45.4018 48.668 45.3508 48.5853 45.2098L47.3453 43.1045C47.2612 42.9634 47.3127 42.7832 47.4593 42.7035C47.5068 42.6774 47.5583 42.6656 47.6098 42.6656Z" fill="#FFC225"/>
<path d="M49.9325 40.9495C50.0112 40.9495 50.0912 40.9783 50.1509 41.037L51.9064 42.7636C52.0245 42.8798 52.0218 43.0666 51.901 43.1802C51.7789 43.2952 51.5863 43.2899 51.4696 43.175L49.7141 41.4471C49.596 41.3322 49.5988 41.1454 49.7195 41.0318C49.7792 40.9756 49.8552 40.9495 49.9325 40.9495Z" fill="#FFC225"/>
<path d="M51.7152 38.7137C51.7681 38.7137 51.8223 38.7254 51.8712 38.7541L54.0215 39.9843C54.1667 40.0679 54.2142 40.2482 54.1287 40.3879C54.0419 40.5263 53.8533 40.572 53.7095 40.4898L51.5592 39.2596C51.4153 39.1759 51.3665 38.9958 51.4533 38.8561C51.5103 38.7648 51.612 38.7137 51.7152 38.7137Z" fill="#FFC225"/>
<path d="M52.8358 36.1093C52.8643 36.1093 52.8914 36.1118 52.9199 36.1185L55.3185 36.7731C55.48 36.8184 55.5736 36.9806 55.5288 37.1373C55.4813 37.2929 55.3077 37.3842 55.1503 37.3398L52.753 36.6853C52.5916 36.6409 52.4966 36.4792 52.5428 36.322C52.5807 36.1929 52.7028 36.1093 52.8358 36.1093Z" fill="#FFC225"/>
<path d="M53.2184 33.313C53.2197 33.313 53.2211 33.313 53.2238 33.313L55.7065 33.3498C55.8747 33.3523 56.0077 33.4855 56.005 33.6488C56.0023 33.8094 55.868 33.936 55.7011 33.936C55.6997 33.936 55.6984 33.936 55.6956 33.936L53.2129 33.8998C53.0447 33.8967 52.9104 33.765 52.9131 33.6018C52.9158 33.4411 53.0515 33.313 53.2184 33.313Z" fill="#FFC225"/>
<path d="M55.2344 29.9357C55.3714 29.9357 55.4949 30.0235 55.5301 30.1576C55.5722 30.3142 55.4732 30.4739 55.309 30.5133L52.9104 31.0969C52.7462 31.1371 52.5821 31.0418 52.5414 30.8842C52.498 30.726 52.5983 30.5668 52.7625 30.5275L55.1597 29.9449C55.1855 29.9383 55.2099 29.9357 55.2344 29.9357Z" fill="#FFC225"/>
<path d="M53.8655 26.7544C53.9727 26.7544 54.0758 26.8079 54.1314 26.9059C54.2141 27.0467 54.1626 27.2257 54.0147 27.3043L51.8644 28.4624C51.7192 28.5435 51.5306 28.4924 51.4492 28.3492C51.3665 28.2078 51.418 28.0287 51.5672 27.9491L53.7176 26.7921C53.7637 26.766 53.8153 26.7544 53.8655 26.7544Z" fill="#FFC225"/>
<path d="M51.688 24.0233C51.7667 24.0233 51.8468 24.0519 51.9064 24.1106C52.0245 24.2269 52.0218 24.4126 51.901 24.5264L50.1455 26.1809C50.0247 26.2957 49.8321 26.2906 49.7141 26.1758C49.596 26.0594 49.5988 25.8742 49.7195 25.7605L51.475 24.1055C51.5334 24.0494 51.6107 24.0233 51.688 24.0233Z" fill="#FFC225"/>
<path d="M48.8499 21.9271C48.9028 21.9271 48.9557 21.9403 49.0045 21.9663C49.1497 22.05 49.1985 22.2301 49.113 22.3699L47.873 24.4035C47.7889 24.5432 47.6004 24.5876 47.4552 24.508C47.31 24.4244 47.2612 24.2453 47.3467 24.1046L48.5866 22.072C48.6436 21.9781 48.7454 21.9271 48.8499 21.9271Z" fill="#FFC225"/>
<path d="M35.1501 21.9271C35.2546 21.9271 35.3577 21.9781 35.4147 22.072L36.6547 24.1045C36.7388 24.2453 36.69 24.4244 36.5461 24.508C36.401 24.5876 36.2124 24.5432 36.127 24.4035L34.8869 22.3699C34.8015 22.2301 34.8517 22.05 34.9955 21.9663C35.0443 21.9403 35.0972 21.9271 35.1501 21.9271Z" fill="#FFC225"/>
<path d="M32.312 24.0233C32.3893 24.0233 32.4666 24.0494 32.5263 24.1055L34.2819 25.7605C34.4026 25.8742 34.404 26.0594 34.2873 26.1758C34.1706 26.2921 33.9766 26.2972 33.8545 26.1809L32.099 24.5264C31.9782 24.4126 31.9755 24.2269 32.0936 24.1105C32.1533 24.0519 32.2333 24.0233 32.312 24.0233Z" fill="#FFC225"/>
<path d="M30.1345 26.7544C30.1847 26.7544 30.2362 26.766 30.2824 26.7921L32.4327 27.9491C32.5819 28.0287 32.6335 28.2078 32.5507 28.3492C32.4707 28.4924 32.2835 28.5435 32.1369 28.4624L29.9866 27.3043C29.8374 27.2257 29.7858 27.0467 29.8686 26.9059C29.9242 26.8079 30.0273 26.7544 30.1345 26.7544Z" fill="#FFC225"/>
<path d="M28.7656 29.9357C28.7914 29.9357 28.8144 29.9383 28.8402 29.9449L31.2375 30.5275C31.403 30.5668 31.502 30.726 31.46 30.8842C31.4179 31.0432 31.2565 31.1361 31.0896 31.0969L28.6924 30.5133C28.5268 30.4739 28.4278 30.3142 28.4698 30.1576C28.5051 30.0235 28.63 29.9357 28.7656 29.9357Z" fill="#FFC225"/>
<path d="M25.6385 5.87715C25.6507 6.04707 25.5164 6.17923 25.34 6.17923C25.1772 6.17923 25.0415 6.04706 25.0415 5.89047C25.0266 5.72055 25.1636 5.58996 25.34 5.58996C25.5028 5.58996 25.6385 5.72056 25.6385 5.87715ZM23.6699 4.97768L23.6577 4.97768C23.792 5.08177 23.8205 5.26345 23.7242 5.39405C23.6157 5.52622 23.4271 5.55064 23.2914 5.44602C23.168 5.34194 23.1422 5.15883 23.2372 5.0298C23.305 4.96293 23.385 4.92518 23.4813 4.92518C23.5492 4.92518 23.6157 4.93693 23.6699 4.97768ZM27.4293 5.00225C27.5378 5.13442 27.5093 5.31542 27.375 5.42004C27.238 5.5129 27.0494 5.49866 26.9409 5.36806C26.8445 5.23745 26.8595 5.05474 26.9952 4.95013C27.0494 4.91094 27.1159 4.88483 27.1837 4.88483C27.28 4.88483 27.3614 4.92519 27.4293 5.00225ZM21.6349 4.20687C21.8113 4.20687 21.9483 4.3359 21.9483 4.50582C21.9483 4.66241 21.7977 4.79301 21.6349 4.79301C21.4721 4.79301 21.3243 4.66241 21.3378 4.49406C21.3378 4.3359 21.4721 4.20687 21.6349 4.20687ZM29.3422 4.49406C29.3422 4.66241 29.2052 4.79301 29.0302 4.79301C28.866 4.79301 28.7317 4.66241 28.7317 4.49406C28.7317 4.3359 28.866 4.20687 29.0302 4.20687C29.2052 4.20687 29.3422 4.3359 29.3422 4.49406Z" fill="#FFC225"/>
<path d="M18.189 3.77574C18.2039 3.94566 18.0669 4.07523 17.8918 4.07523C17.7155 4.07523 17.5798 3.94567 17.5798 3.78751C17.5798 3.61916 17.7155 3.48698 17.8918 3.48698C18.0546 3.48698 18.189 3.61915 18.189 3.77574ZM19.9811 2.90084C20.0761 3.02987 20.0612 3.21311 19.9269 3.3176C19.7912 3.42221 19.5999 3.39726 19.4914 3.26509C19.3978 3.13449 19.4113 2.95191 19.5457 2.84886L19.5457 2.86153C19.5999 2.80798 19.6691 2.79622 19.7369 2.79622C19.8305 2.79622 19.9133 2.83397 19.9811 2.90084ZM21.894 2.39018C21.894 2.56011 21.757 2.69213 21.5807 2.69213C21.4179 2.69213 21.2835 2.56011 21.2835 2.39018C21.2835 2.23359 21.4179 2.10298 21.5807 2.10298C21.757 2.10298 21.894 2.23359 21.894 2.39018Z" fill="#FFC225"/>
<path d="M21.5874 2.10298C22.6239 2.10298 23.1612 2.50394 23.6374 2.858C24.0932 3.19626 24.4853 3.49013 25.3115 3.49013C26.1391 3.49013 26.5325 3.19626 26.9884 2.858C27.4632 2.50394 28.0018 2.10298 29.037 2.10298C29.2052 2.10298 29.3422 2.2345 29.3422 2.39684C29.3422 2.55853 29.2052 2.6907 29.037 2.6907C28.2107 2.6907 27.8173 2.98299 27.3614 3.32269C26.8853 3.67675 26.348 4.07627 25.3115 4.07627C24.2777 4.07627 23.7391 3.67675 23.2643 3.32269C22.8084 2.98299 22.415 2.6907 21.5874 2.6907C21.4192 2.6907 21.2835 2.55853 21.2835 2.39684C21.2835 2.2345 21.4192 2.10298 21.5874 2.10298Z" fill="#FFC225"/>
<path d="M33.0731 3.78751C33.0731 3.94567 32.936 4.07523 32.761 4.07523C32.5969 4.07523 32.4626 3.94567 32.4626 3.78751C32.4626 3.61916 32.5969 3.48698 32.761 3.48698C32.936 3.48698 33.0731 3.61916 33.0731 3.78751ZM31.0923 2.86153C31.228 2.96614 31.2537 3.14781 31.1466 3.27842C31.0516 3.40902 30.8617 3.43501 30.726 3.33039C30.5903 3.24067 30.5618 3.0432 30.6717 2.91416C30.726 2.84886 30.821 2.80799 30.9146 2.80799C30.9688 2.80799 31.038 2.82131 31.0923 2.86153ZM29.0573 2.10298C29.2337 2.10298 29.3693 2.23358 29.3693 2.40337C29.3693 2.56009 29.2337 2.69213 29.0573 2.69213C28.8945 2.69213 28.7575 2.56011 28.7575 2.39019C28.7575 2.23359 28.8945 2.10298 29.0709 2.10298C29.2337 2.10298 29.0709 2.10298 29.0573 2.10298Z" fill="#FFC225"/>
<path d="M25.34 1.38609C25.5028 1.38609 25.6385 1.51525 25.6385 1.68504C25.6507 1.84177 25.5164 1.97237 25.34 1.97237C25.1772 1.97237 25.0415 1.84177 25.0415 1.68504C25.0266 1.52793 25.1636 1.39733 25.34 1.38609ZM23.6699 0.785197L23.6577 0.785197C23.792 0.874919 23.8205 1.05959 23.7242 1.18875C23.6157 1.31936 23.4271 1.34535 23.2914 1.24074C23.168 1.14945 23.1422 0.955096 23.2372 0.837161C23.305 0.757624 23.385 0.718318 23.4813 0.718318C23.5492 0.718318 23.6157 0.733088 23.6699 0.785197ZM27.4293 0.796947C27.5378 0.927547 27.5093 1.1117 27.375 1.21631C27.238 1.31935 27.0494 1.29323 26.9409 1.16368C26.8445 1.03202 26.8595 0.848926 26.9952 0.744311C27.0494 0.705523 27.1159 0.692332 27.1837 0.692332C27.28 0.692332 27.3614 0.733081 27.4293 0.796947ZM21.6349 2.41125e-06C21.8113 0.0133233 21.9483 0.143923 21.9483 0.302081C21.9483 0.470431 21.7977 0.587718 21.6349 0.587718C21.4721 0.587718 21.3243 0.458674 21.3378 0.302081C21.3378 0.132166 21.4721 2.39763e-06 21.6349 2.41125e-06ZM29.3422 0.302081C29.3422 0.458675 29.2052 0.587718 29.0302 0.587718C28.866 0.587718 28.7317 0.458675 28.7317 0.302081C28.7317 0.132167 28.866 3.01628e-06 29.0302 3.03002e-06C29.2052 3.04466e-06 29.3422 0.132167 29.3422 0.302081Z" fill="#FFC225"/>
<path d="M58.972 5.89047C58.972 6.04706 58.835 6.17924 58.6586 6.17924C58.4958 6.17924 58.3615 6.04707 58.3615 5.87716C58.3615 5.72056 58.4958 5.58996 58.6736 5.58996C58.835 5.58996 58.972 5.72056 58.972 5.89047ZM60.7615 5.0298C60.87 5.15883 60.8442 5.34194 60.7086 5.44603C60.5729 5.53784 60.383 5.52623 60.288 5.39406C60.1795 5.26346 60.2066 5.08178 60.3423 4.97768C60.3423 4.97768 60.3423 4.97768 60.3287 4.97768C60.3965 4.93693 60.4508 4.92518 60.5186 4.92518C60.6136 4.92518 60.7086 4.96293 60.7615 5.0298ZM57.0048 4.95013C57.1391 5.05475 57.1676 5.23746 57.0591 5.36806C56.9506 5.49866 56.7606 5.5129 56.6236 5.42004C56.5029 5.31543 56.4757 5.13442 56.5693 5.00225C56.6385 4.93695 56.7322 4.89763 56.8149 4.89763C56.8828 4.89763 56.9506 4.91095 57.0048 4.95013ZM62.6744 4.49406C62.6744 4.66241 62.5401 4.79301 62.3637 4.79301C62.2009 4.79301 62.0652 4.66241 62.0652 4.50582C62.0652 4.34923 62.1873 4.20687 62.3637 4.20687C62.5265 4.20687 62.6744 4.33591 62.6744 4.49406ZM55.2669 4.49406C55.2669 4.66241 55.1326 4.79301 54.9562 4.79301C54.7934 4.79301 54.6564 4.66241 54.6564 4.49406C54.6564 4.3359 54.7934 4.20687 54.9562 4.20687C55.1326 4.20687 55.2669 4.3359 55.2669 4.49406Z" fill="#FFC225"/>
<path d="M66.4202 3.78751C66.4202 3.94568 66.2845 4.07523 66.1082 4.07523C65.9454 4.07523 65.8097 3.94568 65.8097 3.78751C65.8097 3.61916 65.9453 3.48698 66.1203 3.48698C66.2845 3.48698 66.4202 3.61916 66.4202 3.78751ZM64.453 2.84887C64.5886 2.95191 64.6158 3.1345 64.5073 3.2651C64.3987 3.39727 64.2074 3.40902 64.0731 3.3176C63.951 3.21312 63.9225 3.02988 64.0311 2.90084C64.0853 2.83398 64.1817 2.79622 64.2617 2.79622C64.3309 2.79622 64.3987 2.80799 64.453 2.84887ZM62.7165 2.40337C62.7165 2.56009 62.5808 2.69214 62.418 2.69214C62.2416 2.69214 62.1046 2.56009 62.1046 2.40337C62.1046 2.23359 62.2416 2.10299 62.418 2.10299C62.5808 2.10299 62.7165 2.23359 62.7165 2.40337Z" fill="#FFC225"/>
<path d="M54.9644 2.10299C55.9982 2.10299 56.5368 2.50394 57.013 2.85801C57.4675 3.19626 57.8622 3.49013 58.6885 3.49013C59.5147 3.49013 59.9068 3.19626 60.3626 2.85801C60.8388 2.50394 61.3761 2.10299 62.4126 2.10299C62.5808 2.10299 62.7178 2.2345 62.7178 2.39684C62.7178 2.55853 62.5808 2.6907 62.4126 2.6907C61.5864 2.6907 61.1929 2.98299 60.7371 3.32269C60.2609 3.67676 59.7236 4.07628 58.6885 4.07628C57.652 4.07628 57.1147 3.67676 56.6385 3.32269C56.1827 2.98299 55.7906 2.6907 54.9644 2.6907C54.7962 2.6907 54.6591 2.55853 54.6591 2.39684C54.6591 2.2345 54.7962 2.10299 54.9644 2.10299Z" fill="#FFC225"/>
<path d="M51.5361 3.77575C51.5361 3.94566 51.4018 4.07523 51.239 4.07523C51.0762 4.07523 50.9256 3.94566 50.9256 3.77575C50.9256 3.61915 51.0762 3.48698 51.239 3.48698C51.4018 3.48698 51.5361 3.61915 51.5361 3.77575ZM53.3405 2.91417C53.4368 3.0432 53.4083 3.24067 53.274 3.3304C53.1519 3.43501 52.9606 3.40902 52.8534 3.27842C52.7449 3.14781 52.772 2.96615 52.9077 2.87329C52.9606 2.82131 53.0298 2.80799 53.0976 2.80799C53.1926 2.80799 53.274 2.84887 53.3405 2.91417ZM54.9278 2.10299C55.1041 2.10299 55.2412 2.23359 55.2412 2.39019C55.2412 2.56011 55.1041 2.69214 54.9427 2.69214C54.7799 2.69214 54.6307 2.56009 54.6307 2.40337C54.6307 2.23359 54.765 2.10299 54.9278 2.10299Z" fill="#FFC225"/>
<path d="M58.972 1.68504C58.972 1.84177 58.835 1.97237 58.6586 1.97237C58.4958 1.97237 58.3615 1.84177 58.3615 1.68504C58.3615 1.51526 58.4958 1.38609 58.6736 1.38609C58.835 1.38609 58.972 1.51526 58.972 1.68504ZM60.7615 0.837164C60.87 0.955099 60.8442 1.14945 60.7086 1.24074C60.5729 1.34536 60.383 1.31936 60.288 1.18876C60.1795 1.05959 60.2066 0.874922 60.3423 0.7852C60.3423 0.7852 60.3423 0.7852 60.3287 0.7852C60.3965 0.733091 60.4508 0.718321 60.5186 0.718321C60.6136 0.718321 60.7086 0.757627 60.7615 0.837164ZM57.0048 0.744314C57.1391 0.848928 57.1676 1.03203 57.0591 1.16368C56.9506 1.29323 56.7606 1.31936 56.6236 1.21631C56.5029 1.1117 56.4757 0.927549 56.5694 0.796949C56.6385 0.733083 56.7322 0.692335 56.8149 0.692335C56.8828 0.692335 56.9506 0.705526 57.0048 0.744314ZM62.3637 5.81907e-06C62.5265 5.83269e-06 62.6744 0.132177 62.6744 0.288771C62.6744 0.458685 62.5401 0.587721 62.3637 0.587721C62.2009 0.587721 62.0652 0.470434 62.0652 0.302084C62.0652 0.143927 62.1873 5.80431e-06 62.3637 5.81907e-06ZM55.2669 0.302083C55.2669 0.458677 55.1326 0.58772 54.9562 0.58772C54.7934 0.58772 54.6564 0.458677 54.6564 0.302083C54.6564 0.132169 54.7934 5.18565e-06 54.9562 5.19928e-06C55.1326 5.21403e-06 55.2669 0.132169 55.2669 0.302083Z" fill="#FFC225"/>
<path d="M11.7868 66.4655C11.8818 66.4655 11.9903 66.5034 12.0581 66.57C12.126 66.6353 12.1667 66.7254 12.1667 66.8299C12.1667 66.9343 12.126 67.0258 12.0581 67.0911C11.8818 67.236 11.6511 67.223 11.5141 67.0911C11.4476 67.014 11.4056 66.9213 11.4056 66.8299C11.4056 66.7254 11.4476 66.6353 11.529 66.57C11.5819 66.5034 11.6783 66.4655 11.7868 66.4655Z" fill="#FFC225"/>
<path d="M16.793 67.6788C16.793 67.876 16.6166 68.0458 16.4131 68.0458C16.196 68.0458 16.0319 67.876 16.0319 67.6788C16.0319 67.4698 16.196 67.3131 16.4131 67.3131C16.6166 67.3131 16.793 67.4698 16.793 67.6788ZM19.14 67.3784C19.1807 67.5874 19.0301 67.7715 18.828 67.8094C18.6245 67.8486 18.4196 67.7193 18.3803 67.5221C18.3518 67.3262 18.4739 67.1302 18.6909 67.0911C18.7045 67.0911 18.733 67.0911 18.7588 67.0911C18.9365 67.0911 19.0979 67.2086 19.14 67.3784ZM14.1339 67.0911C14.336 67.1302 14.473 67.3262 14.4323 67.5221C14.3916 67.7193 14.1881 67.8486 13.9846 67.8094C13.7797 67.7715 13.6454 67.5874 13.6862 67.3784C13.7255 67.2086 13.8883 67.0911 14.0647 67.0911C14.0796 67.0911 14.1067 67.0911 14.1339 67.0911Z" fill="#FFC225"/>
<path d="M21.0393 66.4655C21.1329 66.4655 21.2415 66.5034 21.3107 66.57C21.3785 66.6353 21.4178 66.7397 21.4178 66.8299C21.4178 66.9213 21.3785 67.0258 21.2957 67.0911C21.175 67.223 20.8901 67.223 20.7544 67.078C20.7002 67.0258 20.6459 66.9343 20.6459 66.8299C20.6459 66.7254 20.7001 66.6353 20.768 66.57C20.8222 66.5034 20.9308 66.4655 21.0393 66.4655Z" fill="#FFC225"/>
<path d="M72.2132 66.4655C72.3217 66.4655 72.4167 66.5034 72.4845 66.583C72.5524 66.6353 72.593 66.7254 72.593 66.8299C72.593 66.9343 72.5523 67.0258 72.4709 67.0911C72.376 67.2086 72.0775 67.236 71.9405 67.078C71.874 67.0258 71.832 66.9213 71.832 66.8299C71.832 66.7254 71.874 66.6353 71.9405 66.57C72.0083 66.5034 72.1047 66.4655 72.2132 66.4655Z" fill="#FFC225"/>
<path d="M67.5991 67.3131C67.804 67.3131 67.9803 67.4698 67.9803 67.6788C67.9803 67.876 67.804 68.0458 67.5991 68.0458C67.3834 68.0458 67.2057 67.8891 67.2057 67.6788C67.2057 67.4698 67.3834 67.3131 67.5855 67.3131C67.804 67.3131 67.5856 67.3131 67.5991 67.3131ZM65.3213 67.0911C65.5248 67.1303 65.6604 67.3262 65.6184 67.5221C65.579 67.7193 65.3755 67.8486 65.1707 67.8094C64.9685 67.7715 64.8315 67.5874 64.8722 67.3784C64.9007 67.2086 65.0635 67.0911 65.2398 67.0911C65.267 67.0911 65.2941 67.0911 65.3213 67.0911ZM70.3125 67.3784C70.3545 67.5743 70.2188 67.7715 70.0153 67.8094C69.8118 67.8486 69.6084 67.7193 69.5663 67.5221C69.527 67.3262 69.6626 67.1303 69.8661 67.0911C69.8933 67.078 69.919 67.078 69.934 67.078C70.1239 67.078 70.2867 67.2086 70.3125 67.3784Z" fill="#FFC225"/>
<path d="M62.9593 66.4655C63.0678 66.4655 63.1641 66.5034 63.2442 66.57C63.2985 66.6353 63.3527 66.7254 63.3527 66.8299C63.3527 66.9343 63.2984 67.0258 63.232 67.0911C63.1221 67.2086 62.8372 67.236 62.6893 67.078C62.635 67.0258 62.5808 66.9343 62.5808 66.8299C62.5808 66.7254 62.6201 66.6353 62.7029 66.57C62.7707 66.5034 62.8657 66.4655 62.9593 66.4655Z" fill="#FFC225"/>
<path d="M27.0074 49.4348C27.1444 49.4348 27.2801 49.487 27.375 49.5772C27.47 49.6686 27.5229 49.7861 27.5229 49.918C27.5229 50.0473 27.47 50.1779 27.3614 50.2694C27.2122 50.4261 26.8446 50.4522 26.656 50.2694C26.5597 50.1779 26.5054 50.0473 26.5054 49.918C26.5054 49.7861 26.5597 49.6686 26.656 49.5772C26.7509 49.487 26.8853 49.4348 27.0074 49.4348Z" fill="#FFC225"/>
<path d="M19.0721 60.0124C19.1264 60.2736 18.9636 60.5361 18.6909 60.6001C18.406 60.6536 18.1347 60.4956 18.0804 60.2344C18.0126 59.9732 18.1889 59.7133 18.4616 59.6467C18.4888 59.6336 18.5281 59.6336 18.5702 59.6336C18.8008 59.6336 19.0179 59.7903 19.0721 60.0124ZM21.3242 59.1373C21.4463 59.3724 21.35 59.6741 21.0936 59.7903C21.0936 59.7903 21.0936 59.7903 21.0787 59.7903C20.8358 59.9079 20.5374 59.8034 20.4153 59.5566C20.2932 59.3202 20.3868 59.0211 20.6459 58.9036C20.7137 58.8761 20.7938 58.8513 20.863 58.8513C21.0529 58.8513 21.2415 58.9558 21.3242 59.1373ZM23.3185 57.7921C23.4936 58.0011 23.4678 58.3145 23.2507 58.4843C23.0201 58.6541 22.7067 58.6149 22.5317 58.4073C22.3553 58.1983 22.3825 57.8835 22.5982 57.715C22.6945 57.6497 22.8152 57.6093 22.9251 57.6093C23.0743 57.6093 23.2222 57.6746 23.3185 57.7921ZM24.9601 56.0551C25.1894 56.2249 25.2179 56.5383 25.0415 56.7473C24.8638 56.9563 24.5531 56.9967 24.3225 56.8256C24.1054 56.6559 24.0634 56.3437 24.2397 56.1348C24.3483 56.0172 24.4989 55.9506 24.6481 55.9506C24.7566 55.9506 24.8638 55.9898 24.9601 56.0551ZM26.1662 54.0177C26.4118 54.1352 26.5203 54.4225 26.3982 54.6707C26.2747 54.9188 25.9776 55.0103 25.7199 54.9058C25.4621 54.7882 25.3658 54.4891 25.4743 54.2397C25.5706 54.0699 25.747 53.9654 25.9356 53.9654C26.0183 53.9654 26.0862 53.9916 26.1662 54.0177ZM26.8595 51.7726C27.1308 51.8379 27.3072 52.0991 27.238 52.359C27.1702 52.6202 26.8988 52.79 26.6289 52.7247C26.3575 52.6725 26.1811 52.3982 26.249 52.137C26.3032 51.915 26.5054 51.7582 26.7374 51.7582C26.7767 51.7582 26.8188 51.7582 26.8595 51.7726Z" fill="#FFC225"/>
<path d="M16.1417 59.8948C16.2774 59.8948 16.4131 59.947 16.508 60.0528C16.5894 60.1168 16.6437 60.2474 16.6437 60.3793C16.6437 60.5086 16.5894 60.6406 16.4931 60.7307C16.3303 60.9148 15.9518 60.9148 15.7754 60.7307C15.6805 60.6406 15.6262 60.5086 15.6262 60.3793C15.6262 60.2618 15.6927 60.1168 15.789 60.0398C15.869 59.947 16.0061 59.8948 16.1417 59.8948Z" fill="#FFC225"/>
<path d="M43.434 25.6049C43.0378 25.3136 42.43 24.6187 42 22.9785C41.5713 24.6187 40.9621 25.3136 40.566 25.6049C40.5823 30.2572 41.0056 34.8058 41.4519 39.6226C41.6405 41.6626 41.8331 43.7288 42 45.8563C42.1668 43.7288 42.3595 41.6626 42.5481 39.6226C42.9958 34.8074 43.4177 30.2582 43.434 25.6049ZM42 17.5637C42.2808 17.5637 42.5087 17.783 42.5087 18.0535C42.5087 24.0367 44.1245 24.8698 44.1395 24.8775C44.343 24.9479 44.4515 25.1218 44.4515 25.3294L44.4515 25.5814C44.4366 30.2882 44.0119 34.8634 43.5615 39.7101C43.0446 45.2882 42.5087 51.0556 42.5087 57.7699C42.5087 58.0403 42.2808 58.2597 42 58.2597C41.7191 58.2597 41.4912 58.0403 41.4912 57.7699C41.4912 51.0556 40.9567 45.2882 40.4385 39.7101C39.9894 34.8634 39.5634 30.2882 39.5485 25.583L39.5485 25.3294C39.5485 25.1218 39.6842 24.9391 39.8863 24.8682C39.8809 24.8682 41.4912 24.031 41.4912 18.0535C41.4912 17.783 41.7191 17.5637 42 17.5637Z" fill="#FFC225"/>
<path d="M42.3785 30.9663C42.3785 31.1749 42.2157 31.332 42 31.332C41.7965 31.332 41.6201 31.1749 41.6201 30.9663C41.6201 30.7713 41.7965 30.6021 42 30.6021C42.2157 30.6021 42.3785 30.7713 42.3785 30.9663ZM42.3785 28.524C42.3785 28.7199 42.2157 28.8893 42 28.8893C41.7965 28.8893 41.6201 28.7199 41.6201 28.524C41.6201 28.3292 41.7965 28.1593 42 28.1593C42.2157 28.1593 42.3785 28.3292 42.3785 28.524ZM42.3785 26.0687C42.3785 26.2778 42.2157 26.4472 42 26.4472C41.7965 26.4472 41.6201 26.2778 41.6201 26.0687C41.6201 25.8742 41.7965 25.7044 42 25.7044C42.2157 25.7044 42.3785 25.8742 42.3785 26.0687Z" fill="#FFC225"/>
<path d="M15.4173 39.7218L17.4035 39.7218C17.5717 39.7218 17.7087 39.8537 17.7087 40.0157C17.7087 40.1776 17.5717 40.3082 17.4035 40.3082L15.4173 40.3082C15.249 40.3082 15.1134 40.1776 15.1134 40.0157C15.1134 39.8537 15.249 39.7218 15.4173 39.7218Z" fill="#FFC225"/>
<path d="M14.3401 41.4954L18.4806 41.4954C18.6489 41.4954 18.7859 41.626 18.7859 41.788C18.7859 41.9499 18.6489 42.0818 18.4806 42.0818L14.3401 42.0818C14.1718 42.0818 14.0362 41.9499 14.0362 41.788C14.0362 41.626 14.1718 41.4954 14.3401 41.4954Z" fill="#FFC225"/>
<path d="M15.4173 43.2664L17.4035 43.2664C17.5717 43.2664 17.7087 43.3983 17.7087 43.5602C17.7087 43.7222 17.5717 43.8528 17.4035 43.8528L15.4173 43.8528C15.249 43.8528 15.1134 43.7222 15.1134 43.5602C15.1134 43.3983 15.249 43.2664 15.4173 43.2664Z" fill="#FFC225"/>
<path d="M66.5965 39.7218L68.5827 39.7218C68.751 39.7218 68.8866 39.8537 68.8866 40.0157C68.8866 40.1776 68.751 40.3082 68.5827 40.3082L66.5965 40.3082C66.4283 40.3082 66.2913 40.1776 66.2913 40.0157C66.2913 39.8537 66.4283 39.7218 66.5965 39.7218Z" fill="#FFC225"/>
<path d="M65.5193 41.4954L69.6599 41.4954C69.8281 41.4954 69.9638 41.626 69.9638 41.788C69.9638 41.9499 69.8281 42.0818 69.6599 42.0818L65.5193 42.0818C65.3511 42.0818 65.2141 41.9499 65.2141 41.788C65.2141 41.626 65.3511 41.4954 65.5193 41.4954Z" fill="#FFC225"/>
<path d="M66.5965 43.2664L68.5827 43.2664C68.751 43.2664 68.8866 43.3983 68.8866 43.5602C68.8866 43.7222 68.751 43.8528 68.5827 43.8528L66.5965 43.8528C66.4283 43.8528 66.2913 43.7222 66.2913 43.5602C66.2913 43.3983 66.4283 43.2664 66.5965 43.2664Z" fill="#FFC225"/>
<path d="M44.1585 65.4559L42.0013 63.3793L39.8456 65.4559C39.7655 69.5804 37.2435 71.8503 32.7244 71.8503L22.3472 71.8503L21.5644 73.0205L62.4383 73.0205L61.6542 71.8503L51.6378 71.8503C47.0305 71.8503 44.2494 69.4654 44.1585 65.4559ZM42.0013 61.9949L45.1733 65.0484L45.1733 65.2509C45.1733 68.8738 47.4687 70.8707 51.6378 70.8707L62.209 70.8707L64.3038 74L19.6989 74L21.7936 70.8707L32.7244 70.8707C36.7768 70.8707 38.8294 68.9809 38.8294 65.2509L38.8294 65.0484L42.0013 61.9949Z" fill="#FFC225"/>
</svg>
