<svg width="84" height="74" viewBox="0 0 84 74" fill="none" xmlns="http://www.w3.org/2000/svg">
<path d="M3.35535 28.455C3.72341 28.455 4.06424 28.2771 4.24957 27.9905C4.53339 27.5458 4.36496 26.9748 3.87248 26.7186C3.39555 26.4717 2.73844 26.632 2.46498 27.0602C2.32761 27.2744 2.29005 27.5248 2.36133 27.7646C2.4339 28.0045 2.60367 28.2058 2.84213 28.3298C2.99895 28.4117 3.1765 28.455 3.35535 28.455ZM3.35794 25.7158C3.70915 25.7158 4.05521 25.8001 4.35848 25.958C5.31362 26.4577 5.64279 27.5657 5.0907 28.4292C4.55934 29.2588 3.28018 29.5689 2.35614 29.0903C1.89347 28.8481 1.56173 28.4585 1.42306 27.9916C1.28439 27.5259 1.35561 27.0392 1.62259 26.6215C1.98028 26.0633 2.64514 25.7158 3.35794 25.7158Z" fill="#FFC225"/>
<path d="M72.5032 64.499C72.8712 64.499 73.2134 64.32 73.3974 64.0333C73.6813 63.5887 73.5115 63.0189 73.019 62.7615C72.5421 62.5134 71.8863 62.6749 71.6128 63.1031C71.329 63.5477 71.4988 64.1176 71.9887 64.3727C72.1468 64.4557 72.323 64.499 72.5032 64.499ZM72.5058 61.7599C72.8544 61.7599 73.2017 61.8441 73.505 62.0021C74.4627 62.5017 74.7919 63.6098 74.2398 64.4721C73.7085 65.3028 72.4267 65.6129 71.5027 65.1344C71.04 64.8922 70.7082 64.5025 70.5709 64.0357C70.4322 63.57 70.5035 63.0832 70.7704 62.6643C71.1268 62.1074 71.7917 61.7599 72.5058 61.7599Z" fill="#FFC225"/>
<path d="M11.4463 19.0663L29.0277 56.9404L75.1366 52.2589L75.2455 53.1318L28.4121 57.8858L28.2722 57.5827L10.5494 19.4045L11.4463 19.0663Z" fill="#FFC225"/>
<path d="M26.1234 55.2075C26.1999 55.3842 26.1234 55.5714 25.9277 55.6404C25.7476 55.7106 25.5402 55.6299 25.4482 55.4649C25.3718 55.2906 25.4625 55.1022 25.6556 55.032C25.6957 55.0203 25.7476 55.0086 25.7994 55.0086C25.9277 55.0086 26.0716 55.0788 26.1234 55.2075ZM25.1903 53.1844C25.268 53.3588 25.176 53.546 24.9959 53.6162C24.8144 53.6864 24.5941 53.6045 24.5164 53.4407C24.4386 53.2652 24.528 53.078 24.7108 53.0078C24.7626 52.9972 24.8002 52.9844 24.852 52.9844C24.9959 52.9844 25.1242 53.0546 25.1903 53.1844ZM24.2442 51.1591C24.3207 51.3357 24.2442 51.5218 24.0628 51.592C23.8684 51.6622 23.6597 51.5814 23.5833 51.4165C23.5042 51.2527 23.5833 51.0537 23.7764 50.9835C23.8165 50.9718 23.8684 50.9601 23.9202 50.9601C24.0628 50.9601 24.1924 51.0303 24.2442 51.1591ZM23.3111 49.136C23.3876 49.3103 23.2981 49.4975 23.1167 49.5677C22.9353 49.6379 22.7149 49.556 22.6359 49.3934C22.5594 49.2284 22.6501 49.0295 22.8316 48.9593C22.8834 48.9488 22.9223 48.9359 22.9742 48.9359C23.1167 48.9359 23.2463 49.0061 23.3111 49.136ZM22.3767 47.1106C22.4557 47.2873 22.3637 47.4733 22.1706 47.5435C21.9879 47.6137 21.7805 47.533 21.7041 47.368C21.6121 47.2042 21.7041 47.0053 21.8985 46.9351C21.9361 46.9234 21.9879 46.9117 22.0397 46.9117C22.1836 46.9117 22.3119 46.9948 22.3767 47.1106ZM21.4319 45.0992C21.5084 45.2619 21.419 45.4491 21.2362 45.5193C21.0561 45.5907 20.8357 45.5193 20.7567 45.345C20.6802 45.18 20.771 44.9811 20.9524 44.9109C21.0042 44.9003 21.0561 44.8875 21.095 44.8875C21.2362 44.8875 21.3801 44.9694 21.4319 45.0992ZM20.4988 43.0621C20.5765 43.2388 20.4846 43.4378 20.2914 43.4951C20.1087 43.5653 19.9026 43.4951 19.8236 43.3196C19.7471 43.1558 19.8236 42.958 20.0193 42.8995C20.0582 42.8749 20.1087 42.8632 20.1606 42.8632C20.3044 42.8632 20.4327 42.9463 20.4988 43.0621ZM19.5527 41.0508C19.6305 41.2134 19.5397 41.4007 19.3583 41.4709C19.1756 41.5422 18.9566 41.4709 18.8788 41.2965C18.7997 41.1315 18.8918 40.9326 19.0719 40.8741C19.1237 40.8519 19.1756 40.839 19.2158 40.839C19.3583 40.839 19.4996 40.9209 19.5527 41.0508ZM18.6196 39.0254C18.6961 39.1904 18.6066 39.3893 18.4239 39.4583C18.2308 39.5285 18.0234 39.4478 17.9444 39.2711C17.8679 39.1073 17.9586 38.9201 18.1401 38.8511C18.179 38.8265 18.2308 38.8148 18.2827 38.8148C18.4239 38.8148 18.5548 38.8979 18.6196 39.0254ZM17.6723 37.0024C17.7513 37.165 17.6722 37.3639 17.4791 37.4224C17.2964 37.4938 17.0761 37.4224 16.9996 37.2481C16.9205 37.0831 17.0126 36.8959 17.1927 36.8257C17.2445 36.8034 17.2964 36.7906 17.3366 36.7906C17.4791 36.7906 17.6204 36.8725 17.6723 37.0024ZM16.7404 34.977C16.8182 35.1408 16.7275 35.3408 16.5318 35.3994C16.3516 35.4801 16.1442 35.3993 16.0665 35.2344C15.9887 35.06 16.0665 34.8717 16.2596 34.8026C16.2998 34.778 16.3516 34.778 16.4035 34.778C16.5447 34.778 16.6756 34.8483 16.7404 34.977ZM15.7943 32.9539C15.8721 33.1165 15.7801 33.3155 15.5999 33.3857C15.4185 33.4559 15.1982 33.374 15.1204 33.1996C15.0427 33.0346 15.1321 32.8474 15.3148 32.7772C15.3666 32.755 15.4185 32.755 15.4561 32.755C15.5999 32.755 15.7425 32.824 15.7943 32.9539ZM14.8599 30.9285C14.939 31.0923 14.8483 31.2924 14.6668 31.3614C14.4724 31.4316 14.2638 31.3509 14.1873 31.1859C14.1082 31.0116 14.2003 30.8232 14.3804 30.753C14.4322 30.7296 14.4724 30.7296 14.5243 30.7296C14.6668 30.7296 14.7964 30.7998 14.8599 30.9285ZM13.9151 28.9055C13.9916 29.0681 13.9151 29.267 13.7207 29.3372C13.5393 29.4074 13.3319 29.3255 13.2399 29.1617C13.1635 28.9862 13.2542 28.799 13.4486 28.7288C13.4875 28.7054 13.5393 28.7054 13.5782 28.7054C13.7207 28.7054 13.8633 28.7756 13.9151 28.9055ZM12.9807 26.8801C13.0598 27.0439 12.9678 27.2428 12.7876 27.313C12.5919 27.3832 12.3846 27.3025 12.3081 27.1375C12.2303 26.9737 12.3198 26.7748 12.5025 26.7046C12.5401 26.6812 12.5919 26.6812 12.6438 26.6812C12.7876 26.6812 12.9159 26.7514 12.9807 26.8801Z" fill="#FFC225"/>
<path d="M34.8195 55.0554C34.8441 55.2437 34.7029 55.4064 34.4955 55.431C34.2998 55.4532 34.1197 55.3245 34.0925 55.149C34.0679 54.9618 34.2104 54.7991 34.4035 54.7745C34.4165 54.7745 34.4437 54.7745 34.4566 54.7745C34.6381 54.7745 34.7923 54.8927 34.8195 55.0554ZM37.2301 54.7863C37.256 54.9735 37.1121 55.1385 36.919 55.149C36.7117 55.1724 36.5302 55.0554 36.5043 54.8682C36.4784 54.6938 36.6197 54.5288 36.8154 54.5066C36.84 54.5066 36.8542 54.4937 36.8672 54.4937C37.0486 54.4937 37.2042 54.6225 37.2301 54.7863ZM39.6406 54.5066C39.6665 54.6938 39.524 54.8565 39.3166 54.8799C39.1222 54.9033 38.9395 54.7746 38.9149 54.5873C38.8877 54.413 39.0315 54.248 39.2246 54.2246C39.2518 54.2246 39.2635 54.2246 39.2765 54.2246C39.4592 54.2246 39.6147 54.3416 39.6406 54.5066ZM42.0512 54.2363C42.0758 54.413 41.9345 54.5756 41.7272 54.6002C41.5315 54.6224 41.3514 54.4937 41.3241 54.3182C41.2995 54.131 41.4421 53.9684 41.6365 53.9438C41.6481 53.9438 41.6753 53.9438 41.6883 53.9438C41.8684 53.9438 42.024 54.062 42.0512 54.2363ZM44.4604 53.9555C44.4877 54.131 44.3438 54.2948 44.1364 54.3182C43.9433 54.3416 43.7606 54.2141 43.736 54.0374C43.7101 53.8502 43.8526 53.6864 44.047 53.6759C44.0716 53.663 44.0846 53.663 44.0989 53.663C44.2803 53.663 44.4358 53.7812 44.4604 53.9555ZM46.8723 53.6759C46.8982 53.8619 46.7556 54.0257 46.56 54.0491C46.3526 54.0737 46.1725 53.9438 46.1465 53.7566C46.1206 53.5823 46.2632 53.4173 46.4563 53.3939C46.4835 53.3939 46.4965 53.3939 46.5081 53.3939C46.6909 53.3939 46.8464 53.5109 46.8723 53.6759ZM49.2828 53.3939C49.3075 53.5823 49.1662 53.7449 48.9718 53.7695C48.7644 53.7917 48.583 53.663 48.5558 53.4886C48.5311 53.3003 48.6724 53.1376 48.8798 53.1131C48.894 53.1131 48.907 53.1131 48.92 53.1131C49.1001 53.1131 49.2556 53.2312 49.2828 53.3939ZM51.6921 53.1247C51.7193 53.3003 51.5755 53.4641 51.3681 53.4886C51.175 53.5109 50.9923 53.3833 50.9676 53.2067C50.9404 53.0312 51.0843 52.8556 51.2787 52.8322C51.2916 52.8322 51.3163 52.8322 51.3305 52.8322C51.512 52.8322 51.6675 52.9504 51.6921 53.1247ZM54.1039 52.8451C54.1286 53.0311 53.9873 53.1961 53.7916 53.2067C53.5843 53.2312 53.4041 53.1131 53.3782 52.9258C53.3522 52.7515 53.4948 52.5865 53.6879 52.5631C53.7151 52.5526 53.7281 52.5526 53.7398 52.5526C53.9225 52.5526 54.078 52.6801 54.1039 52.8451ZM56.5145 52.5631C56.5404 52.7515 56.3965 52.9141 56.2034 52.9387C55.9961 52.9609 55.8146 52.8322 55.7874 52.6462C55.7628 52.4695 55.9041 52.3069 56.0998 52.2823C56.1244 52.2823 56.1387 52.2823 56.1516 52.2823C56.3318 52.2823 56.4886 52.3993 56.5145 52.5631ZM58.9237 52.294C58.9509 52.4695 58.8084 52.6333 58.5997 52.6579C58.4066 52.6801 58.2239 52.5526 58.1993 52.3759C58.1721 52.1887 58.3159 52.0261 58.5103 52.0015C58.5233 52.0015 58.5479 52.0015 58.5621 52.0015C58.7436 52.0015 58.8991 52.1197 58.9237 52.294ZM61.3356 52.0144C61.3602 52.1887 61.219 52.3537 61.0116 52.3876C60.8159 52.3993 60.6357 52.2706 60.6085 52.0951C60.5839 51.9208 60.7265 51.7558 60.9196 51.7335C60.9325 51.7335 60.9597 51.7335 60.9714 51.7335C61.1541 51.7335 61.3084 51.8494 61.3356 52.0144ZM63.7461 51.7335C63.772 51.9207 63.6282 52.0834 63.4351 52.1068C63.2277 52.1302 63.0463 52.0015 63.0204 51.8143C62.9945 51.6388 63.1357 51.4761 63.3314 51.4516C63.356 51.4516 63.3703 51.4516 63.3833 51.4516C63.5634 51.4516 63.7202 51.5686 63.7461 51.7335ZM66.1554 51.4516C66.1826 51.6388 66.04 51.8026 65.8314 51.8271C65.6383 51.8494 65.4555 51.7218 65.4309 51.5346C65.4037 51.3579 65.5476 51.1953 65.742 51.1707C65.7679 51.1707 65.7795 51.1707 65.7925 51.1707C65.9752 51.1707 66.1308 51.2889 66.1554 51.4516ZM68.5673 51.1836C68.5919 51.3579 68.4506 51.5218 68.2432 51.5452C68.0476 51.5686 67.8674 51.441 67.8402 51.2643C67.8156 51.09 67.9581 50.9133 68.1525 50.9028C68.1642 50.8911 68.1914 50.8911 68.2044 50.8911C68.3845 50.8911 68.54 51.0186 68.5673 51.1836Z" fill="#FFC225"/>
<path d="M57.7547 11.5697C57.839 11.5697 57.9219 11.5896 57.9984 11.6282C58.2304 11.7499 58.3107 12.0178 58.1759 12.2284L20.9304 70.4711C20.7943 70.6829 20.4936 70.7484 20.2655 70.6325C20.0335 70.5109 19.9532 70.2429 20.088 70.0323L57.3335 11.7896C57.4243 11.6492 57.5875 11.5697 57.7547 11.5697Z" fill="#FFC225"/>
<path d="M58.973 12.3805C59.0222 12.3805 59.0728 12.3911 59.1181 12.4145C59.2568 12.4882 59.3047 12.6485 59.2257 12.7748L21.9801 71.0175C21.8985 71.1439 21.7196 71.1836 21.5809 71.1146C21.4423 71.0409 21.393 70.8806 21.4734 70.7542L58.719 12.5116C58.7734 12.4273 58.8719 12.3805 58.973 12.3805Z" fill="#FFC225"/>
<path d="M24.4088 63.7209C24.6291 63.7209 24.8287 63.8567 24.8818 64.0579C24.944 64.2943 24.782 64.5306 24.5215 64.5868L19.068 65.7533C18.8023 65.8072 18.5444 65.6621 18.4822 65.4281C18.42 65.1905 18.582 64.9542 18.8438 64.898L24.296 63.7315C24.3336 63.7244 24.3712 63.7209 24.4088 63.7209Z" fill="#FFC225"/>
<path d="M20.8746 62.8013C20.9265 62.9768 20.8085 63.1523 20.6154 63.1991C20.4197 63.2459 20.2266 63.1417 20.1605 62.965C20.123 62.7907 20.2266 62.614 20.4327 62.5672C20.4599 62.5567 20.4845 62.5567 20.5247 62.5567C20.6802 62.5567 20.8228 62.6503 20.8746 62.8013ZM23.2204 62.2279C23.2722 62.4046 23.1556 62.5918 22.9599 62.6374C22.7668 62.6725 22.5724 62.5789 22.5205 62.4046C22.4687 62.2279 22.5841 62.0407 22.7797 61.9939C22.8044 61.9939 22.8316 61.9822 22.8705 61.9822C23.0247 61.9822 23.1802 62.0758 23.2204 62.2279ZM25.5661 61.6674C25.6167 61.8418 25.5 62.0185 25.3069 62.0653C25.1125 62.1121 24.9181 62.0068 24.8663 61.8301C24.8144 61.6546 24.9311 61.4802 25.1242 61.4334C25.1514 61.4217 25.1903 61.4217 25.2162 61.4217C25.3847 61.4217 25.5273 61.5142 25.5661 61.6674Z" fill="#FFC225"/>
<path d="M27.536 58.83C27.7563 58.83 27.9559 58.9658 28.009 59.167C28.0713 59.4034 27.9093 59.6397 27.6488 59.6959L22.1978 60.8624C21.9296 60.9198 21.6729 60.7712 21.6107 60.5372C21.5498 60.3008 21.7118 60.0645 21.9723 60.0083L27.4233 58.8417C27.4609 58.8335 27.4984 58.83 27.536 58.83Z" fill="#FFC225"/>
<path d="M25.6231 64.5294C25.7527 64.5294 25.8707 64.6055 25.9057 64.7237L27.3131 69.466C27.3533 69.6064 27.2626 69.7515 27.107 69.7889C26.9528 69.8228 26.7908 69.7433 26.7481 69.6029L25.3406 64.8606C25.3004 64.7202 25.3911 64.5751 25.5467 64.5376C25.5726 64.5318 25.5985 64.5294 25.6231 64.5294Z" fill="#FFC225"/>
<path d="M23.1387 65.7042C23.359 65.7042 23.5586 65.8399 23.6117 66.0412C23.674 66.2775 23.512 66.5139 23.2515 66.57L17.8005 67.7366C17.5361 67.7904 17.2769 67.6453 17.2147 67.4113C17.1525 67.175 17.3145 66.9386 17.575 66.8825L23.026 65.7159C23.0635 65.7077 23.1024 65.7042 23.1387 65.7042Z" fill="#FFC225"/>
<path d="M24.3544 66.5127C24.4827 66.5127 24.6006 66.5899 24.6356 66.7069L26.043 71.4492C26.0845 71.5897 25.9925 71.7347 25.837 71.7722C25.6802 71.8108 25.5221 71.7266 25.4793 71.5862L24.0718 66.845C24.0317 66.7034 24.1224 66.5583 24.2779 66.5209C24.3038 66.515 24.3284 66.5127 24.3544 66.5127Z" fill="#FFC225"/>
<path d="M28.8709 67.0252C28.9085 67.1656 28.832 67.306 28.6765 67.3411C28.508 67.3774 28.3525 67.2943 28.3123 67.1539C28.2748 67.0135 28.3642 66.8731 28.5197 66.8392C28.5469 66.8263 28.5715 66.8263 28.5988 66.8263C28.7284 66.8263 28.8437 66.9082 28.8709 67.0252ZM28.2475 64.9074C28.2877 65.0478 28.1957 65.1894 28.0402 65.2245C27.8847 65.2584 27.7304 65.1777 27.6916 65.0373C27.6397 64.8969 27.7304 64.7553 27.8847 64.7202C27.9119 64.7085 27.9365 64.7085 27.9637 64.7085C28.092 64.7085 28.2087 64.7915 28.2475 64.9074ZM27.6125 62.7778C27.6644 62.93 27.5749 63.0704 27.4064 63.1055C27.2639 63.1417 27.0954 63.0587 27.0565 62.9183C27.0164 62.7779 27.1084 62.6374 27.2639 62.5918C27.2885 62.5918 27.3157 62.5918 27.3403 62.5918C27.4712 62.5918 27.5879 62.6608 27.6125 62.7778Z" fill="#FFC225"/>
<path d="M28.7504 59.6385C28.88 59.6385 28.9979 59.7158 29.0329 59.8328L30.4403 64.5751C30.4805 64.7155 30.3898 64.8606 30.2343 64.898C30.0814 64.9343 29.9181 64.8536 29.8753 64.712L28.4678 59.9708C28.4277 59.8293 28.5184 59.6842 28.6752 59.6467C28.6998 59.6409 28.7258 59.6385 28.7504 59.6385Z" fill="#FFC225"/>
<path d="M45.089 51.0514H45.0916L47.7432 51.0701C47.9039 51.0713 48.0335 51.1906 48.0322 51.3357C48.0309 51.4796 47.9013 51.5955 47.7406 51.5955H47.7393L45.0864 51.5779C44.9257 51.5767 44.7961 51.4574 44.7974 51.3123C44.7987 51.1684 44.9296 51.0514 45.089 51.0514Z" fill="#FFC225"/>
<path d="M47.2494 47.6933C47.379 47.6933 47.4983 47.7728 47.5307 47.891C47.5721 48.0314 47.4762 48.1754 47.3207 48.2116L44.7585 48.8049C44.6082 48.8446 44.4436 48.7557 44.4034 48.6141C44.3632 48.4737 44.4579 48.3298 44.6134 48.2947L47.1769 47.7015C47.2015 47.6956 47.2248 47.6933 47.2494 47.6933Z" fill="#FFC225"/>
<path d="M45.8044 44.547C45.9055 44.547 46.0065 44.595 46.0597 44.6804C46.1374 44.8079 46.0882 44.9682 45.9482 45.0396L43.6466 46.2038C43.5079 46.2763 43.3277 46.2295 43.25 46.1032C43.1709 45.9768 43.2202 45.8153 43.3615 45.744L45.6618 44.5797C45.7072 44.5575 45.7564 44.547 45.8044 44.547Z" fill="#FFC225"/>
<path d="M43.5092 41.8453C43.5843 41.8453 43.6608 41.8722 43.7178 41.9248C43.8306 42.0302 43.828 42.1963 43.7126 42.2969L41.827 43.9502C41.7116 44.0532 41.5276 44.0485 41.4149 43.9456C41.3021 43.8403 41.3047 43.6741 41.42 43.5735L43.3057 41.9202C43.3627 41.8698 43.4353 41.8453 43.5092 41.8453Z" fill="#FFC225"/>
<path d="M37.0318 38.4696C37.0577 38.4696 37.085 38.472 37.1109 38.4778C37.2651 38.5188 37.3558 38.665 37.313 38.8042L36.6002 41.0683C36.5562 41.2076 36.3942 41.2895 36.2386 41.2509C36.0844 41.2099 35.995 41.0636 36.0378 40.9244L36.7506 38.6603C36.7869 38.5445 36.9035 38.4696 37.0318 38.4696Z" fill="#FFC225"/>
<path d="M33.2915 38.025C33.4328 37.9969 33.5857 38.1443 33.5831 38.2906L33.5482 40.6354C33.5469 40.7793 33.4172 40.8951 33.2578 40.8951C33.1088 40.9221 32.9636 40.7746 32.9662 40.6284L32.9999 38.2835C33.0012 38.1396 33.1321 38.025 33.2915 38.025Z" fill="#FFC225"/>
<path d="M29.5513 38.4696C29.6822 38.4696 29.8014 38.548 29.8338 38.6674L30.4766 40.9314C30.5168 41.0718 30.4222 41.2158 30.2667 41.252C30.1086 41.2871 29.9518 41.2029 29.9129 41.0613L29.2701 38.7972C29.2286 38.6568 29.3245 38.5129 29.48 38.4766C29.5034 38.472 29.528 38.4696 29.5513 38.4696Z" fill="#FFC225"/>
<path d="M26.0664 39.7719C26.1675 39.7719 26.266 39.8199 26.3191 39.9041L27.5944 41.9342C27.6734 42.0606 27.6242 42.222 27.4855 42.2922C27.3481 42.3671 27.1667 42.3215 27.0876 42.194L25.8137 40.165C25.7333 40.0375 25.7826 39.8772 25.9225 39.8058C25.9679 39.7824 26.0171 39.7719 26.0664 39.7719Z" fill="#FFC225"/>
<path d="M37.9325 10.7974C43.0115 10.7974 48.8176 12.1407 55.4582 15.6017C55.6902 15.7222 55.7706 15.9914 55.6358 16.2008C55.501 16.4126 55.2003 16.4805 54.9722 16.3623C33.7983 5.32383 21.8078 16.0896 13.875 23.2119C9.98957 26.6999 7.18247 29.2179 4.62806 27.8851C4.39478 27.7623 4.31568 27.4955 4.44916 27.2849C4.58783 27.0743 4.88726 27.0088 5.11406 27.1234C7.02565 28.1262 9.61373 25.8012 13.1881 22.5894C18.5094 17.812 26.3243 10.7974 37.9325 10.7974Z" fill="#FFC225"/>
<path d="M34.9971 13.925C40.2524 13.925 46.3098 15.3162 53.3069 18.9633C53.5402 19.0839 53.6205 19.353 53.4857 19.5624C53.351 19.7742 53.0503 19.8409 52.8209 19.7239C31.6379 8.67725 19.7393 18.5503 11.8675 25.0793C8.01318 28.2771 5.22552 30.5822 2.68408 29.2611C2.4508 29.1395 2.37169 28.8715 2.50518 28.6621C2.64385 28.4515 2.94327 28.3848 3.17007 28.5006C5.09592 29.508 7.66067 27.3785 11.2091 24.4334C16.3646 20.158 23.8788 13.925 34.9971 13.925Z" fill="#FFC225"/>
<path d="M57.6485 16.8116C57.7314 16.8116 57.8157 16.8303 57.8921 16.8701C79.7089 28.242 75.0848 43.9982 72.3217 53.4126C71.0296 57.8156 70.0965 60.997 72.0094 61.9927C72.2427 62.1144 72.3217 62.3824 72.1882 62.593C72.0522 62.8012 71.7515 62.8703 71.5234 62.7533C68.9664 61.4206 69.9799 57.9677 71.3821 53.1879C74.2476 43.4237 78.5775 28.6667 57.4061 17.6306C57.1728 17.5101 57.0925 17.241 57.2273 17.0304C57.318 16.89 57.4813 16.8116 57.6485 16.8116Z" fill="#FFC225"/>
<path d="M8.62748 22.6912C8.82058 22.7497 8.93852 22.9252 8.88668 23.1019C8.82058 23.2762 8.62747 23.3815 8.43178 23.3347C8.23868 23.2762 8.12073 23.1019 8.18682 22.9252C8.22441 22.7743 8.37992 22.6795 8.53673 22.6795C8.56265 22.6795 8.60027 22.6912 8.62748 22.6912ZM11.2065 22.5625C11.2843 22.7263 11.2195 22.9252 11.0367 23.0083C10.8566 23.089 10.6363 23.0188 10.5443 22.855C10.4548 22.6912 10.5326 22.4923 10.7127 22.4104C10.7646 22.387 10.8164 22.3765 10.8683 22.3765C11.0121 22.3765 11.1404 22.4455 11.2065 22.5625ZM13.1764 21.3C13.3047 21.4392 13.2801 21.651 13.1246 21.7551C12.9678 21.8721 12.7358 21.8487 12.6062 21.7083C12.4882 21.5679 12.5155 21.3585 12.671 21.2403C12.7358 21.1935 12.8122 21.1701 12.9043 21.1701C13.0079 21.1701 13.1116 21.2169 13.1764 21.3ZM15.0038 19.8491C15.1463 19.9766 15.1321 20.1884 14.9766 20.3042C14.8353 20.4341 14.6007 20.4224 14.4724 20.2925C14.3285 20.1521 14.3428 19.9427 14.4841 19.8245C14.5631 19.766 14.6396 19.7309 14.7316 19.7309C14.8353 19.7309 14.939 19.766 15.0038 19.8491ZM16.7793 18.3502C16.9205 18.4801 16.9076 18.6896 16.7663 18.8194C16.6237 18.9353 16.3905 18.9236 16.2479 18.7948C16.1183 18.6673 16.1183 18.4555 16.2725 18.328C16.3386 18.2683 16.4281 18.2449 16.5201 18.2449C16.6108 18.2449 16.7145 18.2812 16.7793 18.3502ZM18.5807 16.8654C18.7233 17.0046 18.7103 17.2164 18.5548 17.3323C18.4122 17.4504 18.1789 17.4376 18.0364 17.31C17.9068 17.1685 17.9197 16.9707 18.0623 16.8408C18.1401 16.7823 18.2165 16.7589 18.3086 16.7589C18.4122 16.7589 18.5159 16.794 18.5807 16.8654ZM20.4327 15.4496C20.5636 15.5889 20.5364 15.8006 20.3821 15.9048C20.2266 16.0218 20.0063 16.0101 19.8767 15.8697C19.7471 15.7293 19.7601 15.5186 19.9156 15.4028H19.9285C19.9921 15.356 20.0711 15.3314 20.1476 15.3314C20.2525 15.3314 20.3679 15.3665 20.4327 15.4496ZM56.346 14.2199V14.2082C56.5145 14.3018 56.5793 14.5007 56.4756 14.6645C56.3836 14.8178 56.1516 14.8763 55.9831 14.7815C55.8004 14.6879 55.7485 14.489 55.8522 14.3381C55.9183 14.2327 56.035 14.1731 56.1645 14.1731C56.2281 14.1731 56.2942 14.1859 56.346 14.2199ZM22.3637 14.1029C22.4804 14.255 22.4428 14.4539 22.2873 14.5721C22.1188 14.6774 21.8842 14.6411 21.7676 14.5007C21.6522 14.3486 21.6911 14.1497 21.8466 14.0338C21.9114 13.9987 21.9879 13.9742 22.0669 13.9742C22.1836 13.9742 22.2873 14.021 22.3637 14.1029ZM54.2076 13.1434C54.3878 13.237 54.4525 13.4359 54.3631 13.588C54.2594 13.753 54.0391 13.8221 53.8706 13.7284C53.6879 13.6477 53.6244 13.4488 53.7151 13.2955C53.7799 13.1785 53.9082 13.1095 54.0391 13.1095C54.091 13.1095 54.1558 13.1212 54.2076 13.1434ZM24.3725 12.886C24.4905 13.0381 24.4386 13.237 24.2701 13.3423C24.2701 13.3423 24.2701 13.3423 24.2701 13.3306C24.1004 13.4359 23.8684 13.3891 23.7647 13.237C23.6597 13.0849 23.6999 12.886 23.8684 12.7807C23.9319 12.7456 23.9967 12.7339 24.0628 12.7339C24.1924 12.7339 24.3077 12.7807 24.3725 12.886ZM52.0161 12.1722C52.1988 12.2436 52.2766 12.4414 52.1846 12.6052C52.1081 12.7702 51.8878 12.8392 51.7063 12.7701C51.5236 12.6871 51.4472 12.4882 51.5236 12.3244C51.5884 12.2074 51.7193 12.1383 51.8606 12.1383C51.9124 12.1383 51.9643 12.1488 52.0161 12.1722ZM26.4863 11.8095C26.5886 11.9616 26.5122 12.1605 26.3437 12.2436C26.1623 12.3372 25.9407 12.2787 25.8512 12.1137C25.7476 11.9511 25.824 11.7522 25.9925 11.6691C26.0586 11.6469 26.1104 11.634 26.1623 11.634C26.3035 11.634 26.4202 11.6937 26.4863 11.8095ZM49.7623 11.2947C49.9554 11.3544 50.0475 11.5533 49.9684 11.7159C49.892 11.8797 49.6846 11.9733 49.4902 11.9031C49.3074 11.8329 49.218 11.6469 49.2958 11.4702C49.3476 11.3415 49.4902 11.2608 49.6315 11.2608C49.6716 11.2608 49.7235 11.2713 49.7623 11.2947ZM28.7024 10.8852C28.7802 11.0618 28.6882 11.2479 28.508 11.3181C28.3123 11.3883 28.1063 11.3076 28.0285 11.1426C27.9508 10.9788 28.0402 10.7916 28.2229 10.7225V10.7097C28.2605 10.698 28.3123 10.6863 28.3642 10.6863C28.508 10.6863 28.6363 10.7693 28.7024 10.8852ZM47.4684 10.5236C47.6628 10.5821 47.7665 10.7693 47.7004 10.932C47.6356 11.1087 47.4283 11.2011 47.2352 11.1426C47.0395 11.0841 46.9358 10.8969 47.0006 10.7331C47.0524 10.5927 47.1963 10.5108 47.3518 10.5108C47.3907 10.5108 47.4283 10.5107 47.4684 10.5236ZM30.9963 10.1714C31.0482 10.3469 30.9445 10.5353 30.7501 10.5821C30.5557 10.6395 30.3483 10.5458 30.2965 10.3703C30.2317 10.196 30.3483 10.0076 30.5427 9.95028H30.5285C30.5687 9.95028 30.6075 9.93858 30.6464 9.93858C30.8006 9.93858 30.9445 10.031 30.9963 10.1714ZM45.1227 9.89177C45.3158 9.93858 45.4324 10.1129 45.3806 10.2896C45.33 10.4639 45.1227 10.5693 44.9283 10.5236C44.7326 10.4768 44.6159 10.3001 44.6678 10.1246C44.7196 9.97251 44.8635 9.87891 45.032 9.87891C45.0566 9.87891 45.0838 9.8789 45.1227 9.89177ZM33.355 9.66829C33.3926 9.84497 33.2643 10.0193 33.0686 10.0544C32.8755 10.0907 32.6798 9.97252 32.6422 9.79818C32.6034 9.6215 32.7317 9.44598 32.9274 9.41205C32.952 9.41205 32.9663 9.41205 32.9922 9.41205C33.1607 9.41205 33.3162 9.51618 33.355 9.66829ZM42.7238 9.41205H42.7121C42.9195 9.43428 43.0478 9.61097 43.0102 9.79818C42.9713 9.97252 42.7886 10.0907 42.5825 10.0544C42.3881 10.0193 42.2585 9.8555 42.2845 9.66829C42.3233 9.51618 42.4789 9.39918 42.6473 9.39918C42.672 9.39918 42.6992 9.39918 42.7238 9.41205ZM40.6126 9.45886C40.5867 9.64607 40.4182 9.77361 40.2109 9.75138C40.0165 9.7385 39.8597 9.57469 39.8869 9.39918C39.8998 9.21314 40.08 9.08326 40.2757 9.10666V9.09496C40.483 9.11954 40.6243 9.28217 40.6126 9.45886ZM35.7643 9.38748C35.7786 9.56299 35.636 9.72681 35.4286 9.73851C35.2342 9.76191 35.0515 9.6332 35.0269 9.44599C35.0126 9.27048 35.1681 9.10666 35.3638 9.08325C35.3755 9.08325 35.3755 9.08325 35.3885 9.08325C35.5842 9.08325 35.7397 9.21314 35.7643 9.38748ZM38.1878 9.31844C38.1878 9.50565 38.0206 9.64607 37.812 9.64607C37.6189 9.64607 37.4504 9.50565 37.4504 9.31844C37.4633 9.13006 37.6189 8.98966 37.8262 8.98966C38.0206 8.98966 38.1878 9.14176 38.1878 9.31844Z" fill="#FFC225"/>
<path d="M74.5159 57.034C74.5159 57.034 74.5158 57.034 74.5029 57.034C74.6441 57.1615 74.6584 57.3721 74.5159 57.5008C74.372 57.6307 74.14 57.6307 73.9962 57.5008C73.8549 57.385 73.8549 57.1615 73.9845 57.0457C74.0622 56.9743 74.1517 56.9404 74.2554 56.9404C74.3474 56.9404 74.4381 56.9743 74.5159 57.034ZM73.7383 55.2543C73.7512 55.4415 73.6074 55.5936 73.4 55.6053C73.2069 55.617 73.0241 55.4778 73.0125 55.3011C72.9995 55.1139 73.1551 54.9618 73.3482 54.9512C73.3624 54.9512 73.3624 54.9512 73.3754 54.9512C73.5685 54.9512 73.724 55.0788 73.7383 55.2543ZM73.5827 52.762C73.7758 52.7983 73.9197 52.9609 73.8795 53.1376C73.8795 53.1376 73.8795 53.1376 73.8795 53.1482C73.8549 53.3237 73.6721 53.4407 73.4661 53.4173C73.2717 53.3939 73.1279 53.2184 73.168 53.044C73.194 52.8791 73.3482 52.762 73.5309 52.762C73.5438 52.762 73.5555 52.762 73.5827 52.762ZM74.0623 50.6208C74.2554 50.6571 74.3863 50.8314 74.3474 51.0069C74.2955 51.1836 74.0998 51.2994 73.9067 51.2643C73.7123 51.2175 73.5827 51.0432 73.6346 50.8665C73.6722 50.7144 73.816 50.6103 73.9845 50.6103C74.0104 50.6103 74.0363 50.6103 74.0623 50.6208ZM74.6066 48.4796C74.7997 48.5159 74.9306 48.6902 74.8787 48.8657C74.8399 49.0529 74.6441 49.1582 74.4381 49.1231C74.2437 49.0763 74.1271 48.902 74.1659 48.7253C74.2035 48.5732 74.3603 48.4679 74.5275 48.4679C74.5547 48.4679 74.5794 48.4679 74.6066 48.4796ZM75.1237 46.3266C75.3194 46.3735 75.4477 46.549 75.4101 46.7245C75.3712 46.9012 75.1755 47.017 74.9682 46.9819C74.7751 46.948 74.6442 46.7607 74.696 46.5841C74.7232 46.4319 74.8787 46.3266 75.0472 46.3266C75.0718 46.3266 75.099 46.3266 75.1237 46.3266ZM75.5643 44.1749C75.76 44.2088 75.8883 44.3726 75.8637 44.5481C75.8235 44.7354 75.6304 44.8535 75.436 44.8173C75.2403 44.7938 75.112 44.6183 75.1379 44.4428C75.1755 44.279 75.3323 44.1749 75.4995 44.1749C75.5267 44.1749 75.5397 44.1749 75.5643 44.1749ZM75.8754 41.9974C76.084 42.022 76.2266 42.1846 76.1993 42.3613C76.1747 42.5473 75.992 42.676 75.7989 42.6538C75.6045 42.6292 75.4477 42.4666 75.4749 42.2899C75.4995 42.1273 75.6563 41.9974 75.8365 41.9974C75.8507 41.9974 75.8637 41.9974 75.8754 41.9974ZM76.0438 39.8094C76.2525 39.8211 76.395 39.9743 76.395 40.1604C76.3821 40.3359 76.2123 40.4763 76.0192 40.4658C75.8119 40.4658 75.6563 40.3137 75.668 40.1264C75.668 39.9498 75.8365 39.8094 76.0322 39.8094H76.0438ZM76.408 37.9372C76.408 38.1128 76.2525 38.266 76.0581 38.2777C75.8507 38.2883 75.6823 38.1362 75.668 37.9606C75.668 37.7734 75.8235 37.6213 76.0322 37.6096C76.2395 37.6096 76.3951 37.75 76.408 37.9372ZM76.1993 35.7141C76.1993 35.7141 76.1993 35.7141 76.1993 35.7258C76.2266 35.9013 76.084 36.0651 75.8883 36.0885C75.6823 36.1119 75.4995 35.9844 75.4749 35.796V35.8077C75.4477 35.6205 75.5915 35.4567 75.7989 35.4333C75.8118 35.4333 75.8235 35.4333 75.8365 35.4333C76.0192 35.4333 76.1747 35.5503 76.1993 35.7141ZM75.7717 33.5261C75.8118 33.7133 75.6952 33.8783 75.4995 33.9251C75.3064 33.9707 75.112 33.8537 75.0602 33.6782C75.02 33.5027 75.1379 33.3272 75.3323 33.2803C75.3583 33.2803 75.3842 33.2687 75.4101 33.2687C75.5786 33.2687 75.7341 33.374 75.7717 33.5261ZM75.0991 31.3848C75.1639 31.5604 75.0602 31.7476 74.8645 31.8061C74.6843 31.8646 74.4757 31.771 74.4122 31.5966C74.3474 31.4316 74.451 31.2456 74.6325 31.1859C74.6714 31.1742 74.7103 31.1625 74.7478 31.1625C74.9034 31.1625 75.0472 31.2573 75.0991 31.3848ZM74.1919 29.3138C74.2683 29.4905 74.1919 29.6765 74.0104 29.7584C73.8277 29.8298 73.6074 29.7584 73.5179 29.5958C73.4402 29.4308 73.5179 29.2319 73.7123 29.1617C73.7512 29.1383 73.803 29.1266 73.8549 29.1266C73.9961 29.1266 74.1271 29.198 74.1919 29.3138ZM73.0514 27.3493C73.1551 27.5014 73.0902 27.6991 72.9205 27.7939C72.752 27.8875 72.52 27.8407 72.4164 27.6757C72.3243 27.5236 72.3762 27.313 72.5589 27.2311C72.6107 27.1972 72.6755 27.1843 72.7403 27.1843C72.8557 27.1843 72.9866 27.2428 73.0514 27.3493ZM71.7165 25.476C71.8318 25.6281 71.7943 25.8399 71.6245 25.9335C71.4703 26.0493 71.2357 26.0142 71.1204 25.8621C71.0037 25.71 71.0426 25.5111 71.2111 25.4069C71.2759 25.359 71.3394 25.3484 71.4184 25.3484C71.5351 25.3484 71.6387 25.3952 71.7165 25.476ZM70.2002 23.7326C70.3285 23.873 70.3156 24.0848 70.16 24.2006C70.0045 24.3176 69.7725 24.2942 69.6429 24.1538C69.512 24.0134 69.5392 23.8145 69.6805 23.6986C69.7595 23.6401 69.836 23.6156 69.928 23.6156C70.0317 23.6156 70.1354 23.6518 70.2002 23.7326ZM68.54 22.0945C68.6839 22.2243 68.6839 22.4338 68.54 22.5625C68.3988 22.6912 68.1642 22.6912 68.0229 22.5625C67.8803 22.4338 67.8803 22.2243 68.0229 22.0945C68.0994 22.0371 68.1914 22.0009 68.2821 22.0009C68.3715 22.0009 68.4765 22.0371 68.54 22.0945ZM66.7516 20.5745C66.9084 20.6904 66.92 20.901 66.7917 21.0414C66.6621 21.1818 66.4276 21.1935 66.272 21.0765V21.066C66.1165 20.9478 66.1035 20.7372 66.2474 20.6085C66.3122 20.5383 66.4159 20.4915 66.5196 20.4915C66.596 20.4915 66.6881 20.5277 66.7516 20.5745ZM64.8724 19.1693C65.0279 19.2746 65.0551 19.4852 64.9385 19.6256C64.8076 19.766 64.5885 19.7906 64.4201 19.6841C64.2645 19.5671 64.2386 19.3682 64.3553 19.2161C64.4317 19.1342 64.5354 19.0991 64.6521 19.0991C64.7311 19.0991 64.8076 19.112 64.8724 19.1693ZM62.9037 17.8483C63.0722 17.9524 63.1111 18.1513 62.9945 18.3034C62.8765 18.4555 62.6562 18.4906 62.4877 18.3865C62.3205 18.2812 62.2804 18.0823 62.3983 17.929C62.4761 17.8366 62.5797 17.7898 62.6964 17.7898C62.7741 17.7898 62.8389 17.812 62.9037 17.8483ZM60.8677 16.6314C60.8677 16.6314 60.8677 16.6314 60.8677 16.6197C61.0362 16.725 61.0881 16.9239 60.9844 17.0749C60.8677 17.227 60.6474 17.2855 60.4802 17.1802C60.3117 17.0749 60.2599 16.8759 60.3636 16.725C60.4401 16.6314 60.558 16.5729 60.6746 16.5729C60.7394 16.5729 60.8159 16.5834 60.8677 16.6314ZM58.7825 15.4836C58.951 15.5772 59.0158 15.7761 58.9121 15.9282C58.8084 16.0932 58.5881 16.14 58.4196 16.0569V16.0464C58.2382 15.9633 58.1721 15.7644 58.2757 15.6017C58.3548 15.4964 58.4714 15.4368 58.5997 15.4368C58.6645 15.4368 58.7164 15.4496 58.7825 15.4836Z" fill="#FFC225"/>
<path d="M55.4984 20.1732C55.5814 20.1732 55.6656 20.1919 55.7408 20.2317C77.5446 31.5978 73.7875 46.8005 71.5441 55.8826C70.4931 60.13 69.7349 63.1979 71.6621 64.2018C71.8941 64.3223 71.9744 64.5915 71.8396 64.8009C71.7036 65.0103 71.4042 65.0794 71.1761 64.9624C68.632 63.6355 69.455 60.3043 70.5942 55.6919C72.9218 46.2716 76.4404 32.0354 55.2548 20.9922C55.0228 20.8717 54.9424 20.6026 55.0772 20.392C55.1679 20.2516 55.3312 20.1732 55.4984 20.1732Z" fill="#FFC225"/>
<path d="M54.17 22.4268C54.2206 22.4268 54.2711 22.4373 54.3165 22.4607C57.2027 23.9642 59.7636 25.6023 61.9266 27.3259C62.0484 27.4218 62.0588 27.5891 61.9525 27.6979C61.8462 27.8068 61.6609 27.8161 61.5417 27.7213C59.4059 26.0201 56.8774 24.403 54.0249 22.9182C53.8862 22.8445 53.8383 22.683 53.9173 22.5578C53.9717 22.4736 54.0702 22.4268 54.17 22.4268Z" fill="#FFC225"/>
<path d="M40.8835 16.3915C40.9133 16.3915 40.9444 16.395 40.9755 16.4056C43.7113 17.2352 46.5613 18.4193 49.4487 19.9228C49.5874 19.9965 49.6353 20.1568 49.5563 20.2832C49.4746 20.4096 49.2945 20.4482 49.1571 20.3803C46.3046 18.892 43.4884 17.7231 40.7902 16.904C40.6373 16.8584 40.5556 16.7086 40.6075 16.5717C40.6476 16.4606 40.7617 16.3915 40.8835 16.3915Z" fill="#FFC225"/>
<path d="M48.8513 14.6621C48.9199 14.6621 48.9873 14.675 49.0534 14.7019C49.0807 14.7136 51.8113 15.8474 54.923 17.4668C58.0386 19.0909 60.1407 20.4786 60.1614 20.4914C60.3765 20.6354 60.4245 20.9103 60.2664 21.1057C60.1057 21.3023 59.8011 21.3421 59.586 21.2005C59.5666 21.1865 57.5033 19.8257 54.437 18.2285C51.3668 16.629 48.675 15.5105 48.6491 15.4999C48.4041 15.3993 48.2979 15.1384 48.4093 14.9184C48.4923 14.7569 48.6672 14.6621 48.8513 14.6621Z" fill="#FFC225"/>
<path d="M61.6298 1.76212C61.714 1.76212 61.7957 1.79372 61.854 1.85573C61.9564 1.96689 61.9408 2.13303 61.8177 2.22663L55.4349 7.04148C55.3131 7.13626 55.1278 7.11987 55.0241 7.00872C54.9217 6.89639 54.9373 6.73142 55.0604 6.63782L61.4432 1.8218C61.4976 1.78084 61.565 1.76212 61.6298 1.76212Z" fill="#FFC225"/>
<path d="M66.4211 4.25904C66.4366 4.25904 66.4535 4.26021 66.4716 4.26255C66.6297 4.28829 66.736 4.42401 66.7075 4.56793L65.2806 11.964C65.2508 12.1067 65.1043 12.1945 64.9424 12.1781C64.7842 12.1523 64.678 12.0166 64.7052 11.8727L66.1334 4.47666C66.158 4.34796 66.2811 4.25904 66.4211 4.25904Z" fill="#FFC225"/>
<path d="M61.1243 7.37847C61.2073 7.37847 61.2915 7.39836 61.3667 7.43697C61.6 7.55866 61.679 7.8266 61.5455 8.03721L59.7882 10.7834C59.6534 10.9952 59.3527 11.0618 59.1246 10.9448C58.8913 10.8243 58.811 10.5552 58.9458 10.3446L60.7018 7.59844C60.7938 7.45803 60.9571 7.37847 61.1243 7.37847Z" fill="#FFC225"/>
<path d="M12.6723 36.6045C12.6891 36.6045 12.7047 36.6057 12.7215 36.608C12.8796 36.6314 12.9872 36.7683 12.96 36.9122L11.5525 44.3118C11.524 44.4545 11.3737 44.5411 11.2156 44.5259C11.0575 44.5025 10.9499 44.3656 10.9771 44.2228L12.3846 36.8221C12.4092 36.6946 12.5336 36.6045 12.6723 36.6045Z" fill="#FFC225"/>
<path d="M7.87451 34.1181C7.95745 34.1181 8.04039 34.1497 8.09741 34.2117C8.20109 34.3229 8.18554 34.489 8.06113 34.5815L1.69392 39.4104C1.5708 39.5075 1.38675 39.4899 1.28436 39.3788C1.18068 39.2676 1.19494 39.1014 1.31936 39.009L7.68659 34.1801C7.74103 34.1368 7.80841 34.1181 7.87451 34.1181Z" fill="#FFC225"/>
<path d="M8.68449 45.1238L10.5831 35.1372L1.98937 41.6534L5.84884 42.7755L8.68449 45.1238ZM11.9906 32.9246L9.34028 46.859L5.27213 43.4892L0 42.0173L11.9906 32.9246Z" fill="#FFC225"/>
<path d="M7.37812 39.7321C7.45976 39.7321 7.54401 39.7497 7.61918 39.7895C7.85246 39.9112 7.93409 40.1791 7.79931 40.3885L6.05102 43.1406C5.91623 43.3512 5.61947 43.4249 5.38749 43.302C5.15421 43.1815 5.07383 42.9136 5.20732 42.7041L6.95692 39.9521C7.04634 39.8105 7.20964 39.7321 7.37812 39.7321Z" fill="#FFC225"/>
<path d="M57.0614 59.5344C57.1456 59.5344 57.2312 59.5672 57.2882 59.6315C57.3893 59.7438 57.3698 59.91 57.2454 60.0013L50.7784 64.7225C50.6527 64.8149 50.4687 64.7962 50.3689 64.6839C50.2678 64.5704 50.2859 64.4054 50.4116 64.313L56.8773 59.5917C56.9318 59.552 56.9966 59.5344 57.0614 59.5344Z" fill="#FFC225"/>
<path d="M61.806 62.1004C61.8242 62.1004 61.8423 62.1015 61.8605 62.105C62.0186 62.132 62.1223 62.2689 62.0925 62.4116L60.5334 69.7877C60.5023 69.9305 60.3454 70.0276 60.1925 69.9972C60.0344 69.9691 59.9307 69.8322 59.9605 69.6895L61.5196 62.3133C61.5468 62.187 61.6686 62.1004 61.806 62.1004Z" fill="#FFC225"/>
<path d="M57.6498 70.553L59.7532 60.6003L51.0272 66.9702L54.8634 68.1578L57.6498 70.553ZM61.206 58.4111L58.2705 72.2964L54.2724 68.861L49.0301 67.299L61.206 58.4111Z" fill="#FFC225"/>
<path d="M56.4523 65.1426C56.5391 65.1426 56.6247 65.1636 56.7024 65.2057C56.9318 65.3309 57.007 65.5989 56.8683 65.8072L55.063 68.5276C54.923 68.7358 54.6223 68.8014 54.3968 68.6785C54.1675 68.5545 54.0923 68.2854 54.2297 68.0771L56.0363 65.3567C56.127 65.2198 56.2877 65.1426 56.4523 65.1426Z" fill="#FFC225"/>
<path d="M31.7856 43.8765C33.7477 43.8765 35.6943 44.4019 37.3506 45.4222C39.5862 46.7982 41.1103 48.9722 41.5328 51.386C41.5755 51.6247 41.3941 51.8494 41.1297 51.8868C40.8589 51.9313 40.6165 51.7605 40.5737 51.5229C40.1862 49.315 38.8475 47.4054 36.8037 46.1464C34.4476 44.6979 31.437 44.3562 28.753 45.235C28.5041 45.318 28.2216 45.201 28.1309 44.9717C28.0389 44.7447 28.1698 44.492 28.4212 44.4101C29.5124 44.052 30.6516 43.8765 31.7856 43.8765Z" fill="#FFC225"/>
<path d="M42.357 33.2675C42.4413 33.2675 42.5242 33.2874 42.6007 33.326L45.6553 34.9185C45.8886 35.0413 45.9677 35.3081 45.8342 35.5187C45.6968 35.7305 45.3974 35.7972 45.1693 35.6802L42.1147 34.0865C41.8814 33.9648 41.8011 33.6969 41.9358 33.4875C42.0266 33.347 42.1898 33.2675 42.357 33.2675Z" fill="#FFC225"/>
<path d="M42.6577 31.4351C42.7406 31.4351 42.8249 31.4539 42.9 31.4936L47.2624 33.7671C47.4956 33.8888 47.576 34.1567 47.4412 34.3673C47.3064 34.578 47.0057 34.6458 46.7764 34.5276L42.4141 32.2542C42.1808 32.1337 42.1017 31.8645 42.2352 31.6539C42.3272 31.5135 42.4905 31.4351 42.6577 31.4351Z" fill="#FFC225"/>
<path d="M44.266 30.2826C44.349 30.2826 44.4332 30.3025 44.5084 30.3411L47.5643 31.9348C47.7963 32.0565 47.8767 32.3244 47.7419 32.5338C47.6071 32.7456 47.3077 32.8123 47.0783 32.6953L44.0224 31.1029C43.7904 30.98 43.7101 30.7132 43.8448 30.5026C43.9356 30.3622 44.0989 30.2826 44.266 30.2826Z" fill="#FFC225"/>
<path d="M28.3642 22.6912C28.4432 22.6912 28.5197 22.7158 28.5715 22.7743C28.6247 22.8211 28.6635 22.8784 28.6635 22.9486C28.6635 23.0305 28.6247 23.089 28.5715 23.1358C28.4432 23.2411 28.2605 23.2294 28.1581 23.1475C28.1063 23.089 28.0803 23.0305 28.0803 22.9486C28.0803 22.8784 28.1063 22.8211 28.1581 22.7743C28.2229 22.7158 28.2877 22.6912 28.3642 22.6912Z" fill="#FFC225"/>
<path d="M26.5757 22.6222C26.6029 22.7743 26.4863 22.9018 26.3165 22.9252C26.3165 22.9252 26.3165 22.9252 26.3165 22.9147C26.1623 22.9369 26.0197 22.8433 25.9925 22.6912C25.9796 22.5508 26.0845 22.4232 26.24 22.3987C26.2517 22.3987 26.2647 22.3987 26.2789 22.3987C26.4345 22.3987 26.5511 22.4923 26.5757 22.6222Z" fill="#FFC225"/>
<path d="M24.204 22.1061C24.2831 22.1061 24.3595 22.1307 24.4127 22.1892C24.4645 22.2243 24.5034 22.2933 24.5034 22.3636C24.5034 22.4338 24.4762 22.4923 24.4243 22.5508C24.2701 22.669 24.1003 22.6561 23.9967 22.5508C23.9461 22.504 23.9202 22.4338 23.9202 22.3636C23.9202 22.2933 23.9461 22.2243 24.0109 22.1775C24.0485 22.1307 24.1276 22.1061 24.204 22.1061Z" fill="#FFC225"/>
<path d="M28.3655 22.6888C28.4147 22.6888 28.4653 22.7006 28.5119 22.724C29.4476 23.213 29.7185 23.8074 29.9569 24.3328C30.1902 24.8441 30.3898 25.2864 31.1544 25.6842C31.9204 26.0856 32.444 26.0201 33.0505 25.944C33.6726 25.8679 34.3802 25.7825 35.3146 26.2716C35.4533 26.343 35.5012 26.5045 35.4209 26.6297C35.3405 26.7572 35.1604 26.7993 35.023 26.7256C34.2584 26.3278 33.7348 26.3921 33.1282 26.467C32.5062 26.5407 31.8011 26.6273 30.8628 26.1406C29.9258 25.6515 29.655 25.0571 29.4178 24.5317C29.1845 24.0204 28.985 23.5781 28.2203 23.1803C28.0817 23.1077 28.0324 22.9463 28.1127 22.8211C28.1672 22.7357 28.2657 22.6888 28.3655 22.6888Z" fill="#FFC225"/>
<path d="M37.812 29.1979C37.8781 29.1979 37.9558 29.2202 38.0077 29.267C38.0725 29.3255 38.0984 29.3969 38.0984 29.4542C38.0984 29.5373 38.0725 29.6063 38.0077 29.6531C37.9429 29.7233 37.7225 29.7467 37.6046 29.6426C37.5541 29.5958 37.5152 29.5244 37.5152 29.4542C37.5152 29.3969 37.5398 29.3372 37.5917 29.2787C37.6707 29.2202 37.7355 29.1979 37.812 29.1979Z" fill="#FFC225"/>
<path d="M36.7635 27.8746C36.8283 28.015 36.7505 28.1671 36.595 28.2139C36.4525 28.2736 36.284 28.2139 36.2192 28.0747C36.1544 27.9448 36.2321 27.7939 36.3747 27.7354C36.4123 27.7225 36.4525 27.7108 36.4914 27.7108C36.608 27.7108 36.7117 27.7822 36.7635 27.8746Z" fill="#FFC225"/>
<path d="M35.1682 26.2365C35.2472 26.2365 35.3237 26.2728 35.3755 26.3196C35.4286 26.3652 35.4675 26.4354 35.4675 26.4939C35.4675 26.5653 35.4286 26.6343 35.3755 26.6811C35.2602 26.7865 35.0645 26.7865 34.9621 26.6811C34.9103 26.6343 34.8714 26.5653 34.8714 26.4939C34.8714 26.4354 34.9103 26.3652 34.9621 26.3196C35.0126 26.2728 35.0917 26.2365 35.1682 26.2365Z" fill="#FFC225"/>
<path d="M34.1067 28.1554C34.248 28.2268 34.2998 28.3894 34.2234 28.5193C34.1443 28.6352 33.9642 28.682 33.8203 28.6129C33.6791 28.5415 33.6402 28.3789 33.7166 28.249C33.7685 28.1671 33.8605 28.1203 33.9642 28.1203C34.016 28.1203 34.0678 28.1332 34.1067 28.1554ZM32.383 28.0396C32.4077 28.18 32.2923 28.3075 32.1238 28.3321C31.9683 28.3426 31.8245 28.2373 31.7998 28.0969C31.7869 27.9565 31.9035 27.8278 32.059 27.8044C32.072 27.8044 32.0837 27.8044 32.0966 27.8044C32.2405 27.8044 32.3701 27.898 32.383 28.0396ZM30.2965 27.7225C30.4391 27.7822 30.5155 27.9343 30.452 28.0747C30.3872 28.2022 30.2188 28.2736 30.0762 28.2139C29.9207 28.1554 29.8559 28.0033 29.9207 27.8629C29.9595 27.7693 30.0632 27.7108 30.1799 27.7108C30.2187 27.7108 30.2563 27.7108 30.2965 27.7225ZM29.0005 26.7174C29.0783 26.845 29.0264 27.0099 28.8839 27.0673C28.74 27.1375 28.5715 27.1035 28.4951 26.9631C28.416 26.8332 28.4679 26.6811 28.6117 26.6121C28.6506 26.5875 28.7024 26.577 28.7543 26.577C28.8566 26.577 28.9487 26.6238 29.0005 26.7174ZM28.0402 25.1249C28.1581 25.2303 28.1581 25.3952 28.0402 25.5005C27.9119 25.5941 27.7304 25.5941 27.6267 25.4877C27.5101 25.3824 27.5231 25.2185 27.6397 25.1144C27.6916 25.0664 27.768 25.043 27.8341 25.043C27.9119 25.043 27.9884 25.0664 28.0402 25.1249Z" fill="#FFC225"/>
<path d="M33.9655 28.1203C34.0147 28.1203 34.0653 28.132 34.1106 28.1543C35.0476 28.6433 35.3185 29.2377 35.5557 29.7631C35.789 30.2744 35.9885 30.7167 36.7532 31.1133C36.8918 31.1871 36.9411 31.3485 36.8607 31.4737C36.7791 31.6001 36.6002 31.6399 36.4616 31.5709C35.5259 31.0818 35.255 30.4874 35.0165 29.962C34.7832 29.4519 34.5837 29.0096 33.819 28.6117C33.6803 28.538 33.6324 28.3777 33.7114 28.2514C33.7659 28.1671 33.8644 28.1203 33.9655 28.1203Z" fill="#FFC225"/>
<path d="M28.5988 29.4167C28.648 29.4167 28.6986 29.4285 28.7439 29.4519C29.5099 29.852 30.0334 29.7877 30.64 29.7116C31.2633 29.6356 31.9696 29.5513 32.9053 30.0381C33.0453 30.1106 33.0933 30.2721 33.0129 30.3973C32.9326 30.5236 32.7511 30.5646 32.615 30.4944C31.8504 30.0942 31.3255 30.1597 30.719 30.2346C30.0956 30.3083 29.3906 30.3949 28.4536 29.9082C28.3137 29.8356 28.2657 29.6742 28.346 29.549C28.4005 29.4636 28.499 29.4167 28.5988 29.4167Z" fill="#FFC225"/>
<path d="M35.4027 32.9644C35.4805 32.9644 35.5583 33.0007 35.6101 33.0475C35.6606 33.0814 35.6995 33.1528 35.6995 33.2218C35.6995 33.3049 35.6606 33.3622 35.6101 33.409C35.4805 33.5261 35.2991 33.5144 35.1954 33.409C35.1435 33.3622 35.1163 33.2932 35.1163 33.2218C35.1163 33.1528 35.1435 33.0814 35.2083 33.0346C35.2602 32.9878 35.3237 32.9644 35.4027 32.9644Z" fill="#FFC225"/>
<path d="M34.3517 31.6434C34.4165 31.7838 34.34 31.9359 34.1962 31.9932C34.0407 32.0518 33.8722 31.9827 33.8086 31.8528C33.8086 31.8528 33.8086 31.8528 33.8086 31.8423C33.7555 31.7124 33.8203 31.5603 33.9758 31.5018C34.0031 31.4913 34.0406 31.4784 34.0795 31.4784C34.1962 31.4784 34.2999 31.5498 34.3517 31.6434Z" fill="#FFC225"/>
<path d="M32.7589 30.0041C32.8367 30.0041 32.9274 30.0287 32.9662 30.0872C33.0181 30.134 33.0557 30.203 33.0557 30.2615C33.0557 30.3317 33.0181 30.402 32.9662 30.4488C32.8885 30.5424 32.6423 30.5541 32.5515 30.437C32.4997 30.4019 32.4725 30.3317 32.4725 30.2615C32.4725 30.203 32.4997 30.134 32.5515 30.0872C32.6034 30.0287 32.6798 30.0041 32.7589 30.0041Z" fill="#FFC225"/>
<path d="M36.3229 24.4346C36.4007 24.4346 36.4784 24.4709 36.5302 24.5177C36.5821 24.5645 36.608 24.6335 36.608 24.7037C36.608 24.7739 36.5821 24.8324 36.5302 24.8909C36.4266 24.9845 36.2438 24.9845 36.1155 24.8909C36.0507 24.8324 36.0235 24.7634 36.0235 24.7037C36.0235 24.6335 36.0507 24.5762 36.1026 24.5177C36.1674 24.4709 36.2438 24.4346 36.3229 24.4346Z" fill="#FFC225"/>
<path d="M34.5344 24.3644C34.5474 24.5177 34.4437 24.6452 34.2882 24.6698C34.1197 24.692 33.9758 24.5867 33.9512 24.4463C33.924 24.2942 34.0406 24.1655 34.1962 24.1421C34.2104 24.1421 34.2233 24.1421 34.2363 24.1421C34.3918 24.1421 34.5085 24.2369 34.5344 24.3644ZM32.304 23.8858C32.4478 23.9666 32.4997 24.1187 32.4206 24.2474C32.3312 24.3773 32.1627 24.4112 32.0202 24.341C31.8763 24.272 31.8245 24.107 31.9165 23.9794C31.9683 23.8964 32.072 23.8496 32.1627 23.8496C32.2146 23.8496 32.2664 23.8613 32.304 23.8858ZM31.1117 22.5391V22.5508C31.1765 22.6795 31.1 22.8316 30.9562 22.8901C30.8006 22.9369 30.6321 22.8784 30.5686 22.738C30.5686 22.738 30.5686 22.738 30.5686 22.7497C30.5155 22.6093 30.5803 22.4572 30.7358 22.3987C30.763 22.387 30.8006 22.3765 30.8395 22.3765C30.9561 22.3765 31.0741 22.4338 31.1117 22.5391Z" fill="#FFC225"/>
<path d="M29.5189 20.8893C29.5967 20.8893 29.6602 20.9139 29.7263 20.9607C29.7781 21.0192 29.804 21.0882 29.804 21.1596C29.804 21.2169 29.7781 21.2871 29.7263 21.3339C29.6083 21.4392 29.4399 21.4392 29.3245 21.3468C29.2468 21.2754 29.2195 21.2169 29.2195 21.1596C29.2195 21.0882 29.2468 21.0297 29.2986 20.9712C29.3634 20.9139 29.4399 20.8893 29.5189 20.8893Z" fill="#FFC225"/>
<path d="M36.3203 24.4358C36.3696 24.4358 36.4201 24.4475 36.4654 24.4709C37.4025 24.96 37.6733 25.5544 37.9131 26.0786C38.1438 26.5899 38.3447 27.0322 39.1093 27.43C39.2493 27.5037 39.2972 27.664 39.2169 27.7904C39.1365 27.9167 38.9564 27.9554 38.819 27.8875C37.882 27.3984 37.6111 26.804 37.3726 26.2798C37.1407 25.7673 36.9398 25.325 36.1751 24.9272C36.0352 24.8547 35.9872 24.6932 36.0676 24.568C36.122 24.4826 36.2205 24.4358 36.3203 24.4358Z" fill="#FFC225"/>
<path d="M33.311 22.0488C33.3603 22.0488 33.4108 22.0605 33.4561 22.0839C34.2221 22.4841 34.7457 22.4198 35.3522 22.3437C35.9743 22.2665 36.6819 22.1834 37.6176 22.6702C37.7563 22.7427 37.8055 22.9042 37.7252 23.0294C37.6435 23.1557 37.4634 23.1967 37.326 23.1265C36.5627 22.7275 36.0378 22.7918 35.4299 22.8667C34.8092 22.9404 34.1015 23.0282 33.1645 22.5403C33.0259 22.4677 32.9779 22.3063 33.057 22.1811C33.1114 22.0956 33.2112 22.0488 33.311 22.0488Z" fill="#FFC225"/>
<path d="M40.1202 25.5941C40.1837 25.5941 40.2627 25.6164 40.3146 25.6632C40.3794 25.7345 40.404 25.793 40.404 25.8621C40.404 25.9206 40.3793 25.9919 40.3275 26.0388C40.1966 26.1546 40.0035 26.1429 39.8998 26.0388C39.848 25.9919 39.8221 25.9334 39.8221 25.8621C39.8221 25.793 39.8596 25.7217 39.9115 25.6749C39.9763 25.6164 40.0424 25.5941 40.1202 25.5941Z" fill="#FFC225"/>
<path d="M39.0562 24.2837C39.1223 24.4112 39.0561 24.5645 38.9006 24.623C38.7594 24.6803 38.5909 24.623 38.5261 24.4814C38.46 24.341 38.539 24.1889 38.6803 24.1316C38.7205 24.1187 38.7594 24.1187 38.784 24.1187C38.9006 24.1187 39.0186 24.1784 39.0562 24.2837Z" fill="#FFC225"/>
<path d="M37.4763 22.6327C37.5541 22.6327 37.6318 22.669 37.6837 22.7158C37.7355 22.7626 37.7602 22.8316 37.7602 22.9018C37.7602 22.9615 37.7355 23.0188 37.6966 23.0773C37.5281 23.2072 37.3727 23.1826 37.2677 23.089C37.2158 23.0305 37.1782 22.972 37.1782 22.9018C37.1782 22.8211 37.2158 22.7497 37.2677 22.7029C37.3078 22.669 37.3843 22.6327 37.4763 22.6327Z" fill="#FFC225"/>
<path d="M60.9844 41.506C61.0764 41.506 61.1541 41.5305 61.206 41.589C61.2436 41.623 61.2837 41.6932 61.2837 41.7634C61.2837 41.8347 61.2565 41.9038 61.1917 41.9506C61.088 42.0442 60.9079 42.0559 60.7913 41.9623C60.7265 41.8921 60.7005 41.8347 60.7005 41.7634C60.7005 41.6932 60.7265 41.6358 60.7783 41.589C60.8431 41.5305 60.9196 41.506 60.9844 41.506Z" fill="#FFC225"/>
<path d="M63.3561 42.0219C63.3833 42.174 63.2666 42.3016 63.1111 42.325V42.3144C62.9556 42.3367 62.8001 42.2314 62.7871 42.091C62.7599 41.9506 62.8765 41.823 63.0321 41.7985C63.0463 41.7985 63.0592 41.7985 63.0722 41.7985C63.2148 41.7985 63.3444 41.892 63.3561 42.0219Z" fill="#FFC225"/>
<path d="M65.1588 42.091C65.2365 42.091 65.3 42.1155 65.3661 42.174C65.4037 42.208 65.4439 42.2782 65.4439 42.3484C65.4439 42.4198 65.418 42.4888 65.3661 42.5356C65.2236 42.6409 65.0551 42.6292 64.9514 42.5473C64.8996 42.4888 64.8594 42.4198 64.8594 42.3484C64.8594 42.2782 64.8996 42.208 64.9514 42.1612C65.0032 42.1156 65.0797 42.091 65.1588 42.091Z" fill="#FFC225"/>
<path d="M54.1882 37.9548C54.2374 37.9548 54.288 37.9665 54.3333 37.9887C55.0993 38.39 55.6241 38.3257 56.2307 38.2496C56.8514 38.1736 57.5565 38.087 58.4948 38.5749C59.4318 39.064 59.7027 39.6596 59.9411 40.1838C60.1731 40.6962 60.374 41.1385 61.1373 41.5364C61.2773 41.6089 61.3252 41.7704 61.2449 41.8956C61.1645 42.0219 60.9844 42.0629 60.847 41.9927C59.91 41.5036 59.6392 40.9092 59.402 40.3838C59.1687 39.8725 58.9691 39.4302 58.2045 39.0324C57.4399 38.6346 56.9176 38.6978 56.3084 38.7715C55.6851 38.8475 54.98 38.933 54.043 38.4462C53.9031 38.3737 53.8551 38.2122 53.9355 38.0858C53.9899 38.0016 54.0884 37.9548 54.1882 37.9548Z" fill="#FFC225"/>
<path d="M51.5366 35.0015C51.6286 35.0015 51.6921 35.0238 51.7582 35.0706C51.81 35.1291 51.8359 35.2004 51.8359 35.2578C51.8359 35.3163 51.81 35.3876 51.7582 35.4333C51.6156 35.562 51.4471 35.5397 51.3435 35.4461C51.2787 35.3993 51.2514 35.328 51.2514 35.2578C51.2514 35.1876 51.2916 35.1174 51.3435 35.0706C51.3823 35.0238 51.4601 35.0015 51.5366 35.0015Z" fill="#FFC225"/>
<path d="M53.1436 36.6384C53.1436 36.6384 53.1436 36.6384 53.1319 36.6384C53.1954 36.7671 53.1319 36.9193 52.9764 36.9778C52.8326 37.0363 52.6641 36.9778 52.6006 36.8374C52.5358 36.7098 52.6123 36.5448 52.7561 36.498C52.795 36.4863 52.8326 36.4746 52.8714 36.4746C52.9881 36.4746 53.0918 36.5331 53.1436 36.6384Z" fill="#FFC225"/>
<path d="M54.1804 37.9489C54.2595 37.9489 54.3359 37.9852 54.402 38.032C54.4526 38.0788 54.4798 38.1478 54.4798 38.2192C54.4798 38.2882 54.4396 38.3585 54.3877 38.4053C54.3113 38.4872 54.1039 38.5117 53.9873 38.4053C53.9225 38.3585 53.8966 38.2882 53.8966 38.2192C53.8966 38.1478 53.9225 38.0893 53.9743 38.0425C54.0521 37.9852 54.1156 37.9489 54.1804 37.9489Z" fill="#FFC225"/>
<path d="M61.7361 39.236C61.854 39.3425 61.8397 39.5051 61.7244 39.5987C61.6078 39.704 61.4263 39.704 61.3084 39.5987C61.206 39.4946 61.206 39.3179 61.3226 39.2243C61.3874 39.1775 61.4522 39.1553 61.53 39.1553C61.6078 39.1553 61.6842 39.1775 61.7361 39.236ZM60.8677 37.75C60.9468 37.8799 60.895 38.0425 60.7524 38.1128C60.6085 38.183 60.4284 38.1362 60.3636 38.0074C60.2845 37.8799 60.3364 37.7149 60.4802 37.6447C60.5191 37.6213 60.5709 37.6096 60.6085 37.6096C60.7122 37.6096 60.8159 37.6681 60.8677 37.75ZM59.2879 36.5109C59.4434 36.5694 59.5082 36.7204 59.4434 36.8502C59.3786 36.9895 59.2102 37.0491 59.0676 36.9895V37.0024C58.9237 36.9427 58.8473 36.7906 58.9121 36.6502C58.951 36.5577 59.0676 36.4864 59.1842 36.4864C59.2102 36.4864 59.2477 36.498 59.2879 36.5109ZM57.5513 36.6162C57.5759 36.7672 57.4606 36.8959 57.3037 36.9193C57.1366 36.931 56.994 36.8257 56.9681 36.6853C56.9551 36.5448 57.0718 36.4044 57.2273 36.3927C57.2403 36.3927 57.2519 36.3927 57.2662 36.3927C57.4074 36.3927 57.5383 36.4863 57.5513 36.6162ZM55.5425 36.1119C55.6721 36.1821 55.7239 36.3459 55.6462 36.4641C55.5684 36.5916 55.387 36.6385 55.2444 36.5694C55.1148 36.4863 55.063 36.3237 55.1394 36.2055C55.1926 36.1248 55.2963 36.078 55.3999 36.078C55.4388 36.078 55.4907 36.078 55.5425 36.1119Z" fill="#FFC225"/>
<path d="M52.7509 33.1107C52.8002 33.1107 52.8507 33.1224 52.8961 33.1458C53.8331 33.6349 54.104 34.2304 54.3411 34.7546C54.5744 35.2659 54.774 35.7082 55.5386 36.1061C55.6786 36.1798 55.7265 36.3401 55.6462 36.4664C55.5645 36.5928 55.3844 36.6314 55.247 36.5636C54.3113 36.0745 54.0404 35.4789 53.802 34.9547C53.57 34.4422 53.3691 33.9999 52.6045 33.6021C52.4658 33.5296 52.4179 33.3681 52.4969 33.2429C52.5513 33.1587 52.6511 33.1107 52.7509 33.1107Z" fill="#FFC225"/>
<path d="M56.5974 34.1871C56.648 34.1871 56.6985 34.1988 56.7439 34.2222C57.5111 34.6224 58.0321 34.558 58.6399 34.482C59.2607 34.4071 59.967 34.3217 60.904 34.8084C61.0427 34.881 61.0906 35.0424 61.0116 35.1676C60.9286 35.294 60.7498 35.3338 60.6124 35.2648C59.8478 34.8658 59.3255 34.9313 58.7164 35.005C58.0956 35.0787 57.3906 35.1665 56.4523 34.6786C56.3136 34.606 56.2656 34.4445 56.3447 34.3193C56.3991 34.2339 56.4976 34.1871 56.5974 34.1871Z" fill="#FFC225"/>
<path d="M53.9601 31.2327C54.0392 31.2327 54.1039 31.2573 54.1674 31.3041C54.2206 31.3509 54.2465 31.4199 54.2465 31.4913C54.2465 31.5603 54.2206 31.6305 54.1558 31.6773C54.0262 31.7838 53.8564 31.7709 53.754 31.6773C53.6879 31.6305 53.6633 31.5603 53.6633 31.4913C53.6633 31.4199 53.6879 31.3509 53.754 31.3041C53.8046 31.2573 53.8707 31.2327 53.9601 31.2327Z" fill="#FFC225"/>
<path d="M55.5425 32.8708C55.6073 33.0124 55.5282 33.1633 55.387 33.2101C55.2444 33.2686 55.0759 33.2101 55.0111 33.0697C54.9463 32.941 55.0241 32.7772 55.1667 32.7304C55.2042 32.7199 55.2444 32.7082 55.2833 32.7082C55.4 32.7082 55.5036 32.7667 55.5425 32.8708Z" fill="#FFC225"/>
<path d="M56.5922 34.193C56.67 34.193 56.7478 34.2176 56.7996 34.2632C56.8644 34.3229 56.8903 34.3919 56.8903 34.4504C56.8903 34.5218 56.8644 34.5791 56.8125 34.6376C56.67 34.7429 56.5002 34.7312 56.3965 34.6376C56.3317 34.5908 56.3071 34.5218 56.3071 34.4504C56.3071 34.3802 56.3317 34.3229 56.3965 34.2632C56.4354 34.2176 56.5145 34.193 56.5922 34.193Z" fill="#FFC225"/>
<path d="M53.0399 39.7508C53.106 39.7508 53.1838 39.7871 53.2486 39.8339C53.3004 39.8807 53.3263 39.9497 53.3263 40.0211C53.3263 40.0902 53.3004 40.1604 53.2356 40.2072C53.1708 40.2891 52.9505 40.3136 52.8326 40.2072C52.782 40.1604 52.7431 40.0902 52.7431 40.0211C52.7431 39.9614 52.7678 39.8912 52.8196 39.8444C52.8987 39.7754 52.9764 39.7508 53.0399 39.7508Z" fill="#FFC225"/>
<path d="M58.7825 41.9751C58.8473 42.1155 58.7825 42.2676 58.6269 42.325C58.4844 42.373 58.303 42.3144 58.2511 42.174C58.1863 42.0442 58.2641 41.892 58.4066 41.8347C58.4442 41.823 58.4844 41.8101 58.5233 41.8101C58.627 41.8101 58.7436 41.8815 58.7825 41.9751ZM57.3439 40.3721C57.4722 40.4412 57.5241 40.6061 57.4476 40.7337C57.3685 40.8624 57.1884 40.9104 57.0588 40.8273H57.0445C56.9162 40.7582 56.8644 40.6061 56.9421 40.4763C56.994 40.3827 57.0964 40.3359 57.2001 40.3359C57.2402 40.3359 57.2921 40.3476 57.3439 40.3721ZM55.4116 40.2774C55.4246 40.4189 55.3222 40.5593 55.1524 40.5699C54.9982 40.5933 54.8556 40.488 54.8284 40.3476C54.8038 40.2071 54.9204 40.0679 55.0876 40.055C55.0876 40.0433 55.1005 40.0433 55.1148 40.0433C55.2703 40.0433 55.387 40.1486 55.4116 40.2774Z" fill="#FFC225"/>
<path d="M59.8439 43.2973C59.923 43.2973 59.9994 43.3313 60.0525 43.3781C60.1044 43.4377 60.1303 43.4951 60.1303 43.5653C60.1303 43.6238 60.1044 43.694 60.0525 43.7408C59.91 43.8578 59.7674 43.8461 59.6508 43.7642C59.5717 43.694 59.5471 43.6238 59.5471 43.5653C59.5471 43.4951 59.5717 43.4377 59.6236 43.3781C59.6884 43.3313 59.7674 43.2973 59.8439 43.2973Z" fill="#FFC225"/>
<path d="M50.3935 36.7952C50.4427 36.7952 50.4946 36.8069 50.5399 36.8292C51.4756 37.3183 51.7465 37.9138 51.9863 38.438C52.2195 38.9505 52.4191 39.3928 53.1838 39.7894C53.3224 39.8632 53.3704 40.0246 53.2913 40.1498C53.2084 40.2762 53.0308 40.3172 52.8922 40.2469C51.9551 39.7579 51.6843 39.1623 51.4458 38.6381C51.2126 38.1268 51.013 37.6845 50.2483 37.2867C50.1097 37.2129 50.0617 37.0527 50.1408 36.9263C50.1952 36.842 50.2937 36.7952 50.3935 36.7952Z" fill="#FFC225"/>
<path d="M51.8865 41.5551C51.9358 41.5551 51.9863 41.5668 52.0316 41.5902C52.7989 41.9892 53.3199 41.926 53.9277 41.8499C54.5485 41.7762 55.2561 41.6896 56.1931 42.1764C56.3318 42.2489 56.381 42.4104 56.3006 42.5356C56.219 42.662 56.0402 42.7029 55.9015 42.6327C55.1369 42.2325 54.6146 42.2992 54.0054 42.3729C53.3808 42.4478 52.6758 42.5321 51.74 42.0465C51.6014 41.974 51.5534 41.8125 51.6325 41.6873C51.6869 41.6019 51.7867 41.5551 51.8865 41.5551Z" fill="#FFC225"/>
<path d="M49.2439 38.5925C49.3204 38.5925 49.3995 38.6276 49.4513 38.6861C49.5032 38.7106 49.542 38.7797 49.542 38.8627C49.542 38.9318 49.5032 39.0032 49.4513 39.05C49.3347 39.1436 49.1519 39.1436 49.0483 39.05C48.9835 39.0032 48.9446 38.9318 48.9446 38.8627C48.9446 38.7797 48.9835 38.7106 49.0483 38.6638C49.0884 38.6276 49.1662 38.5925 49.2439 38.5925Z" fill="#FFC225"/>
<path d="M50.838 40.2423C50.9028 40.3722 50.8238 40.5231 50.6825 40.5816C50.527 40.6401 50.3585 40.5699 50.2924 40.4412C50.2276 40.3008 50.3067 40.1487 50.4622 40.0902C50.4881 40.0796 50.527 40.0796 50.5646 40.0796C50.6825 40.0796 50.7862 40.137 50.838 40.2423Z" fill="#FFC225"/>
<path d="M51.8878 41.5527C51.9642 41.5527 52.0433 41.589 52.0951 41.6358C52.147 41.6826 52.1846 41.7517 52.1846 41.823C52.1846 41.8921 52.147 41.9623 52.0822 42.0091C52.0161 42.0804 51.7958 42.1155 51.6804 41.9974C51.6286 41.9623 51.5884 41.8921 51.5884 41.823C51.5884 41.7517 51.6156 41.6932 51.6675 41.6358C51.7439 41.5761 51.823 41.5527 51.8878 41.5527Z" fill="#FFC225"/>
<path d="M30.4533 0C30.6127 -1.25818e-08 30.7592 0.0947684 30.8032 0.241027L31.9139 3.83783C31.9683 4.01217 31.8556 4.1947 31.6599 4.24267C31.4642 4.29766 31.2659 4.18885 31.2128 4.01334L30.1021 0.416542C30.0477 0.242201 30.1604 0.0596762 30.3548 0.0117032C30.3885 0.00351272 30.4209 2.55727e-09 30.4533 0Z" fill="#FFC225"/>
<path d="M27.1654 1.96454C27.2885 1.96454 27.409 2.02188 27.4777 2.12484L28.8255 4.16194C28.9292 4.31873 28.8722 4.52115 28.6998 4.61358C28.5262 4.70719 28.3033 4.65688 28.1996 4.50009L26.8517 2.463C26.7481 2.30621 26.8051 2.10378 26.9774 2.01135C27.0371 1.97975 27.1006 1.96454 27.1654 1.96454Z" fill="#FFC225"/>
<path d="M34.3906 0.216476C34.5889 0.216476 34.7521 0.360388 34.7547 0.541749L34.7923 2.89594C34.7949 3.07847 34.6342 3.22707 34.4333 3.22941L34.4281 3.22941C34.2298 3.22941 34.0666 3.08549 34.064 2.9053L34.0251 0.549944C34.0238 0.368583 34.1845 0.218816 34.3854 0.216476H34.3906Z" fill="#FFC225"/>
<path d="M18.8399 7.23455C18.9565 7.38666 18.9047 7.58557 18.7362 7.67917C18.5678 7.78448 18.3345 7.73768 18.2308 7.58557C18.1141 7.43346 18.1647 7.23455 18.3345 7.12924C18.3993 7.09414 18.4641 7.08243 18.5276 7.08243C18.6442 7.08243 18.7751 7.12924 18.8399 7.23455ZM20.9265 6.11128C21.0301 6.26339 20.964 6.4623 20.7956 6.5559C20.6154 6.64951 20.3951 6.59101 20.2914 6.44007C20.2007 6.27509 20.2525 6.07617 20.4327 5.98257C20.4845 5.95917 20.5506 5.94864 20.6154 5.94864C20.7321 5.94864 20.8604 6.00598 20.9265 6.11128ZM23.0765 5.09332C23.1685 5.2583 23.1037 5.45721 22.9223 5.53794C22.7395 5.61985 22.5205 5.55081 22.4285 5.38583C22.3391 5.22319 22.4155 5.02429 22.5983 4.94121V4.95291C22.6501 4.93068 22.7007 4.91897 22.7525 4.91897C22.8964 4.91897 23.0247 4.97748 23.0765 5.09332ZM25.2927 4.19353C25.3717 4.35617 25.2927 4.54338 25.0996 4.61358C24.9181 4.68496 24.7108 4.61358 24.62 4.44977C24.5423 4.28713 24.6317 4.08823 24.8144 4.01685C24.8663 3.99462 24.9039 3.98175 24.9557 3.98175C25.0996 3.98175 25.2279 4.06366 25.2927 4.19353Z" fill="#FFC225"/>
<path d="M37.7874 1.26836C37.812 1.4427 37.6565 1.60768 37.4634 1.62991C37.2677 1.65448 37.0875 1.5246 37.0603 1.33739C37.0357 1.16305 37.1782 0.99807 37.3843 0.975839C37.3843 0.975839 37.3843 0.975839 37.3726 0.975839C37.3843 0.975839 37.4115 0.975839 37.4245 0.975839C37.6046 0.975839 37.7602 1.09168 37.7874 1.26836ZM40.2109 1.09167C40.2238 1.26835 40.0683 1.42047 39.8597 1.431C39.6666 1.4427 39.4838 1.31515 39.4722 1.12794C39.4722 0.951259 39.6147 0.787448 39.8221 0.776917C39.8221 0.776917 39.835 0.776917 39.848 0.776917C40.0424 0.776917 40.1966 0.916162 40.2109 1.09167ZM44.7196 0.752352C44.9153 0.764053 45.0709 0.916161 45.0709 1.09167C45.0566 1.27888 44.8881 1.42046 44.6821 1.40876C44.4747 1.40876 44.3192 1.24378 44.3321 1.06944C44.3438 0.882226 44.5123 0.752352 44.708 0.752352C44.708 0.752352 44.708 0.752352 44.7196 0.752352ZM42.6344 1.03317C42.6344 1.20868 42.4646 1.36195 42.2715 1.36195C42.0641 1.36195 41.9086 1.22155 41.9086 1.03317C41.9086 0.857659 42.0641 0.705546 42.2715 0.705546C42.4646 0.705546 42.6344 0.845958 42.6344 1.03317Z" fill="#FFC225"/>
<path d="M83.6358 27.7202C83.7978 27.7202 83.9455 27.8184 83.9883 27.967C84.0388 28.1425 83.9209 28.3227 83.7265 28.3684L79.7206 29.3009C79.5249 29.3466 79.3279 29.2401 79.2773 29.0646C79.2255 28.8879 79.3434 28.7089 79.5391 28.6632L83.5437 27.7307C83.5749 27.7237 83.6047 27.7202 83.6358 27.7202Z" fill="#FFC225"/>
<path d="M80.7664 31.2397H80.7716L83.3986 31.2748C83.5995 31.2772 83.7602 31.4269 83.7589 31.6083C83.7563 31.7897 83.593 31.9336 83.3934 31.9336H83.3882L80.7612 31.8973C80.5604 31.895 80.3997 31.7452 80.4022 31.5638C80.4048 31.3836 80.5681 31.2397 80.7664 31.2397Z" fill="#FFC225"/>
<path d="M81.4585 24.7517C81.5868 24.7517 81.7099 24.8125 81.7773 24.9202C81.8745 25.0793 81.8123 25.2794 81.636 25.3683L79.3577 26.5162C79.184 26.5992 78.9598 26.5466 78.8613 26.3874C78.7641 26.2295 78.8276 26.0294 79.0039 25.9405L81.2809 24.7926C81.3367 24.7657 81.3976 24.7517 81.4585 24.7517Z" fill="#FFC225"/>
<path d="M82.8232 40.5816C83.0306 40.5933 83.1861 40.7454 83.1718 40.9326C83.1718 40.9326 83.1718 40.9326 83.1718 40.9209C83.1601 41.1081 82.9917 41.2497 82.796 41.238C82.5899 41.2251 82.4344 41.073 82.4473 40.8987C82.4473 40.7115 82.6158 40.5816 82.8102 40.5816H82.8232ZM83.2236 38.7212C83.2236 38.8979 83.0681 39.05 82.862 39.05C82.6676 39.05 82.4992 38.8979 82.4992 38.7212C82.4992 38.534 82.6547 38.3935 82.862 38.3935C83.0681 38.3935 83.2236 38.534 83.2236 38.7212ZM83.1472 36.5109C83.1472 36.5109 83.1472 36.5109 83.1342 36.5109C83.1472 36.6852 83.0033 36.8374 82.796 36.8502C82.6029 36.8619 82.4201 36.7204 82.4084 36.5448C82.3955 36.3705 82.551 36.2055 82.7584 36.1938H82.7713C82.9644 36.1938 83.1342 36.3237 83.1472 36.5109ZM82.9268 34.2983C82.9268 34.2983 82.9269 34.2983 82.9139 34.2983C82.9398 34.4855 82.796 34.6493 82.6029 34.6622C82.4085 34.6844 82.2141 34.5557 82.1881 34.3802C82.1752 34.193 82.3164 34.0303 82.5121 34.0058C82.5238 34.0058 82.5381 34.0058 82.551 34.0058C82.7441 34.0058 82.8996 34.1345 82.9268 34.2983Z" fill="#FFC225"/>
<path d="M79.556 22.9615C79.6351 23.1241 79.5443 23.323 79.3629 23.3944C79.1801 23.4634 78.9598 23.3944 78.8834 23.2177C78.8043 23.0551 78.8963 22.855 79.0765 22.7848C79.1283 22.7743 79.1685 22.7626 79.2203 22.7626C79.3629 22.7626 79.4925 22.8316 79.556 22.9615ZM78.5205 20.9606C78.6112 21.1233 78.5464 21.3117 78.3637 21.3924C78.1835 21.4743 77.9632 21.4053 77.8725 21.2532C77.7804 21.0882 77.8595 20.8893 78.028 20.8074C78.0799 20.784 78.1433 20.7734 78.1965 20.7734C78.3261 20.7734 78.4557 20.8425 78.5205 20.9606ZM77.3671 19.0066C77.4707 19.1587 77.4059 19.3577 77.2361 19.4513C77.056 19.5449 76.8357 19.4852 76.7437 19.3214C76.7437 19.3214 76.7437 19.3214 76.732 19.3214C76.64 19.1693 76.7061 18.9715 76.8746 18.8768C76.9264 18.8534 76.9912 18.83 77.056 18.83C77.1843 18.83 77.3022 18.9002 77.3671 19.0066ZM76.1099 17.1111C76.2123 17.2632 76.1605 17.461 75.992 17.5663C75.8235 17.6599 75.6045 17.6248 75.4879 17.461C75.3842 17.31 75.436 17.1111 75.6045 17.0175C75.6563 16.9812 75.7198 16.959 75.7989 16.959C75.9155 16.959 76.0322 17.0175 76.1099 17.1111Z" fill="#FFC225"/>
<path d="M12.0437 56.8678C12.8926 56.8678 13.6832 56.456 14.1082 55.7925C14.764 54.7664 14.3726 53.4489 13.236 52.8568C12.1344 52.2811 10.6181 52.6579 9.98567 53.6431C9.66686 54.1404 9.58131 54.7196 9.74719 55.2742C9.91179 55.83 10.3058 56.2921 10.8566 56.5788C11.2182 56.7672 11.6277 56.8678 12.0437 56.8678ZM12.0489 51.6902C12.636 51.6902 13.214 51.8318 13.722 52.0974C15.3239 52.9305 15.8747 54.7863 14.9506 56.2313C14.3519 57.165 13.2373 57.7454 12.0437 57.7454C11.4579 57.7454 10.8786 57.605 10.3706 57.3405C9.59428 56.9357 9.03958 56.2828 8.8076 55.5012C8.57561 54.7196 8.69486 53.904 9.14327 53.2043C9.73943 52.2706 10.854 51.6902 12.0489 51.6902Z" fill="#FFC225"/>
<path d="M16.5201 53.312C16.6108 53.312 16.7002 53.3365 16.7663 53.3939C16.8441 53.4641 16.883 53.546 16.883 53.6396C16.883 53.7227 16.8441 53.8034 16.7793 53.8748C16.6367 53.9906 16.3762 53.9906 16.2479 53.8619C16.1831 53.8163 16.1443 53.7227 16.1443 53.6396C16.1443 53.546 16.1961 53.4524 16.2596 53.3939C16.3244 53.3365 16.4164 53.312 16.5201 53.312Z" fill="#FFC225"/>
<path d="M15.5727 57.4423C15.7282 57.5722 15.7282 57.7711 15.5727 57.8986C15.5727 57.8986 15.5727 57.8987 15.5727 57.9115C15.4314 58.0274 15.2111 58.0274 15.0686 57.9115C14.9247 57.7711 14.9247 57.5722 15.0686 57.4423C15.1321 57.3721 15.2241 57.3382 15.3278 57.3382C15.4185 57.3382 15.5079 57.3721 15.5727 57.4423ZM16.6108 55.4778C16.8039 55.5246 16.9205 55.7106 16.8687 55.8861C16.8181 56.0628 16.6237 56.1681 16.4164 56.1213C16.2349 56.0733 16.1183 55.8861 16.1702 55.7106H16.1559C16.2077 55.5714 16.3516 55.4649 16.5201 55.4649C16.5447 55.4649 16.5836 55.4778 16.6108 55.4778Z" fill="#FFC225"/>
<path d="M13.2399 58.4252C13.3436 58.4252 13.4486 58.4615 13.5121 58.5305C13.5639 58.5773 13.6041 58.6709 13.6041 58.754C13.6041 58.8347 13.5639 58.9166 13.5004 58.988C13.3838 59.1038 13.1116 59.1038 12.9807 58.9751C12.9159 58.9283 12.8783 58.8476 12.8783 58.754C12.8783 58.6592 12.9302 58.5773 12.995 58.5188C13.0468 58.4614 13.1362 58.4252 13.2399 58.4252Z" fill="#FFC225"/>
<path d="M7.57641 55.4778C7.66843 55.4778 7.75915 55.5 7.83562 55.5714C7.90042 55.6299 7.9406 55.7106 7.9406 55.8042C7.9406 55.8861 7.90042 55.9692 7.83562 56.0265C7.66843 56.1681 7.45978 56.1564 7.31852 56.0382C7.25242 55.9797 7.21483 55.8861 7.21483 55.8042C7.21483 55.7106 7.25243 55.617 7.33149 55.5585C7.38333 55.5117 7.47273 55.4778 7.57641 55.4778Z" fill="#FFC225"/>
<path d="M7.66843 53.3237C7.87579 53.3705 7.97947 53.546 7.92763 53.7227C7.87579 53.897 7.68011 54.0023 7.487 53.9555C7.2926 53.9087 7.17596 53.7332 7.2278 53.546C7.26668 53.4056 7.40794 53.312 7.57642 53.312C7.60364 53.312 7.64251 53.312 7.66843 53.3237ZM9.02793 51.5346C9.17178 51.6622 9.17178 51.874 9.02793 52.0015C8.88666 52.1302 8.65209 52.1302 8.51083 52.0015C8.36827 51.874 8.36827 51.6622 8.51083 51.5346C8.58859 51.4761 8.6793 51.441 8.76872 51.441C8.86074 51.441 8.96442 51.4761 9.02793 51.5346Z" fill="#FFC225"/>
<path d="M10.8566 50.3517C10.9473 50.3517 11.051 50.3985 11.1158 50.4582C11.1806 50.5155 11.2195 50.5986 11.2195 50.6793C11.2195 50.7612 11.1806 50.856 11.1158 50.9133C10.9862 51.0303 10.7127 51.0432 10.5844 50.9133C10.5326 50.8665 10.4807 50.7729 10.4807 50.6793C10.4807 50.5857 10.5326 50.505 10.5961 50.4453C10.6479 50.3868 10.7516 50.3517 10.8566 50.3517Z" fill="#FFC225"/>
<path d="M12.045 55.6837C12.4247 55.6837 12.7811 55.4977 12.9717 55.2005C13.1142 54.9781 13.1518 54.7172 13.0779 54.468C13.0053 54.2199 12.8278 54.0117 12.5816 53.8818C12.0865 53.6256 11.4048 53.7917 11.121 54.2351C10.9771 54.4598 10.9395 54.7196 11.0147 54.9688C11.0873 55.218 11.2648 55.4251 11.5111 55.5527C11.6744 55.6381 11.8584 55.6837 12.045 55.6837ZM12.0476 53.0955C12.3625 53.0955 12.6723 53.1704 12.9457 53.3131C13.3604 53.5296 13.6585 53.8795 13.7816 54.2983C13.9074 54.7161 13.8425 55.1537 13.6028 55.5304C13.1272 56.2769 11.9802 56.5601 11.1469 56.1225C10.7322 55.9084 10.4341 55.5585 10.311 55.1408C10.1853 54.7207 10.2488 54.282 10.4898 53.9064C10.8086 53.4056 11.4061 53.0955 12.0476 53.0955Z" fill="#FFC225"/>
<path d="M40.6658 71.7862C41.5134 71.7862 42.3039 71.3755 42.7277 70.7109C43.3848 69.6848 42.9934 68.3673 41.8568 67.774C40.7526 67.2031 39.235 67.5763 38.6064 68.5615C38.2876 69.0588 38.2021 69.638 38.368 70.1937C38.5326 70.7484 38.9266 71.2106 39.4774 71.4972C39.839 71.6868 40.2498 71.7862 40.6658 71.7862ZM40.6697 66.6087C41.2555 66.6087 41.8348 66.7502 42.3428 67.0147C43.9434 67.8501 44.4941 69.7058 43.5714 71.1497C42.9726 72.0834 41.8594 72.6638 40.6658 72.6638C40.0787 72.6638 39.4994 72.5234 38.9914 72.2578C38.2151 71.8541 37.6604 71.2012 37.4284 70.4208C37.1964 69.6392 37.3156 68.8236 37.7627 68.1227C38.3602 67.189 39.4748 66.6087 40.6697 66.6087Z" fill="#FFC225"/>
<path d="M39.4722 65.2701C39.5629 65.2701 39.6523 65.3052 39.7314 65.3766C39.7962 65.4339 39.835 65.517 39.835 65.5977C39.835 65.6913 39.7962 65.7849 39.7184 65.8434C39.6147 65.9487 39.3283 65.9616 39.2117 65.8317C39.1482 65.7849 39.108 65.6913 39.108 65.5977C39.108 65.517 39.1482 65.4339 39.2117 65.3766C39.2765 65.3052 39.3685 65.2701 39.4722 65.2701Z" fill="#FFC225"/>
<path d="M36.2957 68.2304C36.4914 68.2772 36.608 68.4644 36.5562 68.6411C36.5043 68.8154 36.2957 68.9207 36.1026 68.8739C35.9082 68.8271 35.7915 68.6411 35.8434 68.4644C35.8952 68.324 36.0365 68.2187 36.192 68.2187C36.2322 68.2187 36.2581 68.2304 36.2957 68.2304ZM37.6565 66.453C37.8003 66.5806 37.8003 66.7924 37.6565 66.9082C37.5152 67.0381 37.2806 67.0381 37.1394 66.9082C36.9955 66.7924 36.9955 66.5806 37.1394 66.453C37.2042 66.3817 37.3079 66.3594 37.3986 66.3594C37.488 66.3594 37.58 66.3817 37.6565 66.453Z" fill="#FFC225"/>
<path d="M36.192 70.3833C36.2957 70.3833 36.3877 70.4184 36.4525 70.4898C36.5303 70.5588 36.5678 70.6419 36.5678 70.7226C36.5678 70.8045 36.516 70.8876 36.4525 70.9566C36.3475 71.062 36.0637 71.0748 35.9341 70.9449C35.8823 70.8981 35.8304 70.8045 35.8304 70.7226C35.8304 70.629 35.868 70.5483 35.947 70.4898C36.0118 70.4184 36.1026 70.3833 36.192 70.3833Z" fill="#FFC225"/>
<path d="M41.8685 73.3436C41.9605 73.3436 42.0642 73.3799 42.1277 73.4489C42.1925 73.4957 42.2326 73.5776 42.2326 73.6724C42.2326 73.766 42.1924 73.8467 42.116 73.9064C42.0512 73.9649 41.9605 74 41.8685 74C41.7661 74 41.6754 73.9649 41.6106 73.9064C41.5445 73.8467 41.5069 73.766 41.5069 73.6724C41.5069 73.5776 41.5445 73.4957 41.6106 73.4372C41.6624 73.3799 41.7661 73.3436 41.8685 73.3436Z" fill="#FFC225"/>
<path d="M44.2025 72.3607C44.3438 72.4906 44.3438 72.7001 44.2025 72.8299C44.06 72.9575 43.8267 72.9575 43.6841 72.8299C43.5403 72.7001 43.5403 72.4906 43.6841 72.3607C43.7476 72.2905 43.8397 72.2671 43.9433 72.2671C44.0341 72.2671 44.1235 72.2905 44.2025 72.3607ZM45.2264 70.4067C45.4195 70.4547 45.5361 70.6419 45.4843 70.8045C45.4324 70.9812 45.2393 71.0865 45.0436 71.0397C44.8505 70.9917 44.7326 70.8162 44.7844 70.6419C44.8246 70.4898 44.9801 70.3962 45.1356 70.3962C45.1603 70.3962 45.2004 70.3962 45.2264 70.4067Z" fill="#FFC225"/>
<path d="M45.1357 68.2304C45.2393 68.2304 45.3301 68.2655 45.3949 68.3357C45.4597 68.3825 45.4985 68.4644 45.4985 68.558C45.4985 68.6516 45.4596 68.7347 45.3806 68.7932C45.2782 68.8973 45.0061 68.909 44.8765 68.7803C44.8117 68.7347 44.7715 68.6516 44.7715 68.558C44.7715 68.4644 44.8117 68.3825 44.8881 68.324C44.94 68.2655 45.032 68.2304 45.1357 68.2304Z" fill="#FFC225"/>
<path d="M40.6671 70.6021C41.0468 70.6021 41.4019 70.4161 41.5924 70.1189C41.8866 69.659 41.7116 69.067 41.2023 68.8002C41.039 68.716 40.855 68.6715 40.6671 68.6715C40.2873 68.6715 39.9322 68.8564 39.7417 69.1536C39.5979 69.3782 39.5603 69.638 39.6355 69.8872C39.708 70.1364 39.8856 70.3435 40.1318 70.4711C40.2951 70.5565 40.4804 70.6021 40.6671 70.6021ZM40.6671 68.0139H40.6684C40.9833 68.0139 41.293 68.0888 41.5665 68.2315C42.4244 68.6797 42.7186 69.6742 42.2236 70.4488C41.7466 71.1942 40.601 71.4773 39.7677 71.0409C39.3529 70.8268 39.0548 70.4769 38.9317 70.0592C38.806 69.6391 38.8695 69.2004 39.1106 68.8248C39.4294 68.324 40.0269 68.0139 40.6671 68.0139Z" fill="#FFC225"/>
<path d="M62.41 12.7701L64.3358 2.7871L55.7239 9.28335L59.5795 10.416L62.41 12.7701ZM65.7485 0.578008L63.0606 14.5042L59.0015 11.1274L53.7346 9.64255L65.7485 0.578008Z" fill="#FFC225"/>
</svg>
