<svg width="84" height="74" viewBox="0 0 84 74" fill="none" xmlns="http://www.w3.org/2000/svg">
<path d="M27.6701 29.0871C27.4919 30.366 26.8338 34.419 25.1362 39.3257C23.3476 44.4989 19.9125 47.9864 18.8817 48.9504C20.2117 51.2001 28.575 64.3905 41.8479 64.3905C55.1333 64.3905 63.741 51.2026 65.1145 48.9466C64.08 47.9776 60.6512 44.4926 58.8638 39.3257C57.1662 34.419 56.5106 30.366 56.3311 29.0871L27.6701 29.0871ZM17.8198 48.8557C17.8198 48.7195 17.8771 48.587 17.9843 48.4936C18.0267 48.4583 22.2657 44.7626 24.255 39.0128C26.2692 33.1902 26.7902 28.6065 26.7951 28.5612C26.8213 28.3221 27.022 28.1407 27.2601 28.1407L56.7412 28.1407C56.9805 28.1407 57.1799 28.3221 57.2061 28.5612C57.2111 28.6065 57.7321 33.1902 59.745 39.0128C61.7393 44.774 65.9745 48.4583 66.0169 48.4936C66.1889 48.6412 66.2325 48.8911 66.1216 49.0892C66.0294 49.2507 56.8397 65.3368 41.8479 65.3368C26.8512 65.3368 17.9656 49.2443 17.8771 49.0828C17.8372 49.0109 17.8198 48.9327 17.8198 48.8557Z" fill="#FFC225"/>
<path d="M53.6726 56.2749C53.6726 56.1865 53.7112 56.0856 53.7847 56.0225C53.8471 55.9594 53.9343 55.9216 54.0228 55.9216C54.1225 55.9216 54.2222 55.9594 54.2845 56.0351C54.3344 56.0856 54.3705 56.1739 54.3705 56.2749C54.3705 56.3758 54.3344 56.4654 54.2708 56.5285C54.2222 56.5903 54.1337 56.6294 54.0228 56.6294C53.9343 56.6294 53.847 56.5903 53.7723 56.5285C53.7112 56.4654 53.6726 56.3644 53.6726 56.2749Z" fill="#FFC225"/>
<path d="M51.9027 57.4357C52.0647 57.3221 52.2891 57.3739 52.3888 57.5253C52.5009 57.6893 52.4648 57.9151 52.3028 58.0161C52.1395 58.1296 51.9151 58.0792 51.8154 57.9278C51.778 57.8647 51.7531 57.7902 51.7531 57.7271C51.7531 57.6123 51.8029 57.4988 51.9027 57.4357ZM49.8835 58.6596C50.058 58.5725 50.2699 58.6356 50.3571 58.811C50.4456 58.975 50.3833 59.1895 50.2076 59.2905C50.0455 59.3788 49.8336 59.317 49.7339 59.1391C49.7102 59.0886 49.6965 59.0255 49.6965 58.975C49.6965 58.8488 49.7713 58.7227 49.8835 58.6596ZM47.7409 59.6438L47.7409 59.6324C47.9266 59.5693 48.1261 59.6564 48.1884 59.8456C48.2644 60.0349 48.1759 60.2368 47.9902 60.2999C47.8145 60.3756 47.6026 60.2746 47.5403 60.0992C47.529 60.0601 47.5153 60.0097 47.5153 59.9718C47.5153 59.8343 47.6026 59.6942 47.7409 59.6438ZM45.4974 60.3251C45.6831 60.2873 45.8713 60.4008 45.9212 60.5901C45.9573 60.792 45.8451 60.9812 45.6457 61.0191C45.46 61.0695 45.2718 60.9446 45.2344 60.7541C45.2219 60.7301 45.222 60.7036 45.222 60.6797C45.222 60.5156 45.3341 60.3642 45.4974 60.3251ZM43.1778 60.691C43.3785 60.6658 43.5393 60.8172 43.5518 61.0191C43.5779 61.2096 43.4284 61.3724 43.2277 61.3976C43.0408 61.4115 42.8787 61.2601 42.855 61.0695C42.855 61.0569 42.855 61.0456 42.855 61.0456C42.855 60.855 42.9909 60.7036 43.1778 60.691ZM40.462 61.0191C40.4744 60.8172 40.6477 60.6658 40.8359 60.691C41.0353 60.7036 41.1711 60.8676 41.1587 61.0695C41.1475 61.2601 40.9854 61.4115 40.786 61.3976C40.5978 61.3724 40.462 61.221 40.462 61.0456C40.462 61.0317 40.462 61.0191 40.462 61.0191ZM38.105 60.6027C38.1424 60.4147 38.3306 60.2873 38.5163 60.3377L38.5163 60.3251C38.7045 60.3756 38.8279 60.5661 38.7781 60.7541C38.7407 60.9446 38.5537 61.0695 38.3668 61.0191C38.2047 60.9812 38.0925 60.8437 38.0925 60.6797C38.0925 60.6532 38.0925 60.6292 38.105 60.6027ZM35.8241 59.8456C35.8864 59.669 36.0995 59.5819 36.2728 59.6438C36.461 59.7068 36.547 59.9213 36.4735 60.0992C36.4112 60.2872 36.2117 60.3756 36.0235 60.3137C35.8864 60.2507 35.8004 60.1232 35.8004 59.9718C35.8004 59.9352 35.8116 59.8974 35.8241 59.8456ZM33.6566 58.811C33.7426 58.6356 33.9545 58.5725 34.1302 58.6735C34.3035 58.7605 34.3658 58.975 34.2798 59.1391C34.1801 59.317 33.9806 59.3788 33.8049 59.2905C33.6803 59.2274 33.6192 59.1025 33.6192 58.975C33.6192 58.9245 33.6304 58.8615 33.6566 58.811ZM31.6113 57.5366C31.7234 57.3738 31.949 57.3347 32.0986 57.4357L32.1111 57.4357C32.2606 57.5492 32.3105 57.7764 32.1971 57.9278C32.0986 58.0918 31.873 58.1296 31.7109 58.0287C31.6112 57.953 31.5614 57.8407 31.5614 57.7271C31.5614 57.6628 31.5739 57.5997 31.6113 57.5366Z" fill="#FFC225"/>
<path d="M29.6295 56.2749C29.6295 56.1739 29.6681 56.0856 29.7417 56.0225C29.779 55.9594 29.88 55.9216 29.9797 55.9216C30.0657 55.9216 30.153 55.9594 30.229 56.0225C30.3524 56.1499 30.3524 56.3884 30.229 56.5285C30.153 56.5903 30.0794 56.6294 29.9797 56.6294C29.88 56.6294 29.779 56.5903 29.718 56.5146C29.6681 56.4654 29.6295 56.3758 29.6295 56.2749Z" fill="#FFC225"/>
<path d="M45.4974 33.4243C45.4974 33.3238 45.5335 33.2361 45.6096 33.172C45.6706 33.1089 45.7592 33.0719 45.8452 33.0719C45.9449 33.0719 46.0446 33.1089 46.1069 33.1852C46.2066 33.2868 46.2328 33.5376 46.0944 33.6772C46.0446 33.7398 45.9449 33.7781 45.8452 33.7781C45.7592 33.7781 45.6707 33.7398 45.5959 33.6772C45.5336 33.6023 45.4974 33.5135 45.4974 33.4243Z" fill="#FFC225"/>
<path d="M43.2788 33.0719C43.4782 33.0719 43.6403 33.2222 43.6403 33.4243C43.6403 33.6141 43.4782 33.7781 43.2788 33.7781C43.0906 33.7781 42.9286 33.6141 42.9286 33.4243C42.9286 33.2222 43.0906 33.0719 43.2788 33.0719ZM40.7237 33.0719C40.9094 33.0719 41.0714 33.2222 41.0714 33.4243C41.0714 33.6141 40.9094 33.7781 40.7237 33.7781C40.5243 33.7781 40.3734 33.6141 40.3734 33.4243C40.3734 33.2222 40.5243 33.0719 40.7237 33.0719Z" fill="#FFC225"/>
<path d="M37.8059 33.4243C37.8059 33.3238 37.8433 33.2222 37.9056 33.172C37.9692 33.1089 38.0552 33.0719 38.1549 33.0719C38.2421 33.0719 38.3431 33.1089 38.4042 33.1852C38.5163 33.2868 38.5288 33.5376 38.3929 33.6772C38.3431 33.7398 38.2421 33.7781 38.1549 33.7781C38.0552 33.7781 37.9692 33.7398 37.9056 33.6772C37.8433 33.6023 37.8059 33.5254 37.8059 33.4243Z" fill="#FFC225"/>
<path d="M21.0305 49.2179C21.0305 49.1472 21.0555 49.0778 21.1053 49.0236C21.842 48.2249 22.5437 47.3656 23.1868 46.4748C23.2791 46.3474 23.4535 46.3209 23.5794 46.413C23.7028 46.5051 23.7302 46.6843 23.6405 46.8092C23.026 47.6571 22.3642 48.4759 21.6675 49.2444C22.2707 50.1415 22.9301 51.0348 23.6318 51.9042C23.7265 52.0265 23.7091 52.2057 23.5919 52.3041C23.471 52.4025 23.294 52.3836 23.1956 52.2637C22.4365 51.3212 21.7248 50.3484 21.0779 49.3769C21.0455 49.3276 21.0305 49.2734 21.0305 49.2179Z" fill="#FFC225"/>
<path d="M51.1187 59.8974C51.1187 59.7952 51.1548 59.6942 51.2296 59.6324C51.2683 59.5819 51.3542 59.5428 51.4664 59.5428C51.5661 59.5428 51.6534 59.5819 51.7157 59.6564C51.8279 59.7447 51.8416 60.0097 51.7032 60.1497C51.6534 60.2128 51.5537 60.2506 51.4664 60.2506C51.3679 60.2506 51.2683 60.2128 51.2047 60.1358C51.1548 60.0728 51.1187 59.9844 51.1187 59.8974Z" fill="#FFC225"/>
<path d="M49.0982 60.6405L49.0982 60.6532C49.2852 60.5787 49.4847 60.6532 49.5607 60.8437C49.6342 61.0191 49.5482 61.2336 49.3725 61.2967C49.3725 61.2967 49.3725 61.2966 49.36 61.3105C49.1868 61.385 48.9873 61.2967 48.9113 61.1074C48.8988 61.0695 48.8876 61.0191 48.8876 60.9686C48.8876 60.8311 48.9736 60.7036 49.0982 60.6405ZM46.8061 61.4481C46.9918 61.385 47.1913 61.4985 47.2411 61.6878C47.291 61.8771 47.1788 62.0789 46.9918 62.1294C46.8061 62.1799 46.6179 62.0663 46.5556 61.8771C46.5556 61.8518 46.5444 61.814 46.5444 61.79C46.5444 61.626 46.6441 61.4859 46.8061 61.4481ZM44.4242 61.9414C44.6249 61.9149 44.7982 62.0423 44.8244 62.243C44.848 62.4322 44.7246 62.6089 44.5252 62.6341C44.5252 62.6341 44.5252 62.6341 44.5252 62.6467C44.337 62.6732 44.1513 62.5332 44.1251 62.3313C44.1251 62.3187 44.1251 62.3073 44.1251 62.2934C44.1251 62.1168 44.251 61.9654 44.4242 61.9414ZM42.0062 62.1054L42.02 62.1054C42.2057 62.1054 42.3677 62.2568 42.3677 62.4587C42.3677 62.6593 42.2057 62.8108 42.02 62.8108C41.8205 62.8108 41.6585 62.6593 41.6585 62.4587C41.6585 62.2682 41.8205 62.1054 42.0062 62.1054ZM39.2018 62.243C39.228 62.0537 39.4013 61.9149 39.5895 61.9414C39.7889 61.9654 39.9248 62.1433 39.9011 62.3313C39.8624 62.5332 39.6892 62.6732 39.501 62.6467C39.3277 62.6227 39.2018 62.4713 39.2018 62.2934C39.2018 62.2682 39.2018 62.2568 39.2018 62.243ZM36.7851 61.7004C36.8349 61.5124 37.0344 61.3976 37.2201 61.4481C37.4083 61.4985 37.5192 61.7004 37.4581 61.8909C37.4195 62.0789 37.2201 62.1799 37.0344 62.1294C36.8711 62.0928 36.7726 61.9414 36.7726 61.79C36.7726 61.7635 36.7851 61.7269 36.7851 61.7004ZM34.453 60.8437C34.5278 60.6658 34.7397 60.5787 34.9155 60.6532C35.1012 60.7301 35.1772 60.9446 35.1149 61.12C35.0388 61.2966 34.827 61.385 34.6537 61.3105C34.5154 61.2601 34.4281 61.12 34.4281 60.9812C34.4281 60.9446 34.4418 60.8942 34.453 60.8437Z" fill="#FFC225"/>
<path d="M32.1846 59.8974C32.1846 59.7952 32.2345 59.6942 32.2968 59.6324C32.3466 59.5819 32.4339 59.5428 32.5336 59.5428C32.6333 59.5428 32.7218 59.5819 32.7841 59.6438C32.9075 59.7573 32.92 60.0097 32.7953 60.1497C32.7218 60.2128 32.6333 60.2506 32.5336 60.2506C32.4463 60.2506 32.3466 60.2128 32.2843 60.1358C32.222 60.0728 32.1846 59.9844 32.1846 59.8974Z" fill="#FFC225"/>
<path d="M60.0018 46.6426C60.0018 46.5543 60.0417 46.4685 60.1165 46.413C60.2423 46.3209 60.4181 46.3474 60.5091 46.4748C61.1522 47.3656 61.8539 48.2249 62.5906 49.0236C62.679 49.1207 62.6928 49.2646 62.618 49.3769C61.9724 50.3484 61.2594 51.3212 60.5004 52.2638C60.4019 52.3836 60.2249 52.4025 60.1052 52.3041C59.9881 52.2044 59.9694 52.0253 60.0641 51.9042C60.7658 51.0348 61.4252 50.1415 62.0284 49.2444C61.3317 48.476 60.6699 47.6571 60.0554 46.8092C60.0192 46.7587 60.0018 46.7007 60.0018 46.6426Z" fill="#FFC225"/>
<path d="M29.8189 30.2625L29.8189 28.6139C29.8189 28.3526 30.0283 28.1407 30.2863 28.1407C30.5443 28.1407 30.7537 28.3526 30.7537 28.6139L30.7537 30.2625C30.7537 30.5237 30.5443 30.7357 30.2863 30.7357C30.0283 30.7357 29.8189 30.5237 29.8189 30.2625Z" fill="#FFC225"/>
<path d="M33.7239 31.1364L33.7239 28.6139C33.7239 28.3526 33.9321 28.1407 34.1913 28.1407C34.4493 28.1407 34.6587 28.3526 34.6587 28.6139L34.6587 31.1364C34.6587 31.3976 34.4493 31.6096 34.1913 31.6096C33.9321 31.6096 33.7239 31.3976 33.7239 31.1364Z" fill="#FFC225"/>
<path d="M37.6276 30.2625L37.6276 28.6139C37.6276 28.3526 37.837 28.1407 38.095 28.1407C38.353 28.1407 38.5624 28.3526 38.5624 28.6139L38.5624 30.2625C38.5624 30.5237 38.353 30.7357 38.095 30.7357C37.837 30.7357 37.6276 30.5237 37.6276 30.2625Z" fill="#FFC225"/>
<path d="M41.5326 31.1364L41.5326 28.6139C41.5326 28.3526 41.742 28.1407 42 28.1407C42.258 28.1407 42.4674 28.3526 42.4674 28.6139L42.4674 31.1364C42.4674 31.3976 42.258 31.6096 42 31.6096C41.742 31.6096 41.5326 31.3976 41.5326 31.1364Z" fill="#FFC225"/>
<path d="M45.4376 30.2625L45.4376 28.6139C45.4376 28.3526 45.647 28.1407 45.905 28.1407C46.163 28.1407 46.3724 28.3526 46.3724 28.6139L46.3724 30.2625C46.3724 30.5237 46.163 30.7357 45.905 30.7357C45.647 30.7357 45.4376 30.5237 45.4376 30.2625Z" fill="#FFC225"/>
<path d="M49.3426 31.1364L49.3426 28.6139C49.3426 28.3526 49.552 28.1407 49.81 28.1407C50.068 28.1407 50.2774 28.3526 50.2774 28.6139L50.2774 31.1364C50.2774 31.3976 50.068 31.6096 49.81 31.6096C49.552 31.6096 49.3426 31.3976 49.3426 31.1364Z" fill="#FFC225"/>
<path d="M53.2475 30.2625L53.2475 28.6139C53.2475 28.3526 53.4569 28.1407 53.7149 28.1407C53.9729 28.1407 54.1823 28.3526 54.1823 28.6139L54.1823 30.2625C54.1823 30.5237 53.9729 30.7357 53.7149 30.7357C53.4569 30.7357 53.2475 30.5237 53.2475 30.2625Z" fill="#FFC225"/>
<path d="M35.6508 33.0872C35.6508 32.2725 34.9965 31.6096 34.1913 31.6096C33.3861 31.6096 32.7318 32.2725 32.7318 33.0872C32.7318 33.9029 33.3861 34.5654 34.1913 34.5654C34.9965 34.5654 35.6508 33.9029 35.6508 33.0872ZM31.797 33.0872C31.797 31.75 32.8701 30.6632 34.1913 30.6632C35.5112 30.6632 36.5856 31.75 36.5856 33.0872C36.5856 34.4239 35.5112 35.5117 34.1913 35.5117C32.8701 35.5117 31.797 34.4239 31.797 33.0872Z" fill="#FFC225"/>
<path d="M33.7239 24.7118C33.7239 24.4506 33.9321 24.2386 34.1913 24.2386C35.5112 24.2386 36.5856 25.3269 36.5856 26.6636L36.5856 28.6139C36.5856 28.8756 36.3762 29.0871 36.1182 29.0871C35.8602 29.0871 35.6508 28.8756 35.6508 28.6139L35.6508 26.6636C35.6508 25.8479 34.9965 25.185 34.1913 25.185C33.9321 25.185 33.7239 24.973 33.7239 24.7118Z" fill="#FFC225"/>
<path d="M47.4156 28.6139L47.4156 26.6636C47.4156 25.3269 48.4888 24.2386 49.81 24.2386C50.068 24.2386 50.2774 24.4506 50.2774 24.7118C50.2774 24.973 50.068 25.185 49.81 25.185C49.0048 25.185 48.3504 25.8479 48.3504 26.6636L48.3504 28.6139C48.3504 28.8756 48.141 29.0871 47.883 29.0871C47.625 29.0871 47.4156 28.8756 47.4156 28.6139Z" fill="#FFC225"/>
<path d="M51.2708 33.0872C51.2708 32.2725 50.6151 31.6096 49.81 31.6096C49.0048 31.6096 48.3504 32.2725 48.3504 33.0872C48.3504 33.9029 49.0048 34.5654 49.81 34.5654C50.6151 34.5654 51.2708 33.9029 51.2708 33.0872ZM47.4156 33.0872C47.4156 31.75 48.4888 30.6632 49.81 30.6632C51.1299 30.6632 52.2056 31.75 52.2056 33.0872C52.2056 34.4239 51.1299 35.5117 49.81 35.5117C48.4888 35.5117 47.4156 34.4239 47.4156 33.0872Z" fill="#FFC225"/>
<path d="M34.4979 33.0872C34.4979 32.9166 34.3596 32.7777 34.1913 32.7777C34.023 32.7777 33.8847 32.9166 33.8847 33.0872C33.8847 33.2582 34.023 33.3977 34.1913 33.3977C34.3596 33.3977 34.4979 33.2582 34.4979 33.0872ZM33.3251 33.0872C33.3251 32.6042 33.7139 32.2109 34.1913 32.2109C34.6687 32.2109 35.0575 32.6042 35.0575 33.0872C35.0575 33.5712 34.6687 33.9645 34.1913 33.9645C33.7139 33.9645 33.3251 33.5712 33.3251 33.0872Z" fill="#FFC225"/>
<path d="M50.1166 33.0872C50.1166 32.9166 49.9795 32.7777 49.81 32.7777C49.6417 32.7777 49.5046 32.9166 49.5046 33.0872C49.5046 33.2582 49.6417 33.3977 49.81 33.3977C49.9795 33.3977 50.1166 33.2582 50.1166 33.0872ZM48.9437 33.0872C48.9437 32.6042 49.3326 32.2109 49.81 32.2109C50.2886 32.2109 50.6762 32.6042 50.6762 33.0872C50.6762 33.5712 50.2886 33.9645 49.81 33.9645C49.3326 33.9645 48.9437 33.5712 48.9437 33.0872Z" fill="#FFC225"/>
<path d="M46.7937 8.42581C46.7937 8.37408 46.8074 8.32133 46.836 8.2754C47.7297 6.82893 49.0933 5.55872 50.7809 4.60357C50.9155 4.52711 51.0863 4.57543 51.1623 4.71347C51.2383 4.84659 51.1897 5.02298 51.0539 5.09894C49.6828 5.87567 48.5374 6.86729 47.7073 7.99101C48.9736 7.72251 50.2711 7.54157 51.5749 7.44984C51.7294 7.43899 51.8628 7.55734 51.874 7.71354C51.8727 7.90483 51.7656 8.00678 51.6135 8.01675C50.0979 8.12172 48.5922 8.35237 47.1377 8.70175C47.0267 8.72939 46.9121 8.68459 46.846 8.59084C46.8111 8.54163 46.7937 8.48397 46.7937 8.42581Z" fill="#FFC225"/>
<path d="M49.2728 12.7719C49.2728 12.6167 49.3488 12.4699 49.4759 12.3825C49.608 12.2899 49.7763 12.2732 49.9246 12.3372C49.9446 12.3456 52.1258 13.2673 55.2729 13.1549C58.0985 13.0553 58.5921 12.2445 58.5971 12.2372L59.4496 12.6206C59.3586 12.8474 58.7329 13.9794 55.3041 14.1012C53.0207 14.1816 51.2346 13.7616 50.2911 13.4679C50.5229 14.6152 51.2122 15.7119 52.2803 16.6164C54.2746 18.3035 57.2074 19.0093 60.3259 18.5533C61.1697 18.4301 61.9898 18.1861 62.7638 17.8273L63.1539 18.6879C62.2964 19.0841 61.3915 19.3543 60.4605 19.4898C57.079 19.9836 53.8782 19.2015 51.6808 17.3424C50.1864 16.0776 49.3313 14.46 49.2728 12.7882C49.2728 12.7833 49.2728 12.7768 49.2728 12.7719Z" fill="#FFC225"/>
<path d="M69.3024 11.9241C69.3149 11.7221 69.4906 11.5717 69.6764 11.5965C69.8758 11.6087 70.0141 11.7862 70.0004 11.9882C69.9755 12.1765 69.8147 12.3161 69.614 12.3037C69.4408 12.2899 69.3024 12.1263 69.3024 11.9498C69.3024 11.9375 69.3024 11.9241 69.3024 11.9241ZM69.0532 9.42625C69.2277 9.33755 69.4408 9.40064 69.5268 9.57817C69.614 9.75456 69.553 9.96843 69.3772 10.0571C69.2027 10.1449 68.9908 10.0819 68.9036 9.90584C68.8799 9.85562 68.8674 9.80478 68.8674 9.74169C68.8674 9.61514 68.9298 9.48934 69.0532 9.42625ZM68.5683 13.8302C68.5683 13.8302 68.5683 13.8302 68.5558 13.8302C68.6792 13.665 68.9036 13.6409 69.0532 13.7666C69.2027 13.8809 69.2414 14.1076 69.1155 14.2589C68.9908 14.4107 68.779 14.4477 68.6182 14.322C68.5297 14.2589 68.4923 14.1456 68.4923 14.045C68.4923 13.9682 68.5185 13.8932 68.5683 13.8302ZM67.3718 7.95012C67.4578 7.77322 67.6697 7.72251 67.8442 7.81121C68.0187 7.91215 68.0685 8.12664 67.9812 8.30253C67.8828 8.4677 67.6697 8.53078 67.4952 8.42972C67.383 8.36713 67.3219 8.23995 67.3219 8.12665C67.3219 8.06356 67.3331 8.00097 67.3718 7.95012ZM66.9218 15.0283C67.11 14.9652 67.3094 15.0663 67.3718 15.2561C67.4328 15.4325 67.3331 15.6341 67.1599 15.6972C66.9717 15.7598 66.7722 15.6724 66.7099 15.4827C66.6987 15.4443 66.6862 15.4074 66.6862 15.3694C66.6862 15.2181 66.7722 15.0785 66.9218 15.0283ZM65.4884 7.24291C65.6879 7.23105 65.8499 7.38234 65.8636 7.58447C65.8636 7.77323 65.7253 7.93687 65.5258 7.95012C65.3264 7.96299 65.1644 7.8112 65.1519 7.62143C65.1519 7.60907 65.1519 7.60907 65.1519 7.59671C65.1519 7.40707 65.3015 7.25666 65.4884 7.24291ZM64.429 15.4074C64.4789 15.2052 64.6671 15.0919 64.8528 15.1426C64.8653 15.1426 64.8652 15.1426 64.879 15.155L64.8902 15.155C65.0784 15.192 65.2018 15.3817 65.1519 15.5715C65.1145 15.7598 64.9288 15.8869 64.7406 15.849C64.7281 15.8361 64.7281 15.8361 64.7169 15.8361C64.7169 15.8361 64.7032 15.8361 64.6908 15.8361C64.5287 15.7859 64.4165 15.6463 64.4165 15.4827C64.4165 15.4581 64.429 15.4325 64.429 15.4074ZM63.2088 8.0517C63.3571 7.93688 63.5827 7.97485 63.6936 8.13888C63.8058 8.30253 63.7684 8.51842 63.6188 8.63185C63.6188 8.63185 63.6189 8.63185 63.6064 8.63185C63.4568 8.74515 63.2325 8.70667 63.1203 8.55538C63.0829 8.47993 63.0592 8.41735 63.0592 8.34101C63.0592 8.22758 63.1091 8.12665 63.2088 8.0517ZM62.6093 14.0952C62.7476 13.9682 62.9707 13.9682 63.1091 14.1076C63.2325 14.2589 63.2325 14.4861 63.0829 14.6113C62.947 14.7509 62.7339 14.7385 62.598 14.5991C62.5357 14.5364 62.4971 14.4477 62.4971 14.3605C62.4971 14.2589 62.5357 14.1707 62.6093 14.0952ZM61.7131 9.9813C61.7867 9.80478 61.9861 9.71608 62.1743 9.79254C62.3475 9.85563 62.436 10.07 62.36 10.246C62.36 10.246 62.36 10.246 62.3724 10.246C62.2976 10.4234 62.0858 10.5106 61.9125 10.448C61.7742 10.3854 61.6869 10.2598 61.6869 10.1202C61.6869 10.07 61.7006 10.0315 61.7131 9.9813ZM61.763 12.0129C61.9487 11.9745 62.1356 12.1017 62.1743 12.2899C62.2104 12.4797 62.0858 12.6685 61.8988 12.7064C61.7131 12.7448 61.5249 12.6191 61.4875 12.4294C61.4875 12.4032 61.475 12.3791 61.475 12.353C61.475 12.1894 61.6009 12.0376 61.763 12.0129Z" fill="#FFC225"/>
<path d="M67.6559 11.5965C67.6559 10.6773 67.0365 9.88868 66.149 9.67911C65.1033 9.4342 64.0551 10.0956 63.812 11.1528C63.5752 12.2165 64.2371 13.2771 65.2679 13.5186C65.7751 13.637 66.2961 13.5492 66.7386 13.2707C67.1786 12.9922 67.4864 12.5575 67.6049 12.0449C67.6373 11.897 67.6559 11.7468 67.6559 11.5965ZM63.2013 11.6004C63.2013 11.4077 63.2225 11.2144 63.2674 11.0246C63.5802 9.66195 64.9301 8.81026 66.2762 9.12709C67.4191 9.39572 68.2156 10.4111 68.2156 11.5965C68.2156 11.7902 68.1944 11.9833 68.1508 12.1731C67.9999 12.8335 67.6036 13.394 67.0352 13.7528C66.4669 14.111 65.7938 14.2245 65.142 14.0706C63.999 13.8035 63.2013 12.7867 63.2013 11.6004Z" fill="#FFC225"/>
<path d="M52.8113 15.8909C52.8113 15.8189 52.8375 15.7464 52.8911 15.6923C52.9995 15.5803 53.1777 15.5773 53.2874 15.6882C55.3677 17.7564 58.6557 17.2595 58.6893 17.2532C58.8426 17.23 58.986 17.3344 59.0096 17.4898C59.0296 17.6475 58.9299 17.7894 58.7766 17.8155C58.6308 17.8386 55.1782 18.3645 52.8948 16.0924C52.8387 16.0372 52.8113 15.9648 52.8113 15.8909Z" fill="#FFC225"/>
<path d="M64.3854 4.56307C64.3854 4.40535 64.4639 4.25167 64.606 4.16145L67.1225 2.57341C67.3419 2.43487 67.631 2.50287 67.7669 2.72469C67.9002 2.94398 67.8379 3.23734 67.6173 3.37626L65.0996 4.96481C64.8815 5.10285 64.5923 5.03485 64.4564 4.81353C64.4091 4.73568 64.3854 4.64937 64.3854 4.56307Z" fill="#FFC225"/>
<path d="M61.4264 3.86722C61.4264 3.7095 61.505 3.55518 61.647 3.46496L64.9189 1.40136C65.1382 1.26333 65.4261 1.33083 65.562 1.55315C65.6966 1.77194 65.633 2.0653 65.4124 2.20472L62.1406 4.26845C61.9225 4.40636 61.6333 4.33886 61.4975 4.11704C61.4501 4.03919 61.4264 3.95302 61.4264 3.86722Z" fill="#FFC225"/>
<path d="M58.47 3.17173C58.47 3.01401 58.5485 2.86021 58.6906 2.77012L62.2142 0.545266C62.4335 0.40723 62.7214 0.47473 62.8585 0.696547C62.9919 0.91584 62.9284 1.20908 62.7077 1.34863L59.1842 3.57348C58.9648 3.71139 58.6769 3.64388 58.541 3.42219C58.4936 3.34421 58.47 3.25804 58.47 3.17173Z" fill="#FFC225"/>
<path d="M55.511 2.47676C55.511 2.31904 55.5883 2.16536 55.7316 2.07514L58.8177 0.127238C59.0371 -0.0107981 59.3262 0.0568365 59.4621 0.278527C59.5967 0.499334 59.5344 0.791679 59.3125 0.930598L56.2252 2.879C56.0058 3.01653 55.7179 2.94903 55.582 2.72721C55.5347 2.64936 55.511 2.56357 55.511 2.47676Z" fill="#FFC225"/>
<path d="M64.4165 18.6618C64.4165 18.4291 64.5836 18.2266 64.8179 18.1936C65.0734 18.1566 65.309 18.3365 65.3464 18.5952C65.3513 18.6321 65.8811 22.3558 66.938 24.7462C67.393 25.7773 68.2168 26.5675 69.26 26.9716C70.302 27.3744 71.4363 27.3423 72.4558 26.8814C74.5585 25.9301 75.5058 23.4244 74.5647 21.2952C73.3645 18.578 71.1272 16.0298 71.106 16.0037C70.9315 15.812 70.9489 15.5113 71.1421 15.3358C71.3341 15.1609 71.6307 15.1781 71.8015 15.3728C71.8975 15.4813 74.1597 18.0581 75.4198 20.9079C76.569 23.5151 75.4098 26.5807 72.8372 27.7464C71.5908 28.3098 70.2011 28.3492 68.926 27.8548C67.6497 27.3625 66.6414 26.395 66.083 25.1332C64.9737 22.6195 64.4427 18.886 64.4203 18.7283C64.4166 18.7061 64.4165 18.683 64.4165 18.6618Z" fill="#FFC225"/>
<path d="M67.9189 24.3027C67.9189 24.2017 67.9563 24.1006 68.0186 24.0375C68.081 23.9873 68.1682 23.9364 68.2679 23.9364C68.3564 23.9364 68.4561 23.9749 68.5184 24.0504C68.6294 24.1632 68.6418 24.4038 68.5184 24.5417C68.4561 24.6182 68.3564 24.6551 68.2679 24.6551C68.1682 24.6551 68.081 24.6182 68.0186 24.5417C67.9563 24.4786 67.9189 24.3899 67.9189 24.3027Z" fill="#FFC225"/>
<path d="M73.2784 23.7729C73.342 23.5832 73.5414 23.4821 73.7147 23.5452C73.9016 23.6088 74.0014 23.8099 73.939 23.9873C73.8767 24.1761 73.6898 24.2766 73.5041 24.2263C73.3532 24.1761 73.2535 24.0375 73.2535 23.8862C73.2535 23.8477 73.266 23.8099 73.2784 23.7729ZM72.0071 25.2736C72.1816 25.1726 72.3935 25.249 72.4808 25.4249C72.5693 25.6015 72.4932 25.8168 72.3187 25.9045C72.1567 25.9932 71.9336 25.9169 71.8451 25.7404C71.8202 25.6902 71.8202 25.6394 71.8202 25.5891C71.8202 25.4511 71.8837 25.324 72.0071 25.2736ZM69.614 25.6394C69.6764 25.4634 69.8758 25.3624 70.064 25.4249C70.2497 25.4758 70.3494 25.6778 70.2871 25.8676C70.226 26.0558 70.0254 26.1574 69.8384 26.0943C69.7025 26.0436 69.6028 25.9045 69.6028 25.7532C69.6028 25.7163 69.6028 25.6778 69.614 25.6394Z" fill="#FFC225"/>
<path d="M73.0915 21.6397C73.0915 21.5387 73.1301 21.4377 73.2037 21.3751C73.2535 21.3242 73.342 21.2864 73.4417 21.2864C73.5277 21.2864 73.615 21.3242 73.6898 21.3873C73.8032 21.4884 73.8269 21.7531 73.6898 21.8925C73.615 21.9551 73.5414 21.9936 73.4417 21.9936C73.342 21.9936 73.2423 21.9551 73.1925 21.8803C73.1301 21.8162 73.0915 21.7284 73.0915 21.6397Z" fill="#FFC225"/>
<path d="M72.0595 22.9655C72.0595 22.7723 72.0146 22.586 71.9286 22.4125C71.627 21.8123 70.9003 21.5722 70.3058 21.8762C69.8995 22.0872 69.6452 22.5047 69.6452 22.967C69.6452 23.1607 69.6901 23.3466 69.7761 23.5201C69.9219 23.8099 70.1724 24.0253 70.4778 24.1277C70.7844 24.2288 71.1122 24.2032 71.3976 24.0553C71.8065 23.8453 72.0595 23.4278 72.0595 22.9655ZM69.0856 22.967C69.0856 22.2893 69.4545 21.6782 70.0528 21.371C70.9215 20.924 71.9872 21.2764 72.4272 22.1562C72.8609 23.0162 72.4995 24.1253 71.6519 24.5615C71.2319 24.7769 70.752 24.8153 70.3046 24.6674C69.8558 24.5186 69.4907 24.2032 69.2775 23.7768C69.1491 23.5225 69.0856 23.2504 69.0856 22.967Z" fill="#FFC225"/>
<path d="M59.6167 33.8339C59.6167 33.7954 59.6216 33.7551 59.6316 33.7151C59.6952 33.4627 59.9507 33.31 60.2012 33.375C61.6882 33.762 64.3505 32.9734 66.8259 31.411C68.6905 30.2354 70.2123 28.7869 71.0025 27.4349C71.1321 27.2107 71.4201 27.1368 71.6419 27.2698C71.865 27.4014 71.9386 27.6927 71.8052 27.9179C70.9427 29.394 69.3074 30.96 67.3207 32.2148C64.5998 33.9309 61.7144 34.7467 59.9669 34.2918C59.7563 34.2365 59.6167 34.0444 59.6167 33.8339Z" fill="#FFC225"/>
<path d="M58.4226 31.441C58.4226 31.3942 58.4301 31.3443 58.4438 31.2975C58.9885 29.5641 60.8992 27.4951 63.4306 25.8981C64.3829 25.2983 65.3526 24.8039 66.3173 24.4318C66.5579 24.3397 66.8283 24.4615 66.9206 24.7054C67.0128 24.9459 66.8919 25.2219 66.6501 25.3171C65.7427 25.6664 64.8266 26.1338 63.9255 26.7016C61.6109 28.1619 59.8074 30.0792 59.335 31.5839C59.2577 31.8324 58.9947 31.9703 58.7492 31.8914C58.5485 31.8275 58.4226 31.6416 58.4226 31.441Z" fill="#FFC225"/>
<path d="M56.8222 31.2843C56.8222 31.0772 56.9568 30.8861 57.1637 30.8284C57.4031 30.7618 57.6473 30.7273 57.8929 30.7273C59.3786 30.7273 60.5851 31.9511 60.5851 33.4539C60.5851 34.7541 59.6727 35.8793 58.4139 36.1292C58.1608 36.1795 57.9153 36.012 57.8655 35.7556C57.8131 35.49 57.9801 35.2504 58.2344 35.2001C59.0545 35.0375 59.6503 34.3032 59.6503 33.4539C59.6503 32.4721 58.8613 31.6737 57.8929 31.6737C57.7321 31.6737 57.5713 31.6959 57.4143 31.7401C57.1662 31.8102 56.9082 31.6628 56.8384 31.411C56.8272 31.3691 56.8222 31.3262 56.8222 31.2843Z" fill="#FFC225"/>
<path d="M39.6194 11.5027C39.4823 9.20696 38.3256 6.93631 36.3301 5.06336C33.1705 2.09634 28.413 0.617686 23.2766 1.00807C16.9324 1.48855 11.5741 6.11225 11.5741 11.1021L11.5753 11.2431C11.6215 13.6577 12.3643 15.5049 13.7827 16.7322C15.3632 18.0999 17.4297 18.3759 18.8356 18.1797C21.2599 17.8412 24.1403 15.9362 24.2862 11.6842C24.2886 11.6172 24.3048 11.5536 24.3323 11.4939C24.4307 11.287 25.459 9.48442 31.0591 9.68264C35.2295 9.83052 38.3082 10.9395 39.6194 11.5027ZM10.6393 11.1021C10.6393 5.54143 16.2755 0.590556 23.2055 0.0641514C28.6012 -0.345919 33.618 1.22396 36.967 4.36939C39.2891 6.55034 40.5691 9.25037 40.5691 11.9686L40.5641 12.2603C40.5579 12.4229 40.4707 12.5708 40.3323 12.6537C40.194 12.735 40.0232 12.7384 39.8811 12.6646C39.8462 12.6463 36.3027 10.8167 31.0267 10.629C26.6481 10.4736 25.4366 11.589 25.2147 11.8512C24.9916 16.5967 21.7198 18.7317 18.9652 19.1162C17.3574 19.3419 14.9917 19.0225 13.1757 17.4518C11.5454 16.0406 10.6916 13.9582 10.6405 11.2598L10.6393 11.1021Z" fill="#FFC225"/>
<path d="M31.7708 7.73322C31.7708 7.72742 31.7708 7.72149 31.7708 7.71354C31.782 7.55733 31.9154 7.43899 32.0699 7.44984C33.3724 7.54005 34.6699 7.7225 35.9375 7.99201C35.1074 6.8688 33.9632 5.87668 32.5897 5.09893C32.4563 5.02297 32.409 4.84746 32.4825 4.71195C32.5585 4.57543 32.7305 4.52711 32.8651 4.60357C34.5527 5.56023 35.9163 6.83031 36.8087 8.2754C36.8698 8.37306 36.8661 8.49873 36.7988 8.59084C36.734 8.68459 36.6181 8.72938 36.5071 8.70175C35.0501 8.35237 33.5444 8.12172 32.0313 8.01674C31.8842 8.00677 31.7708 7.8811 31.7708 7.73322Z" fill="#FFC225"/>
<path d="M20.4909 18.6879L20.881 17.8273C21.655 18.1861 22.4751 18.4301 23.3189 18.5533C26.4374 19.0093 29.3702 18.3035 31.3645 16.6164C32.4326 15.7119 33.1219 14.6152 33.3537 13.4679C32.4102 13.7616 30.6241 14.1816 28.3407 14.1012C24.9119 13.9794 24.2849 12.8474 24.1939 12.6216L25.0602 12.2643C25.0602 12.2569 25.5687 13.0553 28.3731 13.1549C31.519 13.2673 33.7002 12.3456 33.7214 12.3372C33.8685 12.2731 34.0368 12.2899 34.1689 12.3825C34.301 12.4728 34.387 12.6256 34.372 12.7882C34.3134 14.46 33.4597 16.0776 31.964 17.3424C29.7666 19.2015 26.5658 19.9836 23.1843 19.4898C22.2533 19.3542 21.3484 19.0841 20.4909 18.6879Z" fill="#FFC225"/>
<path d="M21.478 12.2899C21.5166 12.1017 21.7024 11.9745 21.8893 12.0128C22.0775 12.0508 22.2009 12.2396 22.1635 12.4294C22.1274 12.6191 21.9516 12.7448 21.7522 12.7064C21.5902 12.6817 21.4668 12.5304 21.4668 12.3663C21.4668 12.3406 21.4668 12.316 21.478 12.2899ZM21.478 9.79254C21.6662 9.71608 21.8644 9.80477 21.9392 9.99454C22.014 10.1711 21.9279 10.3726 21.7397 10.448C21.5665 10.5245 21.3546 10.4357 21.2786 10.246C21.2661 10.209 21.2549 10.1711 21.2549 10.1202C21.2549 9.9813 21.3409 9.84276 21.478 9.79254ZM20.5432 14.12C20.6816 13.9682 20.9047 13.9682 21.043 14.1076C21.1789 14.2333 21.1926 14.461 21.0542 14.5991C20.9171 14.7509 20.6928 14.7509 20.5557 14.6113C20.4809 14.5487 20.4435 14.4477 20.4435 14.3605C20.4435 14.2718 20.4809 14.1826 20.5432 14.12ZM19.9586 8.13888C20.0696 7.97485 20.2939 7.93688 20.4435 8.0517C20.6055 8.1645 20.6429 8.39123 20.532 8.55538C20.4198 8.70667 20.1942 8.74515 20.0322 8.63185C19.9462 8.56775 19.8963 8.45432 19.8963 8.34101C19.8963 8.26556 19.9088 8.20298 19.9586 8.13888ZM18.7484 15.155C18.7621 15.155 18.7733 15.1426 18.7858 15.1426C18.974 15.0919 19.1734 15.2052 19.2096 15.394C19.2594 15.5961 19.1472 15.7859 18.9615 15.8361C18.9478 15.8361 18.9353 15.8361 18.9229 15.8361C18.9117 15.8361 18.9117 15.8361 18.9117 15.8361C18.9117 15.8361 18.9117 15.8361 18.9117 15.849C18.7234 15.8869 18.5365 15.7735 18.4866 15.5837C18.4866 15.5454 18.4742 15.5207 18.4742 15.495C18.4742 15.3309 18.5863 15.192 18.7484 15.155ZM17.7887 7.58447C17.8011 7.38233 17.9769 7.23105 18.1626 7.24291C18.3508 7.25666 18.5004 7.42081 18.4866 7.62143C18.4866 7.8112 18.3246 7.96299 18.1252 7.95012C17.9382 7.93687 17.7887 7.78647 17.7887 7.5967L17.7887 7.58447ZM16.2805 15.2422C16.3428 15.0663 16.5422 14.9652 16.7305 15.0283C16.9162 15.1041 17.0034 15.3068 16.9423 15.4827C16.8788 15.6724 16.6806 15.7735 16.4924 15.6972C16.3553 15.6463 16.2556 15.5074 16.2556 15.3694C16.2556 15.3186 16.2693 15.2807 16.2805 15.2422ZM15.8069 7.8112C15.9689 7.71014 16.1933 7.77322 16.2805 7.95012C16.3802 8.11427 16.3192 8.32865 16.1571 8.42971C15.9814 8.53078 15.7695 8.4677 15.6698 8.29029C15.6461 8.23995 15.6324 8.17736 15.6324 8.11427C15.6324 8.00097 15.696 7.87379 15.8069 7.8112ZM14.5991 13.7666C14.7475 13.6409 14.973 13.665 15.084 13.8302C15.2086 13.9804 15.1837 14.2087 15.0229 14.322C14.8721 14.4477 14.649 14.4107 14.5356 14.2589C14.4857 14.1963 14.4608 14.12 14.4608 14.045C14.4608 13.9435 14.5106 13.8302 14.5991 13.7666ZM14.1242 9.57816C14.2239 9.40063 14.4234 9.33755 14.5991 9.42625C14.7724 9.51407 14.8347 9.72945 14.7474 9.90584C14.6614 10.0819 14.4495 10.1449 14.2738 10.0571C14.1492 9.99454 14.0881 9.86749 14.0881 9.74169C14.0881 9.67911 14.0993 9.62889 14.1242 9.57816ZM13.9759 11.5965C14.1616 11.5717 14.3374 11.7221 14.3498 11.9119C14.3611 12.1139 14.2239 12.2899 14.0258 12.3037C13.8376 12.316 13.6643 12.1765 13.6506 11.9745C13.6506 11.9745 13.6506 11.9626 13.6506 11.9498C13.6506 11.7724 13.7877 11.6087 13.9759 11.5965Z" fill="#FFC225"/>
<path d="M19.8826 11.6024C19.8826 11.452 19.8639 11.3007 19.8315 11.1528C19.7131 10.6403 19.4065 10.205 18.9652 9.92653C18.524 9.64806 18.0018 9.56088 17.4958 9.6791C16.4637 9.92313 15.8056 10.9902 16.0399 12.0449C16.1583 12.5575 16.465 12.9922 16.9062 13.2707C17.3474 13.5492 17.8697 13.637 18.3757 13.5186C19.2631 13.3102 19.8826 12.5216 19.8826 11.6024ZM15.4292 11.5965C15.4292 10.4111 16.2257 9.39571 17.3686 9.12708C18.0217 8.9729 18.6935 9.08621 19.2619 9.44505C19.8303 9.80339 20.2254 10.3642 20.3774 11.0246C20.4211 11.2144 20.4422 11.4091 20.4422 11.6024C20.4422 12.7882 19.6458 13.8035 18.5028 14.0706C17.8497 14.2245 17.1779 14.111 16.6096 13.7528C16.0412 13.394 15.6461 12.8335 15.4953 12.1731C15.4504 11.9833 15.4292 11.7902 15.4292 11.5965Z" fill="#FFC225"/>
<path d="M24.6327 17.534C24.6327 17.5198 24.6339 17.505 24.6352 17.4897C24.6588 17.3344 24.8021 17.23 24.9555 17.2532C24.9891 17.2595 28.2771 17.7564 30.3574 15.6882C30.4671 15.5773 30.6453 15.5803 30.7537 15.6923C30.8622 15.8017 30.8609 15.983 30.75 16.0924C28.4653 18.3645 25.014 17.8386 24.8682 17.8155C24.7299 17.7918 24.6327 17.6726 24.6327 17.534Z" fill="#FFC225"/>
<path d="M15.8069 2.97464C15.8069 2.88885 15.8306 2.80203 15.8779 2.72469C16.015 2.50287 16.3029 2.43487 16.5223 2.57341L19.0388 4.16145C19.2594 4.30037 19.3242 4.59373 19.1884 4.81353C19.0525 5.03484 18.7646 5.10285 18.5452 4.96481L16.0275 3.37626C15.8854 3.28655 15.8069 3.13236 15.8069 2.97464Z" fill="#FFC225"/>
<path d="M18.0105 1.80298C18.0105 1.7168 18.0342 1.6305 18.0816 1.55315C18.2174 1.33083 18.5066 1.26333 18.7247 1.40136L21.9977 3.46496C22.2196 3.60451 22.2832 3.89623 22.1473 4.11704C22.0115 4.33886 21.7235 4.40636 21.5042 4.26845L18.2311 2.20472C18.089 2.11451 18.0105 1.9607 18.0105 1.80298Z" fill="#FFC225"/>
<path d="M20.7164 0.94637C20.7164 0.860697 20.7401 0.773891 20.7875 0.696545C20.9234 0.474728 21.2113 0.407228 21.4306 0.545264L24.9542 2.77012C25.1748 2.90954 25.2384 3.20138 25.1038 3.42219C24.9679 3.64388 24.68 3.71139 24.4606 3.57348L20.9371 1.34862C20.7937 1.25841 20.7164 1.10409 20.7164 0.94637Z" fill="#FFC225"/>
<path d="M24.1129 0.528982C24.1129 0.442678 24.1353 0.356502 24.1827 0.278525C24.3198 0.056835 24.6077 -0.0107996 24.8271 0.127236L27.9132 2.07514C28.1338 2.21457 28.1974 2.50779 28.0628 2.72721C27.9269 2.94903 27.639 3.01653 27.4196 2.879L24.3323 0.930597C24.1902 0.840507 24.1129 0.686701 24.1129 0.528982Z" fill="#FFC225"/>
<path d="M7.78128 23.0123C7.78128 22.3075 7.92338 21.5919 8.22501 20.9079C9.48512 18.0581 11.7461 15.4813 11.8421 15.3728C12.0141 15.1781 12.3095 15.1609 12.5014 15.3358C12.6934 15.5113 12.7108 15.812 12.5376 16.0037C12.5164 16.0284 10.2778 18.5819 9.08005 21.2952C8.13777 23.4229 9.08627 25.9291 11.189 26.8814C12.2085 27.3423 13.3427 27.3743 14.3847 26.9716C15.428 26.5675 16.2518 25.7773 16.7068 24.7462C17.765 22.3534 18.2922 18.6332 18.2984 18.5952C18.3333 18.3365 18.5701 18.1566 18.8257 18.1936C19.0787 18.2305 19.2582 18.4498 19.2233 18.7283C19.2008 18.886 18.6711 22.6195 17.5618 25.1332C17.0034 26.395 15.9951 27.3625 14.7188 27.8548C13.4437 28.3492 12.054 28.3098 10.8075 27.7464C8.90928 26.8863 7.78128 24.9928 7.78128 23.0123Z" fill="#FFC225"/>
<path d="M15.0229 24.3027C15.0229 24.2017 15.0727 24.1006 15.1338 24.0375C15.1961 23.9749 15.2846 23.9364 15.3843 23.9364C15.4703 23.9364 15.57 23.9873 15.6324 24.0504C15.6959 24.1006 15.7321 24.2017 15.7321 24.3027C15.7321 24.3899 15.6959 24.4786 15.6324 24.5417C15.57 24.6182 15.4703 24.6551 15.3843 24.6551C15.2846 24.6551 15.1961 24.6182 15.1338 24.5417C15.059 24.4786 15.0229 24.3899 15.0229 24.3027Z" fill="#FFC225"/>
<path d="M13.5883 25.4249L13.5758 25.4249C13.7628 25.3624 13.9622 25.4634 14.0258 25.6517C14.0881 25.8291 13.9884 26.0317 13.8002 26.0943C13.6144 26.1574 13.415 26.0558 13.3652 25.8676C13.3527 25.8291 13.339 25.7912 13.339 25.7532C13.339 25.6015 13.4387 25.4634 13.5883 25.4249ZM11.1715 25.4249C11.2575 25.249 11.4694 25.1726 11.6451 25.2613C11.8072 25.3501 11.8807 25.5645 11.7947 25.7404C11.7062 25.9169 11.4956 25.9932 11.3198 25.9045C11.2077 25.8419 11.1329 25.7163 11.1329 25.5891C11.1329 25.5384 11.1453 25.4758 11.1715 25.4249ZM9.93756 23.5452C10.1108 23.4821 10.3102 23.5831 10.3726 23.7729C10.4349 23.9612 10.3352 24.1632 10.1482 24.214C9.96124 24.2766 9.77553 24.1761 9.71196 23.9873C9.69949 23.9612 9.68703 23.9242 9.68703 23.8862C9.68703 23.7349 9.78675 23.5954 9.93756 23.5452Z" fill="#FFC225"/>
<path d="M9.86155 21.6397C9.86155 21.5387 9.89892 21.4377 9.97496 21.3751C10.0236 21.3242 10.1108 21.2864 10.2105 21.2864C10.299 21.2864 10.3987 21.3242 10.4598 21.4007C10.5608 21.476 10.5845 21.7531 10.4486 21.8925C10.3987 21.9429 10.3102 21.9936 10.2105 21.9936C10.1108 21.9936 10.0236 21.9551 9.96123 21.8803C9.89892 21.8294 9.86155 21.7284 9.86155 21.6397Z" fill="#FFC225"/>
<path d="M13.9984 22.967C13.9984 22.5047 13.7453 22.0857 13.339 21.8762C12.7445 21.5722 12.0178 21.8123 11.7162 22.4125C11.4245 23.0001 11.6676 23.759 12.2459 24.0538C12.5338 24.2032 12.8604 24.2288 13.167 24.1277C13.4724 24.0253 13.7229 23.8099 13.8687 23.5201C13.9547 23.3466 13.9984 23.1607 13.9984 22.967ZM11.0257 22.9655C11.0257 22.6826 11.0892 22.4101 11.2176 22.1562C11.6576 21.2764 12.7233 20.924 13.592 21.371C14.189 21.6781 14.5605 22.2893 14.5605 22.967C14.5605 23.2504 14.4957 23.5225 14.3685 23.7768C14.1541 24.2032 13.789 24.5186 13.3402 24.6674C12.8928 24.8152 12.4129 24.7769 11.9916 24.5605C11.3946 24.2549 11.0257 23.6432 11.0257 22.9655Z" fill="#FFC225"/>
<path d="M11.7735 27.6764C11.7735 27.5153 11.8558 27.3576 12.0029 27.2697C12.2247 27.1368 12.5126 27.2107 12.6422 27.4349C13.4325 28.7869 14.9543 30.2354 16.8189 31.411C19.2943 32.9734 21.9566 33.762 23.4436 33.375C23.6954 33.31 23.9496 33.4627 24.0132 33.7151C24.078 33.9704 23.9259 34.2267 23.6779 34.2918C21.9317 34.7467 19.045 33.9309 16.3254 32.2148C14.3374 30.96 12.7021 29.394 11.8396 27.9179C11.7947 27.8416 11.7735 27.7587 11.7735 27.6764Z" fill="#FFC225"/>
<path d="M16.6931 24.8744C16.6931 24.8178 16.703 24.7611 16.7242 24.7054C16.8165 24.4615 17.0869 24.3397 17.3275 24.4318C18.2922 24.8054 19.2631 25.2983 20.2129 25.8981C22.7443 27.4951 24.6563 29.5626 25.201 31.2975C25.2783 31.548 25.1424 31.8126 24.8956 31.8914C24.6501 31.9703 24.3871 31.8324 24.3098 31.5839C23.8374 30.0777 22.0351 28.1619 19.7181 26.7016C18.8194 26.1338 17.9021 25.668 16.9947 25.3171C16.8077 25.2441 16.6931 25.0652 16.6931 24.8744Z" fill="#FFC225"/>
<path d="M23.0597 33.4539C23.0597 31.9511 24.2675 30.7273 25.7519 30.7273C25.9975 30.7273 26.243 30.7618 26.4811 30.8284C26.7291 30.8983 26.8787 31.1635 26.8064 31.411C26.7366 31.6628 26.4786 31.8102 26.2305 31.7401C26.0735 31.6959 25.9127 31.6737 25.7519 31.6737C24.7835 31.6737 23.9945 32.4721 23.9945 33.4539C23.9945 34.3032 24.5903 35.0375 25.4117 35.2001C25.6647 35.2504 25.8329 35.4884 25.7793 35.7556C25.7295 36.0119 25.4839 36.1795 25.2309 36.1292C23.972 35.8793 23.0597 34.7541 23.0597 33.4539Z" fill="#FFC225"/>
<path d="M13.7403 55.9342C13.7403 55.8257 13.789 55.7222 13.8762 55.6541L18.256 52.1893C18.4081 52.0682 18.6287 52.0959 18.7484 52.2511C18.8668 52.4038 18.8406 52.6284 18.6873 52.7483L14.7474 55.8661L17.3237 57.1531L19.3255 53.4397C19.4177 53.2681 19.6308 53.205 19.8016 53.2984C19.9711 53.393 20.0322 53.6075 19.9412 53.7804L17.7787 57.7915C17.6877 57.958 17.4833 58.0237 17.315 57.9391L13.9373 56.2522C13.8288 56.1979 13.7553 56.0919 13.7428 55.9695C13.7403 55.9582 13.7403 55.9468 13.7403 55.9342Z" fill="#FFC225"/>
<path d="M17.9931 51.6732C17.9931 51.3452 18.0604 51.0121 18.2025 50.6966C18.3321 50.409 18.5103 50.1566 18.7334 49.9459C18.8755 49.8109 19.0974 49.8185 19.2295 49.961C19.3616 50.1061 19.3529 50.3307 19.2133 50.4632C19.0563 50.6108 18.9316 50.7888 18.8406 50.9894C18.6599 51.3931 18.6462 51.8448 18.7995 52.2625C18.954 52.6789 19.2594 53.0094 19.6582 53.1924C20.2328 53.4561 20.7825 53.4435 21.2051 53.1596C21.3646 53.0498 21.5827 53.094 21.6899 53.2567C21.7996 53.4183 21.7547 53.6403 21.5939 53.7476C20.9632 54.1753 20.173 54.2081 19.3691 53.8384C18.5053 53.441 17.9931 52.5767 17.9931 51.6732Z" fill="#FFC225"/>
<path d="M16.5211 58.9107L14.2763 57.842L16.7168 64.417L16.5211 58.9107ZM13.2941 57.148C13.2941 57.0508 13.3328 56.9549 13.4076 56.8868C13.5123 56.7897 13.6655 56.7657 13.7939 56.8262L17.0121 58.3605C17.1306 58.4173 17.2091 58.5359 17.2128 58.6697L17.4945 66.5657C17.5082 66.7298 17.3811 66.8913 17.2128 66.9253C17.0446 66.9594 16.8763 66.8648 16.8152 66.702L13.3153 57.2716C13.3016 57.2313 13.2941 57.1896 13.2941 57.148Z" fill="#FFC225"/>
<path d="M12.7619 34.349C12.7619 34.2918 12.7756 34.2351 12.8018 34.1833C12.8753 34.0444 13.0286 33.9704 13.1807 34.0015L19.1772 35.21C19.2569 35.2263 19.3292 35.2692 19.3803 35.3333L22.4739 39.1604C22.5973 39.3093 22.5748 39.5352 22.424 39.6588C22.2744 39.7837 22.0538 39.761 21.9317 39.6083L18.9179 35.8804L14.2015 34.93L17.4733 38.1674L21.8793 40.7086C22.0464 40.807 22.1037 41.0253 22.009 41.1918C21.913 41.3622 21.6999 41.4215 21.5303 41.3243L17.0869 38.7617C17.0608 38.7466 17.0371 38.7276 17.0159 38.7074L12.8679 34.6023C12.7981 34.5338 12.7619 34.4421 12.7619 34.349Z" fill="#FFC225"/>
<path d="M21.3945 40.9054C21.3945 40.8827 21.3957 40.8625 21.3957 40.8398C21.4132 40.1559 21.6899 39.52 22.1797 39.0494C22.6671 38.5775 23.309 38.3277 23.9833 38.3428C24.3173 38.3516 24.6389 38.4248 24.9443 38.5611C25.1188 38.6406 25.201 38.8551 25.1212 39.0279C25.044 39.2084 24.8371 39.2891 24.6601 39.2096C24.4395 39.1125 24.2076 39.0595 23.9658 39.0532C23.4797 39.0405 23.0161 39.2222 22.6621 39.5629C22.3094 39.9036 22.1087 40.3629 22.0962 40.8575C22.0962 40.8726 22.095 40.889 22.095 40.9042C22.095 41.5312 22.4028 42.1066 22.9251 42.4511C23.0858 42.5583 23.132 42.7791 23.026 42.9432C22.9213 43.1072 22.7045 43.1526 22.5412 43.0454C21.8208 42.5684 21.3945 41.771 21.3945 40.9054Z" fill="#FFC225"/>
<path d="M16.9099 38.4526C16.9099 38.3794 16.9324 38.3049 16.9797 38.2418L17.8622 37.0356C17.9769 36.8779 18.1962 36.8451 18.352 36.9624C18.5091 37.0785 18.5427 37.3031 18.4243 37.457L17.5419 38.6633C17.4272 38.821 17.2078 38.8551 17.0533 38.7377C16.9585 38.6683 16.9099 38.5611 16.9099 38.4526Z" fill="#FFC225"/>
<path d="M11.2887 35.7754L5.29971 38.1889L13.3278 37.7245L11.2887 35.7754ZM2.81314 38.6683C2.81314 38.5257 2.89789 38.3945 3.03251 38.339L11.2363 35.0311C11.3647 34.9808 11.508 35.0089 11.6078 35.104L14.4009 37.7737C14.5006 37.8696 14.533 38.0223 14.4894 38.1535C14.4408 38.2873 14.3187 38.3781 14.1791 38.3869L3.18332 39.0241C3.01131 39.033 2.85802 38.9156 2.82187 38.7453C2.81563 38.7188 2.81314 38.6948 2.81314 38.6683Z" fill="#FFC225"/>
<path d="M9.97246 43.8769C9.97246 43.8605 9.97371 43.8428 9.9762 43.8239C9.9949 43.6926 10.0871 43.5829 10.2118 43.5412L15.0765 41.8997C15.1737 41.8656 15.2821 41.8782 15.3694 41.9325L19.3766 44.4131C19.5423 44.5166 19.5922 44.7336 19.4937 44.9014C19.3915 45.0692 19.1759 45.1222 19.0114 45.0187L15.1425 42.6252L11.0867 43.9929L13.936 46.0521L18.4256 45.6812C18.6175 45.6648 18.787 45.8098 18.8032 46.0067C18.8244 46.2073 18.6748 46.3726 18.4817 46.3877L13.8637 46.7701C13.7815 46.7776 13.6992 46.7536 13.6319 46.7044L10.1195 44.1658C10.026 44.0989 9.97246 43.9904 9.97246 43.8769Z" fill="#FFC225"/>
<path d="M18.1239 46.3587C18.1239 46.1745 18.1439 45.9878 18.185 45.8023C18.4842 44.4245 19.834 43.5501 21.1963 43.8541C21.5204 43.9261 21.8245 44.0598 22.095 44.2516C22.2558 44.3614 22.2956 44.5834 22.1835 44.7449C22.0738 44.9064 21.8544 44.9456 21.6961 44.8333C21.4992 44.6957 21.2798 44.5986 21.0455 44.5456C20.0621 44.3286 19.0849 44.9594 18.8693 45.955C18.7334 46.5846 18.9229 47.2306 19.3816 47.6798C19.5224 47.816 19.5236 48.0407 19.3903 48.182C19.2544 48.3233 19.0326 48.3258 18.8942 48.1895C18.3957 47.7 18.1239 47.0426 18.1239 46.3587Z" fill="#FFC225"/>
<path d="M13.5833 46.1972C13.5833 46.1455 13.5945 46.0938 13.6182 46.0458L14.5031 44.1557C14.5854 43.9778 14.7948 43.9034 14.9693 43.9866C15.1438 44.0712 15.2211 44.2844 15.135 44.4585L14.2501 46.3486C14.1679 46.5265 13.9585 46.601 13.784 46.5177C13.6581 46.4571 13.5833 46.331 13.5833 46.1972Z" fill="#FFC225"/>
<path d="M9.82041 45.6496L5.78828 49.9976L11.6638 47.1385L9.82041 45.6496ZM3.89626 51.1408C3.89626 51.0537 3.92742 50.9654 3.99099 50.8985L9.52998 44.9254C9.65587 44.7904 9.86154 44.7752 10.0049 44.8913L12.5376 46.9366C12.6323 47.0136 12.6734 47.1448 12.6672 47.2533C12.6535 47.3757 12.5799 47.4817 12.4715 47.5347L4.39856 51.4613C4.2465 51.5357 4.06452 51.4878 3.96481 51.3502C3.91745 51.2871 3.89626 51.2152 3.89626 51.1408Z" fill="#FFC225"/>
<path d="M41.6498 17.2915C41.6498 17.0968 41.8043 16.9391 41.9963 16.9367C42.1895 16.9342 42.3478 17.0919 42.3502 17.2876L42.3876 21.0315C42.3739 21.2345 42.2343 21.3873 42.0399 21.3898C41.8467 21.3922 41.6884 21.2345 41.6859 21.0384L41.6498 17.2951C41.6498 17.2941 41.6498 17.2925 41.6498 17.2915Z" fill="#FFC225"/>
<path d="M38.3044 18.4242C38.3044 18.2685 38.4054 18.1269 38.5587 18.0827C38.7457 18.0284 38.9401 18.1378 38.9924 18.3267L39.6356 20.616C39.6929 20.8107 39.5795 21.0005 39.3938 21.0547C39.2081 21.1089 39.0136 20.9989 38.9613 20.8107L38.3181 18.5212C38.3082 18.4883 38.3044 18.4563 38.3044 18.4242Z" fill="#FFC225"/>
<path d="M44.4242 20.7132C44.4242 20.685 44.428 20.6555 44.4355 20.6274L45.0051 18.3374C45.0525 18.1468 45.2431 18.0319 45.4301 18.0801C45.6183 18.1269 45.7355 18.3202 45.6844 18.51L45.1148 20.7993C45.0674 20.9906 44.878 21.1054 44.6897 21.0571C44.5302 21.0167 44.4242 20.8723 44.4242 20.7132Z" fill="#FFC225"/>
<path d="M42 47.729L41.5837 49.0248C41.5463 49.1422 41.4391 49.2217 41.317 49.2217L39.9709 49.2217L41.059 50.0229C41.1574 50.096 41.2011 50.2273 41.1612 50.3396L40.7449 51.6379L41.8355 50.8367C41.9327 50.7635 42.0673 50.7635 42.1645 50.8367L43.2551 51.6379L42.8388 50.3396C42.8002 50.2273 42.8426 50.096 42.941 50.0229L44.0304 49.2217L42.683 49.2217C42.5609 49.2217 42.4537 49.1422 42.4163 49.0248L42 47.729ZM38.8279 48.9378C38.8279 48.9087 38.8317 48.8784 38.8416 48.8507C38.879 48.7333 38.9862 48.6539 39.1084 48.6539L41.1138 48.6539L41.7333 46.7221C41.7719 46.6048 41.8779 46.5265 42 46.5265C42.1221 46.5265 42.2294 46.6048 42.2667 46.7221L42.8862 48.6539L44.8929 48.6539C45.015 48.6539 45.1222 48.7333 45.1596 48.8507C45.1983 48.963 45.1571 49.0942 45.0574 49.1674L43.4359 50.361L44.0553 52.2928C44.0927 52.4063 44.0528 52.5375 43.9531 52.6095C43.8547 52.6826 43.7213 52.6826 43.6241 52.6095L42 51.4171L40.3759 52.6095C40.2787 52.6826 40.1454 52.6826 40.0481 52.6095C39.9497 52.5375 39.9048 52.4063 39.9459 52.2928L40.5654 50.361L38.9438 49.1674C38.869 49.1131 38.8279 49.0261 38.8279 48.9378Z" fill="#FFC225"/>
<path d="M1.85217 30.8693C1.85217 30.8481 1.85464 30.8259 1.85963 30.8037C1.89452 30.6524 2.04536 30.5572 2.19742 30.5927L8.89434 32.1813C9.04391 32.2167 9.13862 32.3695 9.10248 32.5223C9.06634 32.6741 8.91553 32.7687 8.76471 32.7333L2.06779 31.1447C1.93941 31.1142 1.85217 30.9984 1.85217 30.8693Z" fill="#FFC225"/>
<path d="M4.46462 29.0372L4.74381 29.5306L2.34199 30.918L3.88502 33.2419L3.41888 33.5588L1.53932 30.7283L4.46462 29.0372Z" fill="#FFC225"/>
<path d="M5.74843 56.7669C5.74843 56.6748 5.79329 56.584 5.87681 56.5285L11.6526 52.7495C11.7835 52.665 11.9567 52.7028 12.0415 52.8353C12.1213 52.9678 12.0876 53.1407 11.958 53.2277L6.18092 57.0054C6.05005 57.0912 5.87803 57.0534 5.79203 56.9209C5.76336 56.8729 5.74843 56.8199 5.74843 56.7669Z" fill="#FFC225"/>
<path d="M6.34421 53.7955L6.88887 53.9343L6.20833 56.6483L8.93171 57.1379L8.83326 57.6969L5.51658 57.1013L6.34421 53.7955Z" fill="#FFC225"/>
<path d="M0.315344 43.5904C0.315344 43.4592 0.403837 43.3419 0.534712 43.3128L7.24785 41.8038C7.39866 41.7685 7.54947 41.8656 7.58312 42.0195C7.62051 42.181 7.51956 42.3236 7.36999 42.3577L0.655615 43.8668C0.504797 43.9021 0.355238 43.8049 0.321585 43.6523C0.316603 43.6308 0.315344 43.6094 0.315344 43.5904Z" fill="#FFC225"/>
<path d="M1.91199 40.9155L2.3744 41.2373L0.805166 43.5425L3.19081 44.9582L2.90537 45.449L-1.87568e-06 43.7229L1.91199 40.9155Z" fill="#FFC225"/>
<path d="M64.0165 53.61C64.0165 53.4839 64.0825 53.364 64.1997 53.2984C64.3692 53.205 64.5823 53.2681 64.6758 53.4397L66.6763 57.1531L69.2526 55.8661L65.3127 52.7483C65.1594 52.6271 65.1345 52.4025 65.2516 52.2511C65.3713 52.0959 65.5919 52.0682 65.744 52.1893L70.1251 55.6541C70.221 55.7298 70.2784 55.8598 70.2572 55.9695C70.2447 56.0919 70.1724 56.1979 70.064 56.2522L66.685 57.9391C66.5167 58.0237 66.3123 57.958 66.2226 57.7915L64.0588 53.7804C64.0301 53.7261 64.0165 53.6681 64.0165 53.61Z" fill="#FFC225"/>
<path d="M62.2515 53.4536C62.2515 53.3854 62.2715 53.3173 62.3114 53.2568C62.4185 53.094 62.6367 53.0498 62.7975 53.1596C63.2188 53.4448 63.7672 53.4561 64.343 53.1924C64.7418 53.0094 65.0472 52.6789 65.2018 52.2625C65.3576 51.8474 65.3426 51.3919 65.1594 50.9894C65.0709 50.79 64.945 50.6134 64.7867 50.4632C64.6484 50.3307 64.6396 50.1061 64.7718 49.961C64.9026 49.8185 65.1245 49.8109 65.2666 49.9459C65.4922 50.1591 65.6704 50.4115 65.7988 50.6966C66.3298 51.884 65.8113 53.2971 64.6322 53.8384C63.8282 54.2081 63.0368 54.1753 62.4073 53.7476C62.3064 53.6807 62.2515 53.5684 62.2515 53.4536Z" fill="#FFC225"/>
<path d="M67.4802 58.9107L67.2845 64.417L69.725 57.842L67.4802 58.9107ZM66.5068 66.5771C66.5068 66.5746 66.5068 66.5695 66.5068 66.5657L66.7885 58.6697C66.7934 58.5359 66.8707 58.4173 66.9891 58.3605L70.2073 56.8262C70.337 56.7657 70.4903 56.7897 70.595 56.8868C70.7009 56.9852 70.7333 57.1379 70.686 57.2716L67.2035 66.6553C67.1748 66.8231 67.0303 66.9493 66.857 66.9493C66.6638 66.9493 66.5068 66.7903 66.5068 66.5948C66.5068 66.591 66.5068 66.5859 66.5068 66.5771Z" fill="#FFC225"/>
<path d="M61.3629 39.4885C61.3629 39.409 61.389 39.3295 61.4426 39.2639L64.6222 35.3333C64.6733 35.2692 64.7444 35.2263 64.8254 35.21L70.8205 34.0015C70.9726 33.9704 71.1259 34.0444 71.1995 34.1833C71.2717 34.3189 71.2456 34.4904 71.1334 34.6023L66.9854 38.7074C66.9642 38.7276 66.9405 38.7466 66.9143 38.7617L62.4709 41.3243C62.3014 41.4215 62.0883 41.3622 61.9923 41.1918C61.8951 41.0253 61.9524 40.807 62.1232 40.7086L66.5279 38.1674L69.7998 34.93L65.0846 35.8804L61.9848 39.7118C61.8627 39.8657 61.6421 39.8872 61.4925 39.7623C61.4065 39.6929 61.3629 39.5907 61.3629 39.4885Z" fill="#FFC225"/>
<path d="M58.8489 38.8853C58.8489 38.7503 58.9261 38.6191 59.057 38.5611C59.3611 38.4248 59.684 38.3516 60.0167 38.3428C61.4102 38.3087 62.5719 39.4292 62.6055 40.8398C62.6442 41.7003 62.1992 42.5545 61.4601 43.0454C61.2993 43.1526 61.0812 43.1072 60.9752 42.9432C60.868 42.7791 60.9142 42.5583 61.0762 42.4511C61.6109 42.0978 61.9113 41.4959 61.905 40.8575C61.8801 39.838 61.0413 39.0279 60.0342 39.0532C59.7936 39.0595 59.5606 39.1125 59.34 39.2096C59.1642 39.2891 58.9573 39.2084 58.8788 39.0279C58.8589 38.9825 58.8489 38.9333 58.8489 38.8853Z" fill="#FFC225"/>
<path d="M65.5072 37.2463C65.5072 37.1378 65.5557 37.0306 65.648 36.9624C65.8038 36.8451 66.0244 36.8779 66.1378 37.0344L67.0215 38.2406C67.1387 38.3983 67.105 38.6216 66.9505 38.7377C66.7947 38.8551 66.5741 38.821 66.4594 38.6645L65.5757 37.4583C65.5283 37.3952 65.5072 37.3208 65.5072 37.2463Z" fill="#FFC225"/>
<path d="M72.7126 35.7754L70.6735 37.7245L78.7015 38.1889L72.7126 35.7754ZM69.4906 38.0311C69.4906 37.9352 69.5293 37.8419 69.6003 37.7737L72.3935 35.104C72.4932 35.0089 72.6366 34.9808 72.7649 35.0311L80.9688 38.339C81.1283 38.4034 81.2205 38.575 81.1807 38.7453C81.1433 38.9156 80.9899 39.033 80.8192 39.0241L69.8209 38.3869C69.6813 38.3781 69.5592 38.2873 69.5106 38.1535C69.4981 38.1132 69.4906 38.0728 69.4906 38.0311Z" fill="#FFC225"/>
<path d="M64.4564 44.7159C64.4564 44.5973 64.5163 44.4812 64.6247 44.4131L68.6319 41.9325C68.7204 41.8782 68.8288 41.8656 68.926 41.8997L73.7882 43.5412C73.9141 43.5829 74.0051 43.6926 74.0238 43.8239C74.04 43.9614 73.9877 44.0888 73.8805 44.1658L70.3694 46.7044C70.3021 46.7537 70.2198 46.7776 70.1375 46.7701L65.5183 46.3877C65.3252 46.3726 65.1669 46.2048 65.1968 46.0067C65.213 45.8099 65.3825 45.6648 65.5745 45.6812L70.0665 46.0521L72.9133 43.9929L68.8587 42.6252L64.9886 45.0187C64.8253 45.1222 64.6085 45.0692 64.5075 44.9014C64.4726 44.8434 64.4564 44.779 64.4564 44.7159Z" fill="#FFC225"/>
<path d="M61.7555 44.5431C61.7555 44.4308 61.8078 44.321 61.905 44.2516C62.1755 44.0611 62.4784 43.9261 62.8062 43.8541C64.1673 43.5501 65.5171 44.4245 65.8175 45.8023C66.007 46.6767 65.7402 47.5662 65.1083 48.1895C64.97 48.3258 64.7469 48.3233 64.6122 48.182C64.4776 48.0407 64.4801 47.8161 64.6197 47.6798C65.0771 47.2293 65.2678 46.5821 65.1332 45.955C64.9164 44.9594 63.9404 44.3286 62.957 44.5456C62.719 44.5986 62.5008 44.6957 62.3064 44.8333C62.1481 44.9456 61.9287 44.9064 61.819 44.7462C61.7754 44.6844 61.7555 44.6125 61.7555 44.5431Z" fill="#FFC225"/>
<path d="M68.8313 44.3071C68.8313 44.1746 68.9061 44.0472 69.0332 43.9866C69.2077 43.9034 69.4159 43.9778 69.4994 44.1557L70.3831 46.0458C70.4678 46.2237 70.3906 46.4344 70.2161 46.5177C70.0403 46.601 69.8322 46.5265 69.7499 46.3486L68.8662 44.4585C68.8425 44.4093 68.8313 44.3576 68.8313 44.3071Z" fill="#FFC225"/>
<path d="M74.1796 45.6496L72.3362 47.1385L78.213 49.9976L74.1796 45.6496ZM71.3303 47.2142C71.3303 47.1069 71.3777 47.0047 71.4625 46.9366L73.9951 44.8913C74.1385 44.7752 74.3441 44.7904 74.47 44.9254L80.0103 50.8985C80.1274 51.0234 80.1387 51.2127 80.0377 51.3502C79.938 51.4878 79.7547 51.5357 79.6027 51.4613L71.5298 47.5347C71.4213 47.4817 71.3465 47.3757 71.3328 47.2533C71.3316 47.2407 71.3303 47.2268 71.3303 47.2142Z" fill="#FFC225"/>
<path d="M74.8926 32.4573C74.8926 32.3276 74.9786 32.2118 75.1082 32.1813L81.8051 30.5927C81.9559 30.5573 82.1067 30.6524 82.1416 30.8037C82.174 30.9629 82.0818 31.1093 81.9335 31.1447L75.2366 32.7333C75.0858 32.7687 74.9349 32.6741 74.9 32.5223C74.895 32.5002 74.8926 32.478 74.8926 32.4573Z" fill="#FFC225"/>
<path d="M80.5824 33.5588L80.1162 33.2429L81.6593 30.9195L79.2575 29.5311L79.5367 29.0377L82.462 30.7292L80.5824 33.5588Z" fill="#FFC225"/>
<path d="M71.9149 52.9893C71.9149 52.9363 71.9286 52.8833 71.9585 52.8353C72.0445 52.7028 72.2165 52.665 72.3474 52.7495L78.1257 56.5285C78.2566 56.6155 78.2927 56.7884 78.2092 56.9209C78.1257 57.0534 77.9512 57.0912 77.8204 57.0054L72.0433 53.2277C71.9598 53.1722 71.9149 53.0814 71.9149 52.9893Z" fill="#FFC225"/>
<path d="M75.1668 57.6969L75.0695 57.1379L77.7917 56.6496L77.1124 53.9356L77.6558 53.7968L78.4834 57.1013L75.1668 57.6969Z" fill="#FFC225"/>
<path d="M76.4119 42.0801C76.4119 42.0612 76.4132 42.0397 76.4169 42.0195C76.4518 41.8656 76.6014 41.7685 76.7522 41.8038L83.4678 43.3128C83.6174 43.3469 83.7183 43.4945 83.6809 43.6523C83.646 43.8049 83.4965 43.9021 83.3456 43.8668L76.63 42.3577C76.5004 42.3287 76.4119 42.2113 76.4119 42.0801Z" fill="#FFC225"/>
<path d="M57.7134 49.2267C57.7134 48.8292 57.4641 48.4684 57.0964 48.3283C56.6066 48.1416 56.0569 48.3927 55.8737 48.8898C55.698 49.368 55.9522 49.9459 56.4283 50.1263C56.6664 50.2184 56.9244 50.2096 57.1538 50.1036C57.3856 49.9976 57.5613 49.8058 57.6511 49.5661C57.6922 49.4563 57.7134 49.3428 57.7134 49.2267ZM55.2518 49.2267C55.2518 49.0437 55.2842 48.862 55.3477 48.6904C55.6406 47.9018 56.5143 47.4993 57.2946 47.7959C58.0487 48.0848 58.4637 48.9933 58.1771 49.7655C58.0337 50.1478 57.7545 50.4519 57.3868 50.6209C57.0191 50.7887 56.6091 50.8026 56.2314 50.6588C55.6456 50.4355 55.2518 49.8601 55.2518 49.2267Z" fill="#FFC225"/>
<path d="M58.5211 49.9043C58.5211 49.9043 58.5211 49.8904 58.5348 49.8778C58.5348 49.8651 58.5348 49.8651 58.5348 49.8651C58.6083 49.6898 58.7965 49.6002 58.9822 49.6633C59.158 49.7264 59.2564 49.9282 59.1817 50.1188C59.1817 50.1188 59.1816 50.1188 59.1941 50.1188C59.1816 50.1427 59.1704 50.1566 59.1704 50.1692C59.0944 50.332 58.8962 50.4216 58.7205 50.3572C58.5846 50.2942 58.4961 50.1692 58.4961 50.0166C58.4961 49.9787 58.5086 49.9408 58.5211 49.9043ZM58.2356 47.4312C58.3852 47.3038 58.6083 47.3303 58.7329 47.4817C58.8588 47.6331 58.8327 47.8476 58.6831 47.9725C58.5348 48.0987 58.3216 48.0861 58.197 47.9347C58.1347 47.8716 58.1097 47.7833 58.1097 47.7076C58.1097 47.6066 58.1596 47.5057 58.2356 47.4312ZM57.0129 51.1521C57.2123 51.1155 57.3868 51.2405 57.4242 51.4423C57.4504 51.6329 57.3245 51.8082 57.1388 51.8474C56.9381 51.8713 56.7636 51.7464 56.7275 51.5559C56.7275 51.5433 56.7275 51.518 56.7275 51.5054C56.7275 51.3288 56.8509 51.1774 57.0129 51.1521ZM56.2401 46.5593C56.4396 46.5215 56.6153 46.6489 56.6515 46.8508C56.6889 47.0388 56.5517 47.2167 56.366 47.2533C56.1778 47.2912 55.9921 47.1524 55.9535 46.9644C55.9535 46.9518 55.9535 46.9253 55.9535 46.9013C55.9535 46.736 56.0781 46.5858 56.2401 46.5593ZM54.6959 50.4077C54.8579 50.2815 55.0685 50.3068 55.1932 50.4582C55.3191 50.6096 55.2929 50.8367 55.1433 50.9629C54.9937 51.089 54.7819 51.0651 54.6572 50.9124C54.5961 50.8506 54.57 50.761 54.57 50.6866C54.57 50.5856 54.6198 50.4847 54.6959 50.4077ZM54.2085 48.264C54.2708 48.0861 54.484 47.9851 54.6572 48.0621C54.8454 48.1239 54.9314 48.3271 54.8691 48.5151C54.808 48.7043 54.5962 48.7939 54.4204 48.7296C54.2708 48.6665 54.1848 48.5416 54.1848 48.3889C54.1848 48.351 54.196 48.3132 54.2085 48.264Z" fill="#FFC225"/>
<path d="M28.1874 49.2267C28.1874 49.1131 28.1674 48.9996 28.1263 48.8898C27.9431 48.3927 27.3947 48.1416 26.9048 48.3283C26.4287 48.5075 26.1732 49.0829 26.349 49.5661C26.4387 49.8058 26.6144 49.9976 26.8463 50.1036C27.0768 50.2096 27.3348 50.2184 27.5716 50.1263C27.9406 49.9875 28.1874 49.6254 28.1874 49.2267ZM25.727 49.2279C25.727 48.5945 26.1208 48.0192 26.7079 47.7959C27.4881 47.4993 28.3594 47.9018 28.6523 48.6904C28.934 49.4626 28.5264 50.3724 27.7686 50.6588C27.3922 50.8026 26.9821 50.79 26.6144 50.6209C26.2467 50.4519 25.9663 50.1478 25.8242 49.7655C25.7606 49.5926 25.727 49.4122 25.727 49.2279Z" fill="#FFC225"/>
<path d="M29.3428 48.0621C29.5173 47.9977 29.7292 48.0861 29.7915 48.264C29.8675 48.452 29.7678 48.6539 29.5921 48.7296C29.4064 48.7939 29.2057 48.7043 29.1309 48.5151C29.1184 48.4785 29.1185 48.4394 29.1185 48.3889C29.1185 48.2501 29.2057 48.1126 29.3428 48.0621ZM28.8069 50.4582C28.9327 50.3068 29.1558 50.2815 29.3067 50.4077C29.4562 50.5351 29.4674 50.761 29.3565 50.9124C29.2306 51.0651 29.0063 51.089 28.8567 50.9629C28.7695 50.8872 28.7333 50.7875 28.7333 50.6865C28.7333 50.6096 28.757 50.5213 28.8069 50.4582ZM27.361 46.8369C27.3872 46.6489 27.5729 46.5215 27.7599 46.5593L27.7599 46.5467C27.9481 46.5858 28.0839 46.7738 28.0478 46.9644C28.0104 47.1524 27.8346 47.2912 27.6365 47.2533C27.4732 47.2167 27.3485 47.0767 27.3485 46.9013C27.3485 46.8874 27.3486 46.8622 27.361 46.8369ZM26.5758 51.4423C26.6132 51.2405 26.8014 51.1155 26.9871 51.1521C27.1753 51.1774 27.2987 51.3679 27.275 51.5559C27.2488 51.7464 27.0631 51.8713 26.8637 51.8474C26.7017 51.8209 26.5758 51.6695 26.5758 51.4928C26.5758 51.4815 26.5758 51.455 26.5758 51.4423ZM25.2671 47.4817C25.4054 47.3303 25.6173 47.3038 25.7669 47.4312C25.9152 47.5561 25.9401 47.7832 25.8167 47.9347C25.6909 48.0734 25.4665 48.0987 25.3169 47.9725C25.2297 47.9107 25.1935 47.8085 25.1935 47.7075C25.1935 47.6192 25.2172 47.5435 25.2671 47.4817ZM25.0303 49.6633C25.206 49.6002 25.4054 49.6898 25.4665 49.8778C25.479 49.8778 25.4789 49.8904 25.4789 49.8904C25.5413 50.0796 25.4553 50.2815 25.2795 50.3572C25.0938 50.4216 24.8944 50.332 24.8321 50.1566L24.8321 50.1427L24.8184 50.1427C24.8184 50.1427 24.8184 50.1301 24.8184 50.1188C24.8184 50.1188 24.8184 50.1188 24.8059 50.1188C24.7934 50.0796 24.7934 50.0418 24.7934 50.0052C24.7934 49.8538 24.8819 49.7137 25.0303 49.6633Z" fill="#FFC225"/>
<path d="M33.001 52.9627C33.001 52.8668 33.0484 52.7735 33.1369 52.7192C33.2702 52.6397 33.4422 52.6826 33.522 52.8164C35.2956 55.8105 38.545 57.6716 42 57.6716C45.4563 57.6716 48.7056 55.8105 50.4793 52.8164C50.559 52.6826 50.7311 52.6397 50.8644 52.7192C50.999 52.8012 51.0389 52.9728 50.9616 53.1104C49.0858 56.2723 45.652 58.2382 42 58.2382C38.348 58.2382 34.9167 56.2723 33.0409 53.1104C33.0135 53.0624 33.001 53.0132 33.001 52.9627Z" fill="#FFC225"/>
<path d="M35.7244 53.335C35.7244 53.2466 35.7618 53.1457 35.8378 53.0826C35.8864 53.0322 35.9736 52.9817 36.0734 52.9817C36.1731 52.9817 36.2616 53.0195 36.3226 53.0952C36.4348 53.1962 36.461 53.4485 36.3226 53.5886C36.2616 53.663 36.1618 53.7009 36.0734 53.7009C35.9861 53.7009 35.8864 53.6504 35.8241 53.5886C35.7618 53.5255 35.7244 53.4359 35.7244 53.335Z" fill="#FFC225"/>
<path d="M46.0209 54.4327C46.1829 54.3318 46.3948 54.3948 46.4945 54.5589C46.5942 54.7229 46.5444 54.9513 46.3824 55.0522C46.2066 55.1532 45.9947 55.0888 45.895 54.9248C45.8576 54.8617 45.8452 54.7986 45.8452 54.7481C45.8452 54.622 45.9075 54.4958 46.0209 54.4327ZM44.0753 55.2781C44.2635 55.2276 44.4629 55.3285 44.5128 55.5191C44.5626 55.7071 44.4629 55.9089 44.2635 55.9594C44.0753 56.0099 43.8895 55.8976 43.8397 55.7071C43.826 55.6831 43.826 55.644 43.826 55.6187C43.826 55.4547 43.9257 55.3172 44.0753 55.2781ZM41.9938 55.5557C42.1932 55.5557 42.344 55.7197 42.344 55.9216C42.344 56.1121 42.1932 56.2635 41.9938 56.2635C41.8068 56.2635 41.6448 56.1121 41.6448 55.9216C41.6448 55.7197 41.8068 55.5557 41.9938 55.5557ZM39.4773 55.5191C39.5396 55.3285 39.7253 55.2162 39.9123 55.2667C39.9123 55.2667 39.9123 55.2667 39.9123 55.2781C40.1005 55.3286 40.2127 55.5191 40.1628 55.7071C40.1005 55.8976 39.9123 56.0099 39.7253 55.9594C39.5633 55.9089 39.4636 55.7702 39.4636 55.6187C39.4636 55.5822 39.4773 55.5557 39.4773 55.5191ZM37.4943 54.5589C37.594 54.3822 37.8059 54.3318 37.9816 54.4327C38.1424 54.5349 38.1923 54.7481 38.0925 54.9122C37.9928 55.0888 37.7809 55.1393 37.6189 55.0383C37.508 54.9753 37.4444 54.8617 37.4444 54.7368C37.4444 54.6724 37.4581 54.6093 37.4943 54.5589Z" fill="#FFC225"/>
<path d="M47.5789 53.335C47.5789 53.2466 47.615 53.1596 47.6786 53.0826C47.7409 53.0195 47.8269 52.9817 47.9266 52.9817C48.0264 52.9817 48.1136 53.0321 48.1759 53.0952C48.2881 53.1836 48.3143 53.4485 48.1759 53.5886C48.1136 53.6504 48.0139 53.7009 47.9266 53.7009C47.8406 53.7009 47.7409 53.663 47.6786 53.5886C47.6026 53.5116 47.5789 53.4246 47.5789 53.335Z" fill="#FFC225"/>
<path d="M31.9727 69.2205C31.9727 69.146 31.9989 69.0829 32.0612 69.0186C32.1111 68.9681 32.1721 68.9429 32.2469 68.9429C32.3217 68.9429 32.3965 68.9681 32.4463 69.0186C32.5585 69.1321 32.5461 69.334 32.4463 69.4224C32.3965 69.4728 32.3217 69.5119 32.2469 69.5119C32.1721 69.5119 32.1111 69.4728 32.0612 69.4224C31.9989 69.3719 31.9727 69.2974 31.9727 69.2205Z" fill="#FFC225"/>
<path d="M33.8423 68.312C33.9545 68.2111 34.1302 68.2363 34.23 68.3625C34.3284 68.4887 34.3035 68.6666 34.1801 68.7536C34.0542 68.8546 33.8797 68.8306 33.78 68.7031C33.7426 68.6527 33.7301 68.6022 33.7301 68.5391C33.7301 68.4521 33.7688 68.3625 33.8423 68.312Z" fill="#FFC225"/>
<path d="M35.4888 67.8452C35.4888 67.7707 35.5125 67.7064 35.5623 67.6433C35.6247 67.5928 35.6882 67.5688 35.7618 67.5688C35.8378 67.5688 35.9113 67.5928 35.9612 67.6433C36.0734 67.7707 36.0609 67.9461 35.9612 68.047C35.9113 68.0988 35.8378 68.1366 35.7618 68.1366C35.6882 68.1366 35.6247 68.0988 35.5623 68.047C35.5125 67.9966 35.4888 67.9209 35.4888 67.8452Z" fill="#FFC225"/>
<path d="M24.9468 69.223C24.9468 69.0665 25.0714 68.9404 25.2259 68.9404C26.0087 68.9404 26.3801 68.6476 26.8114 68.3107C27.2576 67.9612 27.7649 67.5651 28.7383 67.5651C29.713 67.5651 30.2203 67.9612 30.6665 68.3107C31.0977 68.6476 31.4692 68.9404 32.2519 68.9404C32.4064 68.9404 32.5311 69.0665 32.5311 69.223C32.5311 69.3795 32.4064 69.5069 32.2519 69.5069C31.2785 69.5069 30.7699 69.1094 30.3237 68.7599C29.8925 68.423 29.521 68.1316 28.7383 68.1316C27.9568 68.1316 27.5854 68.423 27.1541 68.7599C26.7079 69.1094 26.1994 69.5069 25.2259 69.5069C25.0714 69.5069 24.9468 69.3795 24.9468 69.223Z" fill="#FFC225"/>
<path d="M21.4281 67.8452C21.4281 67.7707 21.4668 67.7064 21.5166 67.6433C21.5665 67.5928 21.64 67.5688 21.7161 67.5688C21.7896 67.5688 21.8644 67.5928 21.9142 67.6433C22.0277 67.7833 22.014 67.9461 21.9142 68.047C21.8644 68.0988 21.7896 68.1366 21.7161 68.1366C21.64 68.1366 21.5665 68.0988 21.5166 68.047C21.4668 67.9966 21.4281 67.9209 21.4281 67.8452Z" fill="#FFC225"/>
<path d="M23.2479 68.3625C23.3476 68.2363 23.5221 68.2111 23.648 68.312C23.648 68.312 23.648 68.312 23.6355 68.312C23.7589 68.4016 23.7839 68.5896 23.6979 68.7031C23.5969 68.8306 23.4224 68.8546 23.2977 68.7536L23.2977 68.7675C23.2242 68.7031 23.1856 68.6161 23.1856 68.5391C23.1856 68.476 23.2105 68.4142 23.2479 68.3625Z" fill="#FFC225"/>
<path d="M24.9443 69.2205C24.9443 69.146 24.9804 69.0829 25.0303 69.0186C25.0801 68.9681 25.1549 68.9429 25.2297 68.9429C25.3057 68.9429 25.3668 68.9681 25.4291 69.0186C25.5288 69.1321 25.5288 69.334 25.4166 69.4224C25.3668 69.4728 25.3057 69.5119 25.2297 69.5119C25.1549 69.5119 25.0801 69.4728 25.0303 69.4224C24.9804 69.3719 24.9443 69.2974 24.9443 69.2205Z" fill="#FFC225"/>
<path d="M31.9715 71.3062C31.9715 71.1497 32.0973 71.0235 32.2519 71.0235C33.0346 71.0235 33.4061 70.7321 33.8361 70.3952C34.2848 70.0444 34.7908 69.6495 35.7655 69.6495C35.92 69.6495 36.0459 69.7769 36.0459 69.9334C36.0459 70.0898 35.92 70.216 35.7655 70.216C34.9815 70.216 34.6101 70.5087 34.1801 70.8444C33.7314 71.1951 33.2253 71.59 32.2519 71.59C32.0973 71.59 31.9715 71.4639 31.9715 71.3062Z" fill="#FFC225"/>
<path d="M24.9443 71.3036C24.9443 71.2406 24.9804 71.1636 25.0303 71.1005C25.0801 71.05 25.1549 71.0248 25.2297 71.0248C25.3057 71.0248 25.3668 71.05 25.4291 71.1005C25.5176 71.1901 25.5413 71.3907 25.4291 71.5055C25.3668 71.556 25.3057 71.5926 25.2297 71.5926C25.1549 71.5926 25.0801 71.556 25.0303 71.5055C24.9804 71.455 24.9443 71.3781 24.9443 71.3036Z" fill="#FFC225"/>
<path d="M30.2651 70.4318C30.3648 70.3069 30.5406 70.2942 30.6528 70.3813C30.7761 70.4822 30.8023 70.6601 30.7026 70.785C30.6141 70.9112 30.4409 70.9377 30.315 70.8355C30.2414 70.785 30.2028 70.6967 30.2028 70.6097C30.2028 70.5592 30.229 70.4949 30.2651 70.4318ZM28.7333 69.6495C28.8941 69.6495 29.0063 69.7769 29.0063 69.9283C29.0187 70.0924 28.8941 70.2173 28.7333 70.2173C28.5825 70.2173 28.4579 70.0924 28.4579 69.9283C28.4579 69.7769 28.5713 69.6495 28.7333 69.6495ZM26.8139 70.3939C26.9373 70.2942 27.113 70.3182 27.199 70.4444C27.2987 70.5706 27.275 70.7472 27.1491 70.8481C27.0245 70.9377 26.85 70.9251 26.764 70.7977C26.7253 70.7472 26.7017 70.6841 26.7017 70.6223C26.7017 70.5327 26.7378 70.4444 26.8139 70.3939Z" fill="#FFC225"/>
<path d="M31.9727 71.3036C31.9727 71.2406 31.9989 71.1636 32.0612 71.1005C32.1111 71.05 32.1846 71.0248 32.2469 71.0248C32.3217 71.0248 32.3965 71.05 32.4463 71.1005C32.5461 71.2014 32.5585 71.3781 32.4588 71.5055C32.3965 71.556 32.3217 71.5926 32.2469 71.5926C32.1721 71.5926 32.1111 71.556 32.0612 71.5055C31.9989 71.455 31.9727 71.3781 31.9727 71.3036Z" fill="#FFC225"/>
<path d="M21.4319 69.9334C21.4319 69.7769 21.5578 69.6495 21.7123 69.6495C22.687 69.6495 23.193 70.0444 23.6417 70.3952C24.0717 70.7321 24.4432 71.0235 25.2259 71.0235C25.3805 71.0235 25.5064 71.1497 25.5064 71.3061C25.5064 71.4639 25.3805 71.59 25.2259 71.59C24.2525 71.59 23.7464 71.1951 23.2977 70.8444C22.8677 70.5087 22.4963 70.216 21.7123 70.216C21.5578 70.216 21.4319 70.0898 21.4319 69.9334Z" fill="#FFC225"/>
<path d="M31.9727 73.3982C31.9727 73.3086 31.9989 73.2467 32.0612 73.1963C32.1111 73.1332 32.1721 73.1067 32.2469 73.1067C32.3217 73.1067 32.3965 73.1332 32.4463 73.1963C32.5461 73.2833 32.5585 73.4726 32.4588 73.5861C32.3965 73.6492 32.3217 73.6745 32.2469 73.6745C32.1721 73.6745 32.0986 73.6366 32.0487 73.5861C31.9989 73.5357 31.9727 73.4726 31.9727 73.3982Z" fill="#FFC225"/>
<path d="M33.8423 72.4758C33.9682 72.3875 34.1302 72.4014 34.23 72.5263C34.3284 72.6524 34.3035 72.8304 34.1801 72.9313C34.0542 73.0322 33.8797 73.0057 33.7925 72.8808C33.7426 72.8304 33.7301 72.7673 33.7301 72.7029C33.7301 72.6159 33.7688 72.5263 33.8423 72.4758Z" fill="#FFC225"/>
<path d="M35.4888 72.0216C35.4888 71.9459 35.5125 71.8714 35.5748 71.821C35.6246 71.7705 35.6882 71.7314 35.7618 71.7314C35.8378 71.7314 35.9113 71.7705 35.9612 71.821C36.0734 71.9345 36.0734 72.1225 35.9612 72.2234C35.9113 72.2739 35.8378 72.3004 35.7617 72.3004C35.6882 72.3004 35.6246 72.2739 35.5748 72.2108C35.5125 72.1604 35.4888 72.0973 35.4888 72.0216Z" fill="#FFC225"/>
<path d="M24.9468 73.3918C24.9468 73.2354 25.0714 73.1079 25.2259 73.1079C26.0087 73.1079 26.3801 72.8177 26.8114 72.4796C27.2576 72.1301 27.7649 71.7339 28.7383 71.7339C29.713 71.7339 30.2203 72.1301 30.6665 72.4796C31.0977 72.8177 31.4692 73.1079 32.2519 73.1079C32.4064 73.1079 32.5311 73.2354 32.5311 73.3918C32.5311 73.5483 32.4064 73.6745 32.2519 73.6745C31.2785 73.6745 30.7699 73.2795 30.3237 72.93C29.8925 72.5919 29.521 72.3017 28.7383 72.3017C27.9568 72.3017 27.5854 72.5919 27.1541 72.93C26.7079 73.2795 26.1994 73.6745 25.2259 73.6745C25.0714 73.6745 24.9468 73.5483 24.9468 73.3918Z" fill="#FFC225"/>
<path d="M21.4281 72.0216C21.4281 71.9459 21.4668 71.8714 21.5166 71.821C21.5665 71.7705 21.64 71.7314 21.7161 71.7314C21.7896 71.7314 21.8519 71.7705 21.9142 71.821C22.014 71.9345 22.0139 72.1225 21.9018 72.2234C21.8519 72.2739 21.7896 72.3004 21.7161 72.3004C21.64 72.3004 21.5665 72.2739 21.5166 72.2108C21.4668 72.1604 21.4281 72.0973 21.4281 72.0216Z" fill="#FFC225"/>
<path d="M23.2479 72.5263C23.3364 72.4014 23.5221 72.3875 23.648 72.4758C23.7589 72.5767 23.7838 72.7534 23.6854 72.8808C23.5969 73.0057 23.4224 73.0322 23.2977 72.9313C23.2242 72.8682 23.1856 72.7912 23.1856 72.7029C23.1856 72.6398 23.2105 72.5767 23.2479 72.5263Z" fill="#FFC225"/>
<path d="M24.9443 73.3982C24.9443 73.3086 24.9804 73.2467 25.0303 73.1963C25.0801 73.1332 25.1549 73.1067 25.2297 73.1067C25.3057 73.1067 25.3668 73.1332 25.4291 73.1963C25.5176 73.2707 25.5413 73.4726 25.4291 73.5861C25.3668 73.6492 25.3057 73.6745 25.2297 73.6745C25.1549 73.6745 25.0801 73.6492 25.0303 73.5861C24.9804 73.5357 24.9443 73.4726 24.9443 73.3982Z" fill="#FFC225"/>
<path d="M51.4664 69.2205C51.4664 69.146 51.5038 69.0691 51.5537 69.0186C51.6035 68.9681 51.6796 68.9429 51.7531 68.9429C51.8279 68.9429 51.8915 68.9681 51.9525 69.0186C52.0647 69.146 52.0535 69.3214 51.9525 69.4224C51.8915 69.4728 51.8279 69.5119 51.7531 69.5119C51.6796 69.5119 51.6035 69.4728 51.5537 69.4224C51.5038 69.3719 51.4664 69.2974 51.4664 69.2205Z" fill="#FFC225"/>
<path d="M49.7713 68.3625C49.8723 68.2363 50.0455 68.2111 50.1714 68.312L50.1577 68.312C50.2836 68.4016 50.3073 68.5896 50.2076 68.7031C50.1216 68.8306 49.9458 68.8546 49.8224 68.7536C49.8224 68.7536 49.8224 68.7536 49.8224 68.7675C49.7464 68.7031 49.7103 68.6161 49.7103 68.5391C49.7103 68.476 49.7339 68.4142 49.7713 68.3625Z" fill="#FFC225"/>
<path d="M47.9528 67.8452C47.9528 67.7707 47.9902 67.7064 48.0388 67.6433C48.0887 67.5928 48.1635 67.5688 48.2382 67.5688C48.3143 67.5688 48.3754 67.5928 48.4377 67.6433C48.5499 67.7568 48.5374 67.9587 48.4252 68.0597C48.3753 68.0988 48.3143 68.1366 48.2382 68.1366C48.1635 68.1366 48.0887 68.0988 48.0388 68.047C47.9902 67.9966 47.9528 67.9209 47.9528 67.8452Z" fill="#FFC225"/>
<path d="M51.4689 69.223C51.4689 69.0665 51.5935 68.9404 51.7481 68.9404C52.5308 68.9404 52.9035 68.6476 53.3348 68.3107C53.7822 67.9612 54.2895 67.5651 55.263 67.5651C56.2364 67.5651 56.7437 67.9612 57.1912 68.3107C57.6212 68.6476 57.9926 68.9404 58.7753 68.9404C58.9299 68.9404 59.0558 69.0665 59.0558 69.223C59.0558 69.3795 58.9299 69.5069 58.7753 69.5069C57.8019 69.5069 57.2946 69.1094 56.8472 68.7599C56.4171 68.423 56.0457 68.1316 55.263 68.1316C54.4802 68.1316 54.1088 68.423 53.6775 68.7599C53.2301 69.1094 52.724 69.5069 51.7481 69.5069C51.5935 69.5069 51.4689 69.3795 51.4689 69.223Z" fill="#FFC225"/>
<path d="M62.0122 67.8452C62.0122 67.7707 62.0359 67.7064 62.0982 67.6433C62.1481 67.5928 62.2104 67.5688 62.2864 67.5688C62.36 67.5688 62.436 67.5928 62.4859 67.6433C62.5981 67.7569 62.5981 67.9587 62.4859 68.0597C62.436 68.0988 62.36 68.1366 62.2864 68.1366C62.2104 68.1366 62.1481 68.0988 62.0982 68.047C62.0359 67.9966 62.0122 67.9209 62.0122 67.8452Z" fill="#FFC225"/>
<path d="M60.3657 68.312L60.3545 68.312C60.4779 68.2111 60.6661 68.2363 60.7521 68.3625C60.8518 68.476 60.8282 68.6666 60.7023 68.7536C60.5776 68.8546 60.4044 68.8306 60.3159 68.7031C60.266 68.6527 60.2548 68.5896 60.2548 68.5391C60.2548 68.4521 60.291 68.3625 60.3657 68.312Z" fill="#FFC225"/>
<path d="M58.4961 69.2205C58.4961 69.146 58.5211 69.0829 58.5846 69.0186C58.6332 68.9681 58.6968 68.9429 58.7703 68.9429C58.8588 68.9429 58.9199 68.9681 58.9698 69.0186C59.082 69.1321 59.082 69.334 58.9698 69.4224C58.9199 69.4728 58.8464 69.5119 58.7703 69.5119C58.708 69.5119 58.6332 69.4728 58.5846 69.4224C58.5211 69.3719 58.4961 69.2974 58.4961 69.2205Z" fill="#FFC225"/>
<path d="M47.9553 69.9334C47.9553 69.7769 48.0812 69.6495 48.2358 69.6495C49.2092 69.6495 49.7177 70.0444 50.1639 70.3952C50.5952 70.7321 50.9654 71.0235 51.7481 71.0235C51.9027 71.0235 52.0285 71.1497 52.0285 71.3062C52.0285 71.4639 51.9027 71.59 51.7481 71.59C50.7747 71.59 50.2674 71.1951 49.8212 70.8444C49.3899 70.5075 49.0185 70.216 48.2358 70.216C48.0812 70.216 47.9553 70.0898 47.9553 69.9334Z" fill="#FFC225"/>
<path d="M58.4961 71.3036C58.4961 71.2267 58.5211 71.1636 58.5846 71.1005C58.6332 71.05 58.708 71.0248 58.7828 71.0248C58.8464 71.0248 58.9199 71.05 58.9698 71.1005C59.0695 71.1901 59.082 71.3907 58.9698 71.5055C58.9199 71.556 58.8588 71.5926 58.7828 71.5926C58.6968 71.5926 58.6332 71.556 58.5846 71.5055C58.5211 71.455 58.4961 71.3781 58.4961 71.3036Z" fill="#FFC225"/>
<path d="M56.7886 70.4444C56.8883 70.3182 57.0752 70.2942 57.1887 70.3939C57.3121 70.4948 57.3382 70.6728 57.2385 70.7977C57.15 70.9112 56.9768 70.9377 56.8509 70.8481C56.7774 70.785 56.7387 70.7093 56.7387 70.6223C56.7387 70.5592 56.7512 70.4948 56.7886 70.4444ZM55.2692 69.6495C55.4312 69.6495 55.5546 69.7769 55.5422 69.9397C55.5422 70.0923 55.4312 70.2173 55.2692 70.2173C55.1196 70.2173 54.9937 70.0924 54.9937 69.9283C54.9937 69.7769 55.1196 69.6495 55.2692 69.6495ZM53.3497 70.3939C53.4731 70.2942 53.6476 70.3182 53.7349 70.4444C53.8346 70.5592 53.8109 70.7472 53.685 70.8355C53.5616 70.9251 53.3859 70.9112 53.2999 70.785C53.25 70.7346 53.2376 70.6728 53.2376 70.6097C53.2376 70.5327 53.2737 70.4444 53.3497 70.3939Z" fill="#FFC225"/>
<path d="M51.4664 71.3036C51.4664 71.2267 51.4914 71.1636 51.5537 71.1005C51.6035 71.05 51.6796 71.0248 51.7531 71.0248C51.8154 71.0248 51.8914 71.05 51.9413 71.1005C52.041 71.1901 52.0647 71.3907 51.9413 71.5055C51.8914 71.556 51.8279 71.5926 51.7531 71.5926C51.6796 71.5926 51.6035 71.556 51.5537 71.5055C51.4914 71.455 51.4664 71.3781 51.4664 71.3036Z" fill="#FFC225"/>
<path d="M58.4961 71.3062C58.4961 71.1497 58.6208 71.0235 58.7753 71.0235C59.5581 71.0235 59.9295 70.7321 60.3608 70.3952C60.807 70.0444 61.3142 69.6495 62.2877 69.6495C62.4435 69.6495 62.5681 69.7769 62.5681 69.9334C62.5681 70.0898 62.4435 70.216 62.2877 70.216C61.5062 70.216 61.1348 70.5075 60.7035 70.8444C60.2573 71.1951 59.7488 71.59 58.7753 71.59C58.6208 71.59 58.4961 71.4639 58.4961 71.3062Z" fill="#FFC225"/>
<path d="M51.4664 73.3982C51.4664 73.3086 51.4914 73.2467 51.5537 73.1963C51.6035 73.1332 51.6796 73.1067 51.7531 73.1067C51.8279 73.1067 51.8915 73.1332 51.9525 73.1963C52.041 73.2707 52.0647 73.4726 51.9413 73.5861C51.8914 73.6492 51.8279 73.6745 51.7531 73.6745C51.6796 73.6745 51.6035 73.6492 51.5537 73.5861C51.4914 73.5357 51.4664 73.4726 51.4664 73.3982Z" fill="#FFC225"/>
<path d="M49.7713 72.5263C49.8598 72.4014 50.0455 72.3875 50.1714 72.4758C50.2836 72.5767 50.3073 72.7534 50.22 72.8808C50.1215 73.0057 49.9458 73.0322 49.8224 72.9313C49.7464 72.8808 49.7103 72.7912 49.7103 72.7029C49.7103 72.6398 49.7339 72.5767 49.7713 72.5263Z" fill="#FFC225"/>
<path d="M47.9528 72.0216C47.9528 71.9459 47.9902 71.8714 48.0388 71.821C48.0887 71.7705 48.1635 71.7314 48.2382 71.7314C48.3143 71.7314 48.3878 71.7705 48.4377 71.821C48.5499 71.9459 48.5374 72.1099 48.4377 72.2108C48.3878 72.2739 48.3143 72.3004 48.2382 72.3004C48.1635 72.3004 48.0887 72.2739 48.0388 72.2108C47.9902 72.1604 47.9528 72.0973 47.9528 72.0216Z" fill="#FFC225"/>
<path d="M51.4689 73.3918C51.4689 73.2354 51.5935 73.1079 51.7481 73.1079C52.5321 73.1079 52.9035 72.8165 53.3348 72.4796C53.7822 72.1301 54.2895 71.7339 55.263 71.7339C56.2364 71.7339 56.7437 72.1301 57.1912 72.4796C57.6212 72.8177 57.9926 73.1079 58.7753 73.1079C58.9299 73.1079 59.0558 73.2354 59.0558 73.3918C59.0558 73.5483 58.9299 73.6745 58.7753 73.6745C57.8019 73.6745 57.2946 73.2795 56.8472 72.93C56.4171 72.5919 56.0457 72.3017 55.263 72.3017C54.4802 72.3017 54.1088 72.5919 53.6775 72.93C53.2301 73.2795 52.724 73.6745 51.7481 73.6745C51.5935 73.6745 51.4689 73.5483 51.4689 73.3918Z" fill="#FFC225"/>
<path d="M62.0122 72.0216C62.0122 71.9459 62.0359 71.8714 62.0858 71.821C62.1481 71.7705 62.2104 71.7314 62.2864 71.7314C62.36 71.7314 62.436 71.7705 62.4859 71.821C62.598 71.9219 62.5856 72.1225 62.4859 72.2234C62.436 72.2739 62.36 72.3004 62.2864 72.3004C62.2104 72.3004 62.1481 72.2739 62.0858 72.2108C62.0359 72.1604 62.0122 72.0859 62.0122 72.0216Z" fill="#FFC225"/>
<path d="M60.3657 72.4758L60.3545 72.4758C60.4779 72.3875 60.6661 72.4014 60.7521 72.5263C60.8518 72.6524 60.8282 72.8304 60.7023 72.9313C60.5776 73.0322 60.4044 73.0057 60.3047 72.8808C60.266 72.8304 60.2548 72.7673 60.2548 72.7029C60.2548 72.6159 60.291 72.5389 60.3657 72.4758Z" fill="#FFC225"/>
<path d="M58.4961 73.3982C58.4961 73.3212 58.5211 73.2467 58.5846 73.1963C58.6332 73.1332 58.708 73.1067 58.7703 73.1067C58.8464 73.1067 58.9199 73.1332 58.9698 73.1963C59.0695 73.2707 59.082 73.4726 58.9698 73.5862C58.9199 73.6492 58.8588 73.6745 58.7703 73.6745C58.6968 73.6745 58.6332 73.6492 58.5846 73.5861C58.5211 73.5357 58.4961 73.4612 58.4961 73.3982Z" fill="#FFC225"/>
<path d="M44.6985 70.6463C44.8605 70.6463 44.9864 70.7737 44.9864 70.9251C44.9864 70.9377 44.9864 70.9491 44.9864 70.9617C44.9864 71.1131 44.8605 71.2532 44.6985 71.2532C44.5489 71.2532 44.4242 71.1131 44.4242 70.9617L44.4242 70.9491C44.4242 70.9377 44.4242 70.9377 44.4242 70.9377C44.4242 70.9251 44.4242 70.9251 44.4242 70.9251C44.4242 70.7737 44.5489 70.6463 44.6985 70.6463ZM43.9394 72.4884C44.0254 72.3622 44.2012 72.337 44.3246 72.4253C44.4492 72.5149 44.4741 72.7029 44.3869 72.8304C44.2996 72.9553 44.1251 72.9818 44.0017 72.8922C43.9257 72.8304 43.8758 72.7408 43.8758 72.6663C43.8758 72.602 43.902 72.5389 43.9394 72.4884ZM43.9756 69.006C44.1014 68.9176 44.2747 68.9429 44.3632 69.0691C44.4629 69.1965 44.4367 69.3719 44.3133 69.4728C44.1874 69.5624 44.0129 69.5359 43.9132 69.411C43.8758 69.3605 43.8634 69.2974 43.8634 69.247C43.8634 69.1574 43.902 69.0691 43.9756 69.006ZM42.6556 73.4486C42.7915 73.3843 42.9548 73.4726 43.0046 73.624C43.0532 73.764 42.9784 73.9281 42.8289 73.9785C42.6793 74.029 42.5173 73.9394 42.4674 73.8006C42.4674 73.764 42.455 73.7376 42.455 73.7136C42.455 73.5861 42.5297 73.4726 42.6556 73.4486ZM42.4437 68.1227C42.4799 67.9713 42.6432 67.8843 42.7915 67.9347C42.941 67.9852 43.0171 68.1492 42.9784 68.2868C42.9286 68.4382 42.7665 68.5265 42.617 68.476C42.5048 68.4382 42.43 68.3246 42.43 68.2111C42.43 68.1732 42.43 68.1492 42.4437 68.1227ZM40.71 73.624C40.7598 73.4852 40.9219 73.3981 41.059 73.4486C41.2085 73.4991 41.297 73.6492 41.2472 73.8006C41.1973 73.952 41.0353 74.029 40.8857 73.9899C40.7735 73.952 40.6975 73.8385 40.6975 73.7136C40.6975 73.6871 40.6975 73.6631 40.71 73.624ZM40.8471 67.9461C40.8471 67.9461 40.8471 67.9461 40.8471 67.9587C40.9966 67.9082 41.1587 67.9852 41.2086 68.1366C41.2584 68.2741 41.1836 68.4382 41.0353 68.4887C40.8857 68.5391 40.7237 68.4647 40.6738 68.312C40.6738 68.2868 40.6601 68.2502 40.6601 68.2237C40.6601 68.1101 40.7349 67.9966 40.8471 67.9461ZM39.3776 72.4518C39.5134 72.3509 39.6892 72.3749 39.7752 72.5023C39.8624 72.6272 39.8388 72.8039 39.7129 72.9048C39.5895 72.9931 39.4137 72.9679 39.3277 72.8417C39.2891 72.7912 39.2654 72.7281 39.2654 72.6777C39.2654 72.5893 39.3015 72.5023 39.3776 72.4518ZM39.3015 69.1195C39.3888 68.9934 39.5633 68.9555 39.6892 69.0564C39.8126 69.146 39.8512 69.3214 39.7502 69.4476C39.663 69.5738 39.4885 69.599 39.3639 69.5119C39.2891 69.4615 39.2517 69.3719 39.2517 69.2836C39.2517 69.2205 39.2654 69.17 39.3015 69.1195ZM38.7157 70.9882C38.7157 70.8242 38.8404 70.6967 38.9899 70.6967C39.152 70.6967 39.2779 70.8241 39.2779 70.9756C39.2779 71.1396 39.152 71.2645 39.0024 71.2645C38.8404 71.2645 38.7157 71.1396 38.7157 70.9882Z" fill="#FFC225"/>
<path d="M42.7666 70.963C42.7666 70.4507 42.354 70.0343 41.8479 70.0343C41.3419 70.0343 40.9294 70.4507 40.9294 70.963C40.9294 71.4752 41.3419 71.8929 41.8479 71.8929C42.354 71.8929 42.7666 71.4752 42.7666 70.963ZM39.9946 70.963C39.9946 69.9296 40.8259 69.088 41.8479 69.088C42.87 69.088 43.7014 69.9296 43.7014 70.963C43.7014 71.9976 42.87 72.8392 41.8479 72.8392C40.8259 72.8392 39.9946 71.9976 39.9946 70.963Z" fill="#FFC225"/>
<path d="M37.9804 1.85875C37.9804 1.81875 37.9866 1.77989 38.004 1.74292C38.0676 1.59946 38.2334 1.53536 38.3742 1.59946C40.1803 2.41909 41.4865 4.07022 42 4.79964C42.5135 4.07022 43.821 2.41909 45.627 1.59946C45.7691 1.53536 45.9337 1.59946 45.9972 1.74292C46.062 1.87793 45.9997 2.05344 45.8564 2.11703C43.7076 3.09438 42.253 5.43305 42.2393 5.45627C42.1882 5.53904 42.0972 5.58925 42 5.58925C41.9028 5.58925 41.8131 5.53904 41.762 5.45627C41.747 5.43154 40.2937 3.09438 38.1449 2.11703C38.0402 2.07022 37.9804 1.96663 37.9804 1.85875Z" fill="#FFC225"/>
<path d="M22.3106 43.9929C22.3106 43.8365 22.4365 43.709 22.591 43.709C23.0385 43.709 23.2604 43.4529 23.5857 43.0353C23.8935 42.6391 24.2762 42.1457 25.0203 42.1457C25.7631 42.1457 26.1458 42.6391 26.4536 43.0353C26.7789 43.4529 27.0008 43.709 27.4483 43.709C27.897 43.709 28.1176 43.4529 28.4416 43.0353C28.7495 42.6391 29.1334 42.1457 29.8762 42.1457C30.6191 42.1457 31.0017 42.6391 31.3096 43.0353C31.6337 43.4529 31.8543 43.709 32.3017 43.709C32.748 43.709 32.9698 43.4529 33.2939 43.0353C33.6018 42.6391 33.9832 42.1457 34.7273 42.1457C35.4714 42.1457 35.8528 42.6391 36.1619 43.0353C36.4847 43.4529 36.7065 43.709 37.1528 43.709C37.6015 43.709 37.8233 43.4529 38.1461 43.0353C38.454 42.6391 38.8366 42.1457 39.5795 42.1457C40.3224 42.1457 40.705 42.6391 41.0129 43.0353C41.3369 43.4529 41.5588 43.709 42.005 43.709C42.4512 43.709 42.6731 43.4529 42.9971 43.0353C43.3037 42.6391 43.6876 42.1457 44.4292 42.1457C45.1733 42.1457 45.556 42.6391 45.8638 43.0353C46.1879 43.4529 46.4085 43.709 46.856 43.709C47.3034 43.709 47.5253 43.4529 47.8494 43.0353C48.1572 42.6391 48.5399 42.1457 49.2827 42.1457C50.0256 42.1457 50.4082 42.6391 50.7149 43.0353C51.0389 43.4529 51.2608 43.709 51.707 43.709C52.1557 43.709 52.3763 43.4529 52.7004 43.0353C53.0082 42.6391 53.3909 42.1457 54.1337 42.1457C54.8766 42.1457 55.2592 42.6391 55.5671 43.0353C55.8912 43.4529 56.1118 43.709 56.5592 43.709C57.0067 43.709 57.2285 43.4529 57.5526 43.0353C57.8605 42.6391 58.2419 42.1457 58.9847 42.1457C59.7276 42.1457 60.1102 42.6391 60.4181 43.0353C60.7409 43.4529 60.9628 43.709 61.409 43.709C61.5635 43.709 61.6894 43.8365 61.6894 43.9929C61.6894 44.1494 61.5635 44.2768 61.409 44.2768C60.6674 44.2768 60.2835 43.7835 59.9769 43.3873C59.6528 42.9684 59.4309 42.7122 58.9847 42.7122C58.5385 42.7122 58.3167 42.9684 57.9926 43.3873C57.6847 43.7835 57.3021 44.2768 56.5592 44.2768C55.8164 44.2768 55.4337 43.7835 55.1259 43.3873C54.803 42.9684 54.5812 42.7122 54.1337 42.7122C53.6863 42.7122 53.4644 42.9684 53.1416 43.3873C52.8337 43.7835 52.4511 44.2768 51.707 44.2768C50.9654 44.2768 50.5815 43.7835 50.2749 43.3873C49.9508 42.9684 49.729 42.7122 49.2827 42.7122C48.8353 42.7122 48.6134 42.9684 48.2893 43.3873C47.9815 43.7835 47.5976 44.2768 46.856 44.2768C46.1131 44.2768 45.7305 43.7835 45.4226 43.3873C45.0986 42.9684 44.8779 42.7122 44.4292 42.7122C43.983 42.7122 43.7612 42.9684 43.4371 43.3873C43.1305 43.7835 42.7478 44.2768 42.005 44.2768C41.2621 44.2768 40.8807 43.7835 40.5729 43.3873C40.2488 42.9684 40.027 42.7122 39.5795 42.7122C39.132 42.7122 38.9114 42.9684 38.5874 43.3873C38.2795 43.7835 37.8969 44.2768 37.1528 44.2768C36.4111 44.2768 36.0285 43.7835 35.7206 43.3873C35.3966 42.9684 35.176 42.7122 34.7273 42.7122C34.2798 42.7122 34.058 42.9684 33.7339 43.3873C33.426 43.7835 33.0446 44.2768 32.3017 44.2768C31.5589 44.2768 31.1775 43.7835 30.8684 43.3873C30.5456 42.9684 30.3237 42.7122 29.8762 42.7122C29.4275 42.7122 29.2057 42.9684 28.8829 43.3873C28.575 43.7835 28.1911 44.2768 27.4483 44.2768C26.7054 44.2768 26.3215 43.7835 26.0136 43.3873C25.6896 42.9684 25.4677 42.7122 25.0203 42.7122C24.5728 42.7122 24.351 42.9684 24.0256 43.3873C23.7178 43.7835 23.3351 44.2768 22.591 44.2768C22.4365 44.2768 22.3106 44.1494 22.3106 43.9929Z" fill="#FFC225"/>
<path d="M24.2213 39.9629C24.2213 39.8582 24.2787 39.7572 24.3771 39.708C24.5716 39.6109 24.7884 39.5629 25.0203 39.5629C25.7631 39.5629 26.1458 40.0563 26.4536 40.4525C26.7789 40.8701 27.0008 41.1275 27.4483 41.1275C27.897 41.1275 28.1176 40.8701 28.4416 40.4525C28.7495 40.0563 29.1334 39.5629 29.8762 39.5629C30.6191 39.5629 31.0017 40.0563 31.3096 40.4525C31.6337 40.8701 31.8543 41.1275 32.3017 41.1275C32.748 41.1275 32.9698 40.8701 33.2939 40.4525C33.6018 40.0563 33.9832 39.5629 34.7273 39.5629C35.4714 39.5629 35.8528 40.0563 36.1619 40.4525C36.4847 40.8701 36.7065 41.1275 37.1528 41.1275C37.6015 41.1275 37.8233 40.8701 38.1461 40.4525C38.454 40.0563 38.8366 39.5629 39.5795 39.5629C40.3224 39.5629 40.705 40.0563 41.0129 40.4525C41.3369 40.8701 41.5588 41.1275 42.005 41.1275C42.4512 41.1275 42.6731 40.8701 42.9971 40.4525C43.3037 40.0563 43.6876 39.5629 44.4292 39.5629C45.1733 39.5629 45.556 40.0563 45.8638 40.4525C46.1879 40.8701 46.4085 41.1275 46.856 41.1275C47.3034 41.1275 47.5253 40.8701 47.8494 40.4525C48.1572 40.0563 48.5399 39.5629 49.2827 39.5629C50.0256 39.5629 50.4082 40.0563 50.7149 40.4525C51.0389 40.8701 51.2608 41.1275 51.707 41.1275C52.1557 41.1275 52.3763 40.8701 52.7004 40.4525C53.0082 40.0563 53.3909 39.5629 54.1337 39.5629C54.8766 39.5629 55.2592 40.0563 55.5671 40.4525C55.8912 40.8701 56.1118 41.1275 56.5592 41.1275C57.0067 41.1275 57.2285 40.8701 57.5526 40.4525C57.8605 40.0563 58.2419 39.5629 58.9847 39.5629C59.2253 39.5629 59.4409 39.6121 59.6416 39.7143C59.7812 39.785 59.8385 39.9528 59.7662 40.0966C59.6952 40.2354 59.5282 40.2922 59.3886 40.2228C59.2689 40.161 59.1355 40.1294 58.9847 40.1294C58.5385 40.1294 58.3167 40.3868 57.9926 40.8045C57.6847 41.2007 57.3021 41.694 56.5592 41.694C55.8164 41.694 55.4337 41.2007 55.1259 40.8045C54.803 40.3868 54.5812 40.1294 54.1337 40.1294C53.6863 40.1294 53.4644 40.3868 53.1416 40.8045C52.8337 41.2007 52.4511 41.694 51.707 41.694C50.9654 41.694 50.5815 41.2007 50.2749 40.8045C49.9508 40.3868 49.729 40.1294 49.2827 40.1294C48.8353 40.1294 48.6134 40.3868 48.2893 40.8045C47.9815 41.2007 47.5976 41.694 46.856 41.694C46.1131 41.694 45.7305 41.2007 45.4226 40.8045C45.0986 40.3868 44.8779 40.1294 44.4292 40.1294C43.983 40.1294 43.7612 40.3868 43.4371 40.8045C43.1305 41.2007 42.7478 41.694 42.005 41.694C41.2621 41.694 40.8807 41.2007 40.5729 40.8045C40.2488 40.3868 40.027 40.1294 39.5795 40.1294C39.132 40.1294 38.9114 40.3868 38.5874 40.8045C38.2795 41.2007 37.8969 41.694 37.1528 41.694C36.4111 41.694 36.0285 41.2007 35.7206 40.8045C35.3966 40.3868 35.176 40.1294 34.7273 40.1294C34.2798 40.1294 34.058 40.3868 33.7339 40.8045C33.426 41.2007 33.0446 41.694 32.3017 41.694C31.5589 41.694 31.1775 41.2007 30.8684 40.8045C30.5456 40.3868 30.3237 40.1294 29.8762 40.1294C29.4275 40.1294 29.2057 40.3868 28.8829 40.8045C28.575 41.2007 28.1911 41.694 27.4483 41.694C26.7054 41.694 26.3215 41.2007 26.0136 40.8045C25.6896 40.3868 25.4677 40.1294 25.0203 40.1294C24.872 40.1294 24.7423 40.1585 24.6264 40.2178C24.4856 40.2872 24.3186 40.2291 24.25 40.0878C24.2301 40.0474 24.2213 40.0045 24.2213 39.9629Z" fill="#FFC225"/>
<path d="M72.0707 11.1045C72.0707 6.11326 66.7124 1.48855 60.3682 1.00807C55.2318 0.617687 50.4743 2.09634 47.3147 5.06336C45.3192 6.93631 44.1637 9.20696 44.0254 11.5027C45.3354 10.9395 48.4152 9.83052 52.5857 9.68264C58.1858 9.48442 59.2141 11.287 59.3125 11.4939C59.34 11.5536 59.3561 11.6172 59.3586 11.6842C59.5045 15.9362 62.3861 17.8412 64.8091 18.1797C66.2151 18.3759 68.2816 18.0999 69.8621 16.7322C71.2805 15.5049 72.0233 13.6577 72.0694 11.2431L72.0707 11.1045ZM43.0757 11.9686C43.0757 9.24885 44.3557 6.55034 46.679 4.36939C50.0293 1.22396 55.0436 -0.345918 60.4393 0.0641531C67.3692 0.590558 73.0055 5.54244 73.0055 11.1045L73.0042 11.2598C72.9531 13.9582 72.1006 16.0406 70.4691 17.4518C68.6531 19.0225 66.2874 19.3419 64.6795 19.1162C61.925 18.7317 58.6532 16.5976 58.4301 11.8527C58.2095 11.5924 57.0017 10.4736 52.6181 10.629C47.3271 10.8167 43.7986 12.6463 43.7637 12.6646C43.6216 12.7384 43.4508 12.735 43.3137 12.6537C43.1754 12.5708 43.0869 12.4229 43.0806 12.2603L43.0757 11.9686Z" fill="#FFC225"/>
<path d="M81.0947 45.449L80.8105 44.9594L83.1961 43.5425L81.6269 41.2373L82.0893 40.9155L84 43.7242L81.0947 45.449Z" fill="#FFC225"/>
</svg>
